<svg width="83" height="83" viewBox="0 0 83 83" fill="none" xmlns="http://www.w3.org/2000/svg">
<path fill-rule="evenodd" clip-rule="evenodd" d="M41.5 0.25C18.7183 0.25 0.25 18.7181 0.25 41.5C0.25 64.2817 18.7183 82.75 41.5 82.75C64.2819 82.75 82.75 64.2817 82.75 41.5C82.75 18.7181 64.2819 0.25 41.5 0.25ZM41.5 74.5C23.3038 74.5 8.5 59.6962 8.5 41.5C8.5 23.3038 23.3038 8.5 41.5 8.5C59.6964 8.5 74.5 23.3038 74.5 41.5C74.5 59.6962 59.6964 74.5 41.5 74.5ZM46.6653 25C46.6653 27.9908 44.4877 30.1563 41.5419 30.1563C38.4769 30.1563 36.3528 27.9908 36.3528 24.9428C36.3528 22.0133 38.5344 19.8438 41.5419 19.8438C44.4877 19.8438 46.6653 22.0133 46.6653 25ZM37.384 37.375H45.634V62.125H37.384V37.375Z" fill="#B2B8C5"/>
</svg>
