<svg width="22" height="22" viewBox="0 0 22 22" fill="none" xmlns="http://www.w3.org/2000/svg">
<path d="M14.7666 7.23342C13.7677 6.23266 12.4139 5.66706 11 5.65984C10.2988 5.65685 9.60421 5.7946 8.95724 6.06489C8.31026 6.33518 7.7241 6.73253 7.23344 7.23342C6.49042 7.98017 5.98485 8.92995 5.78036 9.96334C5.57586 10.9967 5.68158 12.0675 6.0842 13.041C6.48683 14.0144 7.16837 14.8471 8.04308 15.4341C8.91779 16.0212 9.94658 16.3364 11 16.3401C11.7012 16.3431 12.3958 16.2053 13.0428 15.935C13.6897 15.6647 14.2759 15.2674 14.7666 14.7665C15.768 13.768 16.334 12.4141 16.3412 11C16.3439 10.2987 16.206 9.60409 15.9355 8.95713C15.665 8.31017 15.2676 7.72406 14.7666 7.23342ZM13.7551 13.755C13.1165 14.4072 12.2712 14.8173 11.3637 14.9151C10.4562 15.013 9.54285 14.7925 8.77993 14.2914C8.017 13.7903 7.45185 13.0398 7.18113 12.1681C6.9104 11.2964 6.95092 10.3578 7.29574 9.51263C7.64057 8.66751 8.26829 7.96845 9.07155 7.53497C9.87481 7.10149 10.8037 6.96054 11.6994 7.13621C12.5951 7.31188 13.402 7.79328 13.982 8.49806C14.562 9.20284 14.8791 10.0872 14.8792 11C14.8844 12.031 14.4801 13.022 13.7551 13.755Z" fill="#23355F"/>
<path d="M20.894 10.269H18.7297C18.5358 10.269 18.3499 10.346 18.2128 10.4831C18.0757 10.6202 17.9987 10.8062 17.9987 11C17.9987 11.1939 18.0757 11.3799 18.2128 11.5169C18.3499 11.654 18.5358 11.731 18.7297 11.731H20.894C21.0879 11.731 21.2738 11.654 21.4109 11.5169C21.548 11.3799 21.625 11.1939 21.625 11C21.625 10.8062 21.548 10.6202 21.4109 10.4831C21.2738 10.346 21.0879 10.269 20.894 10.269Z" fill="#23355F"/>
<path d="M11 17.9987C10.8072 18.0019 10.6232 18.08 10.4868 18.2164C10.3504 18.3528 10.2723 18.5369 10.269 18.7297V20.894C10.269 20.99 10.288 21.085 10.3247 21.1737C10.3614 21.2624 10.4153 21.343 10.4831 21.4109C10.551 21.4787 10.6316 21.5326 10.7203 21.5694C10.809 21.6061 10.904 21.625 11 21.625C11.096 21.625 11.1911 21.6061 11.2798 21.5694C11.3685 21.5326 11.4491 21.4787 11.5169 21.4109C11.5848 21.343 11.6387 21.2624 11.6754 21.1737C11.7121 21.085 11.731 20.99 11.731 20.894V18.7297C11.7278 18.5369 11.6497 18.3528 11.5133 18.2164C11.3769 18.08 11.1929 18.0019 11 17.9987Z" fill="#23355F"/>
<path d="M18.5055 17.493L16.9596 15.947C16.8254 15.8129 16.6435 15.7375 16.4538 15.7375C16.2641 15.7375 16.0822 15.8129 15.9481 15.947C15.8139 16.0811 15.7386 16.2631 15.7386 16.4528C15.7386 16.6425 15.8139 16.8243 15.9481 16.9585L17.494 18.5055C17.5595 18.5761 17.6386 18.6328 17.7266 18.6721C17.8145 18.7114 17.9094 18.7326 18.0057 18.7343C18.102 18.7361 18.1977 18.7184 18.287 18.6824C18.3763 18.6463 18.4575 18.5926 18.5255 18.5245C18.5936 18.4563 18.6472 18.3751 18.6832 18.2858C18.7192 18.1964 18.7368 18.1007 18.7349 18.0044C18.733 17.9081 18.7117 17.8132 18.6723 17.7253C18.6329 17.6374 18.5762 17.5584 18.5055 17.493Z" fill="#23355F"/>
<path d="M11 0.375C10.8072 0.378279 10.6232 0.456316 10.4868 0.592701C10.3504 0.729086 10.2723 0.913138 10.269 1.10599V3.27029C10.269 3.36628 10.288 3.46136 10.3247 3.55005C10.3614 3.63874 10.4153 3.71933 10.4831 3.7872C10.551 3.85508 10.6316 3.90896 10.7203 3.9457C10.809 3.98243 10.904 4.00134 11 4.00134C11.096 4.00134 11.1911 3.98243 11.2798 3.9457C11.3685 3.90896 11.4491 3.85508 11.5169 3.7872C11.5848 3.71933 11.6387 3.63874 11.6754 3.55005C11.7121 3.46136 11.731 3.36628 11.731 3.27029V1.10599C11.7278 0.913138 11.6497 0.729086 11.5133 0.592701C11.3769 0.456316 11.1929 0.378279 11 0.375Z" fill="#23355F"/>
<path d="M18.5332 3.49556C18.467 3.42874 18.3882 3.37566 18.3014 3.33947C18.2146 3.30327 18.1215 3.28467 18.0274 3.28467C17.9334 3.28467 17.8402 3.30327 17.7534 3.33947C17.6666 3.37566 17.5878 3.42874 17.5217 3.49556L15.9757 5.04152C15.9093 5.10793 15.8566 5.18677 15.8207 5.27355C15.7847 5.36032 15.7662 5.45329 15.7662 5.54721C15.7662 5.73691 15.8416 5.91885 15.9757 6.05298C16.1099 6.18711 16.2918 6.26244 16.4815 6.26244C16.6712 6.26244 16.8531 6.18711 16.9872 6.05298L18.5332 4.50702C18.6 4.44083 18.653 4.36206 18.6892 4.27525C18.7254 4.18844 18.7441 4.09538 18.7441 4.00132C18.7441 3.90727 18.7254 3.81414 18.6892 3.72733C18.653 3.64053 18.6 3.56175 18.5332 3.49556Z" fill="#23355F"/>
<path d="M3.27033 10.269H1.10602C0.91317 10.2723 0.729136 10.3504 0.592751 10.4867C0.456366 10.6231 0.378298 10.8072 0.37502 11C0.374313 11.0962 0.392738 11.1916 0.429224 11.2806C0.46571 11.3696 0.519528 11.4505 0.587549 11.5185C0.65557 11.5865 0.736436 11.6403 0.825444 11.6768C0.914453 11.7133 1.00983 11.7317 1.10602 11.731H3.27033C3.46421 11.731 3.65014 11.654 3.78723 11.5169C3.92432 11.3799 4.00133 11.1939 4.00133 11C4.00133 10.8062 3.92432 10.6202 3.78723 10.4831C3.65014 10.346 3.46421 10.269 3.27033 10.269Z" fill="#23355F"/>
<path d="M6.02431 15.947C5.95798 15.8804 5.87916 15.8276 5.79237 15.7915C5.70558 15.7555 5.61253 15.737 5.51856 15.737C5.42459 15.737 5.33154 15.7555 5.24475 15.7915C5.15796 15.8276 5.07914 15.8804 5.01281 15.947L3.46687 17.4929C3.39621 17.5584 3.33947 17.6374 3.30006 17.7253C3.26065 17.8132 3.23937 17.9081 3.2375 18.0044C3.23563 18.1007 3.25321 18.1964 3.28918 18.2857C3.32515 18.3751 3.37878 18.4563 3.44685 18.5244C3.51492 18.5926 3.59604 18.6463 3.68535 18.6824C3.77467 18.7184 3.87033 18.7361 3.96664 18.7343C4.06294 18.7325 4.1579 18.7114 4.24583 18.672C4.33376 18.6327 4.41285 18.5761 4.47837 18.5055L6.02431 16.9584C6.09113 16.8923 6.14417 16.8135 6.18037 16.7267C6.21657 16.6399 6.2352 16.5468 6.2352 16.4527C6.2352 16.3587 6.21657 16.2656 6.18037 16.1788C6.14417 16.0919 6.09113 16.0132 6.02431 15.947Z" fill="#23355F"/>
<path d="M6.02431 5.04156L4.47837 3.4956C4.41196 3.42919 4.33311 3.37649 4.24634 3.34055C4.15956 3.3046 4.06655 3.28607 3.97262 3.28607C3.8787 3.28607 3.78569 3.3046 3.69892 3.34055C3.61214 3.37649 3.53329 3.42919 3.46687 3.4956C3.40046 3.56202 3.34777 3.64086 3.31183 3.72763C3.27589 3.81441 3.25739 3.90744 3.25739 4.00137C3.25739 4.09529 3.27589 4.18826 3.31183 4.27503C3.34777 4.36181 3.40046 4.44065 3.46687 4.50706L5.01281 6.05302C5.14695 6.18715 5.32887 6.26249 5.51856 6.26249C5.70825 6.26249 5.89018 6.18715 6.02431 6.05302C6.15844 5.91889 6.2338 5.73695 6.2338 5.54726C6.2338 5.35756 6.15844 5.17569 6.02431 5.04156Z" fill="#23355F"/>
</svg>
