<svg width="24" height="24" viewBox="0 0 24 24" fill="none" xmlns="http://www.w3.org/2000/svg">
<path d="M20.4652 10.3123C20.5776 10.9148 20.6389 11.5447 20.6389 12.2021C20.6389 17.3439 17.1976 21 12 21C10.818 21.0004 9.64752 20.7678 8.55542 20.3156C7.46333 19.8635 6.47103 19.2006 5.63524 18.3648C4.79944 17.529 4.13652 16.5367 3.68435 15.4446C3.23219 14.3525 2.99964 13.182 3 12C2.99964 10.818 3.23219 9.64752 3.68435 8.55542C4.13652 7.46333 4.79944 6.47103 5.63524 5.63524C6.47103 4.79944 7.46333 4.13652 8.55542 3.68435C9.64752 3.23219 10.818 2.99964 12 3C14.4301 3 16.4607 3.89415 18.0186 5.346L15.4815 7.88308V7.87668C14.5371 6.97704 13.3385 6.51534 12 6.51534C9.03048 6.51534 6.61682 9.02408 6.61682 11.9945C6.61682 14.964 9.03048 17.4783 12 17.4783C14.6943 17.4783 16.5283 15.9377 16.905 13.8221H12V10.3123H20.4661H20.4652Z" fill="#23355F"/>
</svg>
