<svg width="100" height="100" viewBox="0 0 100 100" fill="none" xmlns="http://www.w3.org/2000/svg">
<path d="M20.5859 37.7148H24.5898V41.7188H20.5859V37.7148ZM30.0586 37.7148H34.0625V41.7188H30.0586V37.7148ZM67.2656 37.7148H71.2695V41.7188H67.2656V37.7148ZM76.7383 37.7148H80.7422V41.7188H76.7383V37.7148ZM67.2656 47.8711H71.2695V51.875H67.2656V47.8711ZM76.7383 47.8711H80.7422V51.875H76.7383V47.8711ZM76.6406 58.125H80.6445V62.1289H76.6406V58.125ZM20.3906 47.9688H24.3945V51.9727H20.3906V47.9688ZM29.8633 47.9688H33.8672V51.9727H29.8633V47.9688ZM20.3906 58.2227H24.3945V62.2266H20.3906V58.2227ZM47.2461 59.6875H53.4961V76.582H47.2461V59.6875ZM54.9609 59.6875H62.3828V76.582H54.9609V59.6875ZM39.043 59.6875H45.7812V76.582H39.043V59.6875ZM51.4746 28.4766V27.8516C51.4746 27.7441 51.3867 27.6562 51.2793 27.6562H49.3848C49.2773 27.6562 49.1895 27.7441 49.1895 27.8516V28.8574C49.1895 29.2187 48.8965 29.5215 48.5254 29.5215H47.5488C47.4414 29.5215 47.3535 29.6094 47.3535 29.7168V31.6113C47.3535 31.7188 47.4414 31.8066 47.5488 31.8066H48.125C48.3008 31.8066 48.5645 31.9434 48.5645 32.1191L48.5937 33.418C48.5937 33.7402 48.6914 33.9941 49.0137 33.9941H49.4238C49.5605 33.9941 49.6875 34.043 49.7949 33.9648H51.1914C51.3574 33.9648 51.4844 33.8281 51.4844 33.6719V32.4219C51.4844 32.0801 51.7578 31.8066 52.0996 31.8066H53.3789C53.4863 31.8066 53.5742 31.7188 53.5742 31.6113V29.3945C53.5742 29.1602 53.3789 28.9648 53.1445 28.9648H51.9727C51.6895 28.9648 51.4746 28.75 51.4746 28.4766Z" fill="url(#paint0_linear_2331_139)" fill-opacity="0.6"/>
<path d="M50.9766 34.541H48.7891C48.3105 34.541 47.9297 34.1602 47.9297 33.6816V32.2754C47.9297 32.2363 47.8906 32.1973 47.8516 32.1973H46.4453C45.9668 32.1973 45.5859 31.8164 45.5859 31.3379V29.1504C45.5859 28.6719 45.9668 28.291 46.4453 28.291H46.4746V29.0723H46.4453C46.4063 29.0723 46.3672 29.1113 46.3672 29.1504V31.3379C46.3672 31.377 46.4063 31.416 46.4453 31.416H47.8516C48.3301 31.416 48.7109 31.7969 48.7109 32.2754V33.6816C48.7109 33.7207 48.75 33.7598 48.7891 33.7598H50.9766C51.0156 33.7598 51.0547 33.7207 51.0547 33.6816V32.2754C51.0547 31.7969 51.4355 31.416 51.9141 31.416H53.3203C53.3594 31.416 53.3984 31.377 53.3984 31.3379V29.1504C53.3984 29.1113 53.3594 29.0723 53.3203 29.0723H51.9141C51.4355 29.0723 51.0547 28.6914 51.0547 28.2129V26.8066C51.0547 26.7676 51.0156 26.7285 50.9766 26.7285H48.7891C48.75 26.7285 48.7109 26.7676 48.7109 26.8066V28.2129C48.7109 28.6914 48.3301 29.0723 47.8516 29.0723H47.5V28.291H47.8516C47.8906 28.291 47.9297 28.252 47.9297 28.2129V26.8066C47.9297 26.3281 48.3105 25.9473 48.7891 25.9473H50.9766C51.4551 25.9473 51.8359 26.3281 51.8359 26.8066V28.2129C51.8359 28.252 51.875 28.291 51.9141 28.291H53.3203C53.7988 28.291 54.1797 28.6719 54.1797 29.1504V31.3379C54.1797 31.8164 53.7988 32.1973 53.3203 32.1973H51.9141C51.875 32.1973 51.8359 32.2363 51.8359 32.2754V33.6816C51.8359 34.1602 51.4453 34.541 50.9766 34.541Z" fill="#CE0202"/>
<path d="M63.0762 77.4121H36.6895V57.5391H63.0762V77.4121ZM38.1543 75.9473H61.6113V59.0039H38.1543V75.9473Z" fill="#999999"/>
<path d="M30.8096 57.398L68.9541 57.3483L68.9561 58.8131L30.8115 58.8628L30.8096 57.398Z" fill="#999999"/>
<path d="M54.1797 76.9727H45.5859V57.832H54.1797V76.9727ZM46.3672 76.1914H53.3984V58.6133H46.3672V76.1914Z" fill="#999999"/>
<path d="M6.17773 77.4186L6.1793 75.9537L93.6793 76.0514L93.6776 77.5162L6.17773 77.4186Z" fill="#999999"/>
<path d="M87.2852 77.4609H12.5781V32.1973C12.5781 31.1426 13.4277 30.293 14.4824 30.293H39.6777V31.7578H14.4824C14.248 31.7578 14.043 31.9629 14.043 32.1973V75.9961H85.8203V32.1973C85.8203 31.9629 85.6152 31.7578 85.3809 31.7578H60.1855V30.293H85.3809C86.4355 30.293 87.2852 31.1426 87.2852 32.1973V77.4609Z" fill="#999999"/>
<path d="M60.918 58.7109H38.9453V22.4316C38.9453 21.377 39.7949 20.5273 40.8496 20.5273H59.0137C60.0684 20.5273 60.918 21.377 60.918 22.4316V58.7109ZM40.4102 57.2461H59.4531V22.4316C59.4531 22.1973 59.248 21.9922 59.0137 21.9922H40.8496C40.6152 21.9922 40.4102 22.1973 40.4102 22.4316V57.2461ZM13.3105 66.9629H37.4316V67.7441H13.3105V66.9629ZM62.3797 67.7011L62.3828 66.9198L86.5039 67.0175L86.5008 67.7987L62.3797 67.7011ZM23.7793 42.1094H19.873C19.3359 42.1094 18.8965 41.6699 18.8965 41.1328V37.2266C18.8965 36.6895 19.3359 36.25 19.873 36.25H23.7793C24.3164 36.25 24.7559 36.6895 24.7559 37.2266V41.1328C24.7559 41.6699 24.3164 42.1094 23.7793 42.1094ZM19.873 37.0313C19.7656 37.0313 19.6777 37.1191 19.6777 37.2266V41.1328C19.6777 41.2402 19.7656 41.3281 19.873 41.3281H23.7793C23.8867 41.3281 23.9746 41.2402 23.9746 41.1328V37.2266C23.9746 37.1191 23.8867 37.0313 23.7793 37.0313H19.873ZM33.2812 42.1094H29.375C28.8379 42.1094 28.3984 41.6699 28.3984 41.1328V37.2266C28.3984 36.6895 28.8379 36.25 29.375 36.25H33.2812C33.8184 36.25 34.2578 36.6895 34.2578 37.2266V41.1328C34.2578 41.6699 33.8184 42.1094 33.2812 42.1094ZM29.375 37.0313C29.2676 37.0313 29.1797 37.1191 29.1797 37.2266V41.1328C29.1797 41.2402 29.2676 41.3281 29.375 41.3281H33.2812C33.3887 41.3281 33.4766 41.2402 33.4766 41.1328V37.2266C33.4766 37.1191 33.3887 37.0313 33.2812 37.0313H29.375ZM23.7793 52.3633H19.873C19.3359 52.3633 18.8965 51.9238 18.8965 51.3867V47.4805C18.8965 46.9434 19.3359 46.5039 19.873 46.5039H23.7793C24.3164 46.5039 24.7559 46.9434 24.7559 47.4805V51.3867C24.7559 51.9238 24.3164 52.3633 23.7793 52.3633ZM19.873 47.2852C19.7656 47.2852 19.6777 47.373 19.6777 47.4805V51.3867C19.6777 51.4941 19.7656 51.582 19.873 51.582H23.7793C23.8867 51.582 23.9746 51.4941 23.9746 51.3867V47.4805C23.9746 47.373 23.8867 47.2852 23.7793 47.2852H19.873ZM23.7793 62.6172H19.873C19.3359 62.6172 18.8965 62.1777 18.8965 61.6406V57.7344C18.8965 57.1973 19.3359 56.7578 19.873 56.7578H23.7793C24.3164 56.7578 24.7559 57.1973 24.7559 57.7344V61.6406C24.7559 62.1777 24.3164 62.6172 23.7793 62.6172ZM19.873 57.5391C19.7656 57.5391 19.6777 57.627 19.6777 57.7344V61.6406C19.6777 61.748 19.7656 61.8359 19.873 61.8359H23.7793C23.8867 61.8359 23.9746 61.748 23.9746 61.6406V57.7344C23.9746 57.627 23.8867 57.5391 23.7793 57.5391H19.873ZM33.2812 52.3633H29.375C28.8379 52.3633 28.3984 51.9238 28.3984 51.3867V47.4805C28.3984 46.9434 28.8379 46.5039 29.375 46.5039H33.2812C33.8184 46.5039 34.2578 46.9434 34.2578 47.4805V51.3867C34.2578 51.9238 33.8184 52.3633 33.2812 52.3633ZM29.375 47.2852C29.2676 47.2852 29.1797 47.373 29.1797 47.4805V51.3867C29.1797 51.4941 29.2676 51.582 29.375 51.582H33.2812C33.3887 51.582 33.4766 51.4941 33.4766 51.3867V47.4805C33.4766 47.373 33.3887 47.2852 33.2812 47.2852H29.375ZM70.6543 42.1094H66.748C66.2109 42.1094 65.7715 41.6699 65.7715 41.1328V37.2266C65.7715 36.6895 66.2109 36.25 66.748 36.25H70.6543C71.1914 36.25 71.6309 36.6895 71.6309 37.2266V41.1328C71.6309 41.6699 71.1914 42.1094 70.6543 42.1094ZM66.748 37.0313C66.6406 37.0313 66.5527 37.1191 66.5527 37.2266V41.1328C66.5527 41.2402 66.6406 41.3281 66.748 41.3281H70.6543C70.7617 41.3281 70.8496 41.2402 70.8496 41.1328V37.2266C70.8496 37.1191 70.7617 37.0313 70.6543 37.0313H66.748ZM80.1562 42.1094H76.25C75.7129 42.1094 75.2734 41.6699 75.2734 41.1328V37.2266C75.2734 36.6895 75.7129 36.25 76.25 36.25H80.1562C80.6934 36.25 81.1328 36.6895 81.1328 37.2266V41.1328C81.1328 41.6699 80.6934 42.1094 80.1562 42.1094ZM76.25 37.0313C76.1426 37.0313 76.0547 37.1191 76.0547 37.2266V41.1328C76.0547 41.2402 76.1426 41.3281 76.25 41.3281H80.1562C80.2637 41.3281 80.3516 41.2402 80.3516 41.1328V37.2266C80.3516 37.1191 80.2637 37.0313 80.1562 37.0313H76.25ZM70.6543 52.3633H66.748C66.2109 52.3633 65.7715 51.9238 65.7715 51.3867V47.4805C65.7715 46.9434 66.2109 46.5039 66.748 46.5039H70.6543C71.1914 46.5039 71.6309 46.9434 71.6309 47.4805V51.3867C71.6309 51.9238 71.1914 52.3633 70.6543 52.3633ZM66.748 47.2852C66.6406 47.2852 66.5527 47.373 66.5527 47.4805V51.3867C66.5527 51.4941 66.6406 51.582 66.748 51.582H70.6543C70.7617 51.582 70.8496 51.4941 70.8496 51.3867V47.4805C70.8496 47.373 70.7617 47.2852 70.6543 47.2852H66.748ZM80.1562 62.6172H76.25C75.7129 62.6172 75.2734 62.1777 75.2734 61.6406V57.7344C75.2734 57.1973 75.7129 56.7578 76.25 56.7578H80.1562C80.6934 56.7578 81.1328 57.1973 81.1328 57.7344V61.6406C81.1328 62.1777 80.6934 62.6172 80.1562 62.6172ZM76.25 57.5391C76.1426 57.5391 76.0547 57.627 76.0547 57.7344V61.6406C76.0547 61.748 76.1426 61.8359 76.25 61.8359H80.1562C80.2637 61.8359 80.3516 61.748 80.3516 61.6406V57.7344C80.3516 57.627 80.2637 57.5391 80.1562 57.5391H76.25ZM80.1562 52.3633H76.25C75.7129 52.3633 75.2734 51.9238 75.2734 51.3867V47.4805C75.2734 46.9434 75.7129 46.5039 76.25 46.5039H80.1562C80.6934 46.5039 81.1328 46.9434 81.1328 47.4805V51.3867C81.1328 51.9238 80.6934 52.3633 80.1562 52.3633ZM76.25 47.2852C76.1426 47.2852 76.0547 47.373 76.0547 47.4805V51.3867C76.0547 51.4941 76.1426 51.582 76.25 51.582H80.1562C80.2637 51.582 80.3516 51.4941 80.3516 51.3867V47.4805C80.3516 47.373 80.2637 47.2852 80.1562 47.2852H76.25Z" fill="#999999"/>
<defs>
<linearGradient id="paint0_linear_2331_139" x1="50.5664" y1="27.6562" x2="50.5664" y2="76.582" gradientUnits="userSpaceOnUse">
<stop stop-color="#4671C6" stop-opacity="0.6"/>
<stop offset="0.87" stop-color="#0E2C72"/>
</linearGradient>
</defs>
</svg>
