<svg width="19" height="12" viewBox="0 0 19 12" fill="none" xmlns="http://www.w3.org/2000/svg">
<path fill-rule="evenodd" clip-rule="evenodd" d="M18.3762 5.90708C18.3762 5.73303 18.307 5.56611 18.184 5.44304C18.0609 5.31997 17.894 5.25083 17.7199 5.25083H2.24161L6.37205 1.1217C6.43306 1.06069 6.48146 0.988253 6.51448 0.908532C6.54751 0.828812 6.5645 0.743368 6.5645 0.657079C6.5645 0.57079 6.54751 0.485346 6.51448 0.405626C6.48146 0.325905 6.43306 0.253469 6.37205 0.192454C6.31103 0.131438 6.2386 0.0830385 6.15888 0.0500172C6.07916 0.0169959 5.99371 0 5.90742 0C5.82113 0 5.73569 0.0169959 5.65597 0.0500172C5.57625 0.0830385 5.50381 0.131438 5.4428 0.192454L0.192798 5.44245C0.131684 5.50341 0.0831963 5.57583 0.0501129 5.65556C0.0170294 5.73529 0 5.82076 0 5.90708C0 5.9934 0.0170294 6.07887 0.0501129 6.1586C0.0831963 6.23833 0.131684 6.31074 0.192798 6.3717L5.4428 11.6217C5.50381 11.6827 5.57625 11.7311 5.65597 11.7641C5.73569 11.7972 5.82113 11.8142 5.90742 11.8142C5.99371 11.8142 6.07916 11.7972 6.15888 11.7641C6.2386 11.7311 6.31103 11.6827 6.37205 11.6217C6.43306 11.5607 6.48146 11.4883 6.51448 11.4085C6.54751 11.3288 6.5645 11.2434 6.5645 11.1571C6.5645 11.0708 6.54751 10.9853 6.51448 10.9056C6.48146 10.8259 6.43306 10.7535 6.37205 10.6925L2.24161 6.56333H17.7199C17.894 6.56333 18.0609 6.49419 18.184 6.37112C18.307 6.24805 18.3762 6.08113 18.3762 5.90708Z" fill="#293E6F"/>
</svg>
