<svg width="21" height="21" viewBox="0 0 21 21" fill="none" xmlns="http://www.w3.org/2000/svg">
                  <path fill-rule="evenodd" clip-rule="evenodd" d="M19.6875 10.5C19.6875 10.3259 19.6183 10.159 19.4952 10.0359C19.3722 9.91287 19.2052 9.84372 19.0312 9.84372H3.55289L7.68333 5.7146C7.74434 5.65358 7.79274 5.58115 7.82576 5.50143C7.85879 5.42171 7.87578 5.33626 7.87578 5.24997C7.87578 5.16369 7.85879 5.07824 7.82576 4.99852C7.79274 4.9188 7.74434 4.84636 7.68333 4.78535C7.62231 4.72433 7.54988 4.67593 7.47016 4.64291C7.39044 4.60989 7.30499 4.5929 7.2187 4.5929C7.13241 4.5929 7.04697 4.60989 6.96725 4.64291C6.88753 4.67593 6.81509 4.72433 6.75408 4.78535L1.50408 10.0353C1.44296 10.0963 1.39448 10.1687 1.36139 10.2485C1.32831 10.3282 1.31128 10.4137 1.31128 10.5C1.31128 10.5863 1.32831 10.6718 1.36139 10.7515C1.39448 10.8312 1.44296 10.9036 1.50408 10.9646L6.75408 16.2146C6.81509 16.2756 6.88753 16.324 6.96725 16.357C7.04697 16.3901 7.13241 16.4071 7.2187 16.4071C7.30499 16.4071 7.39044 16.3901 7.47016 16.357C7.54988 16.324 7.62231 16.2756 7.68333 16.2146C7.74434 16.1536 7.79274 16.0811 7.82576 16.0014C7.85879 15.9217 7.87578 15.8363 7.87578 15.75C7.87578 15.6637 7.85879 15.5782 7.82576 15.4985C7.79274 15.4188 7.74434 15.3464 7.68333 15.2853L3.55289 11.1562H19.0312C19.2052 11.1562 19.3722 11.0871 19.4952 10.964C19.6183 10.8409 19.6875 10.674 19.6875 10.5Z" fill="white"></path>
                </svg>