<svg width="130" height="130" viewBox="0 0 130 130" fill="none" xmlns="http://www.w3.org/2000/svg">
<g clip-path="url(#clip0_3546_13025)">
<path d="M65 130C100.899 130 130 100.899 130 65C130 29.1015 100.899 0 65 0C29.1015 0 0 29.1015 0 65C0 100.899 29.1015 130 65 130Z" fill="#EBD1B2"/>
<path d="M8.82129 97.7063C20.0931 117.026 41.0376 130 64.9999 130C88.9622 130 109.907 117.026 121.178 97.7063H8.82129Z" fill="#FF938D"/>
<path d="M102.891 70.1328H25.2261V87.234H102.891V70.1328Z" fill="#5D6972"/>
<path d="M30.5657 38.5615H21.3315V97.371H30.5657V38.5615Z" fill="#7A838B"/>
<path d="M108.669 59.9961H99.4346V97.3453H108.669V59.9961Z" fill="#7A838B"/>
<path d="M42.6109 67.373C46.1011 67.373 48.9304 64.5437 48.9304 61.0536C48.9304 57.5634 46.1011 54.7341 42.6109 54.7341C39.1208 54.7341 36.2915 57.5634 36.2915 61.0536C36.2915 64.5437 39.1208 67.373 42.6109 67.373Z" fill="#F9B54C"/>
<path d="M54.1406 75.7302H95.4879V61.4921L54.1406 54.7341V75.7302Z" fill="#FF7058"/>
<path d="M73.3333 25.3333H69.6667V21.6667C69.6667 20.6942 69.2804 19.7616 68.5927 19.0739C67.9051 18.3863 66.9725 18 66 18C65.0275 18 64.0949 18.3863 63.4073 19.0739C62.7196 19.7616 62.3333 20.6942 62.3333 21.6667V25.3333H58.6667C57.6942 25.3333 56.7616 25.7196 56.0739 26.4073C55.3863 27.0949 55 28.0275 55 29C55 29.9725 55.3863 30.9051 56.0739 31.5927C56.7616 32.2804 57.6942 32.6667 58.6667 32.6667H62.3333V36.3333C62.3333 37.3058 62.7196 38.2384 63.4073 38.9261C64.0949 39.6137 65.0275 40 66 40C66.9725 40 67.9051 39.6137 68.5927 38.9261C69.2804 38.2384 69.6667 37.3058 69.6667 36.3333V32.6667H73.3333C74.3058 32.6667 75.2384 32.2804 75.9261 31.5927C76.6137 30.9051 77 29.9725 77 29C77 28.0275 76.6137 27.0949 75.9261 26.4073C75.2384 25.7196 74.3058 25.3333 73.3333 25.3333Z" fill="#4CDBC4"/>
</g>
<defs>
<clipPath id="clip0_3546_13025">
<rect width="130" height="130" fill="white"/>
</clipPath>
</defs>
</svg>
