<svg width="11" height="11" viewBox="0 0 11 11" fill="none" xmlns="http://www.w3.org/2000/svg">
<g clip-path="url(#clip0_2_1465)">
<path d="M9.28116 0.687411C9.00765 0.687411 8.74535 0.79606 8.55195 0.989457C8.35856 1.18285 8.24991 1.44516 8.24991 1.71866C8.24991 1.99217 8.35856 2.25447 8.55195 2.44786C8.74535 2.64126 9.00765 2.74991 9.28116 2.74991C9.55466 2.74991 9.81697 2.64126 10.0104 2.44786C10.2038 2.25447 10.3124 1.99217 10.3124 1.71866C10.3124 1.44516 10.2038 1.18285 10.0104 0.989457C9.81697 0.79606 9.55466 0.687411 9.28116 0.687411ZM7.56241 1.71866C7.56236 1.3154 7.70411 0.924953 7.96285 0.615643C8.2216 0.306334 8.58087 0.0978544 8.97781 0.02668C9.37474 -0.0444944 9.78406 0.0261687 10.1342 0.226306C10.4843 0.426444 10.7528 0.743311 10.8929 1.12147C11.033 1.49963 11.0356 1.915 10.9004 2.2949C10.7651 2.67481 10.5006 2.99507 10.153 3.19963C9.80552 3.4042 9.39713 3.48006 8.99932 3.41393C8.60152 3.34781 8.23963 3.14391 7.97697 2.83791L3.35835 4.98291C3.46452 5.3194 3.46452 5.68042 3.35835 6.01691L7.97697 8.16191C8.25461 7.83901 8.64224 7.63068 9.06473 7.5773C9.48722 7.52391 9.91448 7.62927 10.2637 7.87295C10.613 8.11663 10.8593 8.48129 10.955 8.89625C11.0507 9.3112 10.9889 9.74691 10.7817 10.1189C10.5744 10.4909 10.2365 10.7728 9.83327 10.9098C9.43008 11.0469 8.99036 11.0293 8.59935 10.8606C8.20834 10.6919 7.89387 10.3841 7.7169 9.99676C7.53993 9.60943 7.51305 9.17018 7.64147 8.76416L3.02285 6.61916C2.79421 6.88562 2.48945 7.07566 2.14957 7.16372C1.80969 7.25178 1.45099 7.23364 1.12173 7.11174C0.792465 6.98984 0.508435 6.77002 0.307844 6.48186C0.107253 6.1937 -0.000274658 5.85101 -0.000274658 5.49991C-0.000274658 5.14881 0.107253 4.80613 0.307844 4.51796C0.508435 4.2298 0.792465 4.00998 1.12173 3.88808C1.45099 3.76618 1.80969 3.74804 2.14957 3.8361C2.48945 3.92416 2.79421 4.11421 3.02285 4.38066L7.64147 2.23566C7.5889 2.06837 7.56223 1.89402 7.56241 1.71866ZM1.71866 4.46866C1.44515 4.46866 1.18285 4.57731 0.989454 4.77071C0.796057 4.9641 0.687408 5.22641 0.687408 5.49991C0.687408 5.77342 0.796057 6.03572 0.989454 6.22911C1.18285 6.42251 1.44515 6.53116 1.71866 6.53116C1.99216 6.53116 2.25446 6.42251 2.44786 6.22911C2.64126 6.03572 2.74991 5.77342 2.74991 5.49991C2.74991 5.22641 2.64126 4.9641 2.44786 4.77071C2.25446 4.57731 1.99216 4.46866 1.71866 4.46866ZM9.28116 8.24991C9.00765 8.24991 8.74535 8.35856 8.55195 8.55196C8.35856 8.74535 8.24991 9.00766 8.24991 9.28116C8.24991 9.55466 8.35856 9.81697 8.55195 10.0104C8.74535 10.2038 9.00765 10.3124 9.28116 10.3124C9.55466 10.3124 9.81697 10.2038 10.0104 10.0104C10.2038 9.81697 10.3124 9.55466 10.3124 9.28116C10.3124 9.00766 10.2038 8.74535 10.0104 8.55196C9.81697 8.35856 9.55466 8.24991 9.28116 8.24991Z" fill="#17306A"/>
</g>
<defs>
<clipPath id="clip0_2_1465">
<rect width="11" height="11" fill="white"/>
</clipPath>
</defs>
</svg>
