<svg width="15" height="15" viewBox="0 0 15 15" fill="none" xmlns="http://www.w3.org/2000/svg">
<path d="M3.28135 2.34375C3.28135 2.21943 3.23197 2.1002 3.14406 2.01229C3.05615 1.92439 2.93692 1.875 2.8126 1.875C2.68828 1.875 2.56906 1.92439 2.48115 2.01229C2.39324 2.1002 2.34385 2.21943 2.34385 2.34375V10.5872L1.26948 9.51188C1.18146 9.42386 1.06208 9.37441 0.937604 9.37441C0.813127 9.37441 0.693748 9.42386 0.605729 9.51188C0.51771 9.59989 0.468262 9.71927 0.468262 9.84375C0.468262 9.96823 0.51771 10.0876 0.605729 10.1756L2.48073 12.0497L2.48729 12.0563C2.5753 12.1421 2.69366 12.1896 2.81657 12.1886C2.93949 12.1875 3.05702 12.1379 3.14354 12.0506L5.01854 10.1756C5.06212 10.1321 5.09671 10.0804 5.12032 10.0235C5.14393 9.96665 5.1561 9.90567 5.15615 9.84408C5.15619 9.78249 5.1441 9.72149 5.12057 9.66457C5.09704 9.60765 5.06253 9.55593 5.01901 9.51234C4.97549 9.46876 4.92381 9.43418 4.86692 9.41057C4.81004 9.38696 4.74906 9.37478 4.68747 9.37474C4.62588 9.3747 4.56488 9.38678 4.50796 9.41031C4.45104 9.43384 4.39931 9.46835 4.35573 9.51188L3.28135 10.5872V2.34375ZM6.5626 3.28125C6.5626 3.15693 6.61199 3.0377 6.6999 2.94979C6.78781 2.86189 6.90703 2.8125 7.03135 2.8125H13.5939C13.7182 2.8125 13.8374 2.86189 13.9253 2.94979C14.0132 3.0377 14.0626 3.15693 14.0626 3.28125C14.0626 3.40557 14.0132 3.5248 13.9253 3.61271C13.8374 3.70061 13.7182 3.75 13.5939 3.75H7.03135C6.90703 3.75 6.78781 3.70061 6.6999 3.61271C6.61199 3.5248 6.5626 3.40557 6.5626 3.28125ZM7.03135 5.625C6.90703 5.625 6.78781 5.67439 6.6999 5.76229C6.61199 5.8502 6.5626 5.96943 6.5626 6.09375C6.5626 6.21807 6.61199 6.3373 6.6999 6.42521C6.78781 6.51311 6.90703 6.5625 7.03135 6.5625H11.7189C11.8432 6.5625 11.9624 6.51311 12.0503 6.42521C12.1382 6.3373 12.1876 6.21807 12.1876 6.09375C12.1876 5.96943 12.1382 5.8502 12.0503 5.76229C11.9624 5.67439 11.8432 5.625 11.7189 5.625H7.03135ZM7.03135 8.4375C6.90703 8.4375 6.78781 8.48689 6.6999 8.57479C6.61199 8.6627 6.5626 8.78193 6.5626 8.90625C6.5626 9.03057 6.61199 9.1498 6.6999 9.23771C6.78781 9.32561 6.90703 9.375 7.03135 9.375H9.84385C9.96817 9.375 10.0874 9.32561 10.1753 9.23771C10.2632 9.1498 10.3126 9.03057 10.3126 8.90625C10.3126 8.78193 10.2632 8.6627 10.1753 8.57479C10.0874 8.48689 9.96817 8.4375 9.84385 8.4375H7.03135ZM7.03135 11.25C6.90703 11.25 6.78781 11.2994 6.6999 11.3873C6.61199 11.4752 6.5626 11.5944 6.5626 11.7188C6.5626 11.8431 6.61199 11.9623 6.6999 12.0502C6.78781 12.1381 6.90703 12.1875 7.03135 12.1875H7.96885C8.09317 12.1875 8.2124 12.1381 8.30031 12.0502C8.38822 11.9623 8.4376 11.8431 8.4376 11.7188C8.4376 11.5944 8.38822 11.4752 8.30031 11.3873C8.2124 11.2994 8.09317 11.25 7.96885 11.25H7.03135Z" fill="#363636"/>
</svg>
