<svg width="10" height="9" viewBox="0 0 10 9" fill="none" xmlns="http://www.w3.org/2000/svg">
<path d="M5.35156 9C6.54506 9 7.68966 8.5259 8.53356 7.682C9.37746 6.8381 9.85156 5.6935 9.85156 4.5C9.85156 3.3065 9.37746 2.1619 8.53356 1.318C7.68966 0.4741 6.54506 0 5.35156 0C4.15806 0 3.01346 0.4741 2.16956 1.318C1.32566 2.1619 0.851562 3.3065 0.851562 4.5C0.851562 5.6935 1.32566 6.8381 2.16956 7.682C3.01346 8.5259 4.15806 9 5.35156 9ZM4.85156 2.5C4.85156 2.3674 4.90426 2.2402 4.99796 2.1464C5.09176 2.0527 5.21896 2 5.35156 2C5.48416 2 5.61136 2.0527 5.70516 2.1464C5.79886 2.2402 5.85156 2.3674 5.85156 2.5V4H6.85156C6.98416 4 7.11136 4.0527 7.20516 4.1464C7.29886 4.2402 7.35156 4.3674 7.35156 4.5C7.35156 4.6326 7.29886 4.7598 7.20516 4.8536C7.11136 4.9473 6.98416 5 6.85156 5H5.35156C5.21896 5 5.09176 4.9473 4.99796 4.8536C4.90426 4.7598 4.85156 4.6326 4.85156 4.5V2.5Z" fill="white"/>
</svg>
