<svg width="11" height="11" viewBox="0 0 11 11" fill="none" xmlns="http://www.w3.org/2000/svg">
<g id="bx:bxs-star-half">
<path id="Vector" d="M2.91808 8.84861C2.90348 8.91108 2.90322 8.97605 2.91731 9.03864C2.9314 9.10123 2.95947 9.15981 2.99942 9.21001C3.03937 9.26021 3.09017 9.30071 3.148 9.32848C3.20583 9.35625 3.2692 9.37057 3.33335 9.37037C3.41749 9.37039 3.49974 9.34549 3.56974 9.29881L5.88891 7.7527L8.20808 9.29881C8.28063 9.34698 8.36619 9.37178 8.45325 9.36987C8.54032 9.36796 8.62471 9.33944 8.69508 9.28813C8.76545 9.23683 8.81842 9.16521 8.84687 9.0829C8.87531 9.00059 8.87788 8.91155 8.85421 8.82774L8.07519 6.10181L10.0072 4.36318C10.0691 4.30747 10.1133 4.23484 10.1343 4.15427C10.1553 4.07371 10.1523 3.98874 10.1256 3.90989C10.0988 3.83103 10.0495 3.76174 9.98385 3.71059C9.91815 3.65944 9.8389 3.62866 9.75589 3.62207L7.32769 3.4287L6.27693 1.10272C6.24346 1.02781 6.18903 0.964177 6.12021 0.919513C6.05138 0.874849 5.9711 0.851058 5.88905 0.851013C5.807 0.850968 5.72669 0.87467 5.65781 0.919259C5.58894 0.963848 5.53444 1.02742 5.50089 1.1023L4.45013 3.4287L2.02193 3.62165C1.94034 3.62811 1.86235 3.65794 1.79728 3.70757C1.7322 3.7572 1.6828 3.82452 1.65499 3.90149C1.62718 3.97846 1.62213 4.06181 1.64044 4.14158C1.65876 4.22134 1.69967 4.29414 1.75828 4.35126L3.55313 6.10054L2.91808 8.84861ZM5.88891 2.31235L6.75865 4.23796L7.00909 4.25798H7.00952L8.7013 4.39215L7.30809 5.64607L7.30767 5.64692L7.11047 5.82411L7.1833 6.07839V6.07967L7.71698 7.94735L5.88891 6.72878V2.31235Z" fill="#DCC624"/>
</g>
</svg>
