<svg width="11" height="11" viewBox="0 0 11 11" fill="none" xmlns="http://www.w3.org/2000/svg">
<g clip-path="url(#clip0_2_2339)">
<path d="M9.48668 3.90957C9.45991 3.83072 9.41063 3.76143 9.34493 3.71027C9.27923 3.6591 9.19998 3.62829 9.11697 3.62165L6.68877 3.4287L5.63801 1.10272C5.60455 1.02781 5.55012 0.964177 5.48129 0.919513C5.41246 0.874849 5.33218 0.851058 5.25013 0.851013C5.16808 0.850968 5.08777 0.87467 5.0189 0.919259C4.95002 0.963848 4.89552 1.02742 4.86197 1.1023L3.81121 3.4287L1.38301 3.62165C1.30143 3.62811 1.22343 3.65794 1.15836 3.70757C1.09328 3.7572 1.04389 3.82453 1.01607 3.90149C0.988261 3.97846 0.983211 4.06181 1.00153 4.14158C1.01985 4.22134 1.06076 4.29414 1.11936 4.35126L2.91379 6.10054L2.27916 8.84861C2.25989 8.93179 2.26607 9.01885 2.29689 9.09848C2.32771 9.17811 2.38175 9.24663 2.452 9.29517C2.52225 9.3437 2.60547 9.37 2.69085 9.37065C2.77624 9.3713 2.85984 9.34627 2.93083 9.29882L5.24999 7.7527L7.56916 9.29882C7.64171 9.34699 7.72727 9.37178 7.81434 9.36987C7.9014 9.36796 7.98579 9.33944 8.05616 9.28814C8.12653 9.23683 8.1795 9.16521 8.20795 9.0829C8.2364 9.00059 8.23896 8.91155 8.21529 8.82774L7.43627 6.10181L9.36827 4.36318C9.49477 4.24904 9.5412 4.071 9.48668 3.90957Z" fill="#DCC624"/>
</g>
<defs>
<clipPath id="clip0_2_2339">
<rect width="10.2222" height="10.2222" fill="white" transform="translate(0.138916)"/>
</clipPath>
</defs>
</svg>
