<svg width="10" height="10" viewBox="0 0 10 10" fill="none" xmlns="http://www.w3.org/2000/svg">
<g clip-path="url(#clip0_2_3018)">
<path d="M9.375 4.6875H7.47813C7.40797 4.13766 7.15724 3.62666 6.76529 3.23471C6.37334 2.84276 5.86234 2.59203 5.3125 2.52187V0.625H4.6875V2.52187C4.13766 2.59203 3.62666 2.84276 3.23471 3.23471C2.84276 3.62666 2.59203 4.13766 2.52187 4.6875H0.625V5.3125H2.52187C2.59203 5.86234 2.84276 6.37334 3.23471 6.76529C3.62666 7.15724 4.13766 7.40797 4.6875 7.47813V9.375H5.3125V7.47813C5.86234 7.40797 6.37334 7.15724 6.76529 6.76529C7.15724 6.37334 7.40797 5.86234 7.47813 5.3125H9.375V4.6875ZM5 6.875C4.62916 6.875 4.26665 6.76503 3.95831 6.55901C3.64996 6.35298 3.40964 6.06014 3.26773 5.71753C3.12581 5.37492 3.08868 4.99792 3.16103 4.63421C3.23338 4.27049 3.41195 3.9364 3.67417 3.67417C3.9364 3.41195 4.27049 3.23338 4.63421 3.16103C4.99792 3.08868 5.37492 3.12581 5.71753 3.26773C6.06014 3.40964 6.35298 3.64996 6.55901 3.95831C6.76503 4.26665 6.875 4.62916 6.875 5C6.87442 5.4971 6.67669 5.97368 6.32519 6.32519C5.97368 6.67669 5.4971 6.87442 5 6.875Z" fill="#363636"/>
</g>
<defs>
<clipPath id="clip0_2_3018">
<rect width="10" height="10" fill="white"/>
</clipPath>
</defs>
</svg>
