<svg width="19" height="19" viewBox="0 0 19 19" fill="none" xmlns="http://www.w3.org/2000/svg">
<g clip-path="url(#clip0_2_2429)">
<path d="M12.3125 6.125H10.0625V3.875H8.9375V6.125H6.6875V7.25H8.9375V9.5H10.0625V7.25H12.3125V6.125Z" fill="#23355F"/>
<path d="M16.7857 5.64286H15.5714V1.78571C15.5711 1.44483 15.4431 1.118 15.2154 0.876953C14.9878 0.635908 14.6791 0.50034 14.3571 0.5H4.64286C4.32091 0.50034 4.01224 0.635908 3.78458 0.876953C3.55693 1.118 3.42889 1.44483 3.42857 1.78571V5.64286H2.21429C1.89234 5.6432 1.58366 5.77877 1.35601 6.01981C1.12836 6.26085 1.00032 6.58768 1 6.92857V18.5H18V6.92857C17.9997 6.58768 17.8716 6.26085 17.644 6.01981C17.4163 5.77877 17.1077 5.6432 16.7857 5.64286ZM8.28571 17.2143V13.3571H10.7143V17.2143H8.28571ZM11.9286 17.2143V12.7143C11.9286 12.5438 11.8646 12.3803 11.7507 12.2597C11.6369 12.1392 11.4825 12.0714 11.3214 12.0714H7.67857C7.51755 12.0714 7.36312 12.1392 7.24926 12.2597C7.1354 12.3803 7.07143 12.5438 7.07143 12.7143V17.2143H2.21429V6.92857H4.64286V1.78571H14.3571V6.92857H16.7857V17.2143H11.9286Z" fill="#23355F"/>
</g>
<defs>
<clipPath id="clip0_2_2429">
<rect width="18" height="18" fill="white" transform="translate(0.5 0.5)"/>
</clipPath>
</defs>
</svg>
