<svg width="20" height="20" viewBox="0 0 20 20" fill="none" xmlns="http://www.w3.org/2000/svg">
<path d="M10.6251 10.625H13.8388C13.991 11.2142 14.3527 11.7276 14.8563 12.0691C15.36 12.4106 15.9708 12.5568 16.5745 12.4801C17.1781 12.4034 17.733 12.1092 18.1353 11.6527C18.5375 11.1961 18.7595 10.6085 18.7595 10C18.7595 9.39152 18.5375 8.80393 18.1353 8.34736C17.733 7.89079 17.1781 7.5966 16.5745 7.51993C15.9708 7.44326 15.36 7.58937 14.8563 7.93088C14.3527 8.27239 13.991 8.78584 13.8388 9.37501H10.6251V4.37501H13.8388C13.991 4.96417 14.3527 5.47762 14.8563 5.81913C15.36 6.16064 15.9708 6.30675 16.5745 6.23008C17.1781 6.15341 17.733 5.85922 18.1353 5.40265C18.5375 4.94609 18.7595 4.35849 18.7595 3.75001C18.7595 3.14152 18.5375 2.55393 18.1353 2.09736C17.733 1.64079 17.1781 1.3466 16.5745 1.26993C15.9708 1.19326 15.36 1.33937 14.8563 1.68088C14.3527 2.02239 13.991 2.53584 13.8388 3.12501H10.6251C10.2937 3.12534 9.97592 3.25714 9.74157 3.49149C9.50722 3.72584 9.37542 4.04359 9.37509 4.37501V9.37501H6.16134C6.00922 8.78584 5.64744 8.27239 5.14383 7.93088C4.64022 7.58937 4.02935 7.44326 3.42571 7.51993C2.82208 7.5966 2.26713 7.89079 1.86489 8.34736C1.46264 8.80393 1.24072 9.39152 1.24072 10C1.24072 10.6085 1.46264 11.1961 1.86489 11.6527C2.26713 12.1092 2.82208 12.4034 3.42571 12.4801C4.02935 12.5568 4.64022 12.4106 5.14383 12.0691C5.64744 11.7276 6.00922 11.2142 6.16134 10.625H9.37509V15.625C9.37542 15.9564 9.50722 16.2742 9.74157 16.5085C9.97592 16.7429 10.2937 16.8747 10.6251 16.875H13.8388C13.991 17.4642 14.3527 17.9776 14.8563 18.3191C15.36 18.6606 15.9708 18.8068 16.5745 18.7301C17.1781 18.6534 17.733 18.3592 18.1353 17.9027C18.5375 17.4461 18.7595 16.8585 18.7595 16.25C18.7595 15.6415 18.5375 15.0539 18.1353 14.5974C17.733 14.1408 17.1781 13.8466 16.5745 13.7699C15.9708 13.6933 15.36 13.8394 14.8563 14.1809C14.3527 14.5224 13.991 15.0358 13.8388 15.625H10.6251V10.625ZM16.2501 8.75001C16.4973 8.75001 16.739 8.82332 16.9446 8.96067C17.1501 9.09802 17.3103 9.29324 17.4049 9.52165C17.4995 9.75006 17.5243 10.0014 17.4761 10.2439C17.4278 10.4863 17.3088 10.7091 17.134 10.8839C16.9592 11.0587 16.7364 11.1778 16.494 11.226C16.2515 11.2742 16.0001 11.2495 15.7717 11.1549C15.5433 11.0602 15.3481 10.9 15.2108 10.6945C15.0734 10.4889 15.0001 10.2472 15.0001 10C15.0004 9.66859 15.1322 9.35084 15.3666 9.11649C15.6009 8.88214 15.9187 8.75034 16.2501 8.75001ZM16.2501 2.50001C16.4973 2.50001 16.739 2.57332 16.9446 2.71067C17.1501 2.84802 17.3103 3.04324 17.4049 3.27165C17.4995 3.50006 17.5243 3.75139 17.4761 3.99387C17.4278 4.23635 17.3088 4.45907 17.134 4.63389C16.9592 4.80871 16.7364 4.92776 16.494 4.97599C16.2515 5.02422 16.0001 4.99946 15.7717 4.90486C15.5433 4.81025 15.3481 4.65003 15.2108 4.44447C15.0734 4.23891 15.0001 3.99723 15.0001 3.75001C15.0004 3.41859 15.1322 3.10084 15.3666 2.86649C15.6009 2.63214 15.9187 2.50034 16.2501 2.50001ZM3.75009 11.25C3.50286 11.25 3.26119 11.1767 3.05562 11.0393C2.85006 10.902 2.68985 10.7068 2.59524 10.4784C2.50063 10.25 2.47587 9.99862 2.52411 9.75614C2.57234 9.51367 2.69139 9.29094 2.8662 9.11612C3.04102 8.94131 3.26375 8.82226 3.50622 8.77402C3.7487 8.72579 4.00003 8.75055 4.22844 8.84516C4.45685 8.93977 4.65207 9.09998 4.78942 9.30554C4.92678 9.5111 5.00009 9.75278 5.00009 10C4.99976 10.3314 4.86795 10.6492 4.63361 10.8835C4.39926 11.1179 4.08151 11.2497 3.75009 11.25ZM16.2501 15C16.4973 15 16.739 15.0733 16.9446 15.2107C17.1501 15.348 17.3103 15.5432 17.4049 15.7717C17.4995 16.0001 17.5243 16.2514 17.4761 16.4939C17.4278 16.7363 17.3088 16.9591 17.134 17.1339C16.9592 17.3087 16.7364 17.4278 16.494 17.476C16.2515 17.5242 16.0001 17.4995 15.7717 17.4049C15.5433 17.3102 15.3481 17.15 15.2108 16.9445C15.0734 16.7389 15.0001 16.4972 15.0001 16.25C15.0004 15.9186 15.1322 15.6008 15.3666 15.3665C15.6009 15.1321 15.9187 15.0003 16.2501 15Z" fill="#23355F"/>
</svg>
