<svg width="18" height="22" viewBox="0 0 18 22" fill="none" xmlns="http://www.w3.org/2000/svg">
<path d="M9 12.5481C8.44374 12.5481 7.89997 12.3549 7.43746 11.9931C6.97495 11.6312 6.61446 11.1169 6.40159 10.5151C6.18872 9.91333 6.13302 9.25117 6.24154 8.61233C6.35006 7.9735 6.61793 7.3867 7.01126 6.92613C7.4046 6.46555 7.90574 6.1519 8.45131 6.02483C8.99688 5.89776 9.56238 5.96297 10.0763 6.21223C10.5902 6.46149 11.0295 6.8836 11.3385 7.42518C11.6476 7.96675 11.8125 8.60347 11.8125 9.25482C11.8116 10.1279 11.515 10.965 10.9878 11.5824C10.4605 12.1997 9.74565 12.547 9 12.5481ZM9 7.27886C8.66625 7.27886 8.33998 7.39475 8.06248 7.61187C7.78497 7.82899 7.56868 8.13759 7.44095 8.49865C7.31323 8.85971 7.27981 9.25701 7.34493 9.64031C7.41004 10.0236 7.57076 10.3757 7.80676 10.652C8.04276 10.9284 8.34344 11.1166 8.67079 11.1928C8.99813 11.2691 9.33743 11.2299 9.64578 11.0804C9.95413 10.9308 10.2177 10.6775 10.4031 10.3526C10.5885 10.0277 10.6875 9.64563 10.6875 9.25482C10.6871 8.73092 10.5091 8.22863 10.1928 7.85818C9.87638 7.48773 9.44742 7.27938 9 7.27886Z" fill="#23355F"/>
<path d="M9.00001 20.452L4.25476 13.899C4.18882 13.8006 4.12357 13.7016 4.05901 13.602C3.24843 12.3517 2.81054 10.8246 2.81251 9.25484C2.81251 7.33329 3.4644 5.49045 4.62478 4.13171C5.78516 2.77297 7.35898 2.00964 9.00001 2.00964C10.641 2.00964 12.2148 2.77297 13.3752 4.13171C14.5356 5.49045 15.1875 7.33329 15.1875 9.25484C15.1895 10.8238 14.7518 12.3503 13.9416 13.6L13.941 13.602C13.941 13.602 13.7723 13.8615 13.7469 13.8964L9.00001 20.452ZM4.95676 12.8083C4.95788 12.8083 5.08838 13.0111 5.11819 13.0546L9.00001 18.4154L12.8869 13.0474C12.9116 13.0111 13.0433 12.807 13.0438 12.8063C13.706 11.7848 14.0638 10.5373 14.0625 9.25484C14.0625 7.68266 13.5291 6.17488 12.5797 5.06319C11.6303 3.95149 10.3427 3.32695 9.00001 3.32695C7.65735 3.32695 6.36968 3.95149 5.42028 5.06319C4.47088 6.17488 3.93751 7.68266 3.93751 9.25484C3.93633 10.5381 4.29457 11.7863 4.95732 12.8083H4.95676Z" fill="#23355F"/>
</svg>
