<svg width="15" height="15" viewBox="0 0 15 15" fill="none" xmlns="http://www.w3.org/2000/svg">
<path d="M12.1875 2.8125H1.875V4.29844L5.34844 7.77656L5.625 8.04844V12.1875H7.5V11.25H8.4375V12.1875C8.4375 12.4361 8.33873 12.6746 8.16291 12.8504C7.9871 13.0262 7.74864 13.125 7.5 13.125H5.625C5.37636 13.125 5.1379 13.0262 4.96209 12.8504C4.78627 12.6746 4.6875 12.4361 4.6875 12.1875V8.4375L1.21406 4.96406C1.12633 4.87685 1.05672 4.77313 1.00926 4.65889C0.961789 4.54465 0.937402 4.42215 0.9375 4.29844V2.8125C0.9375 2.56386 1.03627 2.3254 1.21209 2.14959C1.3879 1.97377 1.62636 1.875 1.875 1.875H12.1875V2.8125Z" fill="#363636"/>
<path d="M13.9266 5.29222L12.5203 3.88597C12.4767 3.84203 12.4249 3.80716 12.3678 3.78336C12.3106 3.75957 12.2494 3.74731 12.1875 3.74731C12.1256 3.74731 12.0644 3.75957 12.0072 3.78336C11.9501 3.80716 11.8983 3.84203 11.8547 3.88597L7.5 8.24535V10.3125H9.56719L13.9266 5.95784C13.9705 5.91427 14.0054 5.86242 14.0292 5.8053C14.053 5.74818 14.0652 5.68691 14.0652 5.62503C14.0652 5.56315 14.053 5.50188 14.0292 5.44476C14.0054 5.38764 13.9705 5.3358 13.9266 5.29222ZM9.18281 9.37503H8.4375V8.62972L10.7812 6.28597L11.5266 7.03128L9.18281 9.37503ZM12.1875 6.37035L11.4422 5.62503L12.1875 4.87972L12.9328 5.62503L12.1875 6.37035Z" fill="#363636"/>
</svg>
