<svg width="129" height="129" viewBox="0 0 129 129" fill="none" xmlns="http://www.w3.org/2000/svg">
<g clip-path="url(#clip0_3666_12975)">
<path d="M129 64.5015C129 100.127 100.125 129.001 64.501 129C28.8753 129.001 8.0783e-08 100.127 8.0783e-08 64.5015C-0.00176359 28.8764 28.8753 0 64.501 0C100.125 0 129 28.8774 129 64.5015Z" fill="#23355F" fill-opacity="0.84"/>
<path d="M128.983 65.15C128.858 65.0238 96.7324 32.8973 96.6057 32.7726C88.4121 24.4818 77.0498 19.3291 64.5 19.3291C39.5932 19.3291 19.3289 39.5932 19.3289 64.5C19.3289 77.049 24.4813 88.4109 32.7718 96.6049C32.8965 96.7314 33.0218 96.8563 33.1482 96.9813C33.2732 97.1078 64.6477 128.482 64.7741 128.607C64.8989 128.733 65.0236 128.858 65.1501 128.983C100.256 128.637 128.636 100.257 128.983 65.15Z" fill="#23355F" fill-opacity="0.8"/>
<path d="M82.0364 49.9494L55.1354 75.0585L47.0094 66.9325C46.2742 66.1973 45.0832 66.1973 44.348 66.9325C43.6128 67.6677 43.6128 68.8587 44.348 69.5939L53.7585 79.0056C54.1261 79.3722 54.6078 79.5571 55.0893 79.5571C55.5506 79.5571 56.0119 79.3888 56.3743 79.0507L84.6064 52.7009C85.3655 51.9914 85.4058 50.8005 84.6983 50.0413C83.9883 49.2804 82.7991 49.2381 82.0364 49.9494Z" fill="white"/>
<path d="M64.5 19.3291C39.5932 19.3291 19.3291 39.5932 19.3291 64.5C19.3291 89.4068 39.5932 109.671 64.5 109.671C89.4068 109.671 109.671 89.4068 109.671 64.5C109.671 39.5932 89.4068 19.3291 64.5 19.3291ZM64.5 105.906C41.6683 105.906 23.0935 87.3315 23.0935 64.5C23.0935 41.6685 41.6683 23.0935 64.5 23.0935C87.3318 23.0935 105.906 41.6683 105.906 64.5C105.906 87.3318 87.3318 105.906 64.5 105.906Z" fill="white"/>
</g>
<defs>
<clipPath id="clip0_3666_12975">
<rect width="129" height="129" fill="white"/>
</clipPath>
</defs>
</svg>
