<svg width="50" height="50" viewBox="0 0 50 50" fill="none" xmlns="http://www.w3.org/2000/svg">
<path d="M17.9492 1.08396C17.0703 1.18161 16.2695 1.6113 15.5371 2.39255C14.8242 3.15427 14.5312 3.66208 13.7206 5.56638C12.8906 7.5195 12.6855 7.8613 12.2851 7.99802C12.1093 8.06638 11.0644 8.2031 9.96088 8.30075C7.72455 8.5156 6.76752 8.73044 5.95697 9.22849C4.05268 10.3906 3.60346 12.2168 4.39447 15.5273C5.13666 18.6328 5.16596 18.4179 3.73041 19.6582C2.18744 20.9863 1.39643 21.7578 0.947208 22.3633C-0.127011 23.7988 -0.26373 25.4004 0.546817 26.9629C0.996036 27.8125 1.6015 28.4765 3.2226 29.8828C3.96479 30.5273 4.63861 31.1621 4.7265 31.2988C4.95111 31.6504 4.92182 32.0019 4.49213 33.8086C4.03314 35.7812 3.86713 36.8847 3.95502 37.539C4.1601 39.1894 4.99018 40.3418 6.46479 41.0058C7.2851 41.3769 8.24213 41.5625 10.332 41.748C11.2597 41.8261 12.1581 41.9531 12.3437 42.0312C12.7441 42.1972 12.9296 42.5 13.623 44.1406C14.4531 46.1133 14.9121 46.9433 15.5566 47.6269C16.8261 48.9843 18.5058 49.3164 20.3613 48.5742C20.7128 48.4277 21.6308 47.9394 22.3925 47.4902C24.1992 46.4062 24.6386 46.1914 24.9999 46.1914C25.3613 46.1914 25.9179 46.4648 27.2753 47.3047C29.4824 48.6718 30.332 48.9746 31.6796 48.9062C32.3828 48.8672 32.6855 48.7988 33.1249 48.584C34.3945 47.9785 35.0878 47.0508 36.2304 44.414C37.0703 42.4902 37.2363 42.207 37.6269 42.0117C37.7734 41.9433 38.7988 41.7968 39.9121 41.6894C42.8613 41.4062 43.8671 41.084 44.8242 40.1074C46.1035 38.7988 46.2792 37.2656 45.5078 34.0332C45.0683 32.1972 45.0195 31.6601 45.2441 31.3086C45.332 31.1816 46.0058 30.5468 46.748 29.9023C48.4179 28.457 48.9843 27.8515 49.4335 26.9922C50.1367 25.6543 50.1464 24.3554 49.4531 23.0468C48.9941 22.1777 48.4472 21.5722 46.9921 20.3515C45.2734 18.916 45.1171 18.7304 45.1171 18.1738C45.1171 17.9297 45.3027 16.9726 45.5273 16.0644C45.8984 14.541 45.9374 14.2968 45.9374 13.0859C45.9472 11.8457 45.9277 11.7383 45.6738 11.1816C45.1464 10.0683 44.4042 9.36521 43.291 8.95505C42.3828 8.61325 41.8749 8.52536 39.9706 8.34958C39.0624 8.27146 38.1249 8.15427 37.8613 8.09568C37.2949 7.95896 37.1972 7.81247 36.1914 5.49802C35.8007 4.59958 35.3222 3.60349 35.1171 3.28122C34.0624 1.6406 32.5195 0.869114 30.8398 1.15232C29.9023 1.31833 29.1308 1.6699 27.2167 2.81247C26.3183 3.34958 25.4492 3.81833 25.2929 3.8574C24.8046 3.96482 24.4824 3.8281 22.9296 2.8613C21.1425 1.75779 20.7324 1.54294 19.9121 1.28904C19.1015 1.03513 18.7499 0.996067 17.9492 1.08396ZM19.1406 5.4199C19.414 5.55661 20.0976 5.96677 20.6738 6.33786C22.705 7.62693 23.7402 8.03708 24.9999 8.03708C26.3085 8.03708 27.1191 7.70505 29.8242 6.07419L31.3671 5.13669L31.5527 5.38083C31.6503 5.50779 32.0019 6.24997 32.3339 7.03122C33.1445 8.93552 33.4863 9.60935 34.0136 10.3027C35.1269 11.7773 36.3378 12.2265 39.9316 12.5C40.7617 12.5683 41.5527 12.6562 41.6796 12.7051C41.9042 12.7929 41.914 12.832 41.8554 13.3301C41.8261 13.623 41.6503 14.4629 41.4648 15.2148C41.0253 17.0117 40.8886 18.1738 41.0156 18.9941C41.2597 20.5371 41.8554 21.3867 43.8964 23.125C45.2636 24.2871 45.8007 24.8242 45.8007 25C45.8007 25.1855 44.8925 26.0742 43.5839 27.1777C42.4218 28.1543 41.8652 28.7988 41.4453 29.6386C40.7617 31.0156 40.7714 32.0605 41.5039 35.0586C41.9726 37.0019 41.9824 37.1777 41.6406 37.3144C41.4941 37.3633 40.6249 37.4707 39.707 37.5586C36.3671 37.8418 35.4199 38.164 34.2968 39.3945C33.6425 40.1172 33.2617 40.8008 32.4706 42.7246C31.6308 44.7363 31.5624 44.8535 31.2499 44.7754C31.1132 44.7461 30.3124 44.2968 29.4726 43.789C26.5917 42.041 25.5175 41.7383 23.8085 42.1777C22.9199 42.4121 22.041 42.8418 20.4882 43.8086C19.8437 44.209 19.1699 44.6191 18.9746 44.707L18.6328 44.873L18.4081 44.58C18.2812 44.4238 17.9492 43.75 17.666 43.0761C16.7968 40.9765 16.2402 39.9707 15.5859 39.3164C14.4726 38.2031 13.5546 37.8906 10.4492 37.6074C9.34564 37.5 8.36908 37.3828 8.28119 37.3535C8.00776 37.2461 8.06635 36.6601 8.51557 34.8242C8.89643 33.2812 8.92572 33.0468 8.93549 31.8359C8.93549 30.5761 8.92572 30.4883 8.65229 29.8925C8.27143 29.082 7.74408 28.4179 6.78705 27.5488C4.53119 25.4883 4.19916 25.166 4.19916 25.0195C4.20893 24.7656 4.69721 24.2676 6.20111 22.9785C8.14447 21.3183 8.73041 20.4785 8.99408 19.0136C9.15033 18.1347 9.02338 17.0898 8.51557 14.9804C7.94916 12.6855 7.95893 12.8027 8.28119 12.6855C8.42768 12.6269 9.26752 12.5195 10.1562 12.4414C13.0761 12.1875 13.9941 11.9433 15.0292 11.1816C15.6249 10.7422 16.2988 9.89255 16.7285 9.03318C16.8554 8.75974 17.2363 7.88083 17.5781 7.08005C18.2128 5.53708 18.3984 5.17575 18.5644 5.17575C18.6132 5.17575 18.8769 5.28318 19.1406 5.4199Z" fill="#50AD6A"/>
<path d="M32.4218 16.7871C31.7578 17.002 31.3769 17.4121 26.914 22.7442C24.3456 25.8106 22.207 28.3496 22.1484 28.3789C22.0995 28.4082 21.0839 27.4707 19.8925 26.2891C17.7636 24.1895 17.7148 24.1406 17.1874 24.0332C16.2402 23.8379 15.332 24.2774 14.8632 25.1367C14.6484 25.5469 14.6581 26.5039 14.8828 26.9531C14.9804 27.1387 16.4062 28.6426 18.0566 30.2832C20.5566 32.7832 21.123 33.3008 21.5038 33.4473C22.1191 33.6719 22.8222 33.6035 23.3203 33.2715C23.5546 33.125 25.9472 30.332 29.2187 26.4258C35.166 19.3164 35.0488 19.4824 34.9316 18.4961C34.873 17.9199 34.4433 17.3047 33.916 17.0117C33.4765 16.7676 32.7929 16.6699 32.4218 16.7871Z" fill="#50AD6A"/>
</svg>
