<svg width="18" height="18" viewBox="0 0 18 18" fill="none" xmlns="http://www.w3.org/2000/svg">
<path d="M12.6 10.8V14.4M5.4 3.60001V1.80001C5.4 1.48175 5.52643 1.17652 5.75147 0.951478C5.97652 0.726434 6.28174 0.600006 6.6 0.600006H11.4C11.7183 0.600006 12.0235 0.726434 12.2485 0.951478C12.4736 1.17652 12.6 1.48175 12.6 1.80001V3.60001H5.4ZM0 4.20001H18H0ZM1.8 4.20001V16.2C1.8 16.5183 1.92643 16.8235 2.15147 17.0485C2.37652 17.2736 2.68174 17.4 3 17.4H15C15.3183 17.4 15.6235 17.2736 15.8485 17.0485C16.0736 16.8235 16.2 16.5183 16.2 16.2V4.20001H1.8ZM9 8.40001V14.4V8.40001ZM5.4 10.8V14.4V10.8Z" stroke="#F24E1E" stroke-width="1.2"/>
</svg>
