<svg width="20" height="20" viewBox="0 0 20 20" fill="none" xmlns="http://www.w3.org/2000/svg">
<path d="M9.91895 4.98407C9.42449 4.98407 8.94114 5.13069 8.53002 5.4054C8.1189 5.6801 7.79847 6.07055 7.60925 6.52736C7.42003 6.98418 7.37052 7.48684 7.46698 7.9718C7.56345 8.45675 7.80155 8.90221 8.15118 9.25184C8.50081 9.60147 8.94627 9.83957 9.43122 9.93603C9.91617 10.0325 10.4188 9.98299 10.8757 9.79377C11.3325 9.60455 11.7229 9.28412 11.9976 8.873C12.2723 8.46187 12.4189 7.97852 12.4189 7.48407C12.4182 6.82126 12.1546 6.18581 11.6859 5.71714C11.2172 5.24846 10.5818 4.98482 9.91895 4.98407ZM9.91895 8.73407C9.67172 8.73407 9.43004 8.66076 9.22448 8.52341C9.01892 8.38605 8.85871 8.19083 8.7641 7.96242C8.66949 7.73402 8.64473 7.48268 8.69296 7.24021C8.7412 6.99773 8.86025 6.775 9.03506 6.60019C9.20988 6.42537 9.43261 6.30632 9.67508 6.25809C9.91756 6.20986 10.1689 6.23461 10.3973 6.32922C10.6257 6.42383 10.8209 6.58405 10.9583 6.78961C11.0956 6.99517 11.1689 7.23684 11.1689 7.48407C11.1686 7.81547 11.0367 8.13319 10.8024 8.36753C10.5681 8.60187 10.2503 8.73369 9.91895 8.73407Z" fill="#F9F9F9"/>
<path d="M14.7229 2.67634C13.5351 1.48885 11.9496 0.783439 10.2723 0.696241C8.59499 0.609043 6.94484 1.14624 5.64032 2.20416C4.33581 3.26207 3.4694 4.76571 3.20833 6.42486C2.94726 8.08402 3.31002 9.78107 4.2266 11.1885L8.94953 18.439C9.05464 18.6003 9.19834 18.7329 9.36762 18.8246C9.53691 18.9164 9.72642 18.9645 9.91897 18.9645C10.1115 18.9645 10.301 18.9164 10.4703 18.8246C10.6396 18.7329 10.7833 18.6003 10.8884 18.439L15.6115 11.1885C16.462 9.8829 16.8378 8.32465 16.6761 6.77491C16.5143 5.22516 15.8247 3.77813 14.7229 2.67634ZM14.5641 10.5062L9.91899 17.637L5.27379 10.5062C3.85192 8.32341 4.15688 5.40231 5.99891 3.5602C6.5137 3.0454 7.12484 2.63704 7.79745 2.35843C8.47006 2.07982 9.19096 1.93642 9.91899 1.93642C10.647 1.93642 11.3679 2.07982 12.0405 2.35843C12.7131 2.63704 13.3243 3.0454 13.8391 3.5602C15.6811 5.40231 15.986 8.32341 14.5641 10.5062Z" fill="#F9F9F9"/>
</svg>
