<svg width="18" height="18" viewBox="0 0 18 18" fill="none" xmlns="http://www.w3.org/2000/svg">
<path d="M16.795 3.09503C16.7336 3.04512 16.6613 3.01049 16.5839 2.99397C16.5065 2.97746 16.4264 2.97953 16.35 3.00003L11.545 4.50003L6.72998 2.05503C6.66416 2.02457 6.5925 2.00879 6.51998 2.00879C6.44745 2.00879 6.37579 2.02457 6.30998 2.05503L1.30998 4.10003C1.21788 4.13786 1.13917 4.20233 1.08394 4.28517C1.02872 4.36802 0.999477 4.46546 0.999976 4.56503V14.805C1.00038 14.8869 1.0209 14.9675 1.05972 15.0396C1.09854 15.1117 1.15448 15.1731 1.22262 15.2186C1.29076 15.264 1.36901 15.292 1.4505 15.3001C1.53199 15.3082 1.61423 15.2961 1.68998 15.265L6.49998 13.29L11.295 15.75C11.3661 15.7865 11.445 15.8053 11.525 15.805C11.5747 15.8126 11.6253 15.8126 11.675 15.805L16.675 14.245C16.7803 14.212 16.8718 14.1451 16.9351 14.0546C16.9984 13.9642 17.03 13.8553 17.025 13.745V3.50003C17.0224 3.41892 17.0001 3.33967 16.96 3.26911C16.9199 3.19855 16.8633 3.1388 16.795 3.09503ZM16 13.375L11.84 14.675V13.53H11.04V14.53L6.83998 12.375V11.53H6.03998V12.39L1.99998 14.055V4.89503L6.03998 3.23003V4.40503H6.83998V3.23503L11.04 5.38503V6.43503H11.84V5.50003L16 4.18003V13.375Z" fill="#23355F"/>
<path d="M11.04 7.53003H11.84V9.43503H11.04V7.53003Z" fill="#23355F"/>
<path d="M11.04 10.53H11.84V12.435H11.04V10.53Z" fill="#23355F"/>
<path d="M6.03998 5.53003H6.83998V7.43503H6.03998V5.53003Z" fill="#23355F"/>
<path d="M6.03998 8.565H6.83998V10.44H6.03998V8.565Z" fill="#23355F"/>
</svg>
