<svg width="18" height="18" viewBox="0 0 18 18" fill="none" xmlns="http://www.w3.org/2000/svg">
<path d="M5.71004 1.71501C5.15816 1.27669 4.46492 1.05555 3.76117 1.09332C3.05743 1.13109 2.39184 1.42515 1.89004 1.92001C1.39238 2.42096 1.09763 3.08831 1.06255 3.79357C1.02748 4.49883 1.25454 5.19214 1.70004 5.74001C2.5023 3.95502 3.92806 2.52393 5.71004 1.71501Z" fill="#23355F"/>
<path d="M9.42997 4.74999C9.42997 4.63064 9.38256 4.51618 9.29817 4.43179C9.21377 4.3474 9.09932 4.29999 8.97997 4.29999C8.86062 4.29999 8.74616 4.3474 8.66177 4.43179C8.57738 4.51618 8.52997 4.63064 8.52997 4.74999V9.24999L12.06 11C12.1674 11.0524 12.2912 11.0599 12.4042 11.021C12.5172 10.9821 12.6101 10.8999 12.6625 10.7925C12.7148 10.6851 12.7224 10.5613 12.6835 10.4483C12.6446 10.3353 12.5624 10.2424 12.455 10.19L9.42497 8.68999L9.42997 4.74999Z" fill="#23355F"/>
<path d="M14 13.89C14.9158 12.9622 15.5521 11.7954 15.8359 10.523C16.1198 9.25064 16.0397 7.92405 15.605 6.69501C15.2566 6.75662 14.9009 6.76504 14.55 6.72001C15.0769 8.00263 15.1433 9.42816 14.7379 10.7542C14.3325 12.0802 13.4803 13.2249 12.3262 13.9936C11.1721 14.7623 9.78745 15.1075 8.4076 14.9706C7.02774 14.8337 5.7379 14.2231 4.75741 13.2426C3.77691 12.2621 3.16629 10.9723 3.02937 9.5924C2.89245 8.21255 3.23769 6.82786 4.00638 5.6738C4.77507 4.51974 5.91976 3.66754 7.2458 3.26213C8.57184 2.85671 9.99737 2.9231 11.28 3.45001C11.261 3.30074 11.251 3.15047 11.25 3.00001C11.252 2.79719 11.2704 2.59486 11.305 2.39501C9.81123 1.88143 8.18769 1.88816 6.69824 2.41412C5.2088 2.94007 3.94103 3.95432 3.10099 5.292C2.26095 6.62969 1.89804 8.21217 2.07124 9.78222C2.24444 11.3523 2.94357 12.8176 4.05499 13.94L2.77999 15.215C2.6865 15.3105 2.63477 15.4392 2.63617 15.5728C2.63758 15.7064 2.69201 15.834 2.78749 15.9275C2.88297 16.021 3.01167 16.0727 3.14529 16.0713C3.27891 16.0699 3.4065 16.0155 3.49999 15.92L4.82999 14.59C6.04625 15.5104 7.53152 16.0051 9.05676 15.9979C10.582 15.9907 12.0625 15.4819 13.27 14.55L14.64 15.92C14.7356 16.0019 14.8587 16.0447 14.9845 16.0399C15.1104 16.035 15.2297 15.9828 15.3188 15.8938C15.4078 15.8047 15.46 15.6854 15.4648 15.5595C15.4697 15.4337 15.4269 15.3107 15.345 15.215L14 13.89Z" fill="#23355F"/>
<path d="M15 5.5C16.3807 5.5 17.5 4.38071 17.5 3C17.5 1.61929 16.3807 0.5 15 0.5C13.6193 0.5 12.5 1.61929 12.5 3C12.5 4.38071 13.6193 5.5 15 5.5Z" fill="#23355F"/>
</svg>
