<svg width="24" height="24" viewBox="0 0 24 24" fill="none" xmlns="http://www.w3.org/2000/svg">
<path d="M9.47368 0.275482C6.12632 0.994602 2.86316 3.51152 1.38947 6.51491C0.547368 8.2281 0 10.4278 0 12.1198C0 13.6004 0.694737 16.2019 1.51579 17.767C3.74737 22.0394 8.86316 24.5987 13.7053 23.8795C17.3053 23.3508 20.8632 20.8973 22.4842 17.767C23.3053 16.2019 24 13.6004 24 12.1198C23.9789 8.98952 22.6316 5.71118 20.4211 3.53267C17.4737 0.61389 13.4526 -0.591692 9.47368 0.275482Z" fill="#23355F"/>
<rect x="7.95349" y="7.20728" width="12.4679" height="1.38532" rx="0.692662" transform="rotate(43.4812 7.95349 7.20728)" fill="white"/>
<rect x="15.7871" y="7" width="1.38532" height="12.4679" rx="0.692662" transform="rotate(43.4812 15.7871 7)" fill="white"/>
</svg>
