<svg class="me-2" xmlns="http://www.w3.org/2000/svg" xmlns:xlink="http://www.w3.org/1999/xlink" width="17.5" height="18.667" viewBox="0 0 17.5 18.667">
                            <defs>
                              <clipPath id="clip-path">
                                <rect id="Rectangle_121" data-name="Rectangle 121" width="17.5" height="18.667" fill="#fff" />
                              </clipPath>
                            </defs>
                            <g id="ps_lab" clip-path="url(#clip-path)">
                              <path id="Path_245" data-name="Path 245" d="M2.542,18.667H15.01a2.3,2.3,0,0,0,2.333-2.26v-.073a3.062,3.062,0,0,0-.474-1.641L11.109,7V1.568h.766a.766.766,0,0,0,.547-.255.766.766,0,0,0,.255-.547.709.709,0,0,0-.255-.529A.793.793,0,0,0,11.875,0h-6.2A.793.793,0,0,0,5.13.237a.709.709,0,0,0-.255.529.766.766,0,0,0,.255.547.766.766,0,0,0,.547.255h.766V6.927L.755,14.62a2.945,2.945,0,0,0-.474,1.568l-.073.146a2.354,2.354,0,0,0,.729,1.659A2.231,2.231,0,0,0,2.542,18.667Zm3.9-9.115.4-.438A7.035,7.035,0,0,0,8.01,6.307V1.568H9.542V6.234a6.3,6.3,0,0,0,1.167,2.771l.4.474,1.568,2.115h-7.8ZM1.995,15.568l2.115-2.88v.547h9.734l1.714,2.333a2.4,2.4,0,0,1,.219.693.833.833,0,0,1-.237.583.709.709,0,0,1-.529.255H2.542a.71.71,0,0,1-.529-.255.833.833,0,0,1-.237-.583A.947.947,0,0,1,1.995,15.568Z" transform="translate(-0.026)" fill="#fff" />
                            </g>
                          </svg>