<svg width="18" height="18" viewBox="0 0 18 18" fill="none" xmlns="http://www.w3.org/2000/svg">
<path d="M9.62509 9.62501H12.8388C12.991 10.2142 13.3527 10.7276 13.8563 11.0691C14.36 11.4106 14.9708 11.5568 15.5745 11.4801C16.1781 11.4034 16.733 11.1092 17.1353 10.6527C17.5375 10.1961 17.7595 9.60849 17.7595 9.00001C17.7595 8.39152 17.5375 7.80393 17.1353 7.34736C16.733 6.89079 16.1781 6.5966 15.5745 6.51993C14.9708 6.44326 14.36 6.58937 13.8563 6.93088C13.3527 7.27239 12.991 7.78584 12.8388 8.37501H9.62509V3.37501H12.8388C12.991 3.96417 13.3527 4.47762 13.8563 4.81913C14.36 5.16064 14.9708 5.30675 15.5745 5.23008C16.1781 5.15341 16.733 4.85922 17.1353 4.40265C17.5375 3.94609 17.7595 3.35849 17.7595 2.75001C17.7595 2.14152 17.5375 1.55393 17.1353 1.09736C16.733 0.640794 16.1781 0.346603 15.5745 0.269932C14.9708 0.19326 14.36 0.339372 13.8563 0.68088C13.3527 1.02239 12.991 1.53584 12.8388 2.12501H9.62509C9.29367 2.12534 8.97592 2.25714 8.74157 2.49149C8.50722 2.72584 8.37542 3.04359 8.37509 3.37501V8.37501H5.16134C5.00922 7.78584 4.64744 7.27239 4.14383 6.93088C3.64022 6.58937 3.02935 6.44326 2.42571 6.51993C1.82208 6.5966 1.26713 6.89079 0.864886 7.34736C0.462643 7.80393 0.240723 8.39152 0.240723 9.00001C0.240723 9.60849 0.462643 10.1961 0.864886 10.6527C1.26713 11.1092 1.82208 11.4034 2.42571 11.4801C3.02935 11.5568 3.64022 11.4106 4.14383 11.0691C4.64744 10.7276 5.00922 10.2142 5.16134 9.62501H8.37509V14.625C8.37542 14.9564 8.50722 15.2742 8.74157 15.5085C8.97592 15.7429 9.29367 15.8747 9.62509 15.875H12.8388C12.991 16.4642 13.3527 16.9776 13.8563 17.3191C14.36 17.6606 14.9708 17.8068 15.5745 17.7301C16.1781 17.6534 16.733 17.3592 17.1353 16.9027C17.5375 16.4461 17.7595 15.8585 17.7595 15.25C17.7595 14.6415 17.5375 14.0539 17.1353 13.5974C16.733 13.1408 16.1781 12.8466 15.5745 12.7699C14.9708 12.6933 14.36 12.8394 13.8563 13.1809C13.3527 13.5224 12.991 14.0358 12.8388 14.625H9.62509V9.62501ZM15.2501 7.75001C15.4973 7.75001 15.739 7.82332 15.9446 7.96067C16.1501 8.09802 16.3103 8.29324 16.4049 8.52165C16.4995 8.75006 16.5243 9.00139 16.4761 9.24387C16.4278 9.48635 16.3088 9.70907 16.134 9.88389C15.9592 10.0587 15.7364 10.1778 15.494 10.226C15.2515 10.2742 15.0001 10.2495 14.7717 10.1549C14.5433 10.0602 14.3481 9.90003 14.2108 9.69447C14.0734 9.48891 14.0001 9.24723 14.0001 9.00001C14.0004 8.66859 14.1322 8.35084 14.3666 8.11649C14.6009 7.88214 14.9187 7.75034 15.2501 7.75001ZM15.2501 1.50001C15.4973 1.50001 15.739 1.57332 15.9446 1.71067C16.1501 1.84802 16.3103 2.04324 16.4049 2.27165C16.4995 2.50006 16.5243 2.75139 16.4761 2.99387C16.4278 3.23635 16.3088 3.45907 16.134 3.63389C15.9592 3.80871 15.7364 3.92776 15.494 3.97599C15.2515 4.02422 15.0001 3.99947 14.7717 3.90486C14.5433 3.81025 14.3481 3.65003 14.2108 3.44447C14.0734 3.23891 14.0001 2.99723 14.0001 2.75001C14.0004 2.41859 14.1322 2.10084 14.3666 1.86649C14.6009 1.63214 14.9187 1.50034 15.2501 1.50001ZM2.75009 10.25C2.50286 10.25 2.26119 10.1767 2.05562 10.0393C1.85006 9.90199 1.68985 9.70677 1.59524 9.47836C1.50063 9.24995 1.47587 8.99862 1.52411 8.75614C1.57234 8.51367 1.69139 8.29094 1.8662 8.11612C2.04102 7.94131 2.26375 7.82226 2.50622 7.77402C2.7487 7.72579 3.00003 7.75055 3.22844 7.84516C3.45685 7.93977 3.65207 8.09998 3.78942 8.30554C3.92678 8.5111 4.00009 8.75278 4.00009 9.00001C3.99976 9.33142 3.86795 9.64918 3.63361 9.88352C3.39926 10.1179 3.08151 10.2497 2.75009 10.25ZM15.2501 14C15.4973 14 15.739 14.0733 15.9446 14.2107C16.1501 14.348 16.3103 14.5432 16.4049 14.7717C16.4995 15.0001 16.5243 15.2514 16.4761 15.4939C16.4278 15.7363 16.3088 15.9591 16.134 16.1339C15.9592 16.3087 15.7364 16.4278 15.494 16.476C15.2515 16.5242 15.0001 16.4995 14.7717 16.4049C14.5433 16.3102 14.3481 16.15 14.2108 15.9445C14.0734 15.7389 14.0001 15.4972 14.0001 15.25C14.0004 14.9186 14.1322 14.6008 14.3666 14.3665C14.6009 14.1321 14.9187 14.0003 15.2501 14Z" fill="#23355F"/>
</svg>
