<svg width="12" height="12" viewBox="0 0 12 12" fill="none" xmlns="http://www.w3.org/2000/svg">
<path d="M10.3691 2.24919C10.6812 2.65085 10.9019 3.11569 11.0159 3.61136C11.13 4.10702 11.1346 4.62158 11.0295 5.11921C10.9244 5.61684 10.712 6.08558 10.4073 6.49278C10.1025 6.89999 9.71268 7.23586 9.26488 7.47703C8.8863 7.68178 8.43072 7.55578 8.12622 7.25186L4.74871 3.87378C4.44421 3.56928 4.31822 3.11369 4.52238 2.73511C4.76353 2.28722 5.09943 1.89728 5.50668 1.59247C5.91393 1.28766 6.38274 1.0753 6.88045 0.970187C7.37815 0.86507 7.89279 0.869725 8.38852 0.983826C8.88424 1.09793 9.34913 1.31873 9.7508 1.63086L11.0866 0.295026C11.127 0.253222 11.1752 0.21987 11.2286 0.196916C11.282 0.173962 11.3394 0.161866 11.3975 0.161334C11.4555 0.160802 11.5132 0.171845 11.5669 0.193817C11.6207 0.21579 11.6696 0.248252 11.7107 0.289311C11.7518 0.330369 11.7843 0.379202 11.8063 0.432958C11.8283 0.486715 11.8394 0.544319 11.8389 0.60241C11.8385 0.660501 11.8264 0.717915 11.8035 0.771303C11.7806 0.82469 11.7473 0.872981 11.7055 0.913359L10.3697 2.24919H10.3691ZM0.913298 11.705L2.24913 10.3692C2.65079 10.6812 3.11563 10.9019 3.61129 11.016C4.10696 11.13 4.62152 11.1346 5.11915 11.0295C5.61678 10.9244 6.08552 10.7121 6.49272 10.4073C6.89992 10.1026 7.2358 9.71274 7.47697 9.26494C7.68172 8.88636 7.55572 8.43078 7.25122 8.12628L3.87371 4.74878C3.56921 4.44428 3.11363 4.31828 2.73505 4.52244C2.28716 4.7636 1.89722 5.09949 1.59241 5.50674C1.2876 5.91399 1.07524 6.3828 0.970126 6.88051C0.865009 7.37821 0.869664 7.89285 0.983765 8.38858C1.09787 8.8843 1.31867 9.34919 1.6308 9.75086L0.294965 11.0867C0.253161 11.127 0.219809 11.1753 0.196855 11.2287C0.173901 11.282 0.161805 11.3394 0.161273 11.3975C0.160741 11.4556 0.171784 11.5132 0.193756 11.567C0.215729 11.6208 0.248191 11.6696 0.28925 11.7107C0.330308 11.7518 0.379141 11.7843 0.432897 11.8064C0.486654 11.8284 0.544258 11.8395 0.602349 11.839C0.66044 11.8385 0.717854 11.8265 0.771242 11.8036C0.824629 11.7807 0.87292 11.7474 0.913298 11.7056V11.705Z" fill="#23355F"/>
</svg>
