<svg width="46" height="52" viewBox="0 0 46 52" fill="none" xmlns="http://www.w3.org/2000/svg">
<path fill-rule="evenodd" clip-rule="evenodd" d="M7.0001 13C7.0001 14.12 7.1921 15.1984 7.5441 16.2H5.4001C4.12706 16.2 2.90616 16.7057 2.00599 17.6058C1.10581 18.506 0.600098 19.7269 0.600098 21V25.8H45.4001V21C45.4005 19.8153 44.9628 18.6722 44.1712 17.7908C43.3796 16.9094 42.29 16.3519 41.1121 16.2256C42.3303 13.6903 42.55 10.7894 41.7274 8.09962C40.9049 5.4098 39.1004 3.12795 36.6726 1.70762C34.2447 0.287289 31.3714 -0.16753 28.6236 0.433565C25.8758 1.03466 23.4547 2.64766 21.8417 4.95195C20.3927 4.00762 18.7155 3.47227 16.9874 3.4025C15.2592 3.33273 13.5443 3.73113 12.0239 4.55558C10.5035 5.38004 9.23407 6.59992 8.34977 8.08632C7.46547 9.57271 6.99915 11.2704 7.0001 13ZM31.0001 16.2C31.9494 16.2 32.8775 15.9184 33.6668 15.391C34.4562 14.8636 35.0714 14.1139 35.4347 13.2368C35.798 12.3597 35.8931 11.3946 35.7079 10.4635C35.5227 9.53241 35.0655 8.67713 34.3942 8.00584C33.7229 7.33455 32.8676 6.87739 31.9365 6.69218C31.0054 6.50697 30.0403 6.60203 29.1632 6.96533C28.2861 7.32863 27.5365 7.94386 27.009 8.73321C26.4816 9.52257 26.2001 10.4506 26.2001 11.4V16.2H31.0001ZM19.8001 13V16.2H16.6001C15.9672 16.2 15.3485 16.0123 14.8223 15.6607C14.296 15.309 13.8859 14.8093 13.6437 14.2245C13.4015 13.6398 13.3381 12.9964 13.4616 12.3757C13.5851 11.7549 13.8898 11.1847 14.3374 10.7372C14.7849 10.2897 15.3551 9.98491 15.9758 9.86144C16.5965 9.73797 17.24 9.80134 17.8247 10.0435C18.4094 10.2857 18.9092 10.6959 19.2608 11.2221C19.6124 11.7484 19.8001 12.3671 19.8001 13Z" fill="#23355F"/>
<path d="M3.80005 32.2H19.8V51.4H8.60005C7.32701 51.4 6.10611 50.8942 5.20594 49.9941C4.30576 49.0939 3.80005 47.873 3.80005 46.6V32.2ZM42.2001 32.2H26.2V51.4H37.4001C38.6731 51.4 39.894 50.8942 40.7942 49.9941C41.6943 49.0939 42.2001 47.873 42.2001 46.6V32.2Z" fill="#23355F"/>
</svg>
