<svg width="11" height="11" viewBox="0 0 11 11" fill="none" xmlns="http://www.w3.org/2000/svg">
<path d="M9.84224 5.20995H11.0001C11.0001 2.23995 8.75787 0 5.78381 0V1.1579C8.1355 1.1579 9.84224 2.86174 9.84224 5.20995Z" fill="#17306A"/>
<path d="M5.78964 3.47373C7.00717 3.47373 7.52648 3.99305 7.52648 5.21058H8.68438C8.68438 3.34347 7.65674 2.31584 5.78964 2.31584V3.47373ZM7.7708 6.62495C7.65955 6.52383 7.51337 6.46991 7.36311 6.47455C7.21285 6.4792 7.07027 6.54205 6.96548 6.64984L5.58006 8.07463C5.24659 8.01095 4.57616 7.80195 3.88606 7.11358C3.19595 6.42289 2.98695 5.75073 2.92501 5.41958L4.34864 4.03358C4.45656 3.92886 4.51951 3.78626 4.52415 3.63596C4.5288 3.48566 4.47478 3.33944 4.37353 3.22826L2.23432 0.875996C2.13303 0.764465 1.99225 0.696814 1.84188 0.687409C1.69152 0.678005 1.5434 0.727587 1.42901 0.825627L0.17269 1.90305C0.0725961 2.00351 0.0128535 2.1372 0.00479482 2.27879C-0.00388939 2.42352 -0.169468 5.85205 2.48906 8.51173C4.80832 10.8304 7.71348 11.0001 8.51359 11.0001C8.63053 11.0001 8.70232 10.9966 8.72143 10.9954C8.86299 10.9875 8.99662 10.9275 9.09659 10.8269L10.1734 9.57005C10.2715 9.45573 10.3212 9.30766 10.3119 9.15729C10.3026 9.00693 10.2351 8.86611 10.1236 8.76474L7.7708 6.62495Z" fill="#17306A"/>
</svg>
