<svg width="108" height="168" viewBox="0 0 108 168" fill="none" xmlns="http://www.w3.org/2000/svg">
<path d="M76.0055 60.8094C75.4709 57.0393 74.1778 53.3933 72.0869 50.2144C68.179 44.2777 61.3784 40.1755 54.2742 40.1242C47.3103 40.0716 41.1212 44.5396 38.2568 50.7705C35.8648 55.9607 36.7638 61.5451 37.0514 67.0323C37.3726 73.2078 36.4628 79.0203 33.7996 84.6357C30.9068 90.7344 27.7765 96.8829 28.3839 103.835C29.0089 110.998 32.7345 118.311 40.3963 119.71C49.1312 121.307 58.0848 112.363 60.3931 99.7338C61.3987 94.221 60.9735 88.9174 59.4495 84.5601C57.9404 77.9148 54.6643 71.5462 50.6147 66.0266C48.2984 62.876 44.9818 58.7873 46.063 54.6689C47.0646 50.8367 51.4017 48.1194 55.1583 47.84C59.9921 47.4769 64.6856 50.1456 67.8132 53.8536C73.8808 61.0402 74.4235 72.3372 69.0807 80.0746C72.9346 78.8853 74.9418 74.6346 75.7261 70.6782C76.3686 67.4399 76.4725 64.0788 76.0055 60.8094Z" fill="#C86265"/>
<path d="M4.42277 68.833C4.42277 68.833 4.27429 68.5185 3.98677 67.907C3.69385 67.3023 3.29564 66.383 2.81914 65.156C2.70845 64.8482 2.59102 64.5202 2.46683 64.1746C2.40474 64.0019 2.33859 63.8264 2.2738 63.6469C2.21846 63.4592 2.15906 63.2729 2.09697 63.0799C1.97683 62.6966 1.8486 62.2876 1.72441 61.8664C1.60967 61.4385 1.49628 60.9917 1.3721 60.5287C1.34375 60.4153 1.3127 60.2979 1.28166 60.1764C1.25736 60.0589 1.23036 59.9388 1.20202 59.8173C1.15072 59.5716 1.09808 59.3273 1.04273 59.0749C1.01574 58.9467 0.987389 58.8225 0.960392 58.6942C0.932045 58.566 0.900999 58.4351 0.8848 58.3041C0.838905 58.0409 0.79031 57.7723 0.745765 57.5023C0.70122 57.2296 0.652625 56.9529 0.60808 56.6695C0.572984 56.39 0.539237 56.1025 0.500091 55.8082C0.466345 55.518 0.424499 55.2211 0.393453 54.9214C0.369155 54.6204 0.344858 54.3167 0.320561 54.0048C0.307062 53.8496 0.296263 53.6944 0.282765 53.5351C0.271966 53.3799 0.258467 53.2206 0.255768 53.0613C0.240919 52.74 0.23147 52.4161 0.220671 52.0867C0.213922 51.9247 0.207173 51.7587 0.203123 51.5926C0.196374 51.4266 0.200424 51.2579 0.200424 51.0919C0.203123 50.753 0.207173 50.4115 0.209873 50.066C0.209873 49.9796 0.213922 49.8932 0.213922 49.8068C0.213922 49.7204 0.220672 49.634 0.224721 49.5476C0.23417 49.3708 0.240919 49.1953 0.251718 49.0185C0.271966 48.6662 0.282765 48.3071 0.311112 47.9467C0.344858 47.5849 0.379954 47.2218 0.411001 46.852C0.431249 46.6684 0.444747 46.4821 0.466345 46.2958C0.493342 46.1122 0.517639 45.926 0.541937 45.7356C0.594581 45.3631 0.645876 44.9824 0.69717 44.599C0.767363 44.2184 0.836206 43.835 0.905048 43.4476C0.940144 43.2546 0.971191 43.0575 1.01169 42.8604C1.05353 42.6674 1.09808 42.473 1.13992 42.2773C1.18447 42.0802 1.22631 41.8831 1.27086 41.682C1.31675 41.4849 1.35455 41.2852 1.40989 41.0881C1.8 39.4952 2.30485 37.8673 2.90958 36.2124C4.1393 32.9147 5.81582 29.5293 8.00664 26.2248C9.09462 24.5699 10.3041 22.9325 11.635 21.3289C12.9687 19.7293 14.4265 18.1662 15.9991 16.653C19.1402 13.6334 22.7552 10.823 26.8088 8.38784C28.8295 7.16757 30.965 6.04719 33.2017 5.0429C35.437 4.03725 37.7736 3.15175 40.202 2.41203C42.6277 1.66961 45.1439 1.08242 47.7356 0.670715C48.0609 0.61942 48.3822 0.566776 48.7061 0.515481C49.0355 0.477686 49.3635 0.43584 49.6915 0.393994C50.0195 0.356198 50.3448 0.307604 50.6769 0.276557C51.0076 0.24551 51.3397 0.218513 51.6717 0.187466C52.3318 0.121324 53.0027 0.0943263 53.6722 0.0592302L54.1771 0.0322331L54.6819 0.0214343C55.0167 0.0173846 55.3555 0.0106354 55.6943 0.00388618C56.0331 -0.00691266 56.3719 0.00793557 56.7094 0.0106355C57.0482 0.0173846 57.3911 0.0241342 57.7299 0.0322331C58.0714 0.0389823 58.4129 0.0659793 58.7517 0.0794781C59.0946 0.101076 59.4361 0.118624 59.779 0.138872C60.1205 0.172618 60.4661 0.205014 60.8089 0.236061L61.3232 0.283306L61.5783 0.311653L61.8375 0.3427C62.1804 0.391295 62.5219 0.43584 62.8675 0.480385L63.3831 0.550578L63.8974 0.636968C64.5858 0.757105 65.2729 0.863744 65.9573 1.02033C66.3028 1.09187 66.6443 1.16476 66.9872 1.23765C67.3287 1.3173 67.6716 1.40639 68.0131 1.49278L68.5247 1.62506L68.7839 1.68986C68.85 1.7074 68.8149 1.6939 68.9634 1.73845L69.0808 1.77355C69.3926 1.85994 69.7031 1.94903 70.0136 2.04217L70.2458 2.10831L70.5049 2.192L71.026 2.36073C71.3756 2.47142 71.7279 2.58211 72.0559 2.70225C74.7246 3.6215 77.3473 4.76618 79.877 6.14168C81.1445 6.822 82.3783 7.57522 83.5918 8.36624C83.8914 8.57007 84.1992 8.76445 84.4962 8.97097C84.7945 9.18155 85.0915 9.38943 85.3884 9.59731C85.9756 10.0293 86.5669 10.4572 87.1365 10.9134C89.4353 12.7101 91.5843 14.7254 93.578 16.9014C95.5609 19.0854 97.3792 21.4396 98.9936 23.9341C102.228 28.9272 104.674 34.4778 106.178 40.3038C106.938 43.2127 107.463 46.1878 107.75 49.1953C107.895 50.695 107.967 52.2041 107.992 53.7146C108.009 54.4719 107.994 55.2278 107.985 55.981L107.939 57.1149C107.93 57.4956 107.899 57.8722 107.877 58.2488C107.774 59.7552 107.618 61.2617 107.39 62.7586C107.166 64.2516 106.882 65.7405 106.543 67.2118C106.198 68.6845 105.797 70.1397 105.338 71.5773L104.982 72.6517L104.598 73.706L104.242 74.6833C104.215 74.7602 104.177 74.8493 104.142 74.9397L104.035 75.2057L103.817 75.7416L103.385 76.8093C103.316 76.9888 103.24 77.1508 103.167 77.3195L102.943 77.8244L102.496 78.8341C102.425 79.0028 102.348 79.1688 102.268 79.3308L102.034 79.8249C101.719 80.4822 101.413 81.145 101.076 81.7849C100.744 82.4274 100.423 83.0767 100.082 83.7057C98.7304 86.2394 97.3104 88.6826 95.8687 91.0557C94.4311 93.4301 92.98 95.7451 91.5802 98.0304C91.232 98.6 90.8823 99.1669 90.5368 99.7366C90.1953 100.304 89.8565 100.87 89.5136 101.433C89.1761 102 88.8508 102.563 88.5187 103.127L88.3986 103.341L88.3365 103.445C88.2704 103.559 88.3527 103.41 88.3217 103.465L88.08 103.908C87.9208 104.202 87.7628 104.495 87.5995 104.792L87.3619 105.232C87.3403 105.27 87.3201 105.307 87.3025 105.343L87.258 105.438L87.1608 105.633C87.0366 105.895 86.9084 106.154 86.7815 106.413L86.5912 106.803L86.494 106.997C86.4629 107.062 86.4319 107.135 86.4008 107.204C86.2793 107.485 86.1552 107.764 86.035 108.044C85.9135 108.324 85.7853 108.601 85.6679 108.881C85.5572 109.167 85.4465 109.45 85.3358 109.734C85.2264 110.021 85.1117 110.305 85.001 110.588C84.8944 110.872 84.8012 111.164 84.7 111.452C83.8955 113.756 83.2422 116.12 82.7346 118.508C82.2338 120.9 81.864 123.315 81.6075 125.733C81.5737 126.037 81.5427 126.338 81.5117 126.642C81.4874 126.943 81.459 127.247 81.4347 127.548C81.4104 127.851 81.3861 128.152 81.3618 128.456C81.3348 128.757 81.324 129.061 81.3038 129.362C81.2862 129.666 81.2687 129.967 81.2525 130.268L81.2241 130.72L81.2066 131.173C81.1863 131.778 81.158 132.379 81.1445 132.979C81.1377 133.584 81.1269 134.186 81.1202 134.784L81.1175 134.884V135.234L81.1202 135.699C81.1202 136.007 81.1242 136.311 81.1242 136.619C81.131 137.832 81.1418 139.086 81.1337 140.347C81.1202 141.616 81.0999 142.894 81.0203 144.194C80.9407 145.493 80.8097 146.802 80.6059 148.119C80.3886 149.436 80.0943 150.756 79.6974 152.058C79.5895 152.384 79.4828 152.705 79.3748 153.03C79.3235 153.192 79.2574 153.351 79.1953 153.509L79.0063 153.987L78.9091 154.225L78.8605 154.342C78.8335 154.408 78.8565 154.36 78.7849 154.522L78.6014 154.92L78.5109 155.117L78.4637 155.217L78.4043 155.341L78.1559 155.833L78.0277 156.077C77.9858 156.156 77.9453 156.227 77.9035 156.302L77.6511 156.748C77.5714 156.896 77.4783 157.038 77.3919 157.184L77.1219 157.612C76.9397 157.895 76.7494 158.168 76.559 158.449C76.3593 158.714 76.1649 158.987 75.9583 159.25C75.139 160.301 74.2305 161.26 73.2586 162.132C72.284 162.999 71.2447 163.776 70.1526 164.45C69.8826 164.623 69.5992 164.775 69.3225 164.935L69.0606 165.083L68.877 165.176L68.5112 165.362L68.3276 165.456L68.0995 165.564C67.9483 165.632 67.7917 165.705 67.6405 165.774L67.4124 165.878L67.1937 165.967L66.7618 166.144C64.4373 167.059 62.0454 167.547 59.7304 167.702C58.5722 167.781 57.4289 167.781 56.3126 167.719C55.1935 167.661 54.1015 167.529 53.0365 167.347C51.9728 167.166 50.932 166.935 49.9264 166.665C48.914 166.396 47.9367 166.082 46.9891 165.732C46.0388 165.384 45.1196 165.003 44.2287 164.598C43.3404 164.188 42.4792 163.752 41.6504 163.293C41.4426 163.178 41.2387 163.061 41.0322 162.948C40.8311 162.826 40.634 162.709 40.4342 162.587L40.1507 162.418L40.005 162.332L39.8565 162.235C39.6567 162.111 39.4596 161.982 39.2625 161.858C39.1626 161.793 39.0655 161.731 38.9656 161.669C38.8724 161.603 38.7793 161.541 38.6848 161.475C38.4958 161.347 38.3082 161.22 38.126 161.096C37.7561 160.836 37.397 160.569 37.0407 160.31C35.6206 159.253 34.3248 158.137 33.1396 156.993C31.9544 155.853 30.8867 154.681 29.9256 153.503C28.9645 152.328 28.1222 151.139 27.3825 149.965C26.6427 148.789 26.0029 147.632 25.4643 146.498C25.3293 146.219 25.2078 145.931 25.081 145.655C25.0216 145.517 24.9568 145.379 24.8974 145.24C24.842 145.103 24.7867 144.963 24.7313 144.826C24.676 144.688 24.6247 144.553 24.5694 144.414C24.514 144.283 24.4614 144.148 24.4141 144.01C24.3169 143.741 24.2238 143.475 24.1307 143.213C23.7851 142.158 23.4976 141.156 23.3045 140.209C23.256 139.974 23.1979 139.742 23.1588 139.514C23.1183 139.286 23.0791 139.062 23.0454 138.845C23.0076 138.623 22.9698 138.409 22.9455 138.198C22.9212 137.987 22.8928 137.78 22.8685 137.576C22.7822 136.767 22.7376 136.031 22.7268 135.371C22.7241 135.205 22.7174 135.046 22.7174 134.891C22.7201 134.736 22.7241 134.587 22.7268 134.441C22.7336 134.151 22.7336 133.883 22.7511 133.633C22.7687 133.38 22.7862 133.152 22.8037 132.942C22.8172 132.735 22.828 132.545 22.8523 132.379C22.9387 131.708 22.9833 131.362 22.9833 131.362C22.9833 131.362 22.986 131.708 22.9968 132.383C22.9968 132.552 23.0103 132.738 23.0251 132.946C23.0346 133.152 23.0481 133.38 23.0656 133.626C23.0832 133.874 23.121 134.138 23.1493 134.421C23.1628 134.563 23.1763 134.711 23.1939 134.86C23.2141 135.012 23.2425 135.168 23.2627 135.327C23.453 136.601 23.7918 138.156 24.3925 139.908C24.6827 140.786 25.0702 141.702 25.5089 142.659C25.9584 143.616 26.497 144.602 27.1084 145.607C28.349 147.615 29.9499 149.692 31.9369 151.702C32.9358 152.705 34.0278 153.689 35.2157 154.637C36.4049 155.583 37.6873 156.499 39.0614 157.35C39.411 157.554 39.7566 157.771 40.1129 157.971C40.2925 158.072 40.472 158.175 40.6515 158.276L40.9242 158.427L41.1901 158.566C41.371 158.662 41.5505 158.755 41.7301 158.849L41.8651 158.921L42.0135 158.994C42.1134 159.042 42.2133 159.091 42.3105 159.14C42.5008 159.233 42.6939 159.326 42.8842 159.419C43.0772 159.51 43.2716 159.596 43.4646 159.685C44.2421 160.031 45.0399 160.352 45.8552 160.653C46.6786 160.95 47.5142 161.22 48.3714 161.457C50.0857 161.938 51.8688 162.281 53.6898 162.454C55.5107 162.622 57.3668 162.609 59.1945 162.352C61.0195 162.093 62.8121 161.599 64.4778 160.808L64.7896 160.656L64.9408 160.58L65.0799 160.504L65.3566 160.356L65.4943 160.283L65.6697 160.179L66.0234 159.968L66.1989 159.865C66.1166 159.913 66.2205 159.851 66.2205 159.847L66.2893 159.802C66.4824 159.672 66.6794 159.554 66.863 159.415C67.6189 158.88 68.3344 158.272 68.9944 157.605C69.6545 156.934 70.2633 156.202 70.8059 155.421C70.9396 155.228 71.0678 155.024 71.1988 154.827C71.3202 154.623 71.4485 154.419 71.5659 154.211L71.7346 153.897C71.794 153.793 71.8521 153.689 71.9007 153.582L72.06 153.261C72.0843 153.206 72.1153 153.15 72.1396 153.102L72.2017 152.953L72.3299 152.663L72.3637 152.59L72.4015 152.49L72.4852 152.286L72.6444 151.879C72.6026 151.979 72.6512 151.859 72.6471 151.859L72.6755 151.772L72.7335 151.599L72.8483 151.254C72.8861 151.139 72.9306 151.026 72.959 150.904C73.0238 150.665 73.0899 150.43 73.1547 150.193C73.3909 149.225 73.5664 148.219 73.6811 147.176C73.7905 146.126 73.8391 145.04 73.8566 143.92C73.8742 142.804 73.8391 141.647 73.7945 140.464C73.75 139.283 73.6771 138.074 73.6177 136.809C73.6042 136.494 73.5866 136.184 73.5732 135.87L73.5529 135.402L73.5421 135.168L73.5394 135.05L73.5354 134.915C73.5178 134.269 73.4976 133.623 73.48 132.973C73.4692 132.319 73.4692 131.667 73.4665 131.01L73.4625 130.52L73.4692 130.026C73.4773 129.697 73.4841 129.366 73.4868 129.037C73.4976 128.706 73.4976 128.376 73.5151 128.046C73.5286 127.714 73.5421 127.382 73.5597 127.047C73.5732 126.715 73.5866 126.383 73.6042 126.048C73.6258 125.716 73.6501 125.381 73.673 125.046C73.8566 122.371 74.1644 119.662 74.6476 116.942C75.139 114.223 75.7883 111.486 76.6562 108.777C76.7629 108.438 76.8668 108.096 76.9802 107.757C77.1017 107.423 77.2232 107.084 77.3433 106.748C77.4648 106.41 77.5849 106.071 77.7064 105.735C77.8373 105.401 77.9764 105.066 78.11 104.734C78.249 104.399 78.384 104.063 78.519 103.728C78.5528 103.646 78.5879 103.562 78.6216 103.476L78.739 103.221L78.978 102.702C79.1373 102.359 79.2965 102.014 79.4545 101.672L79.5719 101.413L79.634 101.285C79.6556 101.24 79.6731 101.209 79.6934 101.171L79.9215 100.725C80.0768 100.425 80.2293 100.127 80.3805 99.8297L80.6126 99.3816C80.6234 99.364 80.7436 99.1426 80.7193 99.1804L80.7854 99.0698L80.9096 98.8416C81.2444 98.2409 81.5764 97.6295 81.9193 97.0315C82.2608 96.4335 82.5996 95.8355 82.9411 95.2375C83.2867 94.6463 83.6323 94.0523 83.9778 93.4584C85.3668 91.1016 86.7707 88.7758 88.1246 86.45C89.4758 84.1242 90.7933 81.8092 91.9987 79.4699C92.3105 78.8854 92.5899 78.2982 92.8828 77.711C93.1811 77.1238 93.4471 76.5326 93.7238 75.9413L93.9303 75.4986C93.9992 75.3541 94.0694 75.2057 94.1314 75.0572L94.5148 74.169L94.7078 73.7235C94.7699 73.5737 94.8388 73.4225 94.8941 73.2808L95.2329 72.4236L95.4057 71.9957L95.4894 71.7811C95.5204 71.7082 95.5474 71.6393 95.5758 71.553L95.9241 70.5743L96.2453 69.6794L96.5355 68.7777C96.9094 67.5722 97.2483 66.356 97.5317 65.1249C97.8111 63.8952 98.0433 62.6507 98.2296 61.4007C98.4159 60.1521 98.5401 58.8913 98.6265 57.6306C99.3243 47.5363 96.7164 37.218 91.4047 28.772C88.7685 24.5429 85.4748 20.7755 81.7047 17.6721C77.9453 14.5621 73.7149 12.1229 69.2604 10.4221C68.9769 10.3127 68.715 10.2182 68.4491 10.1224L68.0482 9.98067L67.8444 9.90372L67.6162 9.83218C67.3044 9.73094 66.998 9.62835 66.6902 9.53116L66.5755 9.48932C66.6443 9.51362 66.5337 9.47987 66.5242 9.47582L66.3136 9.41373L65.8911 9.29224C65.6077 9.2099 65.3323 9.12351 65.0488 9.04792C64.7653 8.97502 64.4819 8.90618 64.1984 8.83329C63.6355 8.68075 63.0618 8.57412 62.4908 8.44993C60.2069 7.98963 57.8946 7.72101 55.5904 7.64407C55.3029 7.63462 55.0167 7.63057 54.7305 7.61977L54.2986 7.61302L53.8666 7.61707C53.2929 7.62382 52.7192 7.61977 52.1455 7.65486C51.858 7.66836 51.5719 7.67916 51.2884 7.69266C51.0009 7.70616 50.7174 7.73451 50.4312 7.75205C50.1478 7.775 49.8602 7.7966 49.5781 7.8209C49.2947 7.85194 49.0112 7.88299 48.7304 7.91404C46.4681 8.16646 44.2421 8.57682 42.0716 9.11676C39.9024 9.6594 37.7871 10.3357 35.7448 11.1172C33.7025 11.9015 31.733 12.8005 29.8419 13.7846C26.069 15.7553 22.6269 18.0879 19.5789 20.6337C18.0523 21.9053 16.6282 23.2389 15.2972 24.605C13.9743 25.9764 12.7608 27.3897 11.6418 28.8206C11.5001 29.0001 11.3624 29.1797 11.2233 29.3592C11.0816 29.536 10.9574 29.7223 10.8224 29.9018C10.6915 30.0814 10.5606 30.2649 10.4283 30.4445C10.2973 30.624 10.1664 30.8035 10.0422 30.9871C9.79249 31.3529 9.54817 31.7201 9.3025 32.0791C9.06762 32.449 8.83545 32.8148 8.60462 33.182L8.43454 33.4546L8.27256 33.7314C8.16187 33.9176 8.05523 34.1012 7.94724 34.2835C7.8406 34.467 7.73397 34.6506 7.62598 34.8328C7.52609 35.0205 7.4289 35.2027 7.32901 35.389C7.22912 35.5726 7.12923 35.7561 7.03204 35.9384C6.93215 36.122 6.83091 36.3055 6.74452 36.4918C6.56229 36.8617 6.37871 37.2275 6.19918 37.5947C6.0264 37.9605 5.86442 38.3303 5.69838 38.6961C5.61874 38.8797 5.53235 39.0592 5.45541 39.2428C5.38387 39.4291 5.30693 39.6127 5.23538 39.7922C5.15844 39.9758 5.0869 40.158 5.00996 40.3376C4.97621 40.428 4.93707 40.5211 4.89927 40.6116C4.86822 40.7007 4.83448 40.7911 4.79938 40.8842C4.66844 41.2474 4.53751 41.6091 4.40522 41.9655C4.33638 42.145 4.28509 42.3286 4.22569 42.5081C4.16765 42.6877 4.1123 42.8672 4.05291 43.044C3.99757 43.2235 3.93952 43.4004 3.88418 43.5759C3.82883 43.7554 3.78294 43.9349 3.73164 44.1118C3.63176 44.4641 3.53457 44.8164 3.43468 45.166C3.35099 45.5143 3.26864 45.8639 3.1863 46.2094C2.53567 48.9699 2.25625 51.5859 2.17661 53.9603C2.10372 56.3374 2.2495 58.4729 2.47763 60.3222C2.53972 60.7852 2.60182 61.2306 2.66391 61.6599C2.73275 62.0837 2.81644 62.4887 2.88124 62.8788C2.91903 63.0759 2.95413 63.2662 2.98517 63.4525C3.02702 63.6388 3.06887 63.8196 3.10666 63.9951C3.1863 64.3474 3.2619 64.6835 3.33074 64.9981C3.6493 66.2521 3.90848 67.2159 4.12175 67.8557C4.31883 68.5009 4.42277 68.833 4.42277 68.833Z" fill="#CA8170"/>
</svg>
