<svg class="me-1" xmlns="http://www.w3.org/2000/svg" width="11.9" height="17" viewBox="0 0 11.9 17">
                                  <g id="healthicons_i-certificate-paper-outline" transform="translate(-3.75 -1.5)">
                                    <path id="Path_238" data-name="Path 238" d="M5.45,2.35a.85.85,0,0,0-.85.85V15.1a.85.85,0,0,0,.85.85h4.675v.85H5.45a1.7,1.7,0,0,1-1.7-1.7V3.2a1.7,1.7,0,0,1,1.7-1.7h8.5a1.7,1.7,0,0,1,1.7,1.7V15.1a1.7,1.7,0,0,1-1.7,1.7H12.675v-.85H13.95a.85.85,0,0,0,.85-.85V3.2a.85.85,0,0,0-.85-.85Z" fill="#fff" fill-rule="evenodd"/>
                                    <path id="Path_239" data-name="Path 239" d="M6.75,4.175a.425.425,0,0,1,.425-.425h4.25a.425.425,0,1,1,0,.85H7.175a.425.425,0,0,1-.425-.425Z" transform="translate(0.4 0.3)" fill="#fff" fill-rule="evenodd"/>
                                    <path id="Path_240" data-name="Path 240" d="M5.25,6.425A.425.425,0,0,1,5.675,6h7.65a.425.425,0,0,1,0,.85H5.675a.425.425,0,0,1-.425-.425Z" transform="translate(0.2 0.6)" fill="#fff" fill-rule="evenodd"/>
                                    <path id="Path_241" data-name="Path 241" d="M5.25,7.925A.425.425,0,0,1,5.675,7.5h7.65a.425.425,0,0,1,0,.85H5.675a.425.425,0,0,1-.425-.425Z" transform="translate(0.2 0.8)" fill="#fff" fill-rule="evenodd"/>
                                    <path id="Path_242" data-name="Path 242" d="M5.25,9.425A.425.425,0,0,1,5.675,9h7.65a.425.425,0,0,1,0,.85H5.675a.425.425,0,0,1-.425-.425Z" transform="translate(0.2 1)" fill="#fff" fill-rule="evenodd"/>
                                    <path id="Path_243" data-name="Path 243" d="M10.7,13.425a.85.85,0,1,0-.6-.249A.85.85,0,0,0,10.7,13.425Zm0,.85a1.7,1.7,0,1,0-1.2-.5A1.7,1.7,0,0,0,10.7,14.275Z" transform="translate(0.7 1.25)" fill="#fff" fill-rule="evenodd"/>
                                    <path id="Path_244" data-name="Path 244" d="M10.225,13.125h-.85V16.95l1.275-.638,1.275.638V13.125h-.85v2.45l-.425-.213-.425.213Z" transform="translate(0.75 1.55)" fill="#fff" fill-rule="evenodd"/>
                                  </g>
                                </svg>