<svg width="16" height="17" viewBox="0 0 16 17" fill="none" xmlns="http://www.w3.org/2000/svg">
<path d="M15.5605 4.94215L14.1198 6.38284C13.9729 6.52972 13.7354 6.52972 13.5885 6.38284L10.1196 2.91393C9.9727 2.76705 9.9727 2.52954 10.1196 2.38266L11.5603 0.941964C12.1447 0.357562 13.0947 0.357562 13.6822 0.941964L15.5605 2.82018C16.148 3.40458 16.148 4.35462 15.5605 4.94215ZM8.88202 3.62021L0.675389 11.8268L0.0128587 15.6239C-0.0777705 16.1364 0.369125 16.5802 0.881649 16.4927L4.6787 15.827L12.8853 7.6204C13.0322 7.47352 13.0322 7.23601 12.8853 7.08912L9.41642 3.62021C9.26641 3.47333 9.0289 3.47333 8.88202 3.62021ZM3.87866 11.1237C3.70678 10.9518 3.70678 10.6768 3.87866 10.5049L8.69139 5.69218C8.86327 5.5203 9.13828 5.5203 9.31017 5.69218C9.48205 5.86407 9.48205 6.13908 9.31017 6.31096L4.49744 11.1237C4.32556 11.2956 4.05055 11.2956 3.87866 11.1237ZM2.75049 13.7519H4.25056V14.8864L2.23484 15.2395L1.26292 14.2676L1.61606 12.2519H2.75049V13.7519Z" fill="#23355F"/>
</svg>
