<svg width="10" height="10" viewBox="0 0 10 10" fill="none" xmlns="http://www.w3.org/2000/svg">
<path d="M1.02235 3.30802C1.13955 3.19085 1.29849 3.12503 1.46422 3.12503C1.62995 3.12503 1.78889 3.19085 1.9061 3.30802L4.99985 6.40177L8.0936 3.30802C8.21147 3.19417 8.36935 3.13118 8.53322 3.1326C8.6971 3.13402 8.85385 3.19976 8.96973 3.31564C9.08561 3.43152 9.15134 3.58827 9.15277 3.75215C9.15419 3.91602 9.0912 4.0739 8.97735 4.19177L5.44172 7.7274C5.32452 7.84457 5.16557 7.91039 4.99985 7.91039C4.83412 7.91039 4.67518 7.84457 4.55797 7.7274L1.02235 4.19177C0.905178 4.07457 0.839355 3.91562 0.839355 3.7499C0.839355 3.58417 0.905178 3.42523 1.02235 3.30802Z" fill="#23355F"/>
</svg>
