<svg width="20" height="16" viewBox="0 0 20 16" fill="none" xmlns="http://www.w3.org/2000/svg">
<path d="M0.193115 10.2971C0.194856 10.1938 0.21696 10.0918 0.258163 9.99698C0.299367 9.90217 0.358861 9.81642 0.43324 9.74464C0.585531 9.6018 0.784505 9.51911 0.993178 9.51195H2.85893C2.95888 9.51108 3.05789 9.53136 3.14945 9.57146C3.241 9.61156 3.32304 9.67058 3.39018 9.74464C3.53018 9.89415 3.60641 10.0923 3.60268 10.2971C3.61104 10.51 3.53462 10.7175 3.39018 10.8741C3.32255 10.9475 3.24041 11.0061 3.14896 11.0462C3.05752 11.0862 2.95876 11.1068 2.85893 11.1068H0.99424C0.889428 11.1073 0.785628 11.0862 0.689298 11.0449C0.592968 11.0036 0.50617 10.9429 0.434303 10.8666C0.281613 10.7163 0.194864 10.5114 0.193115 10.2971ZM2.85893 3.90833C2.85549 3.70611 2.93184 3.51067 3.07143 3.36433C3.22414 3.2159 3.427 3.13021 3.63987 3.1242C3.74157 3.12414 3.84223 3.14473 3.93574 3.18473C4.02925 3.22473 4.11366 3.2833 4.18387 3.35689L5.49287 4.67651C5.63329 4.82666 5.71315 5.02347 5.71705 5.22901C5.72099 5.33183 5.70421 5.43438 5.6677 5.53058C5.6312 5.62677 5.57571 5.71464 5.50455 5.78895C5.43602 5.86064 5.35352 5.91752 5.26215 5.95607C5.17078 5.99463 5.07247 6.01405 4.9733 6.01314C4.76463 6.00598 4.56566 5.92329 4.41336 5.78045L3.06718 4.4927C2.93189 4.32807 2.85825 4.12141 2.85893 3.90833ZM4.46011 14.7161C4.45691 14.6139 4.47608 14.5123 4.51628 14.4183C4.55647 14.3244 4.61672 14.2403 4.6928 14.1721C4.76484 14.1023 4.85004 14.0476 4.94344 14.0111C5.03684 13.9746 5.13656 13.9571 5.2368 13.9596H7.34268L9.83212 11.6221C9.8703 11.5903 9.91842 11.5729 9.96811 11.5729C10.0178 11.5729 10.0659 11.5903 10.1041 11.6221L12.6339 13.9596H14.8556C14.9582 13.9568 15.0602 13.9753 15.1553 14.0139C15.2504 14.0525 15.3365 14.1103 15.4081 14.1838C15.4815 14.2514 15.5401 14.3335 15.5802 14.425C15.6202 14.5164 15.6409 14.6152 15.6408 14.715C15.6386 14.9223 15.5553 15.1205 15.4087 15.267C15.2621 15.4136 15.064 15.4969 14.8567 15.4991H12.1462C12.0651 15.5006 11.985 15.4812 11.9136 15.4428L9.98405 13.6249L8.07155 15.4428C8.00386 15.4829 7.92597 15.5025 7.84736 15.4991H5.2368C5.13371 15.5 5.03153 15.4799 4.93652 15.4399C4.84151 15.3998 4.75568 15.3408 4.6843 15.2665C4.53986 15.1198 4.45928 14.9219 4.46011 14.7161ZM5.19643 10.2971C5.18774 11.0314 5.35804 11.7568 5.69262 12.4105C5.70855 12.5061 5.7808 12.555 5.89236 12.555H7.39793C7.42184 12.5562 7.44566 12.551 7.46682 12.5398C7.48797 12.5285 7.50566 12.5117 7.51799 12.4912C7.52899 12.4667 7.53331 12.4398 7.53051 12.4131C7.52771 12.3864 7.51789 12.3609 7.50205 12.3393C6.97459 11.7279 6.7007 10.9381 6.73645 10.1314C6.7722 9.32479 7.11488 8.5623 7.69436 8.00001C7.99581 7.69378 8.35643 7.45211 8.75428 7.28972C9.15212 7.12733 9.57885 7.04762 10.0085 7.05545C10.6234 7.04925 11.2272 7.21984 11.748 7.54691C12.2688 7.87398 12.6846 8.34378 12.9461 8.9004C13.2076 9.45702 13.3036 10.077 13.2229 10.6867C13.1421 11.2963 12.8879 11.8699 12.4905 12.3393C12.4753 12.3612 12.4653 12.3862 12.4611 12.4125C12.4568 12.4388 12.4585 12.4657 12.4661 12.4912C12.482 12.539 12.5224 12.555 12.5861 12.555H14.1119C14.1334 12.5576 14.1553 12.556 14.1763 12.5502C14.1972 12.5443 14.2168 12.5344 14.2339 12.521C14.251 12.5075 14.2652 12.4909 14.2758 12.4719C14.2864 12.4529 14.2932 12.432 14.2957 12.4105C14.65 11.7636 14.8267 11.0344 14.8078 10.2971C14.8102 9.65804 14.6792 9.02548 14.4232 8.43989C14.1794 7.87093 13.8317 7.35242 13.3979 6.91095C12.9578 6.47542 12.4389 6.12748 11.8689 5.88564C11.2825 5.63313 10.6501 5.50505 10.0117 5.50951C9.37087 5.5089 8.73645 5.6368 8.14593 5.88564C7.57279 6.1263 7.05094 6.47432 6.60849 6.91095C6.16805 7.34855 5.81724 7.86791 5.57574 8.43989C5.32474 9.02683 5.19604 9.65878 5.19749 10.2971H5.19643ZM9.22437 3.12314V1.28183C9.22035 1.17672 9.2382 1.07192 9.27679 0.974073C9.31538 0.876224 9.37387 0.787456 9.44855 0.713389C9.52307 0.639326 9.61192 0.581244 9.70966 0.542697C9.8074 0.504149 9.91197 0.485946 10.017 0.489201C10.1207 0.486044 10.224 0.504324 10.3203 0.542899C10.4167 0.581474 10.504 0.639514 10.5769 0.713389C10.6512 0.789528 10.7093 0.879869 10.7478 0.979003C10.7864 1.07814 10.8045 1.18402 10.8011 1.29033V3.13164C10.8051 3.23675 10.7873 3.34154 10.7487 3.43939C10.7101 3.53724 10.6516 3.62601 10.5769 3.70008C10.5034 3.77309 10.4159 3.83057 10.3197 3.86908C10.2235 3.9076 10.1206 3.92636 10.017 3.92426C9.91188 3.92828 9.80709 3.91043 9.70924 3.87184C9.61139 3.83325 9.52262 3.77476 9.44855 3.70008C9.37368 3.62438 9.31516 3.53411 9.27659 3.43487C9.23803 3.33563 9.22025 3.22953 9.22437 3.12314ZM14.3084 5.23645C14.309 5.03244 14.3847 4.83578 14.5209 4.68395L15.8182 3.36326C15.8911 3.28881 15.9783 3.22983 16.0745 3.18985C16.1707 3.14987 16.274 3.12971 16.3782 3.13058C16.4807 3.13085 16.5822 3.15138 16.6768 3.19098C16.7714 3.23057 16.8572 3.28846 16.9294 3.36131C17.0016 3.43417 17.0586 3.52056 17.0973 3.61552C17.136 3.71049 17.1556 3.81216 17.1549 3.9147C17.1584 4.12902 17.0828 4.3371 16.9424 4.49908L15.6047 5.78895C15.454 5.93428 15.254 6.01738 15.0447 6.02164C14.9451 6.02599 14.8458 6.00814 14.7539 5.96937C14.662 5.93059 14.5799 5.87187 14.5135 5.79745C14.376 5.64348 14.3027 5.44277 14.3084 5.23645ZM16.3984 10.2961C16.3933 10.091 16.4697 9.89234 16.6109 9.74358C16.6778 9.66925 16.7598 9.61005 16.8514 9.56993C16.943 9.5298 17.0421 9.50968 17.1421 9.51089H19.0238C19.1269 9.50998 19.2291 9.53015 19.3241 9.57017C19.4191 9.61018 19.5049 9.66919 19.5763 9.74358C19.6501 9.81541 19.7087 9.90132 19.7487 9.99623C19.7887 10.0911 19.8092 10.1931 19.809 10.2961C19.81 10.4015 19.7899 10.5061 19.7499 10.6038C19.71 10.7014 19.651 10.79 19.5763 10.8645C19.5064 10.9413 19.4211 11.0025 19.3258 11.0439C19.2306 11.0852 19.1276 11.106 19.0238 11.1046H17.1421C17.0422 11.1055 16.9432 11.0852 16.8516 11.0451C16.76 11.005 16.678 10.946 16.6109 10.872C16.4718 10.7129 16.3958 10.5084 16.3973 10.2971L16.3984 10.2961Z" fill="#23355F"/>
</svg>
