<svg width="119" height="94" viewBox="0 0 119 94" fill="none" xmlns="http://www.w3.org/2000/svg">
<mask id="mask0_4147_15987" style="mask-type:luminance" maskUnits="userSpaceOnUse" x="44" y="30" width="13" height="14">
<path d="M44.2227 30.6028H56.2452V43.5501H44.2227V30.6028Z" fill="white"/>
</mask>
<g mask="url(#mask0_4147_15987)">
<mask id="mask1_4147_15987" style="mask-type:luminance" maskUnits="userSpaceOnUse" x="44" y="30" width="13" height="14">
<path d="M50.2656 30.657C46.9687 30.657 44.2964 33.5375 44.2964 37.0922C44.2964 40.6463 46.9687 43.5271 50.2656 43.5271C53.5632 43.5271 56.2358 40.6463 56.2358 37.0922C56.2358 33.5375 53.5632 30.657 50.2656 30.657Z" fill="white"/>
</mask>
<g mask="url(#mask1_4147_15987)">
<mask id="mask2_4147_15987" style="mask-type:luminance" maskUnits="userSpaceOnUse" x="44" y="30" width="13" height="14">
<path d="M50.2656 30.657C46.9687 30.657 44.2964 33.5375 44.2964 37.0922C44.2964 40.6463 46.9687 43.5271 50.2656 43.5271C53.5632 43.5271 56.2358 40.6463 56.2358 37.0922C56.2358 33.5375 53.5632 30.657 50.2656 30.657Z" fill="white"/>
</mask>
<g mask="url(#mask2_4147_15987)">
<path d="M44.2964 30.657H56.2358V43.5271H44.2964V30.657Z" fill="white"/>
</g>
</g>
</g>
<mask id="mask3_4147_15987" style="mask-type:luminance" maskUnits="userSpaceOnUse" x="38" y="24" width="43" height="46">
<path d="M38.2534 24.1292H80.6265V69.7811H38.2534V24.1292Z" fill="white"/>
</mask>
<g mask="url(#mask3_4147_15987)">
<mask id="mask4_4147_15987" style="mask-type:luminance" maskUnits="userSpaceOnUse" x="38" y="24" width="43" height="46">
<path d="M59.4256 24.1709C47.7482 24.1709 38.2808 34.3776 38.2808 46.967C38.2808 59.557 47.7482 69.7628 59.4256 69.7628C71.1046 69.7628 80.5714 59.557 80.5714 46.967C80.5714 34.3776 71.1046 24.1709 59.4256 24.1709ZM44.2963 37.0923C44.2963 33.5376 46.9686 30.657 50.2655 30.657C53.5631 30.657 56.2357 33.5376 56.2357 37.0923C56.2357 40.6464 53.5631 43.5272 50.2655 43.5272C46.9686 43.5272 44.2963 40.6464 44.2963 37.0923Z" fill="white"/>
</mask>
<g mask="url(#mask4_4147_15987)">
<mask id="mask5_4147_15987" style="mask-type:luminance" maskUnits="userSpaceOnUse" x="38" y="24" width="43" height="46">
<path d="M59.4256 24.1709C47.7482 24.1709 38.2808 34.3776 38.2808 46.967C38.2808 59.557 47.7482 69.7628 59.4256 69.7628C71.1046 69.7628 80.5714 59.557 80.5714 46.967C80.5714 34.3776 71.1046 24.1709 59.4256 24.1709ZM44.2963 37.0923C44.2963 33.5376 46.9686 30.657 50.2655 30.657C53.5631 30.657 56.2357 33.5376 56.2357 37.0923C56.2357 40.6464 53.5631 43.5272 50.2655 43.5272C46.9686 43.5272 44.2963 40.6464 44.2963 37.0923Z" fill="white"/>
</mask>
<g mask="url(#mask5_4147_15987)">
<path d="M38.2808 24.1709H80.5714V69.7628H38.2808V24.1709Z" fill="url(#paint0_linear_4147_15987)"/>
</g>
</g>
</g>
<mask id="mask6_4147_15987" style="mask-type:luminance" maskUnits="userSpaceOnUse" x="23" y="21" width="73" height="52">
<path d="M23.4565 21.3547H95.3395V72.5556H23.4565V21.3547Z" fill="white"/>
</mask>
<g mask="url(#mask6_4147_15987)">
<mask id="mask7_4147_15987" style="mask-type:luminance" maskUnits="userSpaceOnUse" x="23" y="21" width="73" height="52">
<path d="M59.4276 21.4204C59.351 21.4204 59.2752 21.4204 59.1987 21.4207C59.178 21.4207 59.1566 21.4207 59.1359 21.4207C59.0804 21.4207 59.0246 21.4211 58.9691 21.4211C58.9445 21.4214 58.9192 21.4214 58.8945 21.4214C58.8312 21.4217 58.7688 21.4221 58.7057 21.4224C58.6939 21.4224 58.6817 21.4224 58.6702 21.4224C58.595 21.4227 58.5198 21.4234 58.4449 21.4237C58.4226 21.424 58.4026 21.424 58.3802 21.4244C58.3251 21.4247 58.2689 21.4253 58.2137 21.4257C58.1898 21.426 58.1655 21.426 58.1412 21.4263C58.0807 21.427 58.02 21.4273 57.9595 21.428C57.9454 21.4283 57.9316 21.4283 57.9175 21.4286C57.8393 21.4293 57.7612 21.4303 57.6834 21.4312C57.6751 21.4312 57.6666 21.4316 57.6581 21.4316C57.5901 21.4322 57.5228 21.4332 57.4548 21.4342C57.4361 21.4345 57.4167 21.4349 57.398 21.4352C57.3326 21.4358 57.2666 21.4372 57.2012 21.4381C57.1907 21.4381 57.1819 21.4385 57.1714 21.4385C57.0111 21.4411 56.8492 21.4441 56.6889 21.447C56.6843 21.447 56.6804 21.4473 56.6758 21.4473C56.5983 21.449 56.5201 21.4503 56.4429 21.4519C56.439 21.4523 56.4357 21.4523 56.4318 21.4523C46.8539 21.6569 37.8748 22.8369 30.0159 24.765C25.9249 31.0511 23.5156 38.7035 23.5156 46.967C23.5156 55.2305 25.9249 62.8832 30.0169 69.1703C37.8742 71.0974 46.8539 72.2774 56.4311 72.482C56.4354 72.4823 56.4397 72.4823 56.4439 72.4823C56.5188 72.484 56.5943 72.4856 56.6692 72.4869C56.6778 72.4873 56.685 72.4873 56.6932 72.4876C56.8515 72.4906 57.0111 72.4935 57.1697 72.4958C57.1812 72.4961 57.1914 72.4961 57.2032 72.4965C57.2705 72.4975 57.3388 72.4984 57.4062 72.4994C57.4203 72.4998 57.4344 72.5001 57.4485 72.5001C57.5185 72.5011 57.5881 72.5021 57.6581 72.503C57.6666 72.503 57.6751 72.503 57.6837 72.5034C57.7609 72.5044 57.8387 72.505 57.9159 72.506C57.931 72.506 57.9444 72.5063 57.9595 72.5063C58.021 72.507 58.084 72.5076 58.1458 72.5083C58.1671 72.5083 58.1891 72.5086 58.2105 72.5086C58.2715 72.5093 58.3326 72.5099 58.394 72.5103C58.4088 72.5103 58.4236 72.5106 58.4384 72.5106C58.5152 72.5112 58.5914 72.5116 58.6683 72.5119C58.6821 72.5122 58.6952 72.5122 58.709 72.5122C58.772 72.5126 58.8354 72.5129 58.8985 72.5129C58.9205 72.5132 58.9438 72.5132 58.9661 72.5132C59.0229 72.5135 59.0791 72.5135 59.1359 72.5139C59.1566 72.5139 59.1776 72.5139 59.1983 72.5139C59.2745 72.5139 59.351 72.5142 59.4276 72.5142C59.5037 72.5142 59.5803 72.5139 59.6568 72.5139C59.6775 72.5139 59.6982 72.5139 59.7189 72.5139C59.7757 72.5135 59.8325 72.5135 59.8893 72.5132C59.9113 72.5132 59.934 72.5132 59.956 72.5129C60.02 72.5129 60.0837 72.5126 60.1474 72.5122C60.1606 72.5122 60.173 72.5122 60.1862 72.5119C60.2624 72.5116 60.3389 72.5112 60.4151 72.5106C60.4318 72.5106 60.4476 72.5103 60.4647 72.5103C60.5238 72.5099 60.5836 72.5093 60.6427 72.5089C60.6653 72.5086 60.6877 72.5083 60.7103 72.5083C60.7714 72.5076 60.8328 72.507 60.8939 72.5063C60.9087 72.5063 60.9245 72.506 60.9392 72.506C61.0158 72.505 61.0926 72.5044 61.1691 72.5034C61.1809 72.503 61.1918 72.503 61.2036 72.5027C61.269 72.5021 61.336 72.5011 61.4013 72.5001C61.4194 72.5001 61.4361 72.4998 61.4545 72.4994C61.5179 72.4984 61.5816 72.4975 61.645 72.4965C61.6591 72.4965 61.6739 72.4961 61.688 72.4958C61.844 72.4935 61.999 72.4906 62.1547 72.4876C62.1685 72.4873 62.1816 72.4869 62.1954 72.4869C62.2624 72.4856 62.3307 72.484 62.3977 72.4827C62.4092 72.4823 62.42 72.4823 62.4319 72.482C62.5925 72.4784 62.7527 72.4748 62.9133 72.4709H62.9137C62.9941 72.4689 63.0752 72.4666 63.1554 72.4646C63.1586 72.4646 63.1609 72.4643 63.1642 72.4643C72.4623 72.2163 81.1819 71.0485 88.8363 69.1703C92.9283 62.8832 95.3362 55.2305 95.3362 46.967C95.3362 38.7035 92.9283 31.0511 88.8363 24.765C80.9103 22.8201 71.8425 21.6365 62.1721 21.4473C62.1714 21.4473 62.1705 21.447 62.1701 21.447C62.0066 21.4441 61.8443 21.4411 61.6808 21.4385C61.6736 21.4385 61.6663 21.4381 61.6591 21.4381C61.5911 21.4372 61.5218 21.4358 61.4539 21.4349C61.4365 21.4349 61.4197 21.4345 61.4023 21.4342C61.3323 21.4332 61.2614 21.4322 61.1915 21.4316C61.1852 21.4312 61.179 21.4312 61.1727 21.4312C61.0942 21.4303 61.0148 21.4293 60.9363 21.4286C60.9235 21.4283 60.9113 21.4283 60.8985 21.428C60.8368 21.4273 60.774 21.427 60.7123 21.4263C60.6883 21.426 60.6663 21.426 60.642 21.4257C60.5862 21.4253 60.529 21.4247 60.4732 21.4244C60.4522 21.424 60.4312 21.424 60.4105 21.4237C60.335 21.4234 60.2601 21.4227 60.1845 21.4224C60.1734 21.4224 60.1616 21.4224 60.1504 21.4224C60.0867 21.4221 60.0243 21.4217 59.9602 21.4214C59.9356 21.4214 59.9106 21.4214 59.886 21.4211C59.8305 21.4211 59.7747 21.4207 59.7192 21.4207C59.6982 21.4207 59.6771 21.4207 59.6561 21.4207C59.5799 21.4204 59.5041 21.4204 59.4276 21.4204ZM38.2811 46.967C38.2811 34.3776 47.7485 24.1709 59.4259 24.1709C71.1049 24.1709 80.5717 34.3776 80.5717 46.967C80.5717 59.557 71.1049 69.7628 59.4259 69.7628C47.7485 69.7628 38.2811 59.557 38.2811 46.967Z" fill="white"/>
</mask>
<g mask="url(#mask7_4147_15987)">
<mask id="mask8_4147_15987" style="mask-type:luminance" maskUnits="userSpaceOnUse" x="23" y="21" width="73" height="52">
<path d="M59.4276 21.4204C59.351 21.4204 59.2752 21.4204 59.1987 21.4207C59.178 21.4207 59.1566 21.4207 59.1359 21.4207C59.0804 21.4207 59.0246 21.4211 58.9691 21.4211C58.9445 21.4214 58.9192 21.4214 58.8945 21.4214C58.8312 21.4217 58.7688 21.4221 58.7057 21.4224C58.6939 21.4224 58.6817 21.4224 58.6702 21.4224C58.595 21.4227 58.5198 21.4234 58.4449 21.4237C58.4226 21.424 58.4026 21.424 58.3802 21.4244C58.3251 21.4247 58.2689 21.4253 58.2137 21.4257C58.1898 21.426 58.1655 21.426 58.1412 21.4263C58.0807 21.427 58.02 21.4273 57.9595 21.428C57.9454 21.4283 57.9316 21.4283 57.9175 21.4286C57.8393 21.4293 57.7612 21.4303 57.6834 21.4312C57.6751 21.4312 57.6666 21.4316 57.6581 21.4316C57.5901 21.4322 57.5228 21.4332 57.4548 21.4342C57.4361 21.4345 57.4167 21.4349 57.398 21.4352C57.3326 21.4358 57.2666 21.4372 57.2012 21.4381C57.1907 21.4381 57.1819 21.4385 57.1714 21.4385C57.0111 21.4411 56.8492 21.4441 56.6889 21.447C56.6843 21.447 56.6804 21.4473 56.6758 21.4473C56.5983 21.449 56.5201 21.4503 56.4429 21.4519C56.439 21.4523 56.4357 21.4523 56.4318 21.4523C46.8539 21.6569 37.8748 22.8369 30.0159 24.765C25.9249 31.0511 23.5156 38.7035 23.5156 46.967C23.5156 55.2305 25.9249 62.8832 30.0169 69.1703C37.8742 71.0974 46.8539 72.2774 56.4311 72.482C56.4354 72.4823 56.4397 72.4823 56.4439 72.4823C56.5188 72.484 56.5943 72.4856 56.6692 72.4869C56.6778 72.4873 56.685 72.4873 56.6932 72.4876C56.8515 72.4906 57.0111 72.4935 57.1697 72.4958C57.1812 72.4961 57.1914 72.4961 57.2032 72.4965C57.2705 72.4975 57.3388 72.4984 57.4062 72.4994C57.4203 72.4998 57.4344 72.5001 57.4485 72.5001C57.5185 72.5011 57.5881 72.5021 57.6581 72.503C57.6666 72.503 57.6751 72.503 57.6837 72.5034C57.7609 72.5044 57.8387 72.505 57.9159 72.506C57.931 72.506 57.9444 72.5063 57.9595 72.5063C58.021 72.507 58.084 72.5076 58.1458 72.5083C58.1671 72.5083 58.1891 72.5086 58.2105 72.5086C58.2715 72.5093 58.3326 72.5099 58.394 72.5103C58.4088 72.5103 58.4236 72.5106 58.4384 72.5106C58.5152 72.5112 58.5914 72.5116 58.6683 72.5119C58.6821 72.5122 58.6952 72.5122 58.709 72.5122C58.772 72.5126 58.8354 72.5129 58.8985 72.5129C58.9205 72.5132 58.9438 72.5132 58.9661 72.5132C59.0229 72.5135 59.0791 72.5135 59.1359 72.5139C59.1566 72.5139 59.1776 72.5139 59.1983 72.5139C59.2745 72.5139 59.351 72.5142 59.4276 72.5142C59.5037 72.5142 59.5803 72.5139 59.6568 72.5139C59.6775 72.5139 59.6982 72.5139 59.7189 72.5139C59.7757 72.5135 59.8325 72.5135 59.8893 72.5132C59.9113 72.5132 59.934 72.5132 59.956 72.5129C60.02 72.5129 60.0837 72.5126 60.1474 72.5122C60.1606 72.5122 60.173 72.5122 60.1862 72.5119C60.2624 72.5116 60.3389 72.5112 60.4151 72.5106C60.4318 72.5106 60.4476 72.5103 60.4647 72.5103C60.5238 72.5099 60.5836 72.5093 60.6427 72.5089C60.6653 72.5086 60.6877 72.5083 60.7103 72.5083C60.7714 72.5076 60.8328 72.507 60.8939 72.5063C60.9087 72.5063 60.9245 72.506 60.9392 72.506C61.0158 72.505 61.0926 72.5044 61.1691 72.5034C61.1809 72.503 61.1918 72.503 61.2036 72.5027C61.269 72.5021 61.336 72.5011 61.4013 72.5001C61.4194 72.5001 61.4361 72.4998 61.4545 72.4994C61.5179 72.4984 61.5816 72.4975 61.645 72.4965C61.6591 72.4965 61.6739 72.4961 61.688 72.4958C61.844 72.4935 61.999 72.4906 62.1547 72.4876C62.1685 72.4873 62.1816 72.4869 62.1954 72.4869C62.2624 72.4856 62.3307 72.484 62.3977 72.4827C62.4092 72.4823 62.42 72.4823 62.4319 72.482C62.5925 72.4784 62.7527 72.4748 62.9133 72.4709H62.9137C62.9941 72.4689 63.0752 72.4666 63.1554 72.4646C63.1586 72.4646 63.1609 72.4643 63.1642 72.4643C72.4623 72.2163 81.1819 71.0485 88.8363 69.1703C92.9283 62.8832 95.3362 55.2305 95.3362 46.967C95.3362 38.7035 92.9283 31.0511 88.8363 24.765C80.9103 22.8201 71.8425 21.6365 62.1721 21.4473C62.1714 21.4473 62.1705 21.447 62.1701 21.447C62.0066 21.4441 61.8443 21.4411 61.6808 21.4385C61.6736 21.4385 61.6663 21.4381 61.6591 21.4381C61.5911 21.4372 61.5218 21.4358 61.4539 21.4349C61.4365 21.4349 61.4197 21.4345 61.4023 21.4342C61.3323 21.4332 61.2614 21.4322 61.1915 21.4316C61.1852 21.4312 61.179 21.4312 61.1727 21.4312C61.0942 21.4303 61.0148 21.4293 60.9363 21.4286C60.9235 21.4283 60.9113 21.4283 60.8985 21.428C60.8368 21.4273 60.774 21.427 60.7123 21.4263C60.6883 21.426 60.6663 21.426 60.642 21.4257C60.5862 21.4253 60.529 21.4247 60.4732 21.4244C60.4522 21.424 60.4312 21.424 60.4105 21.4237C60.335 21.4234 60.2601 21.4227 60.1845 21.4224C60.1734 21.4224 60.1616 21.4224 60.1504 21.4224C60.0867 21.4221 60.0243 21.4217 59.9602 21.4214C59.9356 21.4214 59.9106 21.4214 59.886 21.4211C59.8305 21.4211 59.7747 21.4207 59.7192 21.4207C59.6982 21.4207 59.6771 21.4207 59.6561 21.4207C59.5799 21.4204 59.5041 21.4204 59.4276 21.4204ZM38.2811 46.967C38.2811 34.3776 47.7485 24.1709 59.4259 24.1709C71.1049 24.1709 80.5717 34.3776 80.5717 46.967C80.5717 59.557 71.1049 69.7628 59.4259 69.7628C47.7485 69.7628 38.2811 59.557 38.2811 46.967Z" fill="white"/>
</mask>
<g mask="url(#mask8_4147_15987)">
<path d="M23.5156 21.4204H95.3362V72.5142H23.5156V21.4204Z" fill="url(#paint1_linear_4147_15987)"/>
</g>
</g>
</g>
<mask id="mask9_4147_15987" style="mask-type:luminance" maskUnits="userSpaceOnUse" x="0" y="21" width="57" height="52">
<path d="M0 21.4387H56.4975V72.5555H0V21.4387Z" fill="white"/>
</mask>
<g mask="url(#mask9_4147_15987)">
<mask id="mask10_4147_15987" style="mask-type:luminance" maskUnits="userSpaceOnUse" x="0" y="21" width="57" height="52">
<path d="M56.4318 21.4521C25.0014 22.1224 0 33.2888 0 46.9669C0 60.6446 25.0034 71.8106 56.4312 72.4819C46.854 72.2773 37.8742 71.0973 30.0169 69.1702C25.9249 62.8831 23.5157 55.2304 23.5157 46.9669C23.5157 38.7033 25.9249 31.051 30.0159 24.7648C37.8749 22.8367 46.854 21.6567 56.4318 21.4521Z" fill="white"/>
</mask>
<g mask="url(#mask10_4147_15987)">
<mask id="mask11_4147_15987" style="mask-type:luminance" maskUnits="userSpaceOnUse" x="0" y="21" width="57" height="52">
<path d="M56.4318 21.4521C25.0014 22.1224 0 33.2888 0 46.9669C0 60.6446 25.0034 71.8106 56.4312 72.4819C46.854 72.2773 37.8742 71.0973 30.0169 69.1702C25.9249 62.8831 23.5157 55.2304 23.5157 46.9669C23.5157 38.7033 25.9249 31.051 30.0159 24.7648C37.8749 22.8367 46.854 21.6567 56.4318 21.4521Z" fill="white"/>
</mask>
<g mask="url(#mask11_4147_15987)">
<path d="M0 21.4521H56.4318V72.4819H0V21.4521Z" fill="white"/>
</g>
</g>
</g>
<mask id="mask12_4147_15987" style="mask-type:luminance" maskUnits="userSpaceOnUse" x="62" y="21" width="57" height="52">
<path d="M62.1304 21.4387H118.88V72.4714H62.1304V21.4387Z" fill="white"/>
</mask>
<g mask="url(#mask12_4147_15987)">
<mask id="mask13_4147_15987" style="mask-type:luminance" maskUnits="userSpaceOnUse" x="62" y="21" width="57" height="52">
<path d="M62.1719 21.4473C71.8423 21.6364 80.9101 22.82 88.836 24.7649C92.9281 31.051 95.336 38.7034 95.336 46.9669C95.336 55.2304 92.9281 62.8831 88.836 69.1702C81.1817 71.0484 72.462 72.2163 63.164 72.4642C94.2414 71.6346 118.852 60.5369 118.852 46.9669C118.852 33.2527 93.7182 22.0634 62.1719 21.4473Z" fill="white"/>
</mask>
<g mask="url(#mask13_4147_15987)">
<mask id="mask14_4147_15987" style="mask-type:luminance" maskUnits="userSpaceOnUse" x="62" y="21" width="57" height="52">
<path d="M62.1719 21.4473C71.8423 21.6364 80.9101 22.82 88.836 24.7649C92.9281 31.051 95.336 38.7034 95.336 46.9669C95.336 55.2304 92.9281 62.8831 88.836 69.1702C81.1817 71.0484 72.462 72.2163 63.164 72.4642C94.2414 71.6346 118.852 60.5369 118.852 46.9669C118.852 33.2527 93.7182 22.0634 62.1719 21.4473Z" fill="white"/>
</mask>
<g mask="url(#mask14_4147_15987)">
<path d="M62.1719 21.4473H118.852V72.4642H62.1719V21.4473Z" fill="white"/>
</g>
</g>
</g>
<mask id="mask15_4147_15987" style="mask-type:luminance" maskUnits="userSpaceOnUse" x="0" y="46" width="119" height="29">
<path d="M0 46.9131H118.88V74.9937H0V46.9131Z" fill="white"/>
</mask>
<g mask="url(#mask15_4147_15987)">
<mask id="mask16_4147_15987" style="mask-type:luminance" maskUnits="userSpaceOnUse" x="0" y="46" width="119" height="29">
<path d="M118.853 46.967C118.853 60.5371 94.2416 71.6348 63.1643 72.4643C63.161 72.4643 63.1587 72.4647 63.1554 72.4647C63.0746 72.4666 62.9945 72.4689 62.9137 72.4709H62.9134C62.7531 72.4749 62.5922 72.4785 62.4319 72.4821C62.4201 72.4824 62.4092 72.4824 62.3978 72.4827C62.3304 72.4841 62.2628 72.4857 62.1954 72.487C62.1817 72.487 62.1685 72.4873 62.1547 72.4877C62.0004 72.4906 61.8427 72.4936 61.6881 72.4959C61.6739 72.4962 61.6592 72.4965 61.645 72.4965C61.5813 72.4975 61.5179 72.4985 61.4546 72.4995C61.4362 72.4998 61.4194 72.5001 61.4013 72.5001C61.3357 72.5011 61.2693 72.5021 61.2036 72.5028C61.1918 72.5031 61.181 72.5031 61.1692 72.5034C61.0917 72.5044 61.0171 72.5051 60.9393 72.5061C60.9245 72.5061 60.9087 72.5064 60.894 72.5064C60.8322 72.507 60.7721 72.5077 60.7104 72.5084C60.6877 72.5084 60.6654 72.5087 60.6427 72.509C60.5829 72.5093 60.5245 72.51 60.4647 72.5103C60.4476 72.5103 60.4319 72.5107 60.4151 72.5107C60.3373 72.5113 60.2641 72.5116 60.1862 72.512C60.1731 72.5123 60.1606 72.5123 60.1475 72.5123C60.0834 72.5126 60.02 72.513 59.956 72.513C59.934 72.5133 59.9113 72.5133 59.8893 72.5133C59.8332 72.5136 59.7751 72.5136 59.7189 72.5139C59.6982 72.5139 59.6775 72.5139 59.6568 72.5139C59.5806 72.5139 59.5038 72.5143 59.4276 72.5143C59.3514 72.5143 59.2745 72.5139 59.1984 72.5139C59.1777 72.5139 59.1567 72.5139 59.136 72.5139C59.0798 72.5136 59.022 72.5136 58.9662 72.5133C58.9438 72.5133 58.9205 72.5133 58.8985 72.513C58.8345 72.513 58.7731 72.5126 58.709 72.5123C58.6952 72.5123 58.6821 72.5123 58.6683 72.512C58.5924 72.5116 58.5143 72.5113 58.4384 72.5107C58.4236 72.5107 58.4089 72.5103 58.3941 72.5103C58.332 72.51 58.2722 72.5093 58.2105 72.5087C58.1891 72.5087 58.1671 72.5084 58.1458 72.5084C58.0841 72.5077 58.0213 72.507 57.9596 72.5064C57.9445 72.5064 57.931 72.5061 57.9159 72.5061C57.8381 72.5051 57.7612 72.5044 57.6837 72.5034C57.6752 72.5031 57.6666 72.5031 57.6581 72.5031C57.5865 72.5021 57.5202 72.5011 57.4486 72.5001C57.4345 72.5001 57.4203 72.4998 57.4062 72.4995C57.3386 72.4985 57.2706 72.4975 57.2033 72.4965C57.1914 72.4962 57.1812 72.4962 57.1698 72.4959C57.0108 72.4936 56.8518 72.4906 56.6932 72.4877C56.685 72.4873 56.6778 72.4873 56.6693 72.487C56.596 72.4857 56.5172 72.4841 56.444 72.4824C56.4397 72.4824 56.4354 72.4824 56.4312 72.4821C25.0034 71.8108 0 60.6448 0 46.967C0 47.0179 0 47.0692 0.000328413 47.1201C0.000328413 47.1253 0.000328413 47.1303 0.000328413 47.1352C0.000656825 47.1815 0.000985242 47.2275 0.00131365 47.2738C0.00131365 47.2761 0.00131365 47.2784 0.00131365 47.2807C0.0275867 50.4495 0.452553 53.5442 1.23549 56.535C4.37511 60.6218 9.55976 64.299 16.5635 67.3089C28.0487 72.2469 43.2713 74.9665 59.4259 74.9665C75.5816 74.9665 90.8038 72.2469 102.289 67.3089C109.293 64.299 114.478 60.6218 117.617 56.535C118.388 53.5941 118.811 50.553 118.85 47.4393C118.85 47.435 118.85 47.4308 118.85 47.4268C118.851 47.3861 118.851 47.345 118.852 47.3043C118.852 47.2938 118.852 47.2836 118.852 47.2731C118.852 47.2285 118.853 47.1838 118.853 47.1391C118.853 47.1329 118.853 47.1266 118.853 47.1201C118.853 47.0692 118.853 47.0179 118.853 46.967Z" fill="white"/>
</mask>
<g mask="url(#mask16_4147_15987)">
<mask id="mask17_4147_15987" style="mask-type:luminance" maskUnits="userSpaceOnUse" x="0" y="46" width="119" height="29">
<path d="M118.853 46.967C118.853 60.5371 94.2416 71.6348 63.1643 72.4643C63.161 72.4643 63.1587 72.4647 63.1554 72.4647C63.0746 72.4666 62.9945 72.4689 62.9137 72.4709H62.9134C62.7531 72.4749 62.5922 72.4785 62.4319 72.4821C62.4201 72.4824 62.4092 72.4824 62.3978 72.4827C62.3304 72.4841 62.2628 72.4857 62.1954 72.487C62.1817 72.487 62.1685 72.4873 62.1547 72.4877C62.0004 72.4906 61.8427 72.4936 61.6881 72.4959C61.6739 72.4962 61.6592 72.4965 61.645 72.4965C61.5813 72.4975 61.5179 72.4985 61.4546 72.4995C61.4362 72.4998 61.4194 72.5001 61.4013 72.5001C61.3357 72.5011 61.2693 72.5021 61.2036 72.5028C61.1918 72.5031 61.181 72.5031 61.1692 72.5034C61.0917 72.5044 61.0171 72.5051 60.9393 72.5061C60.9245 72.5061 60.9087 72.5064 60.894 72.5064C60.8322 72.507 60.7721 72.5077 60.7104 72.5084C60.6877 72.5084 60.6654 72.5087 60.6427 72.509C60.5829 72.5093 60.5245 72.51 60.4647 72.5103C60.4476 72.5103 60.4319 72.5107 60.4151 72.5107C60.3373 72.5113 60.2641 72.5116 60.1862 72.512C60.1731 72.5123 60.1606 72.5123 60.1475 72.5123C60.0834 72.5126 60.02 72.513 59.956 72.513C59.934 72.5133 59.9113 72.5133 59.8893 72.5133C59.8332 72.5136 59.7751 72.5136 59.7189 72.5139C59.6982 72.5139 59.6775 72.5139 59.6568 72.5139C59.5806 72.5139 59.5038 72.5143 59.4276 72.5143C59.3514 72.5143 59.2745 72.5139 59.1984 72.5139C59.1777 72.5139 59.1567 72.5139 59.136 72.5139C59.0798 72.5136 59.022 72.5136 58.9662 72.5133C58.9438 72.5133 58.9205 72.5133 58.8985 72.513C58.8345 72.513 58.7731 72.5126 58.709 72.5123C58.6952 72.5123 58.6821 72.5123 58.6683 72.512C58.5924 72.5116 58.5143 72.5113 58.4384 72.5107C58.4236 72.5107 58.4089 72.5103 58.3941 72.5103C58.332 72.51 58.2722 72.5093 58.2105 72.5087C58.1891 72.5087 58.1671 72.5084 58.1458 72.5084C58.0841 72.5077 58.0213 72.507 57.9596 72.5064C57.9445 72.5064 57.931 72.5061 57.9159 72.5061C57.8381 72.5051 57.7612 72.5044 57.6837 72.5034C57.6752 72.5031 57.6666 72.5031 57.6581 72.5031C57.5865 72.5021 57.5202 72.5011 57.4486 72.5001C57.4345 72.5001 57.4203 72.4998 57.4062 72.4995C57.3386 72.4985 57.2706 72.4975 57.2033 72.4965C57.1914 72.4962 57.1812 72.4962 57.1698 72.4959C57.0108 72.4936 56.8518 72.4906 56.6932 72.4877C56.685 72.4873 56.6778 72.4873 56.6693 72.487C56.596 72.4857 56.5172 72.4841 56.444 72.4824C56.4397 72.4824 56.4354 72.4824 56.4312 72.4821C25.0034 71.8108 0 60.6448 0 46.967C0 47.0179 0 47.0692 0.000328413 47.1201C0.000328413 47.1253 0.000328413 47.1303 0.000328413 47.1352C0.000656825 47.1815 0.000985242 47.2275 0.00131365 47.2738C0.00131365 47.2761 0.00131365 47.2784 0.00131365 47.2807C0.0275867 50.4495 0.452553 53.5442 1.23549 56.535C4.37511 60.6218 9.55976 64.299 16.5635 67.3089C28.0487 72.2469 43.2713 74.9665 59.4259 74.9665C75.5816 74.9665 90.8038 72.2469 102.289 67.3089C109.293 64.299 114.478 60.6218 117.617 56.535C118.388 53.5941 118.811 50.553 118.85 47.4393C118.85 47.435 118.85 47.4308 118.85 47.4268C118.851 47.3861 118.851 47.345 118.852 47.3043C118.852 47.2938 118.852 47.2836 118.852 47.2731C118.852 47.2285 118.853 47.1838 118.853 47.1391C118.853 47.1329 118.853 47.1266 118.853 47.1201C118.853 47.0692 118.853 47.0179 118.853 46.967Z" fill="white"/>
</mask>
<g mask="url(#mask17_4147_15987)">
<path d="M0 46.967H118.853V74.9665H0V46.967Z" fill="url(#paint2_linear_4147_15987)"/>
</g>
</g>
</g>
<mask id="mask18_4147_15987" style="mask-type:luminance" maskUnits="userSpaceOnUse" x="0" y="18" width="119" height="29">
<path d="M0 18.9165H118.88V46.9971H0V18.9165Z" fill="white"/>
</mask>
<g mask="url(#mask18_4147_15987)">
<mask id="mask19_4147_15987" style="mask-type:luminance" maskUnits="userSpaceOnUse" x="0" y="18" width="119" height="29">
<path d="M59.4259 18.9688C43.2713 18.9688 28.0504 21.6883 16.5635 26.6254C9.55976 29.6353 4.37511 33.3135 1.23549 37.3996C0.452553 40.3901 0.0275867 43.4834 0.00131365 46.6523C0.00131365 46.6549 0.00131365 46.6572 0.00131365 46.6599C0.000985242 46.7058 0.000656825 46.7518 0.000328413 46.7978C0.000328413 46.803 0.000328413 46.8083 0.000328413 46.8135C0 46.8645 0 46.9157 0 46.9669C0 33.2889 25.0014 22.1225 56.4318 21.4522C56.4357 21.4522 56.439 21.4522 56.443 21.4519C56.5221 21.4502 56.5967 21.4489 56.6758 21.4473C56.6804 21.4473 56.6844 21.447 56.689 21.447C56.8492 21.444 57.0108 21.441 57.1714 21.4384C57.1819 21.4384 57.1908 21.4381 57.2013 21.4381C57.2666 21.4371 57.3323 21.4358 57.398 21.4351C57.4167 21.4348 57.4361 21.4345 57.4548 21.4341C57.5244 21.4332 57.5885 21.4325 57.6581 21.4315C57.6666 21.4315 57.6752 21.4312 57.6834 21.4312C57.7612 21.4302 57.8397 21.4292 57.9175 21.4286C57.9317 21.4282 57.9455 21.4282 57.9596 21.4279C58.0194 21.4272 58.0814 21.4269 58.1412 21.4263C58.1655 21.4259 58.1898 21.4259 58.2138 21.4256C58.2676 21.4253 58.3268 21.4246 58.3803 21.4243C58.4026 21.424 58.4226 21.424 58.445 21.4236C58.5205 21.4233 58.5941 21.4226 58.6703 21.4223C58.6818 21.4223 58.6939 21.4223 58.7057 21.4223C58.7675 21.422 58.8325 21.4217 58.8946 21.4213C58.9192 21.4213 58.9445 21.4213 58.9691 21.421C59.0233 21.421 59.0818 21.4207 59.136 21.4207C59.1567 21.4207 59.178 21.4207 59.1987 21.4207C59.2749 21.4204 59.3514 21.4204 59.4276 21.4204C59.5038 21.4204 59.5803 21.4204 59.6562 21.4207C59.6772 21.4207 59.6982 21.4207 59.7192 21.4207C59.7731 21.4207 59.8319 21.421 59.8861 21.421C59.9107 21.4213 59.9356 21.4213 59.9603 21.4213C60.0223 21.4217 60.0884 21.422 60.1504 21.4223C60.1616 21.4223 60.1734 21.4223 60.1846 21.4223C60.2604 21.4226 60.3347 21.4233 60.4105 21.4236C60.4312 21.424 60.4522 21.424 60.4733 21.4243C60.5311 21.4246 60.5843 21.4249 60.6421 21.4256C60.6664 21.4259 60.6884 21.4259 60.7123 21.4263C60.7741 21.4269 60.8365 21.4272 60.8985 21.4279C60.9114 21.4282 60.9235 21.4282 60.9363 21.4286C61.0142 21.4292 61.0949 21.4302 61.1728 21.4312C61.179 21.4312 61.1853 21.4312 61.1915 21.4315C61.2611 21.4322 61.3327 21.4332 61.4023 21.4341C61.4197 21.4345 61.4365 21.4348 61.4539 21.4348C61.5215 21.4358 61.5915 21.4371 61.6592 21.4381C61.6664 21.4381 61.6736 21.4384 61.6808 21.4384C61.8434 21.441 62.0076 21.444 62.1702 21.447C62.1705 21.447 62.1715 21.4473 62.1721 21.4473C93.7185 22.0634 118.853 33.2527 118.853 46.9669C118.853 46.9157 118.853 46.8645 118.853 46.8135C118.853 46.8067 118.853 46.8004 118.853 46.7935C118.853 46.7495 118.852 46.7048 118.852 46.6608C118.852 46.6497 118.852 46.6388 118.852 46.628C118.851 46.5876 118.851 46.5475 118.85 46.5071C118.85 46.5025 118.85 46.4976 118.85 46.493C118.811 43.38 118.387 40.3399 117.617 37.3996C114.478 33.3135 109.293 29.6353 102.289 26.6254C90.8038 21.6883 75.5816 18.9688 59.4259 18.9688Z" fill="white"/>
</mask>
<g mask="url(#mask19_4147_15987)">
<mask id="mask20_4147_15987" style="mask-type:luminance" maskUnits="userSpaceOnUse" x="0" y="18" width="119" height="29">
<path d="M59.4259 18.9688C43.2713 18.9688 28.0504 21.6883 16.5635 26.6254C9.55976 29.6353 4.37511 33.3135 1.23549 37.3996C0.452553 40.3901 0.0275867 43.4834 0.00131365 46.6523C0.00131365 46.6549 0.00131365 46.6572 0.00131365 46.6599C0.000985242 46.7058 0.000656825 46.7518 0.000328413 46.7978C0.000328413 46.803 0.000328413 46.8083 0.000328413 46.8135C0 46.8645 0 46.9157 0 46.9669C0 33.2889 25.0014 22.1225 56.4318 21.4522C56.4357 21.4522 56.439 21.4522 56.443 21.4519C56.5221 21.4502 56.5967 21.4489 56.6758 21.4473C56.6804 21.4473 56.6844 21.447 56.689 21.447C56.8492 21.444 57.0108 21.441 57.1714 21.4384C57.1819 21.4384 57.1908 21.4381 57.2013 21.4381C57.2666 21.4371 57.3323 21.4358 57.398 21.4351C57.4167 21.4348 57.4361 21.4345 57.4548 21.4341C57.5244 21.4332 57.5885 21.4325 57.6581 21.4315C57.6666 21.4315 57.6752 21.4312 57.6834 21.4312C57.7612 21.4302 57.8397 21.4292 57.9175 21.4286C57.9317 21.4282 57.9455 21.4282 57.9596 21.4279C58.0194 21.4272 58.0814 21.4269 58.1412 21.4263C58.1655 21.4259 58.1898 21.4259 58.2138 21.4256C58.2676 21.4253 58.3268 21.4246 58.3803 21.4243C58.4026 21.424 58.4226 21.424 58.445 21.4236C58.5205 21.4233 58.5941 21.4226 58.6703 21.4223C58.6818 21.4223 58.6939 21.4223 58.7057 21.4223C58.7675 21.422 58.8325 21.4217 58.8946 21.4213C58.9192 21.4213 58.9445 21.4213 58.9691 21.421C59.0233 21.421 59.0818 21.4207 59.136 21.4207C59.1567 21.4207 59.178 21.4207 59.1987 21.4207C59.2749 21.4204 59.3514 21.4204 59.4276 21.4204C59.5038 21.4204 59.5803 21.4204 59.6562 21.4207C59.6772 21.4207 59.6982 21.4207 59.7192 21.4207C59.7731 21.4207 59.8319 21.421 59.8861 21.421C59.9107 21.4213 59.9356 21.4213 59.9603 21.4213C60.0223 21.4217 60.0884 21.422 60.1504 21.4223C60.1616 21.4223 60.1734 21.4223 60.1846 21.4223C60.2604 21.4226 60.3347 21.4233 60.4105 21.4236C60.4312 21.424 60.4522 21.424 60.4733 21.4243C60.5311 21.4246 60.5843 21.4249 60.6421 21.4256C60.6664 21.4259 60.6884 21.4259 60.7123 21.4263C60.7741 21.4269 60.8365 21.4272 60.8985 21.4279C60.9114 21.4282 60.9235 21.4282 60.9363 21.4286C61.0142 21.4292 61.0949 21.4302 61.1728 21.4312C61.179 21.4312 61.1853 21.4312 61.1915 21.4315C61.2611 21.4322 61.3327 21.4332 61.4023 21.4341C61.4197 21.4345 61.4365 21.4348 61.4539 21.4348C61.5215 21.4358 61.5915 21.4371 61.6592 21.4381C61.6664 21.4381 61.6736 21.4384 61.6808 21.4384C61.8434 21.441 62.0076 21.444 62.1702 21.447C62.1705 21.447 62.1715 21.4473 62.1721 21.4473C93.7185 22.0634 118.853 33.2527 118.853 46.9669C118.853 46.9157 118.853 46.8645 118.853 46.8135C118.853 46.8067 118.853 46.8004 118.853 46.7935C118.853 46.7495 118.852 46.7048 118.852 46.6608C118.852 46.6497 118.852 46.6388 118.852 46.628C118.851 46.5876 118.851 46.5475 118.85 46.5071C118.85 46.5025 118.85 46.4976 118.85 46.493C118.811 43.38 118.387 40.3399 117.617 37.3996C114.478 33.3135 109.293 29.6353 102.289 26.6254C90.8038 21.6883 75.5816 18.9688 59.4259 18.9688Z" fill="white"/>
</mask>
<g mask="url(#mask20_4147_15987)">
<path d="M0 18.9688H118.853V46.9669H0V18.9688Z" fill="url(#paint3_linear_4147_15987)"/>
</g>
</g>
</g>
<mask id="mask21_4147_15987" style="mask-type:luminance" maskUnits="userSpaceOnUse" x="0" y="47" width="119" height="47">
<path d="M0 47.2495H118.88V93.9357H0V47.2495Z" fill="white"/>
</mask>
<g mask="url(#mask21_4147_15987)">
<mask id="mask22_4147_15987" style="mask-type:luminance" maskUnits="userSpaceOnUse" x="0" y="47" width="119" height="47">
<path d="M0.00146484 47.2808C0.214605 73.0772 26.7389 93.9357 59.4277 93.9357C92.0463 93.9357 118.528 73.1617 118.85 47.4394C118.811 50.5531 118.388 53.5942 117.618 56.5351C114.478 60.6219 109.293 64.2991 102.289 67.309C90.804 72.247 75.5817 74.9666 59.4261 74.9666C43.2715 74.9666 28.0489 72.247 16.5636 67.309C9.55992 64.2991 4.37527 60.6219 1.23564 56.5351C0.452704 53.5442 0.0277379 50.4496 0.00146484 47.2808Z" fill="white"/>
</mask>
<g mask="url(#mask22_4147_15987)">
<mask id="mask23_4147_15987" style="mask-type:luminance" maskUnits="userSpaceOnUse" x="0" y="47" width="119" height="47">
<path d="M0.00146484 47.2808C0.214605 73.0772 26.7389 93.9357 59.4277 93.9357C92.0463 93.9357 118.528 73.1617 118.85 47.4394C118.811 50.5531 118.388 53.5942 117.618 56.5351C114.478 60.6219 109.293 64.2991 102.289 67.309C90.804 72.247 75.5817 74.9666 59.4261 74.9666C43.2715 74.9666 28.0489 72.247 16.5636 67.309C9.55992 64.2991 4.37527 60.6219 1.23564 56.5351C0.452704 53.5442 0.0277379 50.4496 0.00146484 47.2808Z" fill="white"/>
</mask>
<g mask="url(#mask23_4147_15987)">
<path d="M0.00146484 47.2808H118.85V93.9357H0.00146484V47.2808Z" fill="#F4B798"/>
</g>
</g>
</g>
<mask id="mask24_4147_15987" style="mask-type:luminance" maskUnits="userSpaceOnUse" x="0" y="0" width="119" height="47">
<path d="M0 0H118.88V46.6609H0V0Z" fill="white"/>
</mask>
<g mask="url(#mask24_4147_15987)">
<mask id="mask25_4147_15987" style="mask-type:luminance" maskUnits="userSpaceOnUse" x="0" y="0" width="119" height="47">
<path d="M59.4277 0C26.7389 0 0.214605 20.8572 0.00146484 46.6523C0.0277379 43.4835 0.452704 40.3902 1.23564 37.3996C4.37527 33.3135 9.55992 29.6353 16.5636 26.6254C28.0505 21.6884 43.2715 18.9688 59.4261 18.9688C75.5817 18.9688 90.804 21.6884 102.289 26.6254C109.293 29.6353 114.478 33.3135 117.618 37.3996C118.387 40.3399 118.811 43.38 118.85 46.4931C118.528 20.7724 92.0463 0 59.4277 0Z" fill="white"/>
</mask>
<g mask="url(#mask25_4147_15987)">
<mask id="mask26_4147_15987" style="mask-type:luminance" maskUnits="userSpaceOnUse" x="0" y="0" width="119" height="47">
<path d="M59.4277 0C26.7389 0 0.214605 20.8572 0.00146484 46.6523C0.0277379 43.4835 0.452704 40.3902 1.23564 37.3996C4.37527 33.3135 9.55992 29.6353 16.5636 26.6254C28.0505 21.6884 43.2715 18.9688 59.4261 18.9688C75.5817 18.9688 90.804 21.6884 102.289 26.6254C109.293 29.6353 114.478 33.3135 117.618 37.3996C118.387 40.3399 118.811 43.38 118.85 46.4931C118.528 20.7724 92.0463 0 59.4277 0Z" fill="white"/>
</mask>
<g mask="url(#mask26_4147_15987)">
<path d="M0.00146484 0H118.85V46.6523H0.00146484V0Z" fill="#F4B798"/>
</g>
</g>
</g>
<path d="M118.853 46.967C118.853 61.0772 92.2472 72.5142 59.4276 72.5142C26.6067 72.5142 0 61.0772 0 46.967C0 32.8574 26.6067 21.4204 59.4276 21.4204C92.2472 21.4204 118.853 32.8574 118.853 46.967Z" fill="white"/>
<path d="M117.617 37.3996C114.478 33.3135 109.293 29.6353 102.289 26.6254C90.8038 21.6883 75.5816 18.9688 59.4259 18.9688C43.2713 18.9688 28.0504 21.6883 16.5635 26.6254C9.55976 29.6353 4.37511 33.3135 1.23549 37.3996C0.426608 40.489 0 43.688 0 46.9669C0 50.2455 0.426608 53.4452 1.23549 56.5349C4.37511 60.6217 9.55976 64.2989 16.5635 67.3088C28.0487 72.2468 43.2713 74.9664 59.4259 74.9664C75.5816 74.9664 90.8038 72.2468 102.289 67.3088C109.293 64.2989 114.478 60.6217 117.617 56.5349C118.426 53.4452 118.853 50.2455 118.853 46.9669C118.853 43.688 118.426 40.489 117.617 37.3996Z" fill="#FCEBE3"/>
<path d="M30.0159 24.765C25.9249 31.0511 23.5156 38.7035 23.5156 46.967C23.5156 55.2305 25.9249 62.8832 30.0169 69.1703C38.6889 71.2974 48.7269 72.5142 59.4276 72.5142C70.1259 72.5142 80.1645 71.2981 88.8363 69.1703C92.9283 62.8832 95.3362 55.2305 95.3362 46.967C95.3362 38.7035 92.9283 31.0511 88.8363 24.765C80.1645 22.6372 70.1266 21.4204 59.4276 21.4204C48.7269 21.4204 38.6889 22.6372 30.0159 24.765Z" fill="#91D5F2"/>
<path d="M80.5719 46.967C80.5719 59.557 71.1051 69.7628 59.4261 69.7628C47.7487 69.7628 38.2812 59.557 38.2812 46.967C38.2812 34.3776 47.7487 24.1709 59.4261 24.1709C71.1051 24.1709 80.5719 34.3776 80.5719 46.967Z" fill="#323531"/>
<path d="M56.2363 37.0922C56.2363 40.6463 53.5637 43.5271 50.2661 43.5271C46.9692 43.5271 44.2969 40.6463 44.2969 37.0922C44.2969 33.5375 46.9692 30.657 50.2661 30.657C53.5637 30.657 56.2363 33.5375 56.2363 37.0922Z" fill="white"/>
<defs>
<linearGradient id="paint0_linear_4147_15987" x1="59.4526" y1="24.1709" x2="59.4526" y2="69.7629" gradientUnits="userSpaceOnUse">
<stop stop-color="#717470"/>
<stop offset="0.015625" stop-color="#717470"/>
<stop offset="0.03125" stop-color="#70736F"/>
<stop offset="0.046875" stop-color="#6F726E"/>
<stop offset="0.0625" stop-color="#6E716D"/>
<stop offset="0.078125" stop-color="#6D706C"/>
<stop offset="0.09375" stop-color="#6C6F6B"/>
<stop offset="0.109375" stop-color="#6B6E6A"/>
<stop offset="0.125" stop-color="#6A6D69"/>
<stop offset="0.140625" stop-color="#696C69"/>
<stop offset="0.15625" stop-color="#686B68"/>
<stop offset="0.171875" stop-color="#676A67"/>
<stop offset="0.1875" stop-color="#666966"/>
<stop offset="0.203125" stop-color="#656865"/>
<stop offset="0.21875" stop-color="#646764"/>
<stop offset="0.234375" stop-color="#646763"/>
<stop offset="0.25" stop-color="#636662"/>
<stop offset="0.265625" stop-color="#626561"/>
<stop offset="0.28125" stop-color="#616460"/>
<stop offset="0.296875" stop-color="#606360"/>
<stop offset="0.3125" stop-color="#5F625F"/>
<stop offset="0.328125" stop-color="#5E615E"/>
<stop offset="0.34375" stop-color="#5D605D"/>
<stop offset="0.359375" stop-color="#5C5F5C"/>
<stop offset="0.367188" stop-color="#5B5E5B"/>
<stop offset="0.371094" stop-color="#5A5D5A"/>
<stop offset="0.375" stop-color="#5A5D5A"/>
<stop offset="0.378906" stop-color="#595C59"/>
<stop offset="0.382812" stop-color="#585B58"/>
<stop offset="0.386719" stop-color="#575A57"/>
<stop offset="0.390625" stop-color="#565956"/>
<stop offset="0.394531" stop-color="#555855"/>
<stop offset="0.398438" stop-color="#545754"/>
<stop offset="0.402344" stop-color="#535653"/>
<stop offset="0.40625" stop-color="#525552"/>
<stop offset="0.410156" stop-color="#525552"/>
<stop offset="0.414062" stop-color="#515451"/>
<stop offset="0.417969" stop-color="#505350"/>
<stop offset="0.421875" stop-color="#4F524F"/>
<stop offset="0.425781" stop-color="#4E514E"/>
<stop offset="0.429688" stop-color="#4D504D"/>
<stop offset="0.433594" stop-color="#4C4F4C"/>
<stop offset="0.4375" stop-color="#4C4F4C"/>
<stop offset="0.441406" stop-color="#4B4E4B"/>
<stop offset="0.445312" stop-color="#4A4D4A"/>
<stop offset="0.449219" stop-color="#494C49"/>
<stop offset="0.453125" stop-color="#484B48"/>
<stop offset="0.457031" stop-color="#474A47"/>
<stop offset="0.460938" stop-color="#474A47"/>
<stop offset="0.464844" stop-color="#464946"/>
<stop offset="0.46875" stop-color="#454845"/>
<stop offset="0.472656" stop-color="#444744"/>
<stop offset="0.476562" stop-color="#434643"/>
<stop offset="0.480469" stop-color="#424542"/>
<stop offset="0.484375" stop-color="#424542"/>
<stop offset="0.488281" stop-color="#414441"/>
<stop offset="0.492188" stop-color="#404340"/>
<stop offset="0.496094" stop-color="#3F423F"/>
<stop offset="0.5" stop-color="#3E413E"/>
<stop offset="0.503906" stop-color="#3E413E"/>
<stop offset="0.507812" stop-color="#3D403D"/>
<stop offset="0.511719" stop-color="#3C3F3C"/>
<stop offset="0.515625" stop-color="#3B3E3B"/>
<stop offset="0.519531" stop-color="#3B3E3B"/>
<stop offset="0.523437" stop-color="#3A3D3A"/>
<stop offset="0.527344" stop-color="#393C39"/>
<stop offset="0.53125" stop-color="#383B38"/>
<stop offset="0.535156" stop-color="#373A37"/>
<stop offset="0.539063" stop-color="#373A37"/>
<stop offset="0.542969" stop-color="#363936"/>
<stop offset="0.546875" stop-color="#353835"/>
<stop offset="0.550781" stop-color="#343734"/>
<stop offset="0.554688" stop-color="#343734"/>
<stop offset="0.558594" stop-color="#333633"/>
<stop offset="0.5625" stop-color="#323532"/>
<stop offset="0.566406" stop-color="#323532"/>
<stop offset="0.570312" stop-color="#313431"/>
<stop offset="0.574219" stop-color="#303330"/>
<stop offset="0.578125" stop-color="#2F322F"/>
<stop offset="0.582031" stop-color="#2F322F"/>
<stop offset="0.585937" stop-color="#2E312E"/>
<stop offset="0.589844" stop-color="#2D302D"/>
<stop offset="0.59375" stop-color="#2D302D"/>
<stop offset="0.597656" stop-color="#2C2F2C"/>
<stop offset="0.601563" stop-color="#2B2E2B"/>
<stop offset="0.605469" stop-color="#2B2E2B"/>
<stop offset="0.609375" stop-color="#2A2D2A"/>
<stop offset="0.613281" stop-color="#2A2D2A"/>
<stop offset="0.617188" stop-color="#292C29"/>
<stop offset="0.621094" stop-color="#282B28"/>
<stop offset="0.625" stop-color="#282B28"/>
<stop offset="0.628906" stop-color="#272A27"/>
<stop offset="0.632812" stop-color="#272A27"/>
<stop offset="0.640625" stop-color="#262926"/>
<stop offset="0.648437" stop-color="#252825"/>
<stop offset="0.65625" stop-color="#252825"/>
<stop offset="0.671875" stop-color="#242724"/>
<stop offset="0.6875" stop-color="#242624"/>
<stop offset="0.703125" stop-color="#232623"/>
<stop offset="0.71875" stop-color="#222522"/>
<stop offset="0.734375" stop-color="#212421"/>
<stop offset="0.75" stop-color="#212321"/>
<stop offset="0.765625" stop-color="#202220"/>
<stop offset="0.78125" stop-color="#1F221F"/>
<stop offset="0.796875" stop-color="#1F211E"/>
<stop offset="0.8125" stop-color="#1E201D"/>
<stop offset="0.828125" stop-color="#1D1F1D"/>
<stop offset="0.84375" stop-color="#1C1E1C"/>
<stop offset="0.859375" stop-color="#1B1D1B"/>
<stop offset="0.875" stop-color="#1B1C1A"/>
<stop offset="0.890625" stop-color="#1A1C19"/>
<stop offset="0.90625" stop-color="#191B18"/>
<stop offset="0.921875" stop-color="#181A18"/>
<stop offset="0.9375" stop-color="#181917"/>
<stop offset="0.953125" stop-color="#171816"/>
<stop offset="0.96875" stop-color="#161715"/>
<stop offset="0.984375" stop-color="#151614"/>
<stop offset="1" stop-color="#141513"/>
</linearGradient>
<linearGradient id="paint1_linear_4147_15987" x1="59.4109" y1="21.4204" x2="59.4109" y2="72.514" gradientUnits="userSpaceOnUse">
<stop stop-color="#C0E9F8"/>
<stop offset="0.015625" stop-color="#C0E9F8"/>
<stop offset="0.03125" stop-color="#BFE9F8"/>
<stop offset="0.046875" stop-color="#BEE8F8"/>
<stop offset="0.0625" stop-color="#BDE8F8"/>
<stop offset="0.078125" stop-color="#BDE8F8"/>
<stop offset="0.09375" stop-color="#BCE7F8"/>
<stop offset="0.109375" stop-color="#BBE7F7"/>
<stop offset="0.125" stop-color="#BAE7F7"/>
<stop offset="0.140625" stop-color="#BAE6F7"/>
<stop offset="0.15625" stop-color="#B9E6F7"/>
<stop offset="0.171875" stop-color="#B8E6F7"/>
<stop offset="0.1875" stop-color="#B7E5F7"/>
<stop offset="0.203125" stop-color="#B7E5F7"/>
<stop offset="0.21875" stop-color="#B6E5F7"/>
<stop offset="0.234375" stop-color="#B5E5F7"/>
<stop offset="0.25" stop-color="#B4E4F7"/>
<stop offset="0.265625" stop-color="#B4E4F7"/>
<stop offset="0.28125" stop-color="#B3E4F6"/>
<stop offset="0.296875" stop-color="#B2E3F6"/>
<stop offset="0.3125" stop-color="#B2E3F6"/>
<stop offset="0.328125" stop-color="#B1E3F6"/>
<stop offset="0.34375" stop-color="#B0E3F6"/>
<stop offset="0.359375" stop-color="#B0E2F6"/>
<stop offset="0.375" stop-color="#AFE2F6"/>
<stop offset="0.382812" stop-color="#AEE2F6"/>
<stop offset="0.390625" stop-color="#ADE1F6"/>
<stop offset="0.398438" stop-color="#ACE1F6"/>
<stop offset="0.402344" stop-color="#ABE0F5"/>
<stop offset="0.40625" stop-color="#ABE0F5"/>
<stop offset="0.410156" stop-color="#AAE0F5"/>
<stop offset="0.414062" stop-color="#AADFF5"/>
<stop offset="0.417969" stop-color="#A9DFF5"/>
<stop offset="0.421875" stop-color="#A8DFF5"/>
<stop offset="0.425781" stop-color="#A8DFF5"/>
<stop offset="0.429688" stop-color="#A7DEF5"/>
<stop offset="0.433594" stop-color="#A7DEF5"/>
<stop offset="0.4375" stop-color="#A6DEF5"/>
<stop offset="0.441406" stop-color="#A5DDF4"/>
<stop offset="0.445312" stop-color="#A5DDF4"/>
<stop offset="0.449219" stop-color="#A4DDF4"/>
<stop offset="0.453125" stop-color="#A4DCF4"/>
<stop offset="0.457031" stop-color="#A3DCF4"/>
<stop offset="0.460938" stop-color="#A2DCF4"/>
<stop offset="0.464844" stop-color="#A2DBF4"/>
<stop offset="0.46875" stop-color="#A1DBF4"/>
<stop offset="0.472656" stop-color="#A0DBF4"/>
<stop offset="0.476562" stop-color="#A0DAF3"/>
<stop offset="0.480469" stop-color="#9FDAF3"/>
<stop offset="0.484375" stop-color="#9EDAF3"/>
<stop offset="0.488281" stop-color="#9ED9F3"/>
<stop offset="0.492188" stop-color="#9DD9F3"/>
<stop offset="0.496094" stop-color="#9CD9F3"/>
<stop offset="0.5" stop-color="#9BD8F3"/>
<stop offset="0.503906" stop-color="#9BD8F3"/>
<stop offset="0.507813" stop-color="#9AD8F3"/>
<stop offset="0.511719" stop-color="#99D7F2"/>
<stop offset="0.515625" stop-color="#99D7F2"/>
<stop offset="0.519531" stop-color="#98D7F2"/>
<stop offset="0.523438" stop-color="#97D6F2"/>
<stop offset="0.527344" stop-color="#96D6F2"/>
<stop offset="0.53125" stop-color="#96D6F2"/>
<stop offset="0.535156" stop-color="#95D5F2"/>
<stop offset="0.539062" stop-color="#94D5F2"/>
<stop offset="0.542969" stop-color="#93D4F1"/>
<stop offset="0.546875" stop-color="#93D4F1"/>
<stop offset="0.550781" stop-color="#92D4F1"/>
<stop offset="0.554687" stop-color="#91D3F1"/>
<stop offset="0.558594" stop-color="#90D3F1"/>
<stop offset="0.5625" stop-color="#90D3F1"/>
<stop offset="0.566406" stop-color="#8FD2F1"/>
<stop offset="0.570312" stop-color="#8ED2F1"/>
<stop offset="0.574219" stop-color="#8DD1F0"/>
<stop offset="0.578125" stop-color="#8DD1F0"/>
<stop offset="0.582031" stop-color="#8CD1F0"/>
<stop offset="0.585937" stop-color="#8BD0F0"/>
<stop offset="0.589844" stop-color="#8AD0F0"/>
<stop offset="0.59375" stop-color="#89D0F0"/>
<stop offset="0.597656" stop-color="#89CFF0"/>
<stop offset="0.601562" stop-color="#88CFF0"/>
<stop offset="0.605469" stop-color="#87CEEF"/>
<stop offset="0.609375" stop-color="#86CEEF"/>
<stop offset="0.613281" stop-color="#85CEEF"/>
<stop offset="0.617187" stop-color="#85CDEF"/>
<stop offset="0.621094" stop-color="#84CDEF"/>
<stop offset="0.625" stop-color="#83CCEF"/>
<stop offset="0.628906" stop-color="#82CCEF"/>
<stop offset="0.632812" stop-color="#81CCEF"/>
<stop offset="0.636719" stop-color="#80CBEE"/>
<stop offset="0.640625" stop-color="#80CBEE"/>
<stop offset="0.644531" stop-color="#7FCAEE"/>
<stop offset="0.648437" stop-color="#7ECAEE"/>
<stop offset="0.65625" stop-color="#7ECAEE"/>
<stop offset="0.664062" stop-color="#7DCAEE"/>
<stop offset="0.671875" stop-color="#7DC9EE"/>
<stop offset="0.679688" stop-color="#7CC9EE"/>
<stop offset="0.6875" stop-color="#7CC9ED"/>
<stop offset="0.695312" stop-color="#7BC8ED"/>
<stop offset="0.703125" stop-color="#7AC8ED"/>
<stop offset="0.710937" stop-color="#7AC8ED"/>
<stop offset="0.71875" stop-color="#79C7ED"/>
<stop offset="0.726562" stop-color="#79C7ED"/>
<stop offset="0.734375" stop-color="#78C6ED"/>
<stop offset="0.742188" stop-color="#77C6ED"/>
<stop offset="0.75" stop-color="#77C6EC"/>
<stop offset="0.757812" stop-color="#76C5EC"/>
<stop offset="0.765625" stop-color="#76C5EC"/>
<stop offset="0.773437" stop-color="#75C5EC"/>
<stop offset="0.78125" stop-color="#75C4EC"/>
<stop offset="0.789062" stop-color="#74C4EC"/>
<stop offset="0.796875" stop-color="#73C4EC"/>
<stop offset="0.804688" stop-color="#73C3EB"/>
<stop offset="0.8125" stop-color="#72C3EB"/>
<stop offset="0.820312" stop-color="#71C3EB"/>
<stop offset="0.828125" stop-color="#71C2EB"/>
<stop offset="0.835937" stop-color="#70C2EB"/>
<stop offset="0.84375" stop-color="#70C2EB"/>
<stop offset="0.851562" stop-color="#6FC1EB"/>
<stop offset="0.859375" stop-color="#6EC1EB"/>
<stop offset="0.867188" stop-color="#6EC0EA"/>
<stop offset="0.875" stop-color="#6DC0EA"/>
<stop offset="0.882812" stop-color="#6DC0EA"/>
<stop offset="0.890625" stop-color="#6CBFEA"/>
<stop offset="0.898437" stop-color="#6BBFEA"/>
<stop offset="0.90625" stop-color="#6BBFEA"/>
<stop offset="0.914063" stop-color="#6ABEEA"/>
<stop offset="0.921875" stop-color="#6ABEE9"/>
<stop offset="0.929688" stop-color="#69BEE9"/>
<stop offset="0.9375" stop-color="#68BDE9"/>
<stop offset="0.945312" stop-color="#68BDE9"/>
<stop offset="0.953125" stop-color="#67BCE9"/>
<stop offset="0.960937" stop-color="#66BCE9"/>
<stop offset="0.96875" stop-color="#66BCE9"/>
<stop offset="0.976563" stop-color="#65BBE8"/>
<stop offset="0.984375" stop-color="#65BBE8"/>
<stop offset="0.992188" stop-color="#64BBE8"/>
<stop offset="1" stop-color="#63BAE8"/>
</linearGradient>
<linearGradient id="paint2_linear_4147_15987" x1="59.4109" y1="46.9669" x2="59.4109" y2="74.9665" gradientUnits="userSpaceOnUse">
<stop stop-color="#FCEDE6"/>
<stop offset="0.03125" stop-color="#FCECE6"/>
<stop offset="0.0625" stop-color="#FCECE5"/>
<stop offset="0.078125" stop-color="#FBEBE4"/>
<stop offset="0.09375" stop-color="#FBEBE3"/>
<stop offset="0.109375" stop-color="#FBEAE3"/>
<stop offset="0.125" stop-color="#FBEAE2"/>
<stop offset="0.140625" stop-color="#FBE9E2"/>
<stop offset="0.15625" stop-color="#FBE9E1"/>
<stop offset="0.171875" stop-color="#FBE9E1"/>
<stop offset="0.1875" stop-color="#FBE8E0"/>
<stop offset="0.203125" stop-color="#FBE8E0"/>
<stop offset="0.21875" stop-color="#FBE7DF"/>
<stop offset="0.234375" stop-color="#FBE7DF"/>
<stop offset="0.25" stop-color="#FBE7DE"/>
<stop offset="0.265625" stop-color="#FBE6DD"/>
<stop offset="0.28125" stop-color="#FBE6DD"/>
<stop offset="0.3125" stop-color="#FBE5DC"/>
<stop offset="0.34375" stop-color="#FBE5DB"/>
<stop offset="0.375" stop-color="#FBE4DB"/>
<stop offset="0.40625" stop-color="#FBE4DA"/>
<stop offset="0.4375" stop-color="#FBE4DA"/>
<stop offset="0.46875" stop-color="#FBE3D9"/>
<stop offset="0.5" stop-color="#FAE3D9"/>
<stop offset="0.53125" stop-color="#FAE2D8"/>
<stop offset="0.5625" stop-color="#FAE2D8"/>
<stop offset="0.59375" stop-color="#FAE2D7"/>
<stop offset="0.625" stop-color="#FAE1D6"/>
<stop offset="0.65625" stop-color="#FAE1D6"/>
<stop offset="0.6875" stop-color="#FAE1D5"/>
<stop offset="0.71875" stop-color="#FAE0D5"/>
<stop offset="0.75" stop-color="#FAE0D4"/>
<stop offset="0.78125" stop-color="#FAE0D4"/>
<stop offset="0.8125" stop-color="#FADFD3"/>
<stop offset="0.84375" stop-color="#F9DFD3"/>
<stop offset="0.875" stop-color="#F9DED2"/>
<stop offset="0.90625" stop-color="#F9DED2"/>
<stop offset="0.9375" stop-color="#F9DED1"/>
<stop offset="1" stop-color="#F9DDD0"/>
</linearGradient>
<linearGradient id="paint3_linear_4147_15987" x1="59.4109" y1="18.9687" x2="59.4109" y2="46.9668" gradientUnits="userSpaceOnUse">
<stop stop-color="#FDF5F1"/>
<stop offset="0.125" stop-color="#FDF5F1"/>
<stop offset="0.25" stop-color="#FDF4F0"/>
<stop offset="0.375" stop-color="#FDF3EF"/>
<stop offset="0.5" stop-color="#FCF2EE"/>
<stop offset="0.625" stop-color="#FCF2ED"/>
<stop offset="0.75" stop-color="#FCF1EC"/>
<stop offset="0.78125" stop-color="#FCF1EC"/>
<stop offset="0.8125" stop-color="#FCF0EB"/>
<stop offset="0.84375" stop-color="#FCF0EB"/>
<stop offset="0.875" stop-color="#FCEFEA"/>
<stop offset="0.90625" stop-color="#FCEFE9"/>
<stop offset="0.9375" stop-color="#FCEEE8"/>
<stop offset="0.96875" stop-color="#FCEEE7"/>
<stop offset="1" stop-color="#FCEDE7"/>
</linearGradient>
</defs>
</svg>
