<svg width="19" height="19" viewBox="0 0 19 19" fill="none" xmlns="http://www.w3.org/2000/svg">
<g clip-path="url(#clip0_2_2436)">
<path d="M9.5 18.5C8.70435 18.5 7.94129 18.1839 7.37868 17.6213C6.81607 17.0587 6.5 16.2956 6.5 15.5V12.5H3.5C2.70435 12.5 1.94129 12.1839 1.37868 11.6213C0.816071 11.0587 0.5 10.2956 0.5 9.5C0.5 8.70435 0.816071 7.94129 1.37868 7.37868C1.94129 6.81607 2.70435 6.5 3.5 6.5H6.5V3.5C6.5 2.70435 6.81607 1.94129 7.37868 1.37868C7.94129 0.816071 8.70435 0.5 9.5 0.5C10.2956 0.5 11.0587 0.816071 11.6213 1.37868C12.1839 1.94129 12.5 2.70435 12.5 3.5V6.5H15.5C16.2956 6.5 17.0587 6.81607 17.6213 7.37868C18.1839 7.94129 18.5 8.70435 18.5 9.5C18.5 10.2956 18.1839 11.0587 17.6213 11.6213C17.0587 12.1839 16.2956 12.5 15.5 12.5H12.5V15.5C12.5 16.2956 12.1839 17.0587 11.6213 17.6213C11.0587 18.1839 10.2956 18.5 9.5 18.5ZM3.5 8C3.10218 8 2.72064 8.15804 2.43934 8.43934C2.15804 8.72064 2 9.10218 2 9.5C2 9.89782 2.15804 10.2794 2.43934 10.5607C2.72064 10.842 3.10218 11 3.5 11H7.25C7.44891 11 7.63968 11.079 7.78033 11.2197C7.92098 11.3603 8 11.5511 8 11.75V15.5C8 15.8978 8.15804 16.2794 8.43934 16.5607C8.72064 16.842 9.10218 17 9.5 17C9.89782 17 10.2794 16.842 10.5607 16.5607C10.842 16.2794 11 15.8978 11 15.5V11.75C11 11.5511 11.079 11.3603 11.2197 11.2197C11.3603 11.079 11.5511 11 11.75 11H15.5C15.8978 11 16.2794 10.842 16.5607 10.5607C16.842 10.2794 17 9.89782 17 9.5C17 9.10218 16.842 8.72064 16.5607 8.43934C16.2794 8.15804 15.8978 8 15.5 8H11.75C11.5511 8 11.3603 7.92098 11.2197 7.78033C11.079 7.63968 11 7.44891 11 7.25V3.5C11 3.10218 10.842 2.72064 10.5607 2.43934C10.2794 2.15804 9.89782 2 9.5 2C9.10218 2 8.72064 2.15804 8.43934 2.43934C8.15804 2.72064 8 3.10218 8 3.5V7.25C8 7.44891 7.92098 7.63968 7.78033 7.78033C7.63968 7.92098 7.44891 8 7.25 8H3.5Z" fill="#23355F"/>
</g>
<defs>
<clipPath id="clip0_2_2436">
<rect width="18" height="18" fill="white" transform="translate(0.5 0.5)"/>
</clipPath>
</defs>
</svg>
