<svg width="19" height="19" viewBox="0 0 19 19" fill="none" xmlns="http://www.w3.org/2000/svg">
<g clip-path="url(#clip0_2_2459)">
<path d="M18.434 15.5203L17.6412 11.0503C17.9679 10.7553 18.2145 10.3825 18.3583 9.96653C18.502 9.55056 18.5381 9.10498 18.4632 8.67129C18.3884 8.2376 18.205 7.82991 17.9301 7.4862C17.6552 7.14249 17.2978 6.87393 16.8912 6.70555C16.5917 4.99072 15.705 3.43349 14.3831 2.30083C13.0612 1.16816 11.3864 0.530591 9.64597 0.497429C7.90549 0.464267 6.20769 1.03757 4.8436 2.11907C3.47952 3.20056 2.53412 4.72288 2.16948 6.42505L1.62498 9.50005H2.74998C4.09665 9.49176 5.42465 9.18435 6.63798 8.60005C6.54915 8.76089 6.50173 8.94131 6.49998 9.12505C6.49896 9.34349 6.56156 9.5575 6.68013 9.74096C6.7987 9.92442 6.96812 10.0694 7.16771 10.1582C7.3673 10.247 7.58841 10.2757 7.80407 10.2409C8.01973 10.2062 8.2206 10.1094 8.38215 9.96234C8.54371 9.81531 8.65897 9.62443 8.71387 9.413C8.76876 9.20157 8.76091 8.97872 8.69128 8.77168C8.62164 8.56463 8.49324 8.38233 8.32173 8.24704C8.15023 8.11175 7.94305 8.02931 7.72548 8.0098C9.32565 7.01141 10.6808 5.66598 11.6907 4.07305C11.2491 3.82788 10.769 3.65948 10.271 3.57505C9.11748 5.2843 6.66273 7.6723 3.41973 7.9693L3.64098 6.71755C3.94719 5.32779 4.7374 4.09211 5.87051 3.23115C7.00363 2.3702 8.40588 1.94003 9.82686 2.01745C11.2478 2.09487 12.5951 2.67484 13.6279 3.65381C14.6608 4.63278 15.3121 5.94699 15.4655 7.3618L15.524 7.9213L16.0775 8.02105C16.3507 8.07449 16.5945 8.22737 16.7615 8.45011C16.9286 8.67285 17.0071 8.94962 16.9819 9.22691C16.9567 9.5042 16.8296 9.76229 16.6251 9.95128C16.4207 10.1403 16.1534 10.2467 15.875 10.25C15.8105 10.25 15.0597 10.1188 15.0597 10.1188L14.8482 10.7188C14.1605 12.6665 11.8475 14.75 9.49998 14.75C7.35423 14.75 5.24148 13.0078 4.36848 11.225L3.98598 13.3843C4.69917 14.2585 5.58287 14.9784 6.58323 15.5H6.49998V17H2.92848C2.78923 16.9996 2.65185 16.9679 2.52646 16.9073C2.40108 16.8467 2.29087 16.7588 2.20395 16.65C2.11702 16.5412 2.0556 16.4143 2.0242 16.2786C1.99279 16.143 1.99221 16.002 2.02248 15.866L2.88498 10.991C2.83998 10.991 2.79573 10.9993 2.74998 10.9993H1.36023L0.54873 15.5863C0.47679 15.9391 0.484188 16.3034 0.570386 16.653C0.656584 17.0025 0.819427 17.3286 1.04713 17.6074C1.27483 17.8863 1.56168 18.1111 1.88694 18.2655C2.21219 18.4198 2.5677 18.5 2.92773 18.5H7.99998V16.0505C8.98229 16.3165 10.0177 16.3165 11 16.0505V18.5H16.0715C16.4424 18.5012 16.8086 18.4168 17.1416 18.2534C17.4745 18.09 17.7654 17.8521 17.9915 17.558C18.2151 17.2743 18.3712 16.9433 18.4479 16.5902C18.5246 16.2372 18.5198 15.8713 18.434 15.5203V15.5203ZM16.805 16.64C16.7186 16.7524 16.6075 16.8433 16.4803 16.9058C16.3531 16.9682 16.2132 17.0005 16.0715 17H12.5V15.4655C14.0481 14.6333 15.2911 13.3299 16.049 11.744C16.1127 11.7403 16.1727 11.7223 16.235 11.714L16.9692 15.839C17.0054 15.9762 17.0094 16.1198 16.981 16.2588C16.9525 16.3977 16.8922 16.5282 16.805 16.64ZM11.375 10.25C11.1525 10.25 10.935 10.1841 10.75 10.0604C10.565 9.93683 10.4208 9.76113 10.3356 9.55556C10.2505 9.35 10.2282 9.1238 10.2716 8.90557C10.315 8.68734 10.4221 8.48688 10.5795 8.32955C10.7368 8.17222 10.9373 8.06507 11.1555 8.02166C11.3737 7.97825 11.5999 8.00053 11.8055 8.08568C12.0111 8.17083 12.1868 8.31502 12.3104 8.50003C12.434 8.68504 12.5 8.90254 12.5 9.12505C12.5 9.42341 12.3815 9.70956 12.1705 9.92054C11.9595 10.1315 11.6733 10.25 11.375 10.25Z" fill="#23355F"/>
</g>
<defs>
<clipPath id="clip0_2_2459">
<rect width="18" height="18" fill="white" transform="translate(0.5 0.5)"/>
</clipPath>
</defs>
</svg>
