<svg width="19" height="19" viewBox="0 0 19 19" fill="none" xmlns="http://www.w3.org/2000/svg">
<g clip-path="url(#clip0_2_2464)">
<path d="M18.5002 9.48806C18.5002 8.69796 18.1886 7.93975 17.6329 7.37806C17.0773 6.81637 16.3225 6.49655 15.5324 6.48806C14.8749 5.17842 13.8111 4.11677 12.5002 3.46181C12.4617 2.69308 12.1292 1.96855 11.5715 1.43807C11.0139 0.907593 10.2736 0.611759 9.50392 0.611759C8.73423 0.611759 7.99399 0.907593 7.4363 1.43807C6.87861 1.96855 6.54615 2.69308 6.50767 3.46181C5.19348 4.11624 4.1269 5.17913 3.46792 6.49106C2.68149 6.50182 1.93082 6.82139 1.37793 7.38077C0.825043 7.94016 0.514277 8.69452 0.512701 9.48102C0.511126 10.2675 0.818869 11.0231 1.36951 11.5847C1.92015 12.1463 2.66954 12.4689 3.45592 12.4828C4.11216 13.806 5.18236 14.8788 6.50392 15.5383C6.5424 16.307 6.87486 17.0316 7.43255 17.562C7.99024 18.0925 8.73048 18.3884 9.50017 18.3884C10.2699 18.3884 11.0101 18.0925 11.5678 17.562C12.1255 17.0316 12.458 16.307 12.4964 15.5383C13.818 14.8788 14.8882 13.806 15.5444 12.4828C16.3315 12.4712 17.0824 12.1507 17.6354 11.5905C18.1883 11.0303 18.4989 10.2752 18.5002 9.48806ZM9.50017 2.00006C9.79685 2.00006 10.0869 2.08803 10.3335 2.25285C10.5802 2.41767 10.7725 2.65194 10.886 2.92603C10.9995 3.20012 11.0292 3.50172 10.9714 3.79269C10.9135 4.08366 10.7706 4.35094 10.5608 4.56072C10.3511 4.77049 10.0838 4.91336 9.79281 4.97123C9.50184 5.02911 9.20024 4.99941 8.92615 4.88588C8.65206 4.77234 8.41779 4.58008 8.25297 4.33341C8.08815 4.08674 8.00017 3.79673 8.00017 3.50006C8.00017 3.10223 8.15821 2.7207 8.43951 2.4394C8.72082 2.15809 9.10235 2.00006 9.50017 2.00006ZM2.00017 9.48806C2.00017 9.19138 2.08815 8.90137 2.25297 8.6547C2.41779 8.40803 2.65206 8.21577 2.92615 8.10224C3.20024 7.98871 3.50184 7.959 3.79281 8.01688C4.08378 8.07476 4.35106 8.21762 4.56083 8.4274C4.77061 8.63717 4.91347 8.90445 4.97135 9.19542C5.02923 9.48639 4.99953 9.78799 4.88599 10.0621C4.77246 10.3362 4.5802 10.5704 4.33353 10.7353C4.08686 10.9001 3.79685 10.9881 3.50017 10.9881C3.10235 10.9881 2.72082 10.83 2.43951 10.5487C2.15821 10.2674 2.00017 9.88588 2.00017 9.48806ZM9.50017 17.0001C9.2035 17.0001 8.91349 16.9121 8.66682 16.7473C8.42015 16.5824 8.22789 16.3482 8.11436 16.0741C8.00082 15.8 7.97112 15.4984 8.029 15.2074C8.08687 14.9164 8.22974 14.6492 8.43951 14.4394C8.64929 14.2296 8.91657 14.0868 9.20754 14.0289C9.49851 13.971 9.80011 14.0007 10.0742 14.1142C10.3483 14.2278 10.5826 14.42 10.7474 14.6667C10.9122 14.9134 11.0002 15.2034 11.0002 15.5001C11.0002 15.8979 10.8421 16.2794 10.5608 16.5607C10.2795 16.842 9.898 17.0001 9.50017 17.0001ZM12.1087 14.0458C11.8525 13.5779 11.4752 13.1874 11.0162 12.9154C10.5573 12.6435 10.0337 12.5 9.50017 12.5C8.9667 12.5 8.44304 12.6435 7.9841 12.9154C7.52516 13.1874 7.14783 13.5779 6.89167 14.0458C6.08365 13.5783 5.41352 12.9056 4.94917 12.0958C5.41766 11.8405 5.80887 11.464 6.08181 11.0056C6.35475 10.5472 6.49937 10.0238 6.50052 9.49026C6.50167 8.95675 6.35931 8.43275 6.08835 7.97316C5.81739 7.51358 5.42781 7.13533 4.96042 6.87806C5.42451 6.0777 6.09042 5.41309 6.89167 4.95056C7.14783 5.41851 7.52516 5.80894 7.9841 6.08091C8.44304 6.35289 8.9667 6.4964 9.50017 6.4964C10.0337 6.4964 10.5573 6.35289 11.0162 6.08091C11.4752 5.80894 11.8525 5.41851 12.1087 4.95056C12.9099 5.41309 13.5758 6.0777 14.0399 6.87806C13.5725 7.13533 13.183 7.51358 12.912 7.97316C12.641 8.43275 12.4987 8.95675 12.4998 9.49026C12.501 10.0238 12.6456 10.5472 12.9185 11.0056C13.1915 11.464 13.5827 11.8405 14.0512 12.0958C13.5868 12.9056 12.9167 13.5783 12.1087 14.0458ZM15.5002 10.9873C15.2035 10.9873 14.9135 10.8993 14.6668 10.7345C14.4201 10.5697 14.2279 10.3354 14.1144 10.0613C14.0008 9.78724 13.9711 9.48564 14.029 9.19467C14.0869 8.9037 14.2297 8.63643 14.4395 8.42665C14.6493 8.21687 14.9166 8.07401 15.2075 8.01613C15.4985 7.95825 15.8001 7.98796 16.0742 8.10149C16.3483 8.21502 16.5826 8.40728 16.7474 8.65395C16.9122 8.90062 17.0002 9.19063 17.0002 9.48731C17.0002 9.88513 16.8421 10.2667 16.5608 10.548C16.2795 10.8293 15.898 10.9873 15.5002 10.9873Z" fill="#23355F"/>
</g>
<defs>
<clipPath id="clip0_2_2464">
<rect width="18" height="18" fill="white" transform="translate(0.5 0.5)"/>
</clipPath>
</defs>
</svg>
