<svg width="19" height="19" viewBox="0 0 19 19" fill="none" xmlns="http://www.w3.org/2000/svg">
<g clip-path="url(#clip0_2_2447)">
<path d="M11 12.4998H9.5V9.49984C9.49953 8.69474 9.28308 7.90451 8.87322 7.21155C8.46335 6.51859 7.87508 5.94828 7.16975 5.56009C7.57543 5.13522 7.84745 4.6006 7.95205 4.02254C8.05666 3.44449 7.98925 2.84844 7.75819 2.30835C7.52714 1.76825 7.1426 1.30788 6.65228 0.984339C6.16196 0.660799 5.58744 0.488331 5 0.488331C4.41256 0.488331 3.83804 0.660799 3.34772 0.984339C2.8574 1.30788 2.47286 1.76825 2.24181 2.30835C2.01075 2.84844 1.94334 3.44449 2.04795 4.02254C2.15255 4.6006 2.42457 5.13522 2.83025 5.56009C2.12492 5.94828 1.53665 6.51859 1.12678 7.21155C0.716918 7.90451 0.500467 8.69474 0.5 9.49984L0.5 18.4998H2V13.9998H17V18.4998H18.5V6.49984H11V12.4998ZM3.5 3.49984C3.5 3.20317 3.58797 2.91316 3.7528 2.66648C3.91762 2.41981 4.15189 2.22755 4.42597 2.11402C4.70006 2.00049 5.00166 1.97078 5.29264 2.02866C5.58361 2.08654 5.85088 2.2294 6.06066 2.43918C6.27044 2.64896 6.4133 2.91623 6.47118 3.2072C6.52906 3.49818 6.49935 3.79978 6.38582 4.07387C6.27229 4.34795 6.08003 4.58222 5.83335 4.74704C5.58668 4.91187 5.29667 4.99984 5 4.99984C4.60218 4.99984 4.22064 4.8418 3.93934 4.5605C3.65804 4.2792 3.5 3.89767 3.5 3.49984ZM2 9.49984C2 8.70419 2.31607 7.94113 2.87868 7.37852C3.44129 6.81591 4.20435 6.49984 5 6.49984C5.79565 6.49984 6.55871 6.81591 7.12132 7.37852C7.68393 7.94113 8 8.70419 8 9.49984V12.4998H2V9.49984ZM14 7.99984V9.49984H15.5V7.99984H17V12.4998H12.5V7.99984H14Z" fill="#23355F"/>
</g>
<defs>
<clipPath id="clip0_2_2447">
<rect width="18" height="18" fill="white" transform="translate(0.5 0.5)"/>
</clipPath>
</defs>
</svg>
