<svg width="25" height="25" viewBox="0 0 25 25" fill="none" xmlns="http://www.w3.org/2000/svg">
<path d="M22.6042 15.3125L20.9375 13.6459C20.5547 13.2337 20.3329 12.6976 20.3125 12.1354V8.85419C20.3125 4.63544 17.5 1.04169 12.5 1.04169C7.50004 1.04169 4.68754 4.53127 4.68754 8.85419V12.5C4.6779 12.8297 4.54826 13.1445 4.32296 13.3854L2.39587 15.3125C2.19961 15.5048 2.08729 15.7669 2.08337 16.0417V19.7917C2.08337 20.068 2.19312 20.3329 2.38847 20.5283C2.58382 20.7236 2.84877 20.8334 3.12504 20.8334H8.90629C9.05122 21.6815 9.49146 22.4511 10.1492 23.0059C10.8068 23.5608 11.6396 23.8651 12.5 23.8651C13.3605 23.8651 14.1932 23.5608 14.8509 23.0059C15.5086 22.4511 15.9489 21.6815 16.0938 20.8334H21.875C22.1513 20.8334 22.4163 20.7236 22.6116 20.5283C22.807 20.3329 22.9167 20.068 22.9167 19.7917V16.0417C22.9128 15.7669 22.8005 15.5048 22.6042 15.3125ZM20.8334 18.75H4.16671V16.5104L5.78129 14.8438C6.40804 14.2241 6.76385 13.3814 6.77087 12.5V8.85419C6.77087 6.09377 8.28129 3.12502 12.5 3.12502C16.7188 3.12502 18.2292 6.19794 18.2292 8.85419V12.1354C18.2492 13.2388 18.6757 14.296 19.4271 15.1042L20.8334 16.5104V18.75Z" fill="#293E6F"/>
<path d="M15.625 10.4167H13.5417V8.33335C13.5417 8.05709 13.432 7.79213 13.2366 7.59678C13.0413 7.40143 12.7763 7.29169 12.5 7.29169C12.2238 7.29169 11.9588 7.40143 11.7635 7.59678C11.5681 7.79213 11.4584 8.05709 11.4584 8.33335V10.4167H9.37504C9.09877 10.4167 8.83382 10.5264 8.63847 10.7218C8.44312 10.9171 8.33337 11.1821 8.33337 11.4584C8.33337 11.7346 8.44312 11.9996 8.63847 12.1949C8.83382 12.3903 9.09877 12.5 9.37504 12.5H11.4584V14.5834C11.4584 14.8596 11.5681 15.1246 11.7635 15.3199C11.9588 15.5153 12.2238 15.625 12.5 15.625C12.7763 15.625 13.0413 15.5153 13.2366 15.3199C13.432 15.1246 13.5417 14.8596 13.5417 14.5834V12.5H15.625C15.9013 12.5 16.1663 12.3903 16.3616 12.1949C16.557 11.9996 16.6667 11.7346 16.6667 11.4584C16.6667 11.1821 16.557 10.9171 16.3616 10.7218C16.1663 10.5264 15.9013 10.4167 15.625 10.4167Z" fill="#293E6F"/>
</svg>
