<svg width="20" height="20" viewBox="0 0 20 20" fill="none" xmlns="http://www.w3.org/2000/svg">
<path d="M1.25 5.9375C1.25 4.73 2.23 3.75 3.4375 3.75H16.5625C17.77 3.75 18.75 4.73 18.75 5.9375V14.0625C18.75 14.6427 18.5195 15.1991 18.1093 15.6093C17.6991 16.0195 17.1427 16.25 16.5625 16.25H3.4375C2.85734 16.25 2.30094 16.0195 1.8907 15.6093C1.48047 15.1991 1.25 14.6427 1.25 14.0625V5.9375ZM3.4375 5C3.18886 5 2.9504 5.09877 2.77459 5.27459C2.59877 5.4504 2.5 5.68886 2.5 5.9375V14.0625C2.5 14.58 2.92 15 3.4375 15H16.5625C16.8111 15 17.0496 14.9012 17.2254 14.7254C17.4012 14.5496 17.5 14.3111 17.5 14.0625V5.9375C17.5 5.68886 17.4012 5.4504 17.2254 5.27459C17.0496 5.09877 16.8111 5 16.5625 5H3.4375ZM11.875 7.5C11.7092 7.5 11.5503 7.56585 11.4331 7.68306C11.3158 7.80027 11.25 7.95924 11.25 8.125C11.25 8.29076 11.3158 8.44973 11.4331 8.56694C11.5503 8.68415 11.7092 8.75 11.875 8.75H15.625C15.7908 8.75 15.9497 8.68415 16.0669 8.56694C16.1842 8.44973 16.25 8.29076 16.25 8.125C16.25 7.95924 16.1842 7.80027 16.0669 7.68306C15.9497 7.56585 15.7908 7.5 15.625 7.5H11.875ZM11.875 11.25C11.7092 11.25 11.5503 11.3158 11.4331 11.4331C11.3158 11.5503 11.25 11.7092 11.25 11.875C11.25 12.0408 11.3158 12.1997 11.4331 12.3169C11.5503 12.4342 11.7092 12.5 11.875 12.5H15.625C15.7908 12.5 15.9497 12.4342 16.0669 12.3169C16.1842 12.1997 16.25 12.0408 16.25 11.875C16.25 11.7092 16.1842 11.5503 16.0669 11.4331C15.9497 11.3158 15.7908 11.25 15.625 11.25H11.875ZM6.57625 9.6425C6.799 9.6425 7.01958 9.59863 7.22538 9.51338C7.43118 9.42814 7.61817 9.30319 7.77568 9.14568C7.93319 8.98817 8.05814 8.80118 8.14338 8.59538C8.22863 8.38958 8.2725 8.169 8.2725 7.94625C8.2725 7.7235 8.22863 7.50292 8.14338 7.29712C8.05814 7.09132 7.93319 6.90433 7.77568 6.74682C7.61817 6.58931 7.43118 6.46436 7.22538 6.37912C7.01958 6.29387 6.799 6.25 6.57625 6.25C6.12638 6.25 5.69493 6.42871 5.37682 6.74682C5.05871 7.06493 4.88 7.49638 4.88 7.94625C4.88 8.39612 5.05871 8.82757 5.37682 9.14568C5.69493 9.46379 6.12638 9.6425 6.57625 9.6425ZM4.8225 10.49C4.53806 10.49 4.26526 10.603 4.06413 10.8041C3.863 11.0053 3.75 11.2781 3.75 11.5625C3.75004 12.028 3.90568 12.4802 4.19219 12.8471C4.4787 13.214 4.87963 13.4746 5.33125 13.5875L5.3975 13.605C6.1725 13.7987 6.98125 13.7987 7.755 13.605L7.8225 13.5888C8.27412 13.4759 8.67505 13.2152 8.96156 12.8483C9.24807 12.4814 9.40371 12.0293 9.40375 11.5638C9.40391 11.4228 9.37629 11.2832 9.32247 11.1529C9.26865 11.0227 9.18967 10.9043 9.09006 10.8046C8.99046 10.7048 8.87217 10.6257 8.74197 10.5718C8.61176 10.5178 8.4722 10.49 8.33125 10.49H4.8225Z" fill="#363636"/>
</svg>
