<svg width="30" height="30" viewBox="0 0 30 30" fill="none" xmlns="http://www.w3.org/2000/svg">
<path d="M25.5 8.25C25.5 7.25544 25.1049 6.30161 24.4016 5.59835C23.6984 4.89509 22.7446 4.5 21.75 4.5H8.25C7.25544 4.5 6.30161 4.89509 5.59835 5.59835C4.89509 6.30161 4.5 7.25544 4.5 8.25V21.75C4.5 22.7446 4.89509 23.6984 5.59835 24.4016C6.30161 25.1049 7.25544 25.5 8.25 25.5H14.4C14.1547 25.0206 13.9573 24.5182 13.8105 24H8.25C7.65326 24 7.08097 23.7629 6.65901 23.341C6.23705 22.919 6 22.3467 6 21.75V10.5H24V13.8105C24.5235 13.959 25.0245 14.1555 25.5 14.4V8.25ZM8.25 6H21.75C22.3467 6 22.919 6.23705 23.341 6.65901C23.7629 7.08097 24 7.65326 24 8.25V9H6V8.25C6 7.65326 6.23705 7.08097 6.65901 6.65901C7.08097 6.23705 7.65326 6 8.25 6Z" fill="#23355F"/>
<path d="M21.75 28.5C23.5402 28.5 25.2571 27.7888 26.523 26.523C27.7888 25.2571 28.5 23.5402 28.5 21.75C28.5 19.9598 27.7888 18.2429 26.523 16.977C25.2571 15.7112 23.5402 15 21.75 15C19.9598 15 18.2429 15.7112 16.977 16.977C15.7112 18.2429 15 19.9598 15 21.75C15 23.5402 15.7112 25.2571 16.977 26.523C18.2429 27.7888 19.9598 28.5 21.75 28.5ZM21 18.75C21 18.5511 21.079 18.3603 21.2197 18.2197C21.3603 18.079 21.5511 18 21.75 18C21.9489 18 22.1397 18.079 22.2803 18.2197C22.421 18.3603 22.5 18.5511 22.5 18.75V21H24C24.1989 21 24.3897 21.079 24.5303 21.2197C24.671 21.3603 24.75 21.5511 24.75 21.75C24.75 21.9489 24.671 22.1397 24.5303 22.2803C24.3897 22.421 24.1989 22.5 24 22.5H21.75C21.5511 22.5 21.3603 22.421 21.2197 22.2803C21.079 22.1397 21 21.9489 21 21.75V18.75Z" fill="#23355F"/>
</svg>
