<svg width="20" height="20" viewBox="0 0 20 20" fill="none" xmlns="http://www.w3.org/2000/svg">
<path d="M17.8541 2.8539C17.948 2.76001 18.0008 2.63267 18.0008 2.4999C18.0008 2.36712 17.948 2.23979 17.8541 2.1459C17.7603 2.05201 17.6329 1.99927 17.5001 1.99927C17.3674 1.99927 17.24 2.05201 17.1461 2.1459L14.4781 4.8149C13.7017 4.21076 12.7314 3.911 11.7495 3.97196C10.7677 4.03291 9.84187 4.45038 9.14614 5.1459L8.84614 5.4459C8.70766 5.58427 8.5978 5.74858 8.52285 5.92943C8.4479 6.11028 8.40932 6.30413 8.40932 6.4999C8.40932 6.69567 8.4479 6.88951 8.52285 7.07037C8.5978 7.25122 8.70766 7.41552 8.84614 7.5539L12.4461 11.1539C12.7256 11.4333 13.1045 11.5902 13.4996 11.5902C13.8948 11.5902 14.2737 11.4333 14.5531 11.1539L14.8531 10.8539C15.5488 10.1583 15.9665 9.23256 16.0276 8.25069C16.0887 7.26882 15.7891 6.29842 15.1851 5.5219L17.8541 2.8539ZM13.8461 10.4459C13.8006 10.4914 13.7466 10.5275 13.6872 10.5521C13.6277 10.5768 13.564 10.5894 13.4996 10.5894C13.4353 10.5894 13.3716 10.5768 13.3121 10.5521C13.2527 10.5275 13.1986 10.4914 13.1531 10.4459L9.55314 6.8459C9.46155 6.75405 9.41011 6.62962 9.41011 6.4999C9.41011 6.37018 9.46155 6.24575 9.55314 6.1539L9.85314 5.8539C10.4265 5.30526 11.1919 5.00292 11.9854 5.01161C12.7789 5.02031 13.5375 5.33934 14.0986 5.90041C14.6598 6.46147 14.9791 7.21996 14.9879 8.01347C14.9968 8.80698 14.6946 9.57242 14.1461 10.1459L13.8461 10.4459ZM7.55414 8.8459C7.27472 8.56652 6.89577 8.40958 6.50064 8.40958C6.10552 8.40958 5.72657 8.56652 5.44714 8.8459L5.14714 9.1459C4.45147 9.8415 4.03382 10.7672 3.97268 11.7491C3.91155 12.731 4.21114 13.7014 4.81514 14.4779L2.14614 17.1459C2.05226 17.2398 1.99951 17.3671 1.99951 17.4999C1.99951 17.6327 2.05226 17.76 2.14614 17.8539C2.24003 17.9478 2.36737 18.0005 2.50014 18.0005C2.63292 18.0005 2.76026 17.9478 2.85414 17.8539L5.52214 15.1849C6.29867 15.7889 7.26906 16.0885 8.25094 16.0274C9.23281 15.9662 10.1585 15.5486 10.8541 14.8529L11.1541 14.5529C11.4335 14.2735 11.5905 13.8945 11.5905 13.4994C11.5905 13.1043 11.4335 12.7253 11.1541 12.4459L7.55414 8.8459ZM6.15414 9.5539C6.19964 9.50839 6.25366 9.4723 6.31312 9.44767C6.37257 9.42304 6.43629 9.41036 6.50064 9.41036C6.565 9.41036 6.62872 9.42304 6.68817 9.44767C6.74762 9.4723 6.80164 9.50839 6.84714 9.5539L10.4471 13.1539C10.5387 13.2458 10.5902 13.3702 10.5902 13.4999C10.5902 13.6296 10.5387 13.754 10.4471 13.8459L10.1471 14.1459C9.86533 14.4278 9.53075 14.6514 9.16251 14.804C8.79428 14.9566 8.39959 15.0351 8.001 15.0352C7.6024 15.0352 7.2077 14.9567 6.83943 14.8042C6.47116 14.6518 6.13653 14.4282 5.85464 14.1464C5.57276 13.8646 5.34915 13.53 5.19657 13.1618C5.04399 12.7935 4.96543 12.3988 4.96539 12.0003C4.96529 11.1953 5.28499 10.4232 5.85414 9.8539L6.15414 9.5539Z" fill="#363636"/>
</svg>
