<svg width="18" height="18" viewBox="0 0 18 18" fill="none" xmlns="http://www.w3.org/2000/svg">
<path d="M8.22713 1.41975C8.436 1.22228 8.71255 1.11224 9 1.11224C9.28745 1.11224 9.564 1.22228 9.77288 1.41975L15.2224 6.57113C15.5599 6.8895 15.75 7.33388 15.75 7.79738V14.0636C15.75 14.5112 15.5722 14.9404 15.2557 15.2569C14.9393 15.5733 14.5101 15.7511 14.0625 15.7511H11.8125C11.5908 15.7511 11.3713 15.7074 11.1665 15.6226C10.9617 15.5377 10.7756 15.4133 10.6189 15.2565C10.4621 15.0997 10.3379 14.9135 10.2531 14.7086C10.1684 14.5038 10.1249 14.2842 10.125 14.0625V11.25C10.125 11.1008 10.0657 10.9577 9.96025 10.8523C9.85476 10.7468 9.71168 10.6875 9.5625 10.6875H8.4375C8.28832 10.6875 8.14524 10.7468 8.03975 10.8523C7.93426 10.9577 7.875 11.1008 7.875 11.25V14.0625C7.875 14.5101 7.69721 14.9393 7.38074 15.2557C7.06428 15.5722 6.63505 15.75 6.1875 15.75H3.9375C3.48995 15.75 3.06072 15.5722 2.74426 15.2557C2.42779 14.9393 2.25 14.5101 2.25 14.0625V7.79625C2.25 7.33275 2.44125 6.88838 2.77875 6.57L8.22713 1.4175V1.41975ZM9 2.2365L3.5505 7.389C3.49518 7.44145 3.45109 7.5046 3.42092 7.5746C3.39075 7.64461 3.37513 7.72002 3.375 7.79625V14.0625C3.375 14.2117 3.43426 14.3548 3.53975 14.4603C3.64524 14.5657 3.78832 14.625 3.9375 14.625H6.1875C6.33668 14.625 6.47976 14.5657 6.58525 14.4603C6.69074 14.3548 6.75 14.2117 6.75 14.0625V11.25C6.75 10.8025 6.92779 10.3732 7.24426 10.0568C7.56072 9.74029 7.98995 9.5625 8.4375 9.5625H9.5625C10.0101 9.5625 10.4393 9.74029 10.7557 10.0568C11.0722 10.3732 11.25 10.8025 11.25 11.25V14.0625C11.25 14.2117 11.3093 14.3548 11.4148 14.4603C11.5202 14.5657 11.6633 14.625 11.8125 14.625H14.0625C14.2117 14.625 14.3548 14.5657 14.4602 14.4603C14.5657 14.3548 14.625 14.2117 14.625 14.0625V7.79625C14.625 7.71983 14.6095 7.64421 14.5793 7.574C14.5491 7.50378 14.505 7.44046 14.4495 7.38788L9 2.2365Z" fill="#363636"/>
</svg>
