<svg width="60" height="60" viewBox="0 0 60 60" fill="none" xmlns="http://www.w3.org/2000/svg">
<path d="M30 0C13.4575 0 0 13.4575 0 30C0 46.5425 13.4575 60 30 60C46.5425 60 60 46.5425 60 30C60 13.4575 46.5425 0 30 0ZM44.2675 36.7675C43.78 37.255 43.14 37.5 42.4999 37.5C41.8598 37.5 41.2199 37.255 40.7324 36.7675L30 26.035L19.2675 36.7675C18.29 37.7449 16.71 37.7449 15.7325 36.7675C14.7551 35.79 14.7551 34.21 15.7325 33.2325L28.2326 20.7325C29.21 19.755 30.7901 19.755 31.7675 20.7325L44.2676 33.2325C45.245 34.21 45.245 35.79 44.2675 36.7675Z" fill="#23355F" fill-opacity="0.7" stroke="#23355F" stroke-opacity="0.7" stroke-width="0.125"/>
</svg>
