<svg width="11" height="11" viewBox="0 0 11 11" fill="none" xmlns="http://www.w3.org/2000/svg">
<path d="M9.84224 5.20995H11.0001C11.0001 2.23995 8.75787 0 5.78381 0V1.1579C8.1355 1.1579 9.84224 2.86174 9.84224 5.20995Z" fill="#17306A"/>
<path d="M5.78964 3.47367C7.00717 3.47367 7.52648 3.99299 7.52648 5.21052H8.68438C8.68438 3.34341 7.65674 2.31578 5.78964 2.31578V3.47367ZM7.7708 6.62488C7.65955 6.52377 7.51337 6.46985 7.36311 6.47449C7.21285 6.47914 7.07027 6.54199 6.96548 6.64978L5.58006 8.07457C5.24659 8.01088 4.57616 7.80188 3.88606 7.11352C3.19595 6.42283 2.98695 5.75067 2.92501 5.41952L4.34864 4.03351C4.45656 3.9288 4.51951 3.7862 4.52415 3.6359C4.5288 3.48559 4.47478 3.33938 4.37353 3.2282L2.23432 0.875935C2.13303 0.764404 1.99225 0.696753 1.84188 0.687348C1.69152 0.677943 1.5434 0.727526 1.42901 0.825566L0.17269 1.90299C0.0725961 2.00344 0.0128535 2.13714 0.00479482 2.27872C-0.00388939 2.42346 -0.169468 5.85199 2.48906 8.51167C4.80832 10.8304 7.71348 11 8.51359 11C8.63053 11 8.70232 10.9965 8.72143 10.9954C8.86299 10.9874 8.99662 10.9274 9.09659 10.8269L10.1734 9.56999C10.2715 9.45566 10.3212 9.3076 10.3119 9.15723C10.3026 9.00686 10.2351 8.86604 10.1236 8.76467L7.7708 6.62488Z" fill="#17306A"/>
</svg>
