<svg width="14" height="17" viewBox="0 0 14 17" fill="none" xmlns="http://www.w3.org/2000/svg">
<path d="M3.58574 1.36571H4.26859V6.40379C4.2689 7.00839 4.10866 7.60222 3.80425 8.12458L0.779211 13.3074C0.597543 13.6188 0.501235 13.9725 0.500012 14.333C0.498788 14.6934 0.592692 15.0478 0.772242 15.3603C0.951792 15.6729 1.21063 15.9325 1.52262 16.1131C1.83461 16.2936 2.18871 16.3886 2.54917 16.3885H11.4508C11.8113 16.3886 12.1654 16.2936 12.4774 16.1131C12.7894 15.9325 13.0482 15.6729 13.2278 15.3603C13.4073 15.0478 13.5012 14.6934 13.5 14.333C13.4988 13.9725 13.4025 13.6188 13.2208 13.3074L10.1958 8.12595C9.89111 7.60318 9.73086 7.00885 9.73141 6.40379V1.36571H10.4143C10.5954 1.36571 10.7691 1.29376 10.8971 1.1657C11.0252 1.03764 11.0971 0.863957 11.0971 0.682853C11.0971 0.501749 11.0252 0.328063 10.8971 0.200003C10.7691 0.0719434 10.5954 0 10.4143 0H3.58574C3.40463 0 3.23095 0.0719434 3.10289 0.200003C2.97483 0.328063 2.90288 0.501749 2.90288 0.682853C2.90288 0.863957 2.97483 1.03764 3.10289 1.1657C3.23095 1.29376 3.40463 1.36571 3.58574 1.36571ZM5.63429 6.40379V1.36571H8.36571V6.40379C8.36569 7.25035 8.5905 8.08172 9.01715 8.8129L9.45417 9.55994H4.54583L4.98285 8.8129C5.4095 8.08172 5.63431 7.25035 5.63429 6.40379ZM3.74962 10.9256H10.2504L12.0395 13.9958C12.1 14.0994 12.1321 14.2172 12.1325 14.3373C12.133 14.4573 12.1018 14.5753 12.0421 14.6795C11.9824 14.7836 11.8963 14.8702 11.7925 14.9304C11.6887 14.9907 11.5709 15.0226 11.4508 15.0228H2.5478C2.42765 15.0228 2.30962 14.9911 2.20562 14.931C2.10162 14.8708 2.01534 14.7842 1.95549 14.6801C1.89564 14.5759 1.86434 14.4577 1.86475 14.3376C1.86516 14.2174 1.89726 14.0995 1.95782 13.9958L3.74962 10.9256Z" fill="#293E6F"/>
</svg>
