<svg width="20" height="20" viewBox="0 0 20 20" fill="none" xmlns="http://www.w3.org/2000/svg">
<path d="M15.4517 6.55625C15.5053 6.56932 15.561 6.57161 15.6155 6.56299C15.67 6.55436 15.7222 6.535 15.7692 6.50603C15.8161 6.47705 15.8569 6.43904 15.889 6.39419C15.9212 6.34934 15.9441 6.29855 15.9564 6.24478C15.9688 6.191 15.9704 6.1353 15.961 6.08092C15.9517 6.02654 15.9316 5.97455 15.902 5.92798C15.8724 5.8814 15.8339 5.84117 15.7886 5.80962C15.7434 5.77806 15.6923 5.75581 15.6383 5.74416L12.8817 5.11083C12.8276 5.09646 12.7713 5.09311 12.7159 5.10098C12.6606 5.10885 12.6074 5.12778 12.5595 5.15664C12.5116 5.1855 12.47 5.22369 12.4372 5.26896C12.4044 5.31422 12.381 5.36563 12.3685 5.42011C12.356 5.4746 12.3545 5.53104 12.3643 5.58609C12.374 5.64115 12.3947 5.69367 12.4252 5.74055C12.4557 5.78743 12.4953 5.82769 12.5416 5.85895C12.588 5.89021 12.6401 5.91182 12.695 5.9225L15.4517 6.55625Z" fill="#363636"/>
<path fill-rule="evenodd" clip-rule="evenodd" d="M14.1666 9.16667C15.0506 9.16667 15.8985 8.81548 16.5236 8.19036C17.1487 7.56524 17.4999 6.71739 17.4999 5.83333C17.4999 4.94928 17.1487 4.10143 16.5236 3.47631C15.8985 2.85119 15.0506 2.5 14.1666 2.5C13.2825 2.5 12.4347 2.85119 11.8096 3.47631C11.1844 4.10143 10.8333 4.94928 10.8333 5.83333C10.8333 6.71739 11.1844 7.56524 11.8096 8.19036C12.4347 8.81548 13.2825 9.16667 14.1666 9.16667ZM14.1666 8.33333C14.4949 8.33333 14.82 8.26867 15.1233 8.14303C15.4266 8.0174 15.7022 7.83325 15.9344 7.6011C16.1665 7.36895 16.3506 7.09336 16.4763 6.79004C16.6019 6.48673 16.6666 6.16164 16.6666 5.83333C16.6666 5.50503 16.6019 5.17994 16.4763 4.87662C16.3506 4.57331 16.1665 4.29771 15.9344 4.06557C15.7022 3.83342 15.4266 3.64927 15.1233 3.52363C14.82 3.398 14.4949 3.33333 14.1666 3.33333C13.5035 3.33333 12.8677 3.59673 12.3988 4.06557C11.93 4.53441 11.6666 5.17029 11.6666 5.83333C11.6666 6.49637 11.93 7.13226 12.3988 7.6011C12.8677 8.06994 13.5035 8.33333 14.1666 8.33333Z" fill="#363636"/>
<path fill-rule="evenodd" clip-rule="evenodd" d="M6.99077 3.852C6.72119 3.21366 5.81869 3.1495 5.45661 3.74241L2.62161 8.38116C2.29452 8.91616 2.65994 9.5995 3.29786 9.64491L8.24202 9.99741C8.87952 10.0432 9.34369 9.41908 9.10036 8.84325L6.99077 3.852ZM6.17119 4.172C6.16982 4.17357 6.16856 4.17524 6.16744 4.177L3.33744 8.80825L3.33827 8.80908C3.33959 8.80981 3.34099 8.81037 3.34244 8.81075C3.34729 8.81238 3.35233 8.81336 3.35744 8.81366L8.30202 9.16616C8.31036 9.167 8.31536 9.16616 8.31786 9.16616C8.32242 9.16533 8.32662 9.16315 8.32994 9.15991L6.22327 4.17658L6.22161 4.17241C6.21462 4.16886 6.20694 4.16687 6.19911 4.16658C6.19032 4.16574 6.18146 4.16702 6.17327 4.17033L6.17202 4.17075V4.17116L6.17119 4.172Z" fill="#363636"/>
<path fill-rule="evenodd" clip-rule="evenodd" d="M14.7437 15.15C15.3447 14.8699 15.8097 14.3624 16.0366 13.7393C16.2634 13.1162 16.2334 12.4285 15.9532 11.8275C15.8145 11.53 15.6185 11.2626 15.3765 11.0408C15.1344 10.8189 14.851 10.647 14.5425 10.5346C13.9194 10.3078 13.2317 10.3378 12.6307 10.618L8.09908 12.7313C7.80153 12.87 7.53421 13.066 7.3124 13.3081C7.09059 13.5501 6.91862 13.8335 6.80632 14.142C6.69402 14.4505 6.64359 14.7781 6.65789 15.1061C6.6722 15.4341 6.75097 15.756 6.88971 16.0536C7.02844 16.3511 7.22443 16.6185 7.46647 16.8403C7.70851 17.0621 7.99188 17.234 8.30038 17.3463C8.60888 17.4586 8.93649 17.5091 9.26448 17.4948C9.59248 17.4805 9.91444 17.4017 10.212 17.263L14.7437 15.1496V15.15ZM8.45116 13.4867C8.25062 13.5778 8.07013 13.7078 7.92011 13.869C7.7701 14.0303 7.65355 14.2198 7.57719 14.4264C7.50083 14.633 7.46618 14.8527 7.47525 15.0727C7.48432 15.2928 7.53692 15.5089 7.63001 15.7085C7.72311 15.9082 7.85485 16.0874 8.01762 16.2358C8.18039 16.3842 8.37096 16.4988 8.57832 16.5731C8.78568 16.6474 9.0057 16.6799 9.22568 16.6686C9.44566 16.6574 9.66122 16.6026 9.85991 16.5075L11.7207 15.6396L10.3124 12.6188L8.45116 13.4863V13.4867ZM12.4762 15.2875L11.0674 12.2667L12.9828 11.3734C13.1817 11.2772 13.3976 11.2215 13.6182 11.2095C13.8387 11.1975 14.0595 11.2295 14.2676 11.3036C14.4756 11.3776 14.6669 11.4923 14.8303 11.641C14.9937 11.7896 15.1258 11.9693 15.2192 12.1695C15.3125 12.3697 15.3651 12.5864 15.3739 12.8071C15.3828 13.0278 15.3476 13.2481 15.2706 13.4551C15.1936 13.6621 15.0761 13.8517 14.9252 14.0129C14.7742 14.1741 14.5927 14.3038 14.3912 14.3942L12.4762 15.2875Z" fill="#363636"/>
</svg>
