<svg width="74" height="74" viewBox="0 0 74 74" fill="none" xmlns="http://www.w3.org/2000/svg">
<path d="M31.7499 35.7399C22.1398 35.7719 12.5576 34.705 3.18988 32.5599C2.77359 32.4535 2.38232 32.2662 2.03842 32.0086C1.69453 31.7511 1.40474 31.4283 1.1856 31.0587C0.966449 30.6891 0.822237 30.28 0.761203 29.8547C0.700169 29.4294 0.723512 28.9962 0.829883 28.5799C0.936253 28.1636 1.12357 27.7724 1.38115 27.4285C1.63873 27.0846 1.96153 26.7948 2.3311 26.5756C2.70068 26.3565 3.10981 26.2123 3.53511 26.1512C3.96042 26.0902 4.39359 26.1135 4.80988 26.2199C5.13988 26.2999 37.8099 34.3899 65.8099 23.2799C66.2091 23.1217 66.6356 23.0436 67.065 23.0502C67.4943 23.0568 67.9182 23.1478 68.3124 23.3182C68.7066 23.4886 69.0634 23.735 69.3623 24.0433C69.6613 24.3515 69.8966 24.7157 70.0549 25.1149C70.2131 25.5141 70.2912 25.9406 70.2846 26.37C70.278 26.7994 70.1869 27.2233 70.0165 27.6174C69.8461 28.0116 69.5998 28.3684 69.2915 28.6674C68.9832 28.9663 68.6191 29.2017 68.2199 29.3599C55.8199 34.2699 42.8299 35.7399 31.7499 35.7399Z" fill="#F6ADB3"/>
<path d="M31.75 36.1501C22.1061 36.1759 12.4907 35.1023 3.08996 32.9501C2.2263 32.7241 1.47428 32.1918 0.973973 31.4524C0.473668 30.713 0.259199 29.8169 0.370534 28.9311C0.481868 28.0454 0.911415 27.2302 1.57914 26.6377C2.24686 26.0451 3.10722 25.7154 3.99996 25.7101C4.30681 25.7066 4.61278 25.7436 4.90996 25.8201C13.7505 27.7885 22.783 28.7646 31.84 28.7301C44.52 28.7301 55.84 26.7301 65.64 22.9001C66.0731 22.7293 66.5344 22.6412 67 22.6401C67.8561 22.6398 68.6855 22.938 69.3454 23.4833C70.0054 24.0287 70.4545 24.787 70.6156 25.6278C70.7766 26.4686 70.6395 27.3393 70.2278 28.0899C69.8161 28.8405 69.1556 29.4241 68.36 29.7401C57.64 34.0001 45.32 36.1501 31.75 36.1501ZM3.99996 26.5201C3.30782 26.5298 2.64248 26.7893 2.12655 27.2507C1.61061 27.7122 1.27886 28.3446 1.1924 29.0314C1.10595 29.7182 1.27061 30.4131 1.65607 30.988C2.04153 31.563 2.6218 31.9793 3.28995 32.1601C12.6255 34.2937 22.1737 35.3572 31.75 35.3301C45.22 35.3301 57.44 33.1901 68.05 28.9801C68.6691 28.7356 69.1835 28.2827 69.5046 27.6996C69.8256 27.1165 69.9333 26.4396 69.8089 25.7857C69.6845 25.1318 69.3359 24.5417 68.8231 24.1172C68.3104 23.6927 67.6656 23.4603 67 23.4601C66.6369 23.4567 66.2768 23.5247 65.94 23.6601C56.1 27.5701 44.62 29.5501 31.84 29.5501C22.7153 29.5844 13.6155 28.5982 4.70997 26.6101C4.47808 26.5501 4.23949 26.5199 3.99996 26.5201Z" fill="#C86265"/>
<g style="mix-blend-mode:multiply">
<path d="M59.3901 25.47C41.9101 30.6 23.7301 29.29 13.3901 27.8C12.2065 29.7381 11.3358 31.8507 10.8101 34.06C17.7348 35.1716 24.7367 35.7334 31.7501 35.74C41.7036 35.8115 51.6165 34.4646 61.1901 31.74C60.891 29.5751 60.2849 27.4638 59.3901 25.47Z" fill="#F6ADB3"/>
</g>
<path d="M70.0003 45.0001C69.586 45.0013 69.1752 44.9232 68.7903 44.7701C40.7103 33.6301 5.13025 42.0601 4.79025 42.1501C4.37265 42.2519 3.93909 42.2704 3.51433 42.2046C3.08956 42.1388 2.68192 41.99 2.31467 41.7667C1.94741 41.5434 1.62774 41.2499 1.3739 40.9031C1.12006 40.5562 0.93704 40.1627 0.835265 39.7451C0.733491 39.3275 0.714963 38.8939 0.780746 38.4692C0.846528 38.0444 0.995333 37.6368 1.21866 37.2695C1.44198 36.9023 1.73545 36.5826 2.08232 36.3288C2.42919 36.0749 2.82266 35.8919 3.24026 35.7901C4.78026 35.4201 41.2403 26.7901 71.2403 38.6901C71.9506 38.9715 72.5399 39.4926 72.9061 40.1631C73.2722 40.8337 73.392 41.6112 73.2447 42.3608C73.0974 43.1105 72.6922 43.7849 72.0996 44.267C71.5069 44.7491 70.7642 45.0085 70.0003 45.0001Z" fill="#F6ADB3"/>
<path d="M70.0001 45.43C69.5345 45.429 69.0732 45.3408 68.6401 45.17C59.0601 41.37 47.5601 39.44 34.48 39.44C24.5272 39.4336 14.6016 40.4828 4.87005 42.57C4.39472 42.7011 3.89791 42.7353 3.40911 42.6706C2.92031 42.6059 2.44949 42.4436 2.02462 42.1934C1.59975 41.9432 1.22948 41.6102 0.935813 41.2142C0.642148 40.8181 0.43107 40.367 0.315116 39.8878C0.199161 39.4086 0.180708 38.9109 0.260825 38.4244C0.340942 37.9379 0.517998 37.4725 0.781501 37.0557C1.045 36.639 1.38957 36.2794 1.79473 35.9984C2.19989 35.7174 2.65739 35.5207 3.14005 35.42C13.3955 33.1523 23.8669 32.0056 34.37 32C48.37 32 60.82 34.12 71.37 38.3C72.1657 38.6161 72.8262 39.1997 73.2379 39.9503C73.6496 40.7009 73.7867 41.5715 73.6257 42.4123C73.4646 43.2531 73.0154 44.0115 72.3555 44.5568C71.6956 45.1021 70.8661 45.4003 70.01 45.4L70.0001 45.43ZM34.5001 38.62C47.6901 38.62 59.2801 40.57 68.9601 44.41C69.2984 44.5402 69.6575 44.6079 70.0201 44.61C70.6857 44.6098 71.3305 44.3775 71.8432 43.953C72.356 43.5284 72.7046 42.9384 72.829 42.2844C72.9533 41.6305 72.8457 40.9536 72.5247 40.3705C72.2036 39.7874 71.6892 39.3346 71.0701 39.09C60.6401 34.95 48.3001 32.85 34.3901 32.85C23.9657 32.848 13.5719 33.9746 3.39005 36.21C2.70983 36.3744 2.11347 36.7824 1.71387 37.3569C1.31428 37.9314 1.13918 38.6325 1.22173 39.3274C1.30428 40.0223 1.63876 40.6628 2.16183 41.1277C2.68489 41.5926 3.36025 41.8496 4.06005 41.85C4.28926 41.8537 4.51795 41.8268 4.74006 41.77C14.5211 39.6729 24.4967 38.617 34.5001 38.62Z" fill="#C86265"/>
<g style="mix-blend-mode:multiply">
<path d="M61.4999 35.59C41.8899 30.59 21.4499 32.59 10.7499 34.36C10.2563 36.5671 10.1045 38.8369 10.2999 41.09C20.1399 39.42 41.5099 36.94 61.1899 42.28C61.4271 40.0582 61.5307 37.8242 61.4999 35.59Z" fill="#F6ADB3"/>
</g>
<path d="M14.9399 6.61996C16.4377 14.8026 17.2107 23.1015 17.2499 31.42C17.0899 43.42 17.2499 65.03 17.2499 65.03C17.2499 65.03 18.0799 67.26 22.9799 66.72C22.9799 66.72 24.7499 65.93 24.9799 65.03V22.45C24.9799 22.45 24.4699 14.45 27.6199 10.37C27.6199 10.37 26.6199 6.72997 24.1099 7.49997L22.0499 11.19C22.0499 11.19 21.3899 6.60996 20.8099 5.50996C19.8171 5.18655 18.7587 5.11871 17.7327 5.31273C16.7067 5.50674 15.7461 5.95635 14.9399 6.61996Z" fill="#0180C4"/>
<path d="M21.5002 67.2099C17.6502 67.2099 16.8802 65.2099 16.8502 65.2099C16.8398 65.1638 16.8398 65.116 16.8502 65.0699C16.8502 64.8599 16.6802 43.2699 16.8502 31.4499C16.7864 23.144 16.0001 14.8595 14.5002 6.68991C14.4856 6.61921 14.4899 6.54591 14.5127 6.47743C14.5356 6.40895 14.5761 6.34772 14.6302 6.29991C15.797 5.30981 17.2799 4.77055 18.8101 4.7799C19.5404 4.77705 20.2664 4.89185 20.9602 5.1199C21.0532 5.16101 21.1304 5.2312 21.1801 5.31991C21.7017 6.82167 22.067 8.3732 22.2702 9.9499L23.7502 7.29991C23.8055 7.21048 23.8904 7.14325 23.9902 7.10991C24.2481 7.02386 24.5182 6.97996 24.7901 6.9799C27.0901 6.9799 27.9802 10.1299 28.0202 10.2699C28.0364 10.3297 28.0385 10.3924 28.0264 10.4532C28.0142 10.5139 27.9881 10.571 27.9501 10.6199C24.9501 14.5399 25.3902 22.3399 25.3902 22.4199V64.9999C25.3999 65.0393 25.3999 65.0805 25.3902 65.1199C25.0801 66.1199 23.3302 66.9699 23.1302 67.0599H23.0101C22.5001 67.1799 21.9902 67.2099 21.5002 67.2099ZM17.6402 64.9399C17.7802 65.2099 18.5702 66.3999 21.5002 66.3999C21.9512 66.3967 22.4018 66.37 22.8502 66.3199C23.5479 66.0417 24.1517 65.5698 24.5901 64.9599V22.4499C24.5901 22.1499 24.1202 14.4999 27.1902 10.2999C26.9802 9.68991 26.1901 7.79991 24.8101 7.79991C24.6738 7.78586 24.5365 7.78586 24.4001 7.79991L22.4001 11.3399C22.3592 11.4147 22.2953 11.4745 22.218 11.5105C22.1406 11.5465 22.0538 11.5568 21.9702 11.5399C21.8873 11.523 21.8115 11.4815 21.7526 11.4209C21.6937 11.3602 21.6545 11.2832 21.6402 11.1999C21.4059 9.37054 21.0315 7.56188 20.5202 5.7899C19.9639 5.63154 19.3885 5.55079 18.8101 5.54991C17.5526 5.53494 16.3279 5.95141 15.3401 6.7299C16.8199 14.864 17.5828 23.1124 17.6201 31.3799C17.5001 42.8599 17.6502 63.4299 17.6602 64.9399H17.6402Z" fill="#425DA8"/>
<g style="mix-blend-mode:multiply" opacity="0.4">
<path d="M14.9399 6.61996C16.4377 14.8026 17.2107 23.1015 17.2499 31.42C17.0899 43.42 17.2499 65.03 17.2499 65.03C17.2499 65.03 18.0799 67.26 22.9799 66.72C22.9799 66.72 24.7499 65.93 24.9799 65.03V22.45C24.9799 22.45 24.4699 14.45 27.6199 10.37C27.6199 10.37 26.6199 6.72997 24.1099 7.49997L22.0499 11.19C22.0499 11.19 21.3899 6.60996 20.8099 5.50996C19.8171 5.18655 18.7587 5.11871 17.7327 5.31273C16.7067 5.50674 15.7461 5.95635 14.9399 6.61996Z" fill="#0180C4"/>
</g>
<g style="mix-blend-mode:multiply" opacity="0.4">
<path d="M21.04 15.6301C21.5319 14.1424 21.9031 12.6174 22.15 11.0701L22.09 11.1901C22.09 11.1901 21.43 6.61008 20.85 5.51008C20.012 5.2382 19.1274 5.13955 18.25 5.22009C20.2 7.55009 20.75 13.0801 21.04 15.6301Z" fill="#0180C4"/>
</g>
<g style="mix-blend-mode:multiply" opacity="0.4">
<path d="M27.66 10.3701C27.3938 9.4356 26.8869 8.58733 26.19 7.91016C23.83 11.3602 23.64 16.1102 23 20.1002C22.9051 20.9554 22.6274 21.7803 22.1857 22.5187C21.744 23.2572 21.1486 23.892 20.44 24.3802C19.2003 25.1152 18.1056 26.0709 17.21 27.2001C17.21 28.6101 17.27 30.0202 17.21 31.4202C17.12 38.2102 17.13 48.1402 17.16 55.4202C19.21 56.7901 20.36 59.4202 21.04 61.7102C21.48 63.3632 21.6854 65.0699 21.65 66.7802C22.0811 66.7763 22.5117 66.7496 22.94 66.7001C22.94 66.7001 24.71 65.9101 24.94 65.0101V22.4501C24.94 22.4501 24.5 14.4601 27.66 10.3701Z" fill="#0180C4"/>
</g>
<path d="M25.3101 49.4199C25.3101 60.1599 25.4001 71.4199 25.4001 71.4199C25.4001 71.4199 26.4001 73.6499 32.4001 73.1099C32.4001 73.1099 34.5401 72.3199 34.8801 71.4199V49.4199H25.3101Z" fill="#CC2626"/>
<path d="M30.5802 73.56C25.9802 73.56 25.0602 71.63 25.0302 71.56C25.0151 71.5077 25.0151 71.4523 25.0302 71.4C25.0302 71.29 24.9302 60.06 24.9402 49.4C24.9402 49.2912 24.9834 49.187 25.0602 49.1101C25.1371 49.0332 25.2414 48.99 25.3502 48.99H34.8802C34.9335 48.99 34.9864 49.0006 35.0356 49.0214C35.0848 49.0421 35.1293 49.0724 35.1666 49.1107C35.2039 49.1489 35.2331 49.1941 35.2526 49.2438C35.2721 49.2935 35.2815 49.3466 35.2802 49.4V71.4C35.2899 71.4461 35.2899 71.4938 35.2802 71.54C34.9002 72.54 32.9502 73.33 32.5602 73.47H32.4502C31.7602 73.53 31.1502 73.56 30.5802 73.56ZM25.8102 71.27C26.0002 71.54 27.0302 72.74 30.5802 72.74C31.1412 72.7421 31.7019 72.7154 32.2601 72.66C33.0919 72.4033 33.8407 71.9306 34.4301 71.29V49.83H25.7202C25.7102 59.77 25.8002 70.1 25.8102 71.27Z" fill="#9F1741"/>
<g style="mix-blend-mode:multiply">
<path d="M25.3101 49.4199C25.3101 53.9699 25.3101 58.5999 25.3101 62.4199C25.3287 62.3951 25.3528 62.3749 25.3806 62.361C25.4084 62.3472 25.439 62.3399 25.4701 62.3399C25.5011 62.3399 25.5317 62.3472 25.5595 62.361C25.5873 62.3749 25.6114 62.3951 25.6301 62.4199C27.5501 64.1399 29.7301 65.7399 31.0301 68.0199C31.6908 69.1362 32.0907 70.3874 32.2001 71.6799C32.2001 72.1599 32.2001 72.6799 32.2501 73.1299H32.3101C32.3101 73.1299 34.4501 72.3399 34.7901 71.4399V49.4399L25.3101 49.4199Z" fill="#CC2626"/>
</g>
<path d="M28.0701 26.8401C28.0701 26.8401 15.7101 33.1801 15.5601 44.7801C15.4101 56.3801 32.5601 67.7801 49.3501 69.0501C50.9245 69.1494 52.49 68.747 53.8214 67.9007C55.1528 67.0545 56.1816 65.8079 56.7601 64.3401C59.1601 59.0301 60.0701 41.5201 57.7601 34.7401C55.4501 27.9601 45.6301 19.0001 28.0701 26.8401Z" fill="#E67376"/>
<path d="M49.8302 69.4801C49.6537 69.4904 49.4767 69.4904 49.3002 69.4801C31.6102 68.1901 15.0102 56.1902 15.1602 44.8002C15.3102 33.1002 27.7602 26.5801 27.8802 26.5101C31.9483 24.577 36.3775 23.5209 40.8802 23.4102C50.2002 23.4102 56.2702 29.0502 58.1702 34.6402C60.5302 41.6402 59.5602 59.1901 57.1702 64.5401C56.5851 66.006 55.5718 67.2615 54.2624 68.1427C52.9531 69.024 51.4085 69.49 49.8302 69.4801ZM40.8302 24.1902C36.4499 24.2929 32.1401 25.315 28.1802 27.1902C28.0802 27.2402 16.0702 33.5402 15.9202 44.7502C15.8602 50.0502 19.6402 55.7502 26.3002 60.4402C33.1201 65.1287 41.0508 67.9459 49.3002 68.6102C49.3002 68.6102 49.4802 68.6102 49.7502 68.6102C51.1655 68.6072 52.5472 68.1783 53.7154 67.3792C54.8836 66.5802 55.7842 65.4481 56.3002 64.1302C58.6202 59.0002 59.5702 41.5102 57.3002 34.8202C55.5902 29.5502 49.7902 24.1902 40.8802 24.1902H40.8302Z" fill="#981C37"/>
<g style="mix-blend-mode:multiply" opacity="0.4">
<path d="M57.7801 34.7401C55.4801 27.9601 45.6301 18.9901 28.0701 26.8401C28.0701 26.8401 15.7101 33.1801 15.5601 44.7801C15.4101 56.3801 32.5601 67.7801 49.3501 69.0501C50.9245 69.1494 52.49 68.747 53.8214 67.9007C55.1528 67.0544 56.1816 65.8078 56.7601 64.3401C59.1601 59.0001 60.0701 41.5201 57.7801 34.7401ZM42.6001 61.3501C38.9401 63.5301 34.6001 62.1101 31.3601 59.7501C29.4268 58.3991 27.776 56.6837 26.5001 54.7001C25.4401 52.9601 24.5001 50.7001 25.5001 48.7001C26.5001 46.7001 28.6501 45.5201 30.2101 43.9601C31.3909 42.9033 32.2969 41.5751 32.8501 40.0901C33.6501 37.6301 34.5901 34.6201 37.8501 35.4101C43.7801 36.8701 47.5501 44.6501 47.6801 50.2101C47.7801 54.3101 46.3001 59.1501 42.6001 61.3501Z" fill="#E46260"/>
</g>
<path d="M49.5502 9.36013C49.1082 9.10486 48.7582 8.71634 48.5502 8.25013C48.4102 7.66013 49.1302 5.25013 49.7002 3.44013C49.23 2.8676 48.6176 2.42862 47.9244 2.16713C47.2312 1.90564 46.4814 1.8308 45.7502 1.95012C45.2602 4.13012 44.3402 7.01012 43.8202 7.62012C42.7502 8.87012 42.1202 6.62012 42.1202 6.62012L42.0002 1.49013C41.3043 1.05563 40.4917 0.845608 39.6724 0.888539C38.8531 0.93147 38.0669 1.22527 37.4202 1.73012C37.4217 3.56903 37.5958 5.40376 37.9402 7.21013C38.3102 9.45013 36.9402 9.47013 36.9402 9.47013C35.1902 10.0901 33.4102 7.31013 32.3202 5.47013C31.3997 5.29161 30.4456 5.45791 29.6398 5.93737C28.8339 6.41682 28.2326 7.17594 27.9502 8.07013C28.4402 8.70013 28.9502 9.86012 29.8102 11.1801C30.8902 12.7601 29.5202 13.7601 28.9602 14.8901C22.2502 21.5301 22.2402 31.2701 22.2402 31.2701H35.5502C35.5502 31.2701 33.7402 18.6101 41.1102 16.7101C48.4802 14.8101 51.7402 27.9301 51.7402 27.9301L59.9802 25.3201C58.9302 16.8501 55.2802 11.5401 49.5502 9.36013Z" fill="#CC2626"/>
<path d="M35.6201 31.64H22.3002C22.2456 31.6388 22.1918 31.6266 22.142 31.6043C22.0922 31.582 22.0474 31.5499 22.0101 31.51C21.9719 31.4742 21.9415 31.4308 21.9209 31.3826C21.9002 31.3344 21.8898 31.2824 21.8901 31.23C21.8901 31.13 21.9801 21.28 28.6801 14.6C28.8301 14.33 29.0101 14.07 29.1801 13.81C29.8101 12.9 30.1801 12.29 29.5401 11.36C29.126 10.7532 28.7486 10.1221 28.4102 9.47003C28.199 9.0566 27.9584 8.6589 27.6902 8.28003C27.6481 8.22932 27.6188 8.16922 27.6049 8.10481C27.591 8.0404 27.5928 7.9736 27.6101 7.91003C27.8768 7.03515 28.4256 6.27318 29.171 5.74312C29.9163 5.21305 30.8162 4.94472 31.7301 4.98003C31.9676 4.98209 32.2047 4.99879 32.4402 5.03003C32.5023 5.03755 32.5619 5.05958 32.614 5.09431C32.6661 5.12905 32.7093 5.17553 32.7402 5.23003C33.3002 6.23003 35.0102 9.13003 36.4902 9.13003C36.6159 9.1304 36.7409 9.11014 36.8601 9.07004C36.903 9.06114 36.9473 9.06114 36.9902 9.07004C37.1426 9.04017 37.2802 8.95899 37.3802 8.84003C37.5172 8.60691 37.6041 8.34771 37.6351 8.07905C37.666 7.8104 37.6405 7.53824 37.5601 7.28003C37.206 5.44455 37.0285 3.57937 37.0301 1.71004C37.0321 1.64863 37.0485 1.58852 37.078 1.53465C37.1075 1.48078 37.1494 1.43465 37.2001 1.40002C38.0087 0.802175 38.9846 0.473383 39.9902 0.460036C40.7976 0.455037 41.5869 0.699505 42.2501 1.16003C42.3047 1.19382 42.3499 1.24088 42.3814 1.29684C42.4128 1.3528 42.4296 1.41582 42.4301 1.48003L42.5502 6.55003C42.7002 7.04003 43.0102 7.61003 43.2102 7.61003C43.4102 7.61003 43.3801 7.55003 43.5301 7.38003C44.3796 5.63435 44.9982 3.78547 45.3701 1.88003C45.389 1.80355 45.4291 1.73392 45.4857 1.67911C45.5422 1.62429 45.6131 1.5865 45.6902 1.57004C46.4882 1.4356 47.3075 1.5136 48.0659 1.79622C48.8242 2.07883 49.4947 2.55609 50.0101 3.18002C50.0624 3.23288 50.0993 3.29895 50.117 3.37117C50.1346 3.44339 50.1322 3.51904 50.1101 3.59003C48.8902 7.39003 48.9501 8.07003 48.9701 8.17003C48.9902 8.27003 49.1201 8.55003 49.7501 9.02003C55.7501 11.32 59.3301 16.77 60.4501 25.25C60.4638 25.3447 60.4431 25.4412 60.3917 25.5219C60.3403 25.6027 60.2617 25.6623 60.1701 25.69L51.9301 28.3C51.878 28.3223 51.8219 28.3338 51.7651 28.3338C51.7084 28.3338 51.6523 28.3223 51.6002 28.3C51.5521 28.2748 51.5101 28.2394 51.4773 28.1962C51.4445 28.153 51.4216 28.1031 51.4102 28.05C51.4102 27.93 48.5702 16.96 42.6002 16.96C42.1513 16.9586 41.7042 17.0158 41.2702 17.13C34.6202 18.84 35.8701 30.13 36.0101 31.13C36.0157 31.1765 36.0157 31.2235 36.0101 31.27C35.9987 31.3676 35.9534 31.458 35.8821 31.5256C35.8109 31.5932 35.7182 31.6337 35.6201 31.64ZM22.7201 30.82H35.1501C34.9331 28.751 34.9565 26.6637 35.2201 24.6C35.8601 19.98 37.8802 17.1 41.0702 16.28C44.4202 15.42 47.5401 17.42 49.9501 22C50.8401 23.7145 51.557 25.5134 52.0901 27.37L59.5901 25C58.4601 17 55.0302 11.88 49.4102 9.75003C49.3735 9.73612 49.3397 9.71581 49.3101 9.69003C48.788 9.38513 48.3884 8.90774 48.1801 8.34003C48.1201 8.13003 47.9801 7.56003 49.2501 3.55003C48.8577 3.11537 48.3701 2.77728 47.8254 2.56218C47.2807 2.34708 46.6937 2.26079 46.1101 2.31003C45.6502 4.24003 44.7601 7.18003 44.1101 7.89003C44.0015 8.04062 43.8608 8.16534 43.6983 8.25523C43.5358 8.34513 43.3555 8.39799 43.1701 8.41003C42.1701 8.41003 41.7902 6.99003 41.7102 6.70003C41.7102 6.70003 41.7102 6.64003 41.7102 6.61003L41.6002 1.70003C41.1068 1.40824 40.5433 1.25614 39.9701 1.26002C39.2034 1.26826 38.4559 1.50121 37.8202 1.93002C37.844 3.67554 38.0214 5.41559 38.3502 7.13003C38.4498 7.50511 38.4684 7.89713 38.4046 8.27994C38.3408 8.66275 38.1961 9.02756 37.9801 9.35004C37.7514 9.63316 37.4214 9.81608 37.0601 9.86003C36.8691 9.91937 36.6702 9.9497 36.4701 9.95003C34.8001 9.95003 33.2701 7.78004 32.1101 5.82004C31.977 5.81007 31.8433 5.81007 31.7102 5.82004C31.015 5.80537 30.3326 6.00735 29.7574 6.39796C29.1822 6.78858 28.7428 7.34848 28.5001 8.00003C28.7409 8.36417 28.9613 8.74142 29.1602 9.13003C29.4602 9.67003 29.8001 10.29 30.2501 10.96C31.2501 12.39 30.4901 13.46 29.9001 14.33C29.7244 14.5676 29.5673 14.8183 29.4301 15.08C29.4093 15.1206 29.3824 15.1577 29.3502 15.19C23.5602 20.82 22.8201 28.92 22.7201 30.82Z" fill="#9F1741"/>
<g style="mix-blend-mode:multiply">
<path d="M31.1301 7.48013C32.0101 8.81013 32.8201 10.0601 34.5501 10.3001C34.9608 10.398 35.3912 10.3746 35.7888 10.2326C36.1865 10.0905 36.5343 9.83609 36.7901 9.50013C35.1101 9.84013 33.4201 7.22013 32.3801 5.43013C31.5092 5.29918 30.6191 5.43881 29.8301 5.83013C30.3334 6.32115 30.7705 6.87584 31.1301 7.48013Z" fill="#CC2626"/>
</g>
<g style="mix-blend-mode:multiply">
<path d="M40.15 2.0899C40.47 3.5899 39.89 5.08991 40.33 6.62991C40.57 7.47991 41.14 8.4399 42.18 8.3399C42.4941 8.31241 42.7883 8.17419 43.01 7.9499C42.46 7.7199 42.14 6.59991 42.14 6.59991L42.02 1.46991C41.2814 0.969418 40.384 0.759316 39.5 0.879911C39.8375 1.20564 40.0647 1.62868 40.15 2.0899Z" fill="#CC2626"/>
</g>
<g style="mix-blend-mode:multiply">
<path d="M48.0201 2.20996C47.9921 2.75845 47.9185 3.30365 47.8001 3.83995C47.5801 4.83995 47.2401 5.89996 47.0201 6.93996C46.6801 8.48996 47.7501 8.85995 48.9001 8.78995C48.7511 8.63685 48.6384 8.45234 48.5701 8.24995C48.4301 7.65995 49.1501 5.24996 49.7201 3.43996C49.2404 2.92156 48.6625 2.5035 48.0201 2.20996Z" fill="#CC2626"/>
</g>
<g style="mix-blend-mode:multiply">
<path d="M52.5698 10.9299C52.5522 11.1925 52.4638 11.4455 52.3142 11.662C52.1646 11.8785 51.9592 12.0506 51.7198 12.1599C50.7412 12.4523 49.6984 12.4523 48.7198 12.1599C44.8143 11.5239 40.8079 12.1694 37.2998 13.9999C35.491 15.018 33.8431 16.2986 32.4098 17.7999C31.4098 18.7999 30.2298 20.0199 28.8298 20.2799C28.252 20.4127 27.6451 20.3131 27.14 20.0026C26.635 19.6921 26.2722 19.1955 26.1298 18.6199C26.1252 18.5868 26.1252 18.5531 26.1298 18.5199C23.809 22.3715 22.4984 26.7468 22.3198 31.2399H35.6298C35.6298 31.2399 33.8198 18.5799 41.1898 16.6799C48.5598 14.7799 51.8198 27.8999 51.8198 27.8999L60.0598 25.2899C59.1398 18.4399 56.5698 13.6499 52.5698 10.9299Z" fill="#CC2626"/>
</g>
<path d="M19.2202 26.68C15.6402 29.45 13.8902 34.49 13.6402 38.96C13.5202 41.07 13.2402 49.03 16.8702 49.09C20.5002 49.15 33.8702 39.55 32.2502 31.65C31.3902 27.5 28.1202 24 23.7402 24.72C22.092 24.9803 20.5367 25.6547 19.2202 26.68Z" fill="#F7B9B2"/>
<path d="M16.9001 49.5C16.5363 49.4958 16.1774 49.4153 15.8467 49.2637C15.516 49.1121 15.2207 48.8928 14.9801 48.6199C13.1201 46.6199 13.1101 41.6899 13.2701 38.9299C13.5801 33.5999 15.7201 28.93 19.0101 26.36C20.38 25.2932 21.9963 24.5882 23.7101 24.31C24.1071 24.2477 24.5082 24.2143 24.9101 24.21C28.6001 24.21 31.7901 27.21 32.6901 31.56C33.2601 34.35 32.1201 37.56 29.3801 40.96C25.5001 45.69 19.3901 49.5 16.9001 49.5ZM24.9001 25.03C24.5448 25.0301 24.1902 25.0602 23.8401 25.1199C22.258 25.3707 20.7651 26.0174 19.5001 27C15.8501 29.83 14.3001 35 14.0801 39C13.9801 40.65 13.8101 46.18 15.5701 48.08C15.735 48.2719 15.9389 48.4265 16.1682 48.5334C16.3976 48.6403 16.647 48.6971 16.9001 48.7C18.9001 48.7 24.8101 45.24 28.7001 40.46C30.5001 38.26 32.5101 34.95 31.8501 31.75C31.1901 28.55 28.7101 25 24.8701 25L24.9001 25.03Z" fill="#BB6558"/>
<g style="mix-blend-mode:multiply">
<path d="M32.2502 31.65C31.3902 27.5 28.1202 24 23.7402 24.72C22.0882 24.9921 20.5326 25.6804 19.2202 26.72L18.9002 26.99C19.5394 26.6043 20.2082 26.2699 20.9002 25.99C22.6402 25.31 24.8202 24.81 26.6402 25.5C30.1302 26.84 29.8902 31.17 28.5202 33.99C27.4159 36.1413 26.0156 38.1272 24.3602 39.89C23.0815 41.4237 21.5936 42.7702 19.9402 43.89C18.4502 44.8 16.5902 45.49 15.0302 44.35C13.4702 43.21 13.5702 40.91 13.7202 39.18C13.8504 37.3069 14.1653 35.4512 14.6602 33.64C14.0967 35.3656 13.7605 37.1574 13.6602 38.97C13.5402 41.08 13.2602 49.04 16.8902 49.1C20.5202 49.16 33.8802 39.55 32.2502 31.65Z" fill="#F7B9B2"/>
</g>
<path d="M47.6099 22.74C47.6099 22.74 41.7099 24.6399 44.9599 27.6499C48.2099 30.6599 55.8199 33.2099 58.5199 37.8899C58.5199 37.8899 59.1599 39.48 59.5199 36.99C59.8799 34.5 58.0399 21.72 47.6099 22.74Z" fill="#F7B9B2"/>
<path d="M58.9701 38.8001C58.5101 38.8001 58.2401 38.2801 58.1501 38.0701C56.5201 35.2501 52.9301 33.1701 49.7601 31.3301C47.9556 30.3803 46.2533 29.2476 44.6801 27.9501C44.2911 27.666 43.9868 27.2813 43.8001 26.8373C43.6133 26.3933 43.5511 25.9068 43.6201 25.4301C44.0501 23.4301 47.3501 22.4301 47.4901 22.3501H47.5701C49.2002 22.1338 50.8584 22.3371 52.3879 22.9408C53.9173 23.5445 55.2674 24.5287 56.3101 25.8001C58.8215 29.0117 60.1209 33.0056 59.9801 37.0801C59.8301 37.9201 59.6001 38.8001 58.9701 38.8001ZM47.7001 23.1401C46.8401 23.4301 44.7001 24.3901 44.4201 25.6101C44.3885 25.9459 44.4469 26.2841 44.5893 26.5899C44.7316 26.8957 44.9528 27.1581 45.2301 27.3501C46.7639 28.6017 48.4188 29.6972 50.1701 30.6201C53.4301 32.5201 57.1701 34.6201 58.8701 37.6901V37.7401C58.8666 37.7733 58.8666 37.8068 58.8701 37.8401C58.9745 37.5417 59.0482 37.2334 59.0901 36.9201C59.1884 33.0879 57.959 29.3396 55.6101 26.3101C54.665 25.1587 53.4445 24.2645 52.0618 23.7103C50.6791 23.1562 49.1788 22.9601 47.7001 23.1401Z" fill="#BB6558"/>
<g style="mix-blend-mode:multiply">
<path d="M59.2099 37.0001C58.8584 35.8054 58.2999 34.6817 57.5599 33.6801C56.2411 31.8245 54.6182 30.205 52.7599 28.8901C51.7599 28.1401 50.6299 27.0901 50.9099 25.6901C51.1169 24.7951 51.6038 23.9895 52.2999 23.3901C50.8084 22.8123 49.1987 22.6063 47.6099 22.7901C47.6099 22.7901 41.7099 24.6901 44.9599 27.7001C48.2099 30.7101 55.8199 33.2601 58.5199 37.9401C58.5199 37.9401 58.9999 39.1301 59.3999 37.8301C59.3399 37.5001 59.2899 37.2301 59.2099 37.0001Z" fill="#F7B9B2"/>
</g>
<path d="M47.9199 25.6C47.9199 25.6 49.6599 20.6 62.2299 19.37C62.5232 19.3505 62.8093 19.2713 63.0709 19.1373C63.3325 19.0033 63.564 18.8174 63.7512 18.5908C63.9384 18.3643 64.0774 18.1019 64.1598 17.8198C64.2421 17.5376 64.2659 17.2417 64.2299 16.95C64.2299 16.95 64.4699 13.95 62.4999 13.39C60.5299 12.83 48.7199 15.8 45.3299 17.14C43.7702 17.2598 42.2014 17.1588 40.6699 16.84C40.6699 16.84 37.3599 16.77 34.8699 21.27C33.4024 24.3866 32.8014 27.8409 33.1299 31.27C33.1299 31.27 43.2499 32.7 46.8299 35.35C46.7999 35.31 45.8199 29.38 47.9199 25.6Z" fill="#0180C4"/>
<path d="M46.7998 35.72C46.7096 35.7238 46.621 35.6955 46.5498 35.64C43.0998 33.08 33.1398 31.64 33.0398 31.64C32.9513 31.6277 32.8692 31.5869 32.806 31.5237C32.7429 31.4606 32.7021 31.3785 32.6898 31.29C32.361 27.7889 32.9864 24.2641 34.4998 21.09C37.0098 16.56 40.2898 16.43 40.6598 16.43H40.7398C41.9036 16.6523 43.085 16.7694 44.2698 16.78C44.7898 16.78 45.1198 16.78 45.2698 16.78C48.2698 15.59 58.4798 12.95 61.8198 12.95C62.096 12.9421 62.3719 12.9723 62.6398 13.04C64.7998 13.66 64.6998 16.6 64.6398 16.99C64.6814 17.3318 64.6527 17.6786 64.5555 18.009C64.4583 18.3394 64.2947 18.6464 64.0747 18.9114C63.8547 19.1763 63.5829 19.3936 63.276 19.5498C62.9691 19.7061 62.6335 19.798 62.2898 19.82C55.9598 20.43 52.4898 22.03 50.6998 23.26C49.6864 23.8576 48.8643 24.7318 48.3298 25.78V25.84C46.3298 29.45 47.2398 35.23 47.2498 35.29C47.2632 35.3695 47.2522 35.4512 47.2183 35.5244C47.1844 35.5975 47.1291 35.6587 47.0598 35.7C46.9775 35.734 46.8864 35.7411 46.7998 35.72ZM33.4998 30.87C35.1398 31.12 42.6198 32.34 46.3198 34.49C46.1298 32.66 45.9298 28.44 47.5898 25.43C47.7898 24.92 49.9698 20.16 62.2298 18.96C62.4714 18.9462 62.7074 18.8819 62.9226 18.7713C63.1378 18.6606 63.3273 18.5061 63.4791 18.3176C63.6308 18.1291 63.7413 17.9109 63.8034 17.677C63.8656 17.4432 63.878 17.1989 63.8398 16.96V16.89C63.8398 16.89 64.0198 14.22 62.3898 13.76C62.1974 13.7097 61.9984 13.6894 61.7998 13.7C58.7098 13.7 48.7398 16.21 45.4998 17.49H45.3998C45.0267 17.5095 44.6529 17.5095 44.2798 17.49C43.0586 17.4801 41.8406 17.363 40.6398 17.14C40.3198 17.14 37.4598 17.34 35.2298 21.36C33.8541 24.3314 33.2587 27.6044 33.4998 30.87Z" fill="#425DA8"/>
<g style="mix-blend-mode:multiply" opacity="0.4">
<path d="M58.3399 18.2999C55.3999 18.7399 52.2499 19.5399 49.9499 21.5199C48.0799 23.1199 46.9499 25.2199 45.6399 27.2399C45.1528 28.055 44.4436 28.7145 43.5953 29.1413C42.747 29.5681 41.7948 29.7445 40.8499 29.6499C39.1899 29.4699 36.7699 29.0199 35.8499 27.4299C35.4891 26.6582 35.3021 25.8168 35.3021 24.9649C35.3021 24.1131 35.4891 23.2716 35.8499 22.4999C36.4086 20.6534 37.6349 19.0812 39.2899 18.0899C40.1649 17.7003 41.1358 17.5785 42.0799 17.7399C42.5102 17.8307 42.9549 17.8286 43.3843 17.7338C43.8137 17.6389 44.2179 17.4535 44.5699 17.1899C43.2618 17.1971 41.9559 17.0799 40.6699 16.8399C40.6699 16.8399 37.3599 16.7699 34.8699 21.2699C33.4024 24.3865 32.8014 27.8408 33.1299 31.2699C33.1299 31.2699 43.2499 32.6999 46.8299 35.3499C46.8299 35.3499 45.8299 29.4199 47.9499 25.6399C47.9499 25.6399 49.6899 20.6399 62.2599 19.4099C62.699 19.3619 63.1145 19.1868 63.4555 18.9062C63.7965 18.6255 64.0483 18.2515 64.1799 17.8299C62.2499 18.1099 60.2199 17.9999 58.3399 18.2999Z" fill="#0180C4"/>
</g>
<g style="mix-blend-mode:screen">
<path d="M22.2699 26.7499C22.2699 26.7499 19.7299 25.9699 17.3799 30.8799C15.0299 35.7899 16.5599 37.2499 19.0099 36.3199C21.4599 35.3899 27.1699 26.0899 22.2699 26.7499Z" fill="#E46260"/>
</g>
<g style="mix-blend-mode:screen">
<path d="M48.14 18.8101C50.3265 17.4252 52.6444 16.2596 55.06 15.3301C40.94 19.0501 39.64 25.7901 39.5 27.0001C41.43 23.5301 44.89 20.8901 48.14 18.8101Z" fill="#0180C4"/>
</g>
<g style="mix-blend-mode:screen">
<path d="M27.0698 18.4099C27.0698 18.4099 34.2598 6.89994 49.7198 10.8399C49.7198 10.8399 34.9698 9.55994 27.0698 18.4099Z" fill="#E46260"/>
</g>
<path d="M46.1099 60C46.0405 59.9989 45.9725 59.9811 45.9116 59.948C45.8506 59.9149 45.7986 59.8676 45.7599 59.81C45.7066 59.715 45.6915 59.6033 45.7175 59.4975C45.7435 59.3916 45.8087 59.2996 45.8999 59.2401C46.8264 58.5834 47.6147 57.7509 48.2199 56.79C50.0031 54.0085 51.0936 50.8399 51.3999 47.55C52.4999 38.69 46.1999 35.39 45.9299 35.25C45.8399 35.1972 45.7735 35.112 45.7442 35.0119C45.7148 34.9118 45.7247 34.8043 45.7719 34.7112C45.8191 34.6182 45.8999 34.5466 45.998 34.5111C46.0961 34.4755 46.2041 34.4788 46.2999 34.52C47.6285 35.278 48.7888 36.2988 49.7099 37.52C50.7864 38.9537 51.5626 40.5897 51.9922 42.3303C52.4218 44.0709 52.4958 45.8802 52.2099 47.65C51.0399 57.01 46.5199 59.83 46.3199 59.94C46.2575 59.9807 46.1843 60.0016 46.1099 60Z" fill="#981C37"/>
<path d="M53.5801 59.1701C53.4779 59.1706 53.3793 59.1329 53.3035 59.0645C53.2276 58.996 53.1801 58.9018 53.1701 58.8001C53.1701 58.7501 52.6801 54.2701 50.3101 53.9101C50.2028 53.8952 50.1058 53.8384 50.0402 53.7523C49.9747 53.6661 49.9459 53.5574 49.9601 53.4501C49.9774 53.342 50.0362 53.2449 50.124 53.1796C50.2118 53.1142 50.3216 53.0857 50.4301 53.1001C53.4301 53.5501 53.9601 58.5101 53.9801 58.7201C53.9856 58.7727 53.9807 58.8258 53.9655 58.8765C53.9504 58.9271 53.9253 58.9743 53.8919 59.0152C53.8584 59.0561 53.8171 59.09 53.7705 59.1148C53.7238 59.1397 53.6727 59.1551 53.6201 59.1601L53.5801 59.1701Z" fill="#981C37"/>
<path d="M21.3 47.76C21.2109 47.7593 21.1245 47.7295 21.0538 47.6752C20.9832 47.621 20.9321 47.5451 20.9084 47.4593C20.8846 47.3734 20.8895 47.2821 20.9223 47.1992C20.9551 47.1164 21.014 47.0464 21.09 47C21.21 46.92 33.27 39.54 31.84 31.72C31.8201 31.6126 31.8437 31.5017 31.9056 31.4117C31.9675 31.3217 32.0626 31.2599 32.17 31.24C32.2774 31.2202 32.3884 31.2437 32.4784 31.3056C32.5684 31.3675 32.6301 31.4626 32.65 31.57C33.29 35.06 31.55 38.96 27.65 42.86C25.7799 44.6897 23.718 46.3124 21.5 47.7C21.4401 47.7378 21.3709 47.7586 21.3 47.76Z" fill="#981C37"/>
<path d="M31.8399 53.1701C31.7454 53.171 31.6536 53.1392 31.5799 53.0801C31.3399 52.8801 25.8299 48.2501 26.5799 42.8301C26.5948 42.7229 26.6515 42.6259 26.7377 42.5603C26.8239 42.4947 26.9325 42.4659 27.0399 42.4801C27.1479 42.4974 27.245 42.5562 27.3104 42.644C27.3758 42.7318 27.4043 42.8416 27.3899 42.9501C26.6599 47.9501 31.9999 52.4001 32.0599 52.4501C32.1226 52.5044 32.1674 52.5764 32.1883 52.6566C32.2093 52.7368 32.2054 52.8215 32.1773 52.8995C32.1491 52.9774 32.098 53.0451 32.0306 53.0934C31.9632 53.1417 31.8828 53.1685 31.7999 53.1701H31.8399Z" fill="#981C37"/>
<g style="mix-blend-mode:screen">
<path d="M30.7803 47.8001C30.7803 47.8001 29.7003 49.6001 31.8603 51.4601C34.0203 53.3201 37.3603 54.9101 37.7503 52.4601C38.1403 50.0101 31.5003 45.3201 30.7803 47.8001Z" fill="#E46260"/>
</g>
<path d="M55.69 46.8401C55.6366 46.8388 55.584 46.8269 55.5353 46.805C55.4866 46.783 55.4427 46.7516 55.4064 46.7124C55.37 46.6733 55.3419 46.6272 55.3236 46.577C55.3053 46.5268 55.2973 46.4735 55.3 46.4201C55.69 38.8901 47.24 35.2901 47.15 35.2601C47.0999 35.2393 47.0544 35.2089 47.0162 35.1704C46.978 35.1319 46.9477 35.0863 46.9273 35.036C46.9068 34.9858 46.8965 34.932 46.897 34.8778C46.8975 34.8236 46.9087 34.77 46.93 34.7201C46.9497 34.6704 46.9792 34.6251 47.0168 34.587C47.0543 34.5488 47.0991 34.5186 47.1485 34.4981C47.1979 34.4776 47.251 34.4672 47.3045 34.4675C47.358 34.4679 47.4109 34.479 47.46 34.5001C47.56 34.5001 56.54 38.3601 56.12 46.5001C56.1029 46.5999 56.0496 46.6898 55.9702 46.7525C55.8908 46.8153 55.791 46.8465 55.69 46.8401Z" fill="#425DA8"/>
<path d="M56.8103 41.0602C56.7202 41.0585 56.6333 41.0272 56.5628 40.9712C56.4923 40.9152 56.4422 40.8375 56.4203 40.7502C56.4203 40.6702 55.9303 39.1402 53.0303 39.4502C52.9235 39.4589 52.8174 39.4264 52.7338 39.3595C52.6501 39.2926 52.5952 39.1962 52.5803 39.0902C52.5747 39.0363 52.58 38.9818 52.5956 38.93C52.6113 38.8781 52.637 38.8299 52.6714 38.788C52.7058 38.7462 52.7482 38.7116 52.796 38.6862C52.8439 38.6608 52.8963 38.6452 52.9503 38.6402C56.5903 38.2402 57.1903 40.4502 57.2103 40.5502C57.2236 40.6021 57.2264 40.6561 57.2185 40.7091C57.2105 40.7621 57.192 40.813 57.164 40.8587C57.136 40.9044 57.0991 40.944 57.0556 40.9752C57.012 41.0064 56.9626 41.0284 56.9103 41.0401L56.8103 41.0602Z" fill="#425DA8"/>
<path d="M32.3703 44.2201C32.304 44.2176 32.2391 44.2005 32.1803 44.1701C32.0854 44.1191 32.0143 44.0329 31.9825 43.9299C31.9507 43.827 31.9607 43.7157 32.0103 43.6201C32.8651 42.0923 33.314 40.3708 33.314 38.6201C33.314 36.8694 32.8651 35.1479 32.0103 33.6201C31.9807 33.5756 31.9604 33.5257 31.9504 33.4733C31.9404 33.4209 31.9411 33.367 31.9522 33.3148C31.9634 33.2626 31.9849 33.2132 32.0155 33.1694C32.0461 33.1257 32.0851 33.0885 32.1303 33.0601C32.1747 33.0305 32.2246 33.0102 32.2771 33.0002C32.3295 32.9902 32.3834 32.9909 32.4356 33.002C32.4877 33.0132 32.5372 33.0347 32.5809 33.0653C32.6247 33.0959 32.6618 33.1349 32.6903 33.1801C33.6332 34.8254 34.1293 36.6887 34.1293 38.5851C34.1293 40.4814 33.6332 42.3448 32.6903 43.9901C32.6613 44.0528 32.6166 44.1069 32.5606 44.1472C32.5045 44.1875 32.4389 44.2126 32.3703 44.2201Z" fill="#425DA8"/>
<path d="M29.8298 47.63C29.7353 47.6295 29.6439 47.5964 29.571 47.5363C29.4981 47.4761 29.4482 47.3927 29.4298 47.3C29.4298 47.13 28.6398 43.03 32.9798 36.92C33.0423 36.8313 33.1373 36.771 33.2442 36.7523C33.351 36.7335 33.4609 36.7579 33.5498 36.82C33.6371 36.8858 33.696 36.9825 33.7146 37.0902C33.7332 37.1979 33.71 37.3087 33.6498 37.4C29.5298 43.19 30.2198 47.1 30.2298 47.14C30.2505 47.246 30.2284 47.3559 30.1685 47.4458C30.1086 47.5357 30.0156 47.5983 29.9098 47.62L29.8298 47.63Z" fill="#425DA8"/>
</svg>
