<svg width="130" height="130" viewBox="0 0 130 130" fill="none" xmlns="http://www.w3.org/2000/svg">
<path d="M130 65C130 29.1072 100.893 0 65 0C29.1072 0 0 29.1072 0 65C0 100.893 29.1072 130 65 130C100.893 130 130 100.893 130 65Z" fill="#FFD6DE"/>
<path d="M47.0341 93.3115C47.0341 88.5511 43.1737 84.6907 38.4133 84.6907C33.6529 84.6907 29.7925 88.5511 29.7925 93.3115C29.7925 98.0719 33.6529 101.932 38.4133 101.932C43.1737 101.932 47.0341 98.0719 47.0341 93.3115Z" fill="#797979"/>
<path d="M114.277 93.3115C114.277 88.5511 110.416 84.6907 105.656 84.6907C100.895 84.6907 97.0349 88.5511 97.0349 93.3115C97.0349 98.0719 100.895 101.932 105.656 101.932C110.416 101.932 114.277 98.0719 114.277 93.3115Z" fill="#797979"/>
<path d="M38.4132 96.7597C36.5098 96.7597 34.9648 95.2149 34.9648 93.3114C34.9648 91.4078 36.5096 89.863 38.4132 89.863C40.3167 89.863 41.8615 91.4078 41.8615 93.3114C41.8615 95.2149 40.3167 96.7597 38.4132 96.7597Z" fill="#C0C0C0"/>
<path d="M105.655 96.7597C103.752 96.7597 102.207 95.2149 102.207 93.3114C102.207 91.4078 103.752 89.863 105.655 89.863C107.559 89.863 109.104 91.4078 109.104 93.3114C109.104 95.2149 107.559 96.7597 105.655 96.7597Z" fill="#C0C0C0"/>
<path d="M16 69.173H40.1383V45.0349H16V69.173Z" fill="#C69666"/>
<path d="M62.5512 22.6208C62.5512 17.8604 58.6908 14 53.9304 14C49.17 14 45.3096 17.8604 45.3096 22.6208C45.3096 27.3813 49.17 31.2417 53.9304 31.2417C58.6908 31.2417 62.5512 27.3813 62.5512 22.6208Z" fill="#337FAA"/>
<path d="M98.7587 50.2075H95.3104L91.8621 48.4834V41.5867L95.3104 39.8625H98.7587V50.2075Z" fill="#F89954"/>
<path d="M72.1895 62.0831C71.5843 60.1469 69.7912 58.8279 67.7618 58.8279H67.7239H59.103L59.1013 50.207H74.436C76.1532 50.207 77.7464 49.0328 78.0222 47.3381C78.3723 45.1778 76.7152 43.3104 74.6203 43.3104H62.5512V37.2758C62.5512 33.9429 59.8495 31.2412 56.5166 31.2412H53.0683C49.7354 31.2412 47.0337 33.9429 47.0337 37.2758V63.1383C47.0337 66.4712 49.7354 69.1728 53.0683 69.1728H65.9995L71.172 86.4145H79.7928L72.1895 62.0831Z" fill="#48A0DC"/>
<path d="M113.476 76.655C111.107 73.9601 107.546 72.6221 103.958 72.6221H102.207C101.132 67.2428 97.4133 62.7721 92.3203 60.7358L91.8618 60.553V41.5872H74.6201V43.3113C76.5253 43.3113 78.0684 44.8545 78.0684 46.7597C78.0684 48.663 76.5253 50.208 74.6201 50.208V51.9321H84.9651V72.6221V86.4155H57.3783L59.7368 81.0653C60.4574 78.8997 60.8264 76.6343 60.8264 74.3533C60.8282 71.4964 58.5107 69.1738 55.6539 69.1738H22.8952C20.0383 69.1738 17.7227 71.4892 17.7227 74.3463V76.4859C17.7227 77.3653 18.2227 78.1272 18.9555 78.6152C21.1676 80.0876 21.8435 83.0325 20.4951 85.3221L18.2968 89.0583C17.2571 90.3601 17.6795 92.2895 19.1711 93.0342C19.5348 93.2169 19.9348 93.3117 20.3417 93.3117H24.6193C24.6193 85.7048 30.8073 79.5184 38.4126 79.5184C46.018 79.5184 52.206 85.7048 52.206 93.3117H91.8616C91.8616 85.7064 98.0513 79.5184 105.655 79.5184C111.798 79.5184 113.764 80.7306 116 82.9667C116 80.5861 115.036 78.431 113.476 76.655Z" fill="#FFD479"/>
<path d="M24.6206 51.9316H31.5173V45.0349H24.6206V51.9316Z" fill="#E8D5B2"/>
<path d="M59.1031 51.9317C56.253 51.9317 53.9324 49.6127 53.9324 46.761V41.5867C53.9324 40.635 54.7031 39.8625 55.6565 39.8625C56.61 39.8625 57.3807 40.635 57.3807 41.5867V46.761C57.3807 47.7111 58.1532 48.4834 59.1031 48.4834C60.0566 48.4834 60.8272 49.2559 60.8272 50.2075C60.8272 51.1592 60.0566 51.9317 59.1031 51.9317Z" fill="#337FAA"/>
</svg>
