<svg width="129" height="129" viewBox="0 0 129 129" fill="none" xmlns="http://www.w3.org/2000/svg">
<g clip-path="url(#clip0_2793_13064)">
<path d="M64.5 129C100.122 129 129 100.122 129 64.5C129 28.8776 100.122 0 64.5 0C28.8776 0 0 28.8776 0 64.5C0 100.122 28.8776 129 64.5 129Z" fill="#EBD1B2"/>
<path d="M27.5015 117.319C37.9637 124.683 50.7367 129 64.5001 129C78.2635 129 91.0111 124.683 101.499 117.319H27.5015Z" fill="#F27875"/>
<path d="M94.9215 43.8295L103.479 56.9326H73.4131V30.7263H103.479L94.9215 43.8295Z" fill="#82D0D8"/>
<path d="M80.7519 25.2415H53.3267V51.4478H80.7519V25.2415Z" fill="#98DEEA"/>
<path d="M80.7519 51.4478L73.4131 56.9328V51.4478H80.7519Z" fill="#5D6972"/>
<path d="M53.3269 21.8386H51.1938V111.885H53.3269V21.8386Z" fill="#5D6972"/>
<path d="M52.2601 23.54C53.915 23.54 55.2566 22.1985 55.2566 20.5436C55.2566 18.8887 53.915 17.5471 52.2601 17.5471C50.6052 17.5471 49.2637 18.8887 49.2637 20.5436C49.2637 22.1985 50.6052 23.54 52.2601 23.54Z" fill="#7A838B"/>
<path d="M61.2243 111.885H43.2964V114.602H61.2243V111.885Z" fill="#7A838B"/>
<path d="M66.2519 114.602H38.2173V117.319H66.2519V114.602Z" fill="#5D6972"/>
</g>
<defs>
<clipPath id="clip0_2793_13064">
<rect width="129" height="129" fill="white"/>
</clipPath>
</defs>
</svg>
