<svg width="130" height="130" viewBox="0 0 130 130" fill="none" xmlns="http://www.w3.org/2000/svg">
<g clip-path="url(#clip0_2793_12991)">
<path d="M130 65C130 29.1072 100.893 0 65 0C29.1072 0 0 29.1072 0 65C0 100.893 29.1072 130 65 130C100.893 130 130 100.893 130 65Z" fill="#E8F9F9"/>
<path d="M64.9215 87.3479C44.6958 87.3479 28.4786 93.1379 26.566 100.264C25.7015 103.46 24.7321 109.486 23.9199 115.329C35.1069 124.472 49.4379 129.974 65.0263 129.974C80.6148 129.974 94.9195 124.472 106.133 115.329C105.294 109.486 104.325 103.434 103.487 100.264C101.522 93.1379 85.1211 87.3479 64.9215 87.3479Z" fill="#FF938D"/>
<path d="M52.0839 88.1599C52.0839 88.1599 47.0537 99.6875 64.9215 99.6875C82.7892 99.6875 77.9424 88.1599 77.9424 88.1599L65 86.6404L52.0839 88.1599Z" fill="#D0EAEF"/>
<path d="M75.1915 73.9077H54.8086C57.9787 83.4966 55.0706 87.8718 55.0706 87.8718L62.1181 91.2515H67.882L74.9295 87.8718C74.9295 87.8718 72.0214 83.4966 75.1915 73.9077Z" fill="#F9B995"/>
<path d="M85.907 45.9009C85.907 21.6929 76.554 16.1387 65.0002 16.1387C53.4725 16.1387 44.0933 21.6929 44.0933 45.9009C44.0933 54.1012 45.5604 60.52 47.7611 65.4716C52.5818 76.3704 60.9393 80.1693 65.0002 80.1693C69.061 80.1693 77.3923 76.3704 82.2392 65.4716C84.4399 60.52 85.907 54.1012 85.907 45.9009Z" fill="#FFD3B6"/>
<path d="M65.0002 16.1387C52.2412 16.1387 43.3335 22.8456 43.3335 47.0536C43.3335 47.0536 65.0002 35.0282 65.0002 26.2253V16.1387Z" fill="#5D6972"/>
<path d="M64.9741 16.1387C77.7331 16.1387 86.667 22.8456 86.667 47.0536C86.667 47.0536 65.0003 35.0282 65.0003 26.2253L64.9741 16.1387Z" fill="#5D6972"/>
<path d="M44.4863 20.9856C44.4863 23.0815 43.4907 39.7442 43.4907 39.7442H86.5883C86.5883 39.7442 85.5927 23.0815 85.5927 20.9856C85.5927 19.9376 76.9208 15.3528 65.236 15.3528C53.4464 15.3528 44.4863 19.9376 44.4863 20.9856Z" fill="#FF938D"/>
<path d="M55.0707 87.8719C55.0707 87.8719 51.1932 97.487 64.9215 97.487C78.6499 97.487 74.9296 87.8719 74.9296 87.8719L64.9215 83.0513L55.0707 87.8719Z" fill="#F9B995"/>
<path d="M42.102 54.4155C43.2285 61.0177 44.6171 61.3059 46.6344 60.9653L44.5123 46.6082C42.495 46.9749 40.9754 47.8395 42.102 54.4155Z" fill="#FFD3B6"/>
<path d="M85.5401 46.6343L83.418 60.9914C85.4091 61.332 86.8239 61.0176 87.9504 54.4416C89.0508 47.8394 87.5312 46.9749 85.5401 46.6343Z" fill="#FFD3B6"/>
<path d="M45.7959 47.9706C45.6911 47.2633 45.6649 46.6083 45.6911 46.1105C45.7173 45.3507 45.8221 44.8792 45.8221 44.8792L43.3594 45.7961C43.3594 46.1629 43.3594 46.5559 43.3594 46.9227C43.3594 46.9227 43.6214 46.8441 44.093 46.6869C44.0668 46.6869 44.0406 46.7131 44.0144 46.7131C44.3549 47.2895 44.7741 48.1802 45.1933 49.464C45.1671 49.464 46.1365 50.1714 45.7959 47.9706Z" fill="#5D6972"/>
<path d="M84.3347 46.1105C84.3609 46.6345 84.3347 47.2633 84.2299 47.9706C83.8893 50.1714 84.8325 49.464 84.8325 49.464C85.2255 48.154 85.6709 47.2895 85.9853 46.7131C86.4044 46.8703 86.6402 46.9227 86.6402 46.9227C86.6402 46.5297 86.6402 46.1629 86.6402 45.7961L84.2037 44.8792C84.2037 44.8792 84.3085 45.3507 84.3347 46.1105Z" fill="#5D6972"/>
<path d="M82.3174 53.7866L64.9997 51.1143L47.6821 53.7866V65.2618H47.7083C47.7345 65.3142 47.7345 65.3928 47.7607 65.4714C52.5814 76.3702 60.9389 80.1691 64.9997 80.1691C69.0606 80.1691 77.3919 76.3702 82.2388 65.4714C82.265 65.3928 82.2912 65.3404 82.2912 65.2618H82.3174V53.7866Z" fill="#98DEEA"/>
<path d="M81.5576 54.9656C81.479 54.9656 81.4004 54.9394 81.348 54.9132C81.0861 54.7823 80.9813 54.4679 81.0861 54.2059L85.0159 45.7436C85.1469 45.4816 85.4613 45.3768 85.7233 45.4816C85.9853 45.6126 86.0901 45.9269 85.9853 46.1889L82.0554 54.6513C81.9506 54.8346 81.7672 54.9656 81.5576 54.9656Z" fill="#98DEEA"/>
<path d="M48.4421 54.9656C48.2325 54.9656 48.0491 54.8608 47.9705 54.6513L44.0406 46.1889C43.9097 45.927 44.0406 45.6126 44.3026 45.4816C44.5646 45.3506 44.879 45.4816 45.01 45.7436L48.9399 54.2059C49.0709 54.4679 48.9399 54.7823 48.6779 54.9132C48.5731 54.9394 48.4945 54.9656 48.4421 54.9656Z" fill="#98DEEA"/>
</g>
<defs>
<clipPath id="clip0_2793_12991">
<rect width="130" height="130" fill="white"/>
</clipPath>
</defs>
</svg>
