<svg width="130" height="130" viewBox="0 0 130 130" fill="none" xmlns="http://www.w3.org/2000/svg">
<g clip-path="url(#clip0_2793_13027)">
<path d="M130 65C130 29.1072 100.893 0 65 0C29.1072 0 0 29.1072 0 65C0 100.893 29.1072 130 65 130C100.893 130 130 100.893 130 65Z" fill="#FFD6DE"/>
<path d="M64.9999 130C83.3917 130 100.002 122.35 111.818 110.089C111.084 106.133 110.351 102.517 109.643 100.29C107.416 93.1378 88.3696 87.374 64.8951 87.374C41.4207 87.374 22.5836 93.1378 20.3567 100.29C19.6755 102.517 18.9157 106.106 18.1821 110.089C29.9979 122.35 46.6082 130 64.9999 130Z" fill="#E2A379"/>
<path d="M109.643 100.29C107.888 94.6837 95.7837 89.9155 79.3045 88.1339L64.9998 112.106L50.6689 88.0815C34.1634 89.8631 22.0856 94.6313 20.3303 100.264C19.6491 102.491 18.8893 106.08 18.1558 110.063C29.9716 122.35 46.5818 129.974 64.9736 129.974C83.3654 129.974 99.9756 122.324 111.791 110.063C111.11 106.107 110.35 102.491 109.643 100.29Z" fill="#98DEEA"/>
<path d="M53.2628 113.599H36.7573V116.35H53.2628V113.599Z" fill="#D2FAFC"/>
<path d="M56.2755 81.7412C47.132 83.9943 40.6084 89.6533 40.6084 96.2555V118.603H41.9184V96.2555C41.9184 90.3083 47.8656 85.1995 56.2493 83.0774C56.3017 82.6582 56.3017 82.2128 56.2755 81.7412Z" fill="#3F3F3F"/>
<path d="M73.7241 81.7412C73.7241 82.2128 73.7241 82.6582 73.7503 83.0774C82.1602 85.1995 88.0812 90.3083 88.0812 96.2555V100.369H89.3912V96.2817C89.3912 89.6533 82.8676 83.9943 73.7241 81.7412Z" fill="#3F3F3F"/>
<path d="M41.2898 120.699C43.7062 120.699 45.6651 118.74 45.6651 116.324C45.6651 113.908 43.7062 111.949 41.2898 111.949C38.8734 111.949 36.9146 113.908 36.9146 116.324C36.9146 118.74 38.8734 120.699 41.2898 120.699Z" fill="#5E5E5E"/>
<path d="M41.2899 120.149C43.4024 120.149 45.115 118.437 45.115 116.324C45.115 114.212 43.4024 112.499 41.2899 112.499C39.1774 112.499 37.4648 114.212 37.4648 116.324C37.4648 118.437 39.1774 120.149 41.2899 120.149Z" fill="#828282"/>
<path d="M41.2898 119.022C42.7802 119.022 43.9883 117.814 43.9883 116.324C43.9883 114.834 42.7802 113.625 41.2898 113.625C39.7995 113.625 38.5913 114.834 38.5913 116.324C38.5913 117.814 39.7995 119.022 41.2898 119.022Z" fill="#5E5E5E"/>
<path d="M41.2898 118.263C42.3605 118.263 43.2285 117.395 43.2285 116.324C43.2285 115.253 42.3605 114.385 41.2898 114.385C40.2191 114.385 39.3511 115.253 39.3511 116.324C39.3511 117.395 40.2191 118.263 41.2898 118.263Z" fill="#828282"/>
<path d="M91.5398 120.332C90.0202 120.332 88.0029 120.306 86.2737 119.389C84.0992 118.236 82.9727 115.957 82.9727 112.656V106.997H84.0206V112.656C84.0206 115.59 84.9114 117.503 86.7453 118.472C88.3173 119.311 90.256 119.311 91.697 119.311H91.8542V120.359H91.697C91.6446 120.332 91.5922 120.332 91.5398 120.332Z" fill="#69696B"/>
<path d="M92.9805 119.808C92.9805 120.411 92.4827 120.909 91.8802 120.909C91.2776 120.909 90.7798 120.411 90.7798 119.808C90.7798 119.206 91.2776 118.708 91.8802 118.708C92.4565 118.682 92.9805 119.18 92.9805 119.808Z" fill="#69696B"/>
<path d="M85.8808 120.306C85.8284 120.306 85.776 120.306 85.7236 120.306H85.5664V119.258H85.7236C87.1384 119.258 89.1033 119.258 90.6752 118.42C92.5092 117.451 93.3999 115.538 93.3999 112.604V106.945H94.4479V112.604C94.4479 115.931 93.3475 118.184 91.1468 119.337C89.4177 120.28 87.4003 120.306 85.8808 120.306Z" fill="#8D8D8E"/>
<path d="M84.4658 119.783C84.4658 120.385 84.9636 120.883 85.5662 120.883C86.1688 120.883 86.6665 120.385 86.6665 119.783C86.6665 119.18 86.1688 118.682 85.5662 118.682C84.9636 118.656 84.4658 119.154 84.4658 119.783Z" fill="#8D8D8E"/>
<path d="M93.924 107.626C93.5572 107.626 93.269 107.338 93.269 106.971V105.242C93.269 102.727 91.2255 100.683 88.7104 100.683C86.1953 100.683 84.1518 102.727 84.1518 105.242V106.971C84.1518 107.338 83.8636 107.626 83.4968 107.626C83.13 107.626 82.8418 107.338 82.8418 106.971V105.242C82.8418 102.019 85.4617 99.3733 88.7104 99.3733C91.9591 99.3733 94.579 101.993 94.579 105.242V106.971C94.579 107.312 94.2908 107.626 93.924 107.626Z" fill="#3F3F3F"/>
<path d="M75.1915 73.9077H54.8086C57.9787 83.4966 55.0706 87.8718 55.0706 87.8718H74.9295C74.9295 87.8718 72.0214 83.4966 75.1915 73.9077Z" fill="#E2A379"/>
<path d="M88.1338 45.9009C88.1338 21.6929 77.7852 16.1387 65 16.1387C52.2411 16.1387 41.8662 21.6929 41.8662 45.9009C41.8662 54.1012 43.4906 60.52 45.9271 65.4716C51.2717 76.3704 60.52 80.1693 65 80.1693C69.4801 80.1693 78.7284 76.3704 84.073 65.4716C86.5095 60.52 88.1338 54.1012 88.1338 45.9009Z" fill="#F4B382"/>
<path d="M71.4712 68.4321C71.4712 69.0609 68.5893 70.7376 65 70.7376C61.4107 70.7376 58.5288 69.0347 58.5288 68.4321C58.5288 68.0391 60.5723 66.9649 61.9609 66.7553C62.8255 66.6244 65 67.4627 65 67.4627C65 67.4627 67.1483 66.6506 67.9867 66.7553C69.4014 66.9387 71.4712 68.4321 71.4712 68.4321Z" fill="#E5A173"/>
<path d="M71.4712 68.4321C71.4712 69.0609 68.5893 71.445 65 71.445C61.4107 71.445 58.5288 69.0609 58.5288 68.4321C58.5288 68.4321 61.1487 68.7465 65 68.7465C68.8513 68.7465 71.4712 68.4321 71.4712 68.4321Z" fill="#D89364"/>
<path d="M44.6434 62.5373C42.4427 62.9041 40.8708 62.5635 39.6394 55.2802C38.4081 47.9968 40.0848 47.0274 42.2855 46.6606L44.6434 62.5373Z" fill="#F4B382"/>
<path d="M85.3833 62.5373C87.584 62.9041 89.1298 62.5635 90.3873 55.2802C91.6449 47.9968 89.9419 47.0274 87.7412 46.6606L85.3833 62.5373Z" fill="#F4B382"/>
<path d="M88.1338 45.9008C88.1338 21.6928 80.1955 15.4836 65 15.4836C49.8045 15.4836 41.8662 21.6928 41.8662 45.9008C41.8662 45.9008 46.1367 36.9669 49.2806 31.9891C52.4245 27.0113 59.2362 27.1946 59.2362 27.1946H72.0738C72.0738 27.1946 79.1476 27.2732 81.1125 31.9891L88.1338 45.9008Z" fill="#141414"/>
<path d="M43.3597 36.8882C42.2594 39.7439 41.8926 43.2808 41.8926 46.7129C41.8926 46.7129 44.1981 46.2151 44.1981 47.3941L44.9317 54.625L45.9534 54.1272C45.901 48.1014 47.2372 32.251 47.2372 32.251L43.3597 36.8882Z" fill="#141414"/>
<path d="M86.6665 36.8883C87.7669 39.744 88.1337 43.2809 88.1337 46.713C88.1337 46.713 85.8282 46.2152 85.8282 47.3942L85.0946 54.6251L84.0728 54.1273C84.1252 48.1015 82.7891 32.7227 82.7891 32.7227L86.6665 36.8883Z" fill="#141414"/>
</g>
<defs>
<clipPath id="clip0_2793_13027">
<rect width="130" height="130" fill="white"/>
</clipPath>
</defs>
</svg>
