<svg width="131" height="131" viewBox="0 0 131 131" fill="none" xmlns="http://www.w3.org/2000/svg">
<g clip-path="url(#clip0_2793_13080)">
<path d="M132 67C132 31.1072 102.893 2 67 2C31.1072 2 2 31.1072 2 67C2 102.893 31.1072 132 67 132C102.893 132 132 102.893 132 67Z" fill="#E8F9F9"/>
<path d="M91.7515 64.5711C94.8746 62.6647 94.6775 60.3772 94.5532 59.0048C94.3977 57.1735 93.9138 55.3853 93.1246 53.7255C92.1204 51.4352 90.2237 46.7684 89.4318 38.2189C89.4135 36.4049 89.2756 34.5942 89.0192 32.7983C88.9096 31.96 88.8044 31.2521 88.7312 30.7888C87.8741 25.2472 83.9904 19.1788 79.5866 17.129C74.1702 13.7398 69.5949 13.3748 65.1748 14.1795C58.9024 15.3197 54.1435 18.4226 51.2641 22.8754C49.6016 25.4463 48.6269 28.9941 48.4794 32.0616C48.4006 35.6054 48.9266 39.1367 50.0347 42.5037C51.4261 49.1131 50.2637 56.3929 51.3852 61.8034C51.7367 63.5235 52.8426 65.5143 55.4375 66.8919L91.7515 64.5711Z" fill="#A98A75"/>
<path d="M81.0336 18.9725C83.8395 21.075 85.8782 24.3223 87.0462 27.59C87.6117 29.2802 87.9938 31.0263 88.1861 32.7982C88.3135 33.7729 88.4231 34.7508 88.5001 35.7311C88.5786 36.7259 88.5484 37.7295 88.6469 38.7205C88.9613 42.223 89.5974 45.6892 90.5471 49.0751C90.858 50.1427 91.2131 51.1961 91.6124 52.2353C92.0028 53.2447 92.473 54.2222 92.8516 55.2358C93.4898 56.8408 93.8022 58.5568 93.7704 60.2837C93.7459 60.8578 93.5917 61.4188 93.3193 61.9247C92.8322 62.7259 92.1482 63.3893 91.3324 63.8516C90.4239 64.4169 91.2592 65.8583 92.1732 65.29C93.6417 64.3763 94.9319 63.0761 95.3039 61.3317C95.5943 59.97 95.3937 58.4862 95.1304 57.1406C94.9281 56.1438 94.6291 55.1692 94.2375 54.2306C94.0852 53.8575 93.9231 53.4887 93.7625 53.1202C93.7278 53.0379 93.6931 52.9557 93.6563 52.8734C93.6414 52.8387 93.6268 52.804 93.6122 52.7693C93.557 52.6403 93.6747 52.9213 93.5831 52.6999C93.1955 51.763 92.8405 50.8108 92.5264 49.8451C91.5147 46.6442 90.8207 43.3514 90.4545 40.0145C90.2116 37.9398 90.2157 35.8522 89.9739 33.774C89.8069 31.8454 89.4671 29.9357 88.9585 28.0678C87.7211 24.003 85.3008 20.1006 81.8762 17.5342C81.6851 17.4242 81.4584 17.3939 81.2451 17.4498C81.0318 17.5057 80.8492 17.6433 80.7366 17.8329C80.6304 18.0249 80.6021 18.2503 80.6578 18.4625C80.7134 18.6747 80.8486 18.8574 81.0354 18.9725H81.0336Z" fill="#211715"/>
<path d="M82.1077 38.2453L79.8466 38.0212C77.6209 37.1693 74.9434 34.0886 73.8677 32.2439C72.9308 30.614 72.089 28.9314 71.3464 27.2043C68.8594 30.6709 64.9167 33.5424 60.5396 35.3739C60.4333 35.4192 60.3177 35.4381 60.2025 35.429C60.0873 35.4199 59.9761 35.3832 59.8782 35.3218C59.7803 35.2605 59.6987 35.1764 59.6403 35.0767C59.582 34.977 59.5486 34.8646 59.543 34.7493C59.4987 33.8202 59.5686 32.8891 59.7512 31.977C59.758 31.9434 59.7538 31.9084 59.739 31.8774C59.7243 31.8464 59.6999 31.821 59.6695 31.8051C59.6391 31.7891 59.6044 31.7835 59.5705 31.7889C59.5366 31.7944 59.5054 31.8107 59.4816 31.8355C56.8298 34.6073 53.9548 37.5048 51.2361 39.9005C50.939 40.1639 50.5768 40.4502 50.3495 40.648L49.8022 41.1227L49.8369 41.2573C50.4997 43.8654 51.0459 46.4898 51.6022 48.8973C51.6433 49.0762 51.686 49.2537 51.7302 49.43C52.7185 53.3841 54.4479 56.8351 57.5599 58.822C60.1277 60.4616 62.7032 61.2375 65.5 61.1688C65.6826 62.351 64.5062 63.1922 63.5526 63.6752C62.504 64.3227 60.7023 65.2103 59.2762 65.9571C60.7256 67.7268 62.7233 68.7373 64.8501 69.2911C66.9795 69.8094 69.1896 69.9072 71.3564 69.5791C77.3339 68.7887 83.266 66.0397 86.963 60.9533C84.9135 60.4949 81.7211 60.4255 80.8106 58.8765C80.4956 58.2944 80.2433 57.6806 80.0579 57.0453L79.2622 54.6382C80.314 53.3388 81.2231 51.9302 81.9741 50.4366C81.9741 50.4366 82.5987 49.1669 82.8416 48.4549C82.8416 48.4549 82.9044 48.2706 82.9745 48.0694C83.8579 47.9886 84.7059 47.6834 85.4382 47.1828C86.5263 46.2887 87.3229 45.0902 87.726 43.7408C88.2243 42.3459 88.2552 40.0973 87.5178 38.8731C87.2704 38.4639 86.6933 37.7668 85.34 37.722C84.6495 37.6913 83.9734 37.9261 83.4506 38.3782L82.1077 38.2453Z" fill="white"/>
<path d="M48.9582 41.5512C49.9618 45.4338 49.959 49.4667 49.984 53.4496C49.9965 55.3012 50.0076 57.157 50.1634 59.0034C50.2956 60.5674 50.4694 62.1744 51.1131 63.621C51.9408 65.3438 53.3125 66.7461 55.0166 67.6116C55.9598 68.1213 56.8016 66.6837 55.8574 66.1736C54.4703 65.4772 53.3426 64.355 52.6393 62.9714C52.0646 61.776 51.9335 60.2728 51.8235 58.9365C51.515 55.1954 51.7364 51.4321 51.5167 47.6866C51.4132 45.4687 51.0941 43.2662 50.5642 41.1101C50.2963 40.0733 48.6904 40.5129 48.9582 41.5529V41.5512Z" fill="#211715"/>
<path d="M63.5717 54.3963C63.714 54.2958 63.8638 54.2062 64.0197 54.1284C64.0585 54.1087 64.0977 54.0899 64.1376 54.0715C64.1546 54.0635 64.2882 54.008 64.1914 54.0465C64.0818 54.0906 64.282 54.0136 64.2823 54.0118C64.3261 53.9959 64.3698 53.9803 64.4139 53.9653C64.6055 53.9006 64.8003 53.8458 64.9975 53.8012C65.0919 53.7797 65.1866 53.7605 65.2817 53.7436C65.3293 53.7353 65.3771 53.729 65.4247 53.72C65.5555 53.6954 65.2252 53.7394 65.4535 53.7165C65.6412 53.6978 65.8289 53.6839 66.0177 53.6818C66.1194 53.6818 66.2214 53.6836 66.3231 53.6898C66.3671 53.6926 66.4109 53.6961 66.4546 53.7002C66.4778 53.7023 66.6208 53.7245 66.5042 53.7044C66.3737 53.6818 66.5715 53.7183 66.5792 53.72C66.6239 53.729 66.6687 53.7387 66.7128 53.7498C66.8169 53.7755 66.9189 53.8071 67.0209 53.8397C67.2655 53.9185 67.5067 54.007 67.7534 54.0826C67.9664 54.1391 68.193 54.1098 68.3846 54.001C68.5762 53.8922 68.7175 53.7125 68.7781 53.5007C68.8323 53.2879 68.802 53.0623 68.6935 52.8713C68.585 52.6803 68.4068 52.5388 68.1962 52.4763C67.7178 52.3015 67.2261 52.1654 66.7259 52.0693C66.2802 52.0087 65.8286 52.0054 65.382 52.0596C64.4381 52.137 63.5277 52.4453 62.7309 52.9573C62.5438 53.072 62.4082 53.2546 62.3525 53.4669C62.2969 53.6791 62.3254 53.9047 62.4321 54.0965C62.5454 54.2853 62.728 54.4223 62.941 54.4782C63.154 54.534 63.3804 54.5043 63.5717 54.3953V54.3963Z" fill="#211715"/>
<path d="M67.3942 43.4632C67.0587 42.6273 67.0667 40.6393 68.6782 40.3363C70.8275 40.1708 71.1402 42.5475 70.5103 43.7294C69.9947 44.6971 68.2853 45.2253 67.3942 43.4632Z" fill="#211715"/>
<path d="M54.6731 44.9235C54.3573 44.0824 54.3452 42.0906 55.8182 41.8029C57.7871 41.6582 58.0973 44.0428 57.5317 45.2213C57.0699 46.1859 55.5076 46.6967 54.6731 44.9235Z" fill="#211715"/>
<path d="M61.5744 46.0604C61.3232 46.6242 61.0824 47.1965 60.8804 47.7805C60.8029 47.9802 60.7652 48.1932 60.7694 48.4075C60.7744 48.6032 60.8279 48.7946 60.9252 48.9644C61.0359 49.1325 61.1818 49.2746 61.3527 49.3808C61.5892 49.5347 61.861 49.6258 62.1425 49.6456C62.2542 49.6574 62.3645 49.6456 62.4763 49.6505C62.6966 49.6487 62.9074 49.5603 63.0632 49.4045C63.2189 49.2488 63.3073 49.038 63.3091 48.8177C63.3048 48.5981 63.2157 48.3888 63.0604 48.2335C62.9052 48.0782 62.6958 47.9891 62.4763 47.9848C62.3645 47.9817 62.2538 47.9932 62.1425 47.98L62.3638 48.0095C62.2936 47.9989 62.225 47.9798 62.1595 47.9526L62.3583 48.0362C62.2877 48.0033 62.2207 47.9634 62.1581 47.9172L62.3267 48.0473C62.2986 48.0268 62.2727 48.0036 62.2493 47.9779L62.3795 48.1466C62.3677 48.1316 62.3578 48.1153 62.35 48.098L62.4339 48.2968C62.4228 48.2703 62.4145 48.2428 62.409 48.2146L62.4384 48.436C62.4322 48.385 62.4322 48.3335 62.4384 48.2826L62.4086 48.504C62.4579 48.2733 62.5309 48.0484 62.6265 47.8329C62.7199 47.59 62.8188 47.3471 62.9201 47.1073L62.8361 47.3061C62.8937 47.1704 62.9517 47.0347 63.0117 46.9001C63.1177 46.7039 63.1476 46.4754 63.0957 46.2585C63.0365 46.05 62.9 45.872 62.714 45.7609C62.6178 45.7051 62.5116 45.669 62.4014 45.6546C62.2912 45.6401 62.1792 45.6477 62.072 45.6769C61.9678 45.7041 61.8701 45.7519 61.7846 45.8175C61.6992 45.883 61.6277 45.965 61.5744 46.0586V46.0604Z" fill="#211715"/>
<path d="M78.89 56.3239C80.9776 54.1241 82.5952 51.522 83.6439 48.6763C83.673 48.5708 83.681 48.4607 83.6675 48.3521C83.654 48.2435 83.6193 48.1387 83.5653 48.0436C83.5112 47.9484 83.439 47.8649 83.3527 47.7976C83.2664 47.7304 83.1677 47.6809 83.0622 47.6518C82.9567 47.6227 82.8466 47.6147 82.738 47.6282C82.6294 47.6417 82.5246 47.6764 82.4294 47.7305C82.3343 47.7845 82.2507 47.8567 82.1835 47.943C82.1163 48.0294 82.0667 48.1281 82.0377 48.2335C81.6597 49.2394 81.1946 50.2103 80.6476 51.1352C79.8271 52.5813 78.8415 53.9274 77.7105 55.1462C76.9818 55.9301 78.1561 57.1106 78.89 56.3239Z" fill="#211715"/>
<path d="M78.3371 15.4453C75.1072 13.683 71.4541 12.8451 67.7791 13.0236C64.406 13.2328 61.1118 14.1326 58.1008 15.6674C55.3749 17.0622 53.0082 19.068 51.1854 21.5283C49.1033 24.3501 48.0099 27.8375 47.6987 31.3083C47.5635 33.1345 47.6305 34.9701 47.8985 36.7816C48.1565 38.8479 48.6183 40.8836 49.2772 42.859C49.6224 43.8674 51.2319 43.4343 50.8835 42.4162C48.8139 36.3669 48.3684 29.0173 51.9099 23.4087C55.0746 18.3969 60.7585 15.5098 66.5354 14.803C68.263 14.5745 70.0147 14.5988 71.7353 14.8752C73.7487 15.2383 75.6926 15.9157 77.4956 16.8826C78.4439 17.3802 79.2868 15.9433 78.3364 15.4446L78.3371 15.4453Z" fill="#211715"/>
<path d="M74.6092 57.3012C72.5706 58.606 70.3172 59.5399 67.9533 60.0596C65.6192 60.5487 63.1958 60.389 60.9462 59.5977C58.8379 58.8754 56.9681 57.5886 55.5402 55.8775C54.189 54.2018 53.3506 52.1375 52.7666 50.0853C51.9196 47.1087 51.3991 44.0374 50.6395 41.0368C50.3758 39.9972 48.7698 40.4368 49.0335 41.4778C49.7487 44.3032 50.2737 47.177 51.0149 49.9951C51.6128 52.2669 52.4918 54.537 53.8909 56.4417C56.9154 60.5589 62.2402 62.5278 67.2409 61.855C70.1932 61.4573 72.921 60.2834 75.4496 58.7389C76.3633 58.1809 75.5273 56.7398 74.6092 57.3006V57.3012Z" fill="#211715"/>
<path d="M84.0401 38.9668C84.4076 38.6731 84.8711 38.5262 85.3407 38.5546C85.592 38.5587 85.8408 38.6056 86.0764 38.6934C86.1552 38.7241 86.2313 38.7614 86.304 38.8048C86.3599 38.8356 86.4136 38.8704 86.4647 38.9089C86.5264 38.9599 86.5788 39.0196 86.6382 39.0737C86.6649 39.0987 86.6881 39.1289 86.7121 39.1563C86.608 39.039 86.6836 39.1153 86.7051 39.1469C86.8017 39.2827 86.8844 39.4279 86.9518 39.5803C87.1337 40.0486 87.2338 40.5446 87.2478 41.0468C87.3478 42.9921 86.5847 45.3003 84.968 46.5027C84.1744 47.0926 82.9596 47.4396 82.0043 47.1273C80.983 46.7935 80.5468 48.4012 81.5615 48.7336C82.8801 49.1642 84.4565 48.7725 85.6148 48.0677C86.8158 47.3362 87.6622 46.0839 88.2018 44.8118C88.7424 43.5878 88.9837 42.2527 88.9058 40.917C88.8229 39.7292 88.5116 38.4324 87.5442 37.6492C86.8655 37.1342 86.0309 36.867 85.1793 36.8923C84.3277 36.9175 83.5104 37.2336 82.8634 37.788C82.709 37.9451 82.6225 38.1566 82.6225 38.3769C82.6225 38.5972 82.709 38.8087 82.8634 38.9658C83.0217 39.1179 83.2328 39.2029 83.4523 39.2029C83.6719 39.2029 83.8829 39.1179 84.0412 38.9658L84.0401 38.9668Z" fill="#211715"/>
<path d="M70.6701 27.7255C71.6202 29.9464 72.6935 32.2297 74.1696 34.1542C75.6055 36.028 77.3881 37.9389 79.6252 38.8245C79.8382 38.8816 80.0651 38.8526 80.2568 38.7437C80.4485 38.6347 80.5896 38.4547 80.6496 38.2426C80.7031 38.0298 80.6725 37.8046 80.5641 37.6138C80.4558 37.423 80.2781 37.2813 80.068 37.2182C79.1574 36.7991 78.3291 36.2205 77.6223 35.5096C76.8056 34.754 76.0601 33.925 75.3952 33.033C74.0239 31.181 73.011 28.9949 72.1084 26.8858C71.9961 26.696 71.8134 26.5582 71.6 26.5022C71.3867 26.4463 71.1599 26.4768 70.9689 26.587C70.7825 26.7024 70.6475 26.8849 70.5919 27.097C70.5363 27.309 70.5643 27.5343 70.6701 27.7262V27.7255Z" fill="#211715"/>
<path d="M70.6235 26.7899C68.4003 29.8623 65.2255 32.1927 61.853 33.8639C61.4153 34.0809 60.9725 34.2869 60.5247 34.4819C60.4539 34.5063 60.3852 34.536 60.3189 34.5708C60.1541 34.6853 60.2037 34.5135 60.3418 34.627C60.3463 34.6308 60.3418 34.6384 60.3487 34.6415C60.3821 34.8049 60.3895 34.7853 60.371 34.5829C60.3689 34.4996 60.3676 34.4163 60.3671 34.3331C60.3577 33.8133 60.386 33.2935 60.4518 32.7778C60.533 32.1879 60.7596 31.4887 60.1232 31.1083C59.5538 30.7679 59.0693 31.0639 58.6686 31.4817C58.2908 31.875 57.9117 32.2683 57.5314 32.6615C56.7245 33.492 55.9103 34.3152 55.0889 35.1312C53.3677 36.837 51.6022 38.486 49.7606 40.0586C49.6061 40.2157 49.5195 40.4272 49.5195 40.6475C49.5195 40.8678 49.6061 41.0793 49.7606 41.2364C49.9189 41.3885 50.1299 41.4735 50.3495 41.4735C50.569 41.4735 50.78 41.3885 50.9383 41.2364C52.5082 39.8946 54.0297 38.5021 55.5028 37.0588C56.2718 36.3079 57.0327 35.5491 57.7854 34.7824C58.1713 34.3903 58.5557 33.997 58.9385 33.6026C59.1095 33.4259 59.2803 33.249 59.451 33.072C59.6064 32.8678 59.7823 32.6802 59.9761 32.512L59.5555 32.6254H59.6339L59.2137 32.512L59.2831 32.5467L58.9843 32.2479L59.0284 32.3128L58.9149 31.8926C58.8946 32.2178 58.8482 32.5409 58.7761 32.8586C58.7322 33.2389 58.7075 33.621 58.7019 34.0038C58.6904 34.695 58.6807 35.3918 59.2446 35.8824C59.831 36.3918 60.5066 36.2895 61.1625 36.0091C61.7686 35.7495 62.3659 35.4707 62.9544 35.1725C65.2607 34.0129 67.3925 32.5349 69.2872 30.7818C70.312 29.8234 71.2417 28.7681 72.0633 27.6307C72.173 27.4395 72.2031 27.2129 72.1472 26.9997C72.0913 26.7865 71.9539 26.6038 71.7645 26.4911C71.5727 26.3844 71.347 26.356 71.1347 26.4116C70.9224 26.4673 70.7398 26.6028 70.6249 26.7899H70.6235Z" fill="#211715"/>
<path d="M78.4998 54.9834C78.8968 56.1851 79.241 57.4229 79.7411 58.5867C80.0637 59.4395 80.6976 60.1383 81.5149 60.5424C83.1303 61.3228 84.9642 61.3752 86.6916 61.7455C86.9043 61.799 87.1296 61.7685 87.3204 61.6602C87.5112 61.5518 87.6529 61.3741 87.7159 61.1639C87.7724 60.951 87.7431 60.7244 87.6344 60.5328C87.5257 60.3412 87.3461 60.1999 87.1343 60.1392C85.6054 59.8113 83.8597 59.7544 82.4605 59.1537C82.3814 59.119 82.1718 59.0132 82.0514 58.941C81.9446 58.8875 81.8472 58.8172 81.7627 58.7328C81.7082 58.6773 81.652 58.6242 81.6007 58.5655C81.5628 58.5208 81.566 58.527 81.6121 58.5836C81.5899 58.5527 81.5687 58.5208 81.5493 58.4881C81.4273 58.2805 81.3181 58.0655 81.2224 57.8445C80.7769 56.7767 80.4687 55.6375 80.1058 54.5399C79.7709 53.527 78.1625 53.9608 78.4998 54.9827V54.9834Z" fill="#211715"/>
<path d="M64.6668 61.1664C64.7414 61.766 64.3982 62.1644 63.8441 62.5402C63.2614 62.9351 62.6174 63.2689 61.9987 63.6024C60.5971 64.3606 59.1533 65.0435 57.7652 65.8263C56.8315 66.3527 57.6702 67.7924 58.606 67.2646C60.1117 66.4152 61.6815 65.6851 63.1931 64.846C64.578 64.0771 66.567 63.0659 66.331 61.1678C66.3245 60.949 66.2347 60.7409 66.0799 60.5861C65.9251 60.4313 65.717 60.3415 65.4982 60.335C65.2778 60.3363 65.0667 60.4245 64.9109 60.5804C64.755 60.7363 64.6668 60.9473 64.6654 61.1678L64.6668 61.1664Z" fill="#211715"/>
<path d="M68.8414 38.0145C69.5729 38.5288 70.4476 38.7999 71.3416 38.7894C71.562 38.7863 71.7729 38.6995 71.9315 38.5465C72.0484 38.43 72.1281 38.2814 72.1604 38.1196C72.1927 37.9578 72.1762 37.79 72.113 37.6376C72.0498 37.4852 71.9427 37.355 71.8054 37.2635C71.668 37.172 71.5066 37.1234 71.3416 37.1238C71.181 37.127 71.0204 37.1185 70.861 37.0984L71.0824 37.1283C70.7686 37.0857 70.4617 37.0026 70.1694 36.8809L70.3683 36.9649C70.1252 36.8623 69.8949 36.7319 69.6819 36.5762C69.5858 36.5204 69.4796 36.4843 69.3695 36.4699C69.2593 36.4556 69.1474 36.4633 69.0403 36.4926C68.9348 36.5216 68.8361 36.5712 68.7498 36.6384C68.6635 36.7056 68.5913 36.7892 68.5373 36.8843C68.4833 36.9794 68.4485 37.0842 68.4351 37.1928C68.4216 37.3013 68.4296 37.4115 68.4587 37.5169L68.5427 37.7158C68.6149 37.8394 68.7178 37.9423 68.8414 38.0145Z" fill="#211715"/>
<path d="M74.5232 41.8315C74.538 42.6053 74.5988 43.3774 74.7053 44.144C74.8025 44.8192 74.9087 45.6035 75.3886 46.1274C75.6542 46.3895 75.9865 46.5737 76.3494 46.6603C76.7124 46.7469 77.0921 46.7324 77.4474 46.6184C77.8025 46.4988 78.1212 46.2903 78.373 46.0128C78.6249 45.7353 78.8016 45.398 78.8864 45.033C78.9155 44.9275 78.9235 44.8174 78.91 44.7088C78.8965 44.6003 78.8618 44.4955 78.8078 44.4003C78.7537 44.3052 78.6815 44.2217 78.5952 44.1545C78.5089 44.0873 78.4103 44.0377 78.3048 44.0086C78.1994 43.9795 78.0892 43.9715 77.9807 43.985C77.8721 43.9985 77.7673 44.0333 77.6722 44.0873C77.5771 44.1413 77.4935 44.2135 77.4263 44.2998C77.3591 44.3861 77.3095 44.4848 77.2805 44.5902C77.2652 44.6429 77.2478 44.6943 77.2315 44.7467C77.177 44.9219 77.32 44.5892 77.2315 44.7495C77.2058 44.7967 77.177 44.8439 77.1528 44.8917C77.0868 45.0219 77.2371 44.8081 77.1711 44.8758C77.1333 44.9146 77.0941 44.9532 77.057 44.9927C76.9973 45.0555 77.1999 44.9178 77.0681 44.9788C77.0345 44.9991 76.9997 45.0174 76.964 45.0337L77.0559 44.9941C77.0007 45.0061 76.9463 45.0218 76.8932 45.0413C76.7197 45.0895 77.0702 45.0448 76.8887 45.0413H76.7173C76.5635 45.0413 76.8346 45.076 76.7419 45.0413C76.7072 45.0288 76.5299 45.0104 76.6548 45.024C76.7655 45.0358 76.6461 45.0111 76.6052 44.992C76.4508 44.9199 76.7159 45.093 76.5993 44.9858C76.4827 44.8786 76.6732 45.1322 76.6014 44.982C76.5868 44.957 76.5733 44.9313 76.5608 44.9049C76.5344 44.8494 76.5424 44.8702 76.5851 44.9667C76.5332 44.869 76.5001 44.7625 76.4872 44.6527C76.457 44.534 76.4327 44.4139 76.4091 44.2939C76.3802 44.1458 76.3543 43.9972 76.3314 43.848C76.3283 43.8282 76.2939 43.5818 76.3189 43.7734C76.3092 43.6998 76.3005 43.6259 76.2922 43.552C76.2276 42.9801 76.2009 42.4051 76.1881 41.8301C76.1881 41.6093 76.1003 41.3974 75.9442 41.2412C75.788 41.0851 75.5761 40.9973 75.3553 40.9973C75.1344 40.9973 74.9226 41.0851 74.7664 41.2412C74.6102 41.3974 74.5225 41.6093 74.5225 41.8301L74.5232 41.8315Z" fill="#211715"/>
<path d="M68.0949 69.753C69.1852 69.7863 70.2763 69.7283 71.3568 69.5795C77.445 68.7745 83.486 65.936 87.166 60.6709C91.4279 61.0078 97.6774 63.6819 100.413 66.3545C105.94 71.7549 108.22 79.2304 109.896 86.2691C111.629 93.5489 113.047 102.484 111.482 107.303C110.753 109.55 109.62 110.952 107.411 112.647C104.273 115.054 97.4959 116.884 92.3606 116.999C92.0114 114.474 91.4719 111.978 90.7467 109.533C82.2718 111.46 64.6665 115.461 64.6665 115.461L60.8745 118.383C59.3157 119.783 55.3085 120.326 52.604 119.655C50.5244 119.139 48.8688 118.505 46.9738 116.125C44.7145 113.286 44.1836 108.109 44.8109 102.638C45.7742 94.2349 45.7999 89.2592 46.6983 80.793C47.1411 77.7949 47.8028 75.8832 49.7405 73.1415C52.1529 69.7284 54.72 68.2835 59.061 65.6837C60.5243 67.6252 62.6164 68.7096 64.8505 69.2926C65.9121 69.5633 66.9999 69.7177 68.0949 69.753Z" fill="#FF938D"/>
<path d="M63.2569 115.13C63.2569 115.13 63.267 114.636 63.276 114.143C63.0928 114.017 62.9266 113.868 62.7815 113.7C62.5885 113.439 62.4791 113.126 62.4677 112.801C62.4563 112.477 62.5435 112.157 62.7177 111.883L63.2122 111.185C63.0269 111.09 62.8551 110.971 62.7014 110.831C62.4795 110.617 62.3356 110.335 62.2927 110.03C62.2497 109.725 62.3102 109.414 62.4644 109.148C62.5813 108.94 62.7527 108.768 62.9601 108.65C63.1675 108.533 63.403 108.474 63.6414 108.48C64.3038 108.455 65.5978 108.527 67.379 108.48C69.0914 108.435 70.7238 108.191 72.9408 107.954L72.9959 107.898L71.7384 107.51C70.9942 107.343 70.2721 107.09 69.587 106.754C69.2917 106.598 69.0548 106.35 68.9114 106.048C68.8951 106.01 68.8815 105.97 68.8708 105.93L68.1594 105.903C64.4263 105.941 58.9672 105.691 55.6946 104.654C55.565 104.807 55.4623 104.982 55.391 105.169C54.3569 108.218 54.1022 111.476 54.6502 114.648L55.6912 115.278C56.801 115.961 58.0676 116.347 59.3696 116.399C60.6715 116.452 61.9651 116.169 63.1264 115.578L63.2819 115.492C63.263 115.372 63.2546 115.251 63.2569 115.13Z" fill="white"/>
<path d="M86.3831 115.327C84.7036 115.882 82.5025 117.519 80.8955 118.144C80.0271 118.525 79.1098 118.783 78.1702 118.912C77.4067 119.007 71.3911 119.092 69.7459 119.157C69.3704 119.187 68.9928 119.139 68.6371 119.015C68.2815 118.89 67.9558 118.693 67.6809 118.435L67.5525 117.863C67.0268 117.824 66.5521 117.775 66.1621 117.713C65.2925 117.575 64.35 117.422 63.7438 116.711C63.4238 116.246 63.2542 115.694 63.258 115.13C63.258 115.13 63.268 114.636 63.2771 114.143C63.0938 114.017 62.9276 113.868 62.7826 113.7C62.5896 113.439 62.4802 113.125 62.4688 112.801C62.4574 112.477 62.5445 112.156 62.7187 111.883L63.2132 111.184C63.028 111.09 62.8562 110.971 62.7024 110.831C62.4806 110.617 62.3367 110.335 62.2937 110.03C62.2508 109.725 62.3112 109.414 62.4654 109.148C62.5824 108.94 62.7538 108.768 62.9612 108.65C63.1686 108.532 63.4041 108.473 63.6425 108.48C64.3049 108.455 65.5989 108.526 67.3801 108.48C69.1383 108.433 70.8067 108.177 73.1157 107.934L71.7395 107.51C70.9952 107.343 70.2732 107.089 69.588 106.754C69.2928 106.598 69.0559 106.35 68.9124 106.048C68.8122 105.767 68.7924 105.464 68.8551 105.173C68.9178 104.882 69.0606 104.614 69.2674 104.399C69.7098 104.124 70.2163 103.968 70.737 103.948C73.6723 103.83 76.203 104.273 79.1192 104.803C80.578 105.079 82.0643 105.18 83.547 105.105C85.0528 104.722 86.5278 104.227 87.9595 103.624L88.429 103.404C89.5991 105.642 90.9371 109.634 91.7762 113.606L90.9139 113.858C89.1199 114.454 86.9403 115.16 86.5167 115.286C86.4718 115.298 86.4272 115.312 86.3831 115.327Z" fill="white"/>
<path d="M91.8983 81.1596C92.9867 83.559 93.8949 86.0362 94.6154 88.5705C95.4135 91.2268 96.2352 93.8797 96.8737 96.5818C97.1201 97.6228 98.7267 97.1828 98.4796 96.139C97.8311 93.396 96.9955 90.7015 96.1842 88.0035C95.4275 85.3747 94.4757 82.8059 93.3367 80.3188C93.2239 80.1295 93.0412 79.992 92.828 79.9362C92.6149 79.8803 92.3883 79.9104 92.1971 80.02C92.01 80.1348 91.8745 80.3174 91.8189 80.5298C91.7632 80.7421 91.7917 80.9677 91.8983 81.1596Z" fill="#211715"/>
<path d="M86.6717 61.4719C89.0511 61.5719 91.4181 62.3259 93.6087 63.217C95.7254 64.0783 97.9171 65.1838 99.6119 66.7429C103.637 70.4441 105.986 75.6675 107.57 80.8046C108.375 83.4155 109.028 86.077 109.606 88.7461C110.243 91.5867 110.727 94.4594 111.055 97.3519C111.322 99.8586 111.488 102.446 111.15 104.955C110.918 107.154 109.93 109.205 108.356 110.757C106.623 112.353 104.564 113.554 102.322 114.276C99.7954 115.165 97.1731 115.753 94.5092 116.029C93.8614 116.094 93.2131 116.138 92.5642 116.161C91.4954 116.196 91.4906 117.861 92.5642 117.827C95.4089 117.713 98.229 117.252 100.962 116.454C103.326 115.776 105.807 114.893 107.789 113.395C108.919 112.579 109.928 111.608 110.787 110.51C111.515 109.511 112.057 108.389 112.385 107.197C113.067 104.824 113.066 102.249 112.925 99.8041C112.585 93.8933 111.317 87.9768 109.738 82.2821C108.199 76.7301 105.986 71.237 102.09 66.9001C100.37 65.0359 98.2994 63.53 95.9958 62.4692C93.6199 61.2781 91.0815 60.4437 88.4623 59.993C87.8691 59.8977 87.2711 59.8354 86.671 59.8063C85.5995 59.7612 85.6016 61.4268 86.671 61.4719H86.6717Z" fill="#211715"/>
<path d="M59.3072 64.5638C57.2491 65.8015 55.1293 66.9769 53.2076 68.4246C51.4319 69.7628 49.895 71.3915 48.6618 73.2417C47.3 75.2539 46.3903 77.5373 45.9954 79.9347C45.7525 81.3699 45.654 82.8336 45.5235 84.2823C45.4032 85.622 45.2934 86.9628 45.1942 88.3048C45.0086 90.7789 44.8472 93.2552 44.6473 95.7286C44.4211 98.5369 44.047 101.334 43.8346 104.142C43.5844 106.803 43.7365 109.486 44.2857 112.101C44.7647 114.393 45.938 116.482 47.6461 118.084C49.3269 119.55 51.4216 120.456 53.6403 120.679C55.8393 120.957 58.3006 120.71 60.3114 119.736C60.7273 119.534 61.1142 119.277 61.4618 118.972C62.271 118.267 61.0891 117.093 60.284 117.795C59.9931 118.026 59.6724 118.218 59.3305 118.364C58.9111 118.54 58.4772 118.68 58.0337 118.781C57.0011 119.026 55.9407 119.135 54.8798 119.105C52.9803 119.061 50.9396 118.531 49.3971 117.387C45.612 114.58 45.2244 109.412 45.4413 105.08C45.5766 102.362 45.9802 99.6539 46.2123 96.9417C46.417 94.5495 46.5801 92.1531 46.7529 89.7587C46.9386 87.1871 47.144 84.6172 47.4011 82.0518C47.6288 79.7772 48.0806 77.5674 49.1959 75.5493C50.2267 73.6537 51.5868 71.9567 53.2124 70.5378C54.8069 69.1665 56.6453 68.0977 58.4435 67.0209C59.0119 66.6809 59.5801 66.3407 60.148 66.0004C61.0658 65.4483 60.2292 64.0075 59.3076 64.562L59.3072 64.5638Z" fill="#211715"/>
<path d="M93.1867 116.952C92.6912 113.226 91.7799 109.567 90.4697 106.044C90.19 105.294 89.8881 104.552 89.5546 103.823C89.4252 103.542 89.2906 103.262 89.1469 102.987C88.9815 102.745 88.8358 102.49 88.7114 102.224C88.7131 102.229 88.5764 102.261 88.7114 102.144C88.7083 102.147 88.9259 102.101 88.9543 102.091C89.4845 101.913 90.0095 101.717 90.5356 101.526C91.4415 101.199 92.3451 100.866 93.2464 100.526C95.3787 99.7186 97.4917 98.8632 99.5966 97.9863C99.8057 97.9216 99.9822 97.7796 100.09 97.5893C100.198 97.399 100.23 97.1747 100.179 96.962C100.119 96.7497 99.9774 96.5697 99.7856 96.4608C99.5937 96.352 99.3668 96.3231 99.1538 96.3804C97.1825 97.2017 95.2035 98.0054 93.2075 98.766C92.2688 99.1241 91.3271 99.474 90.3826 99.8157C89.8887 99.9948 89.3943 100.172 88.8995 100.348C88.4012 100.525 87.8422 100.654 87.4705 101.056C87.3139 101.228 87.1947 101.43 87.1202 101.65C87.0458 101.87 87.0179 102.104 87.0381 102.335C87.1111 102.748 87.275 103.139 87.5177 103.48C87.8386 104.059 88.1265 104.655 88.38 105.266C89.0646 106.927 89.6441 108.63 90.115 110.364C90.7372 112.525 91.2062 114.727 91.5187 116.953C91.5256 117.172 91.6156 117.38 91.7703 117.534C91.925 117.689 92.1328 117.779 92.3515 117.786C92.7554 117.786 93.2443 117.402 93.1843 116.953L93.1867 116.952Z" fill="#211715"/>
<path d="M52.3034 83.292C51.3915 88.7379 53.4485 94.1814 56.2502 98.7664C57.0196 99.9881 57.7078 101.259 58.3104 102.571C58.4229 102.761 58.6055 102.898 58.8187 102.954C59.0319 103.01 59.2586 102.98 59.4496 102.87C59.6363 102.755 59.7715 102.572 59.8272 102.36C59.8828 102.148 59.8546 101.923 59.7484 101.731C58.4908 98.8927 56.5538 96.4321 55.4046 93.5394C54.1779 90.4511 53.352 87.064 53.9097 83.7348C53.9618 83.522 53.9306 83.2973 53.8224 83.1068C53.7142 82.9163 53.5372 82.7743 53.3277 82.7101C53.1148 82.6532 52.888 82.6823 52.6963 82.7912C52.5047 82.9001 52.3635 83.08 52.3034 83.292Z" fill="#211715"/>
<path d="M56.229 105.674C58.183 106.136 60.1733 106.429 62.1777 106.548C64.1667 106.699 66.1637 106.754 68.1583 106.735C69.2295 106.725 69.2323 105.06 68.1583 105.07C64.3486 105.104 60.3826 105.013 56.6725 104.068C55.6335 103.803 55.1901 105.409 56.2297 105.674H56.229Z" fill="#211715"/>
<path d="M55.268 115.996C56.5067 116.749 57.918 117.172 59.3669 117.225C60.8158 117.278 62.254 116.958 63.5441 116.296C64.497 115.804 63.6555 114.366 62.7036 114.858C61.6703 115.374 60.5221 115.618 59.3681 115.565C58.214 115.513 57.0926 115.166 56.1106 114.557C55.1993 113.987 54.3623 115.428 55.2698 115.996H55.268Z" fill="#211715"/>
<path d="M58.5994 66.4356C61.5767 70.1336 66.8109 70.9932 71.2744 70.4227C75.3378 69.9022 79.344 68.5575 82.7235 66.2066C84.6763 64.8535 86.3841 63.1774 87.7734 61.2503C87.8832 61.0592 87.9134 60.8326 87.8575 60.6195C87.8016 60.4063 87.6641 60.2237 87.4747 60.1111C87.2828 60.0043 87.0572 59.9758 86.8448 60.0315C86.6325 60.0872 86.4499 60.2227 86.3351 60.4099C84.0703 63.4581 80.9842 65.7983 77.4379 67.1567C73.6438 68.6582 69.1754 69.5215 65.1567 68.51C63.058 67.9815 61.1488 66.9627 59.7782 65.2589C59.6213 65.1041 59.4097 65.0173 59.1893 65.0173C58.9689 65.0173 58.7573 65.1041 58.6004 65.2589C58.4488 65.4175 58.3643 65.6284 58.3643 65.8478C58.3643 66.0671 58.4488 66.2781 58.6004 66.4366L58.5994 66.4356Z" fill="#211715"/>
<path d="M57.0001 103.784C56.4272 103.497 55.7915 103.426 55.2796 103.881C54.8477 104.326 54.5451 104.879 54.4045 105.483C54.043 106.651 53.7963 107.851 53.6678 109.067C53.3898 111.473 53.5512 113.909 54.1439 116.257C54.4097 117.295 56.0177 116.855 55.7502 115.814C55.2851 113.952 55.1137 112.028 55.2422 110.112C55.298 109.172 55.4292 108.238 55.6343 107.319C55.7384 106.85 55.8643 106.384 56.0108 105.926C56.0618 105.732 56.129 105.543 56.2117 105.361C56.2173 105.349 56.3557 105.152 56.3592 105.155C56.2896 105.168 56.2222 105.191 56.1593 105.223C57.115 105.702 57.9596 104.265 57.0001 103.784Z" fill="#211715"/>
<path d="M71.9591 106.707C71.3057 106.533 70.4608 106.385 69.9014 105.978C69.8125 105.93 69.7404 105.856 69.6948 105.767C69.6493 105.677 69.6325 105.575 69.6467 105.475C69.6528 105.369 69.6762 105.265 69.7161 105.166C69.7251 105.144 69.8736 104.982 69.7855 105.051C70.0713 104.877 70.3986 104.784 70.7328 104.781C71.2296 104.751 71.7277 104.746 72.2249 104.768C73.1826 104.791 74.1384 104.864 75.0888 104.984C76.9411 105.213 78.7615 105.648 80.6165 105.852C81.9123 105.993 83.2409 106.09 84.503 105.722C85.8255 105.357 87.1195 104.896 88.3745 104.342C88.5638 104.23 88.7012 104.047 88.7571 103.834C88.813 103.621 88.7829 103.394 88.6733 103.203C88.5583 103.016 88.3757 102.881 88.1634 102.825C87.9512 102.769 87.7256 102.798 87.5337 102.904C87.3255 103 87.1787 103.058 86.8723 103.174C86.5441 103.299 86.213 103.417 85.8813 103.531C85.2536 103.748 84.6217 103.955 83.9832 104.138C83.8069 104.189 83.6219 104.223 83.4474 104.279C83.3534 104.309 83.2798 104.258 83.5414 104.272C83.4583 104.273 83.3752 104.279 83.2926 104.29C83.0497 104.304 82.8041 104.308 82.5594 104.307C81.6541 104.299 80.7505 104.226 79.8559 104.086C77.7392 103.76 75.6499 103.316 73.5082 103.162C72.4675 103.055 71.4188 103.051 70.3775 103.152C69.5214 103.264 68.6078 103.589 68.2285 104.426C68.0055 104.868 67.9304 105.371 68.0145 105.859C68.0985 106.347 68.3371 106.796 68.6952 107.139C69.4121 107.811 70.5881 108.068 71.5139 108.312C72.5515 108.586 72.9939 106.98 71.9567 106.706L71.9591 106.707Z" fill="#211715"/>
<path d="M73.3327 107.079C71.5596 107.263 69.7902 107.526 68.009 107.622C67.0999 107.67 66.1876 107.669 65.2774 107.656C64.6151 107.612 63.9502 107.621 63.2894 107.684C61.4118 107.971 60.8389 110.412 62.3015 111.573C63.0534 112.17 63.9289 112.328 64.861 112.406C65.7516 112.481 66.6439 112.532 67.5378 112.559C69.7395 112.626 71.9416 112.545 74.1385 112.396C74.3578 112.391 74.5667 112.302 74.7218 112.147C74.8769 111.991 74.9663 111.782 74.9713 111.563C74.9694 111.343 74.881 111.132 74.7253 110.976C74.5695 110.821 74.3588 110.732 74.1385 110.73C72.4194 110.847 70.6976 110.924 68.9744 110.918C67.4443 110.95 65.9139 110.877 64.3939 110.699C63.9355 110.633 63.0632 110.395 63.1138 109.791C63.1503 109.356 63.5025 109.309 63.8901 109.305C65.2847 109.293 66.6772 109.359 68.0715 109.281C69.8315 109.182 71.58 108.924 73.3324 108.742C73.5514 108.736 73.7597 108.646 73.9146 108.491C74.0695 108.337 74.1592 108.128 74.1652 107.909C74.1638 107.689 74.0757 107.478 73.9198 107.322C73.7639 107.166 73.5529 107.078 73.3324 107.076L73.3327 107.079Z" fill="#211715"/>
<path d="M61.9996 111.462C61.8267 111.756 61.7157 112.082 61.6732 112.42C61.6308 112.759 61.658 113.102 61.753 113.43C61.848 113.757 62.009 114.062 62.2259 114.325C62.4428 114.588 62.7112 114.804 63.0146 114.96C63.5921 115.234 64.2177 115.393 64.8562 115.427C65.4384 115.504 66.0228 115.566 66.6078 115.615C69.204 115.825 71.8095 115.898 74.4134 115.835C75.4839 115.813 75.4873 114.147 74.4134 114.169C72.1748 114.214 69.9315 114.176 67.6967 114.03C66.7081 113.966 65.716 113.888 64.7358 113.742C64.2879 113.726 63.8589 113.558 63.5192 113.265C63.3952 113.14 63.3192 112.974 63.3044 112.798C63.2895 112.622 63.3368 112.447 63.438 112.302C63.9897 111.38 62.5503 110.541 61.9996 111.461V111.462Z" fill="#211715"/>
<path d="M62.4239 115.13C62.399 115.748 62.5602 116.36 62.8868 116.886C63.2134 117.412 63.6903 117.827 64.2557 118.079C65.2273 118.504 66.3485 118.6 67.3975 118.684C69.5246 118.854 71.6657 118.844 73.7987 118.844C74.8706 118.844 74.8723 117.179 73.7987 117.179C71.8971 117.179 69.9924 117.179 68.0936 117.066C67.2657 117.038 66.4416 116.941 65.6299 116.775C65.1792 116.721 64.7568 116.527 64.4216 116.22C64.1895 115.906 64.0724 115.521 64.0899 115.13C64.0961 114.058 62.4305 114.057 62.4242 115.13L62.4239 115.13Z" fill="#211715"/>
<path d="M67.0919 119.024C68.3043 120.247 70.0661 119.974 71.6259 119.938C73.1482 119.903 74.6705 119.874 76.1928 119.831C77.4555 119.796 78.6874 119.77 79.9057 119.386C81.9357 118.747 83.6388 117.565 85.5154 116.606C86.2308 116.268 86.9725 115.99 87.7331 115.773C88.8681 115.408 90.001 115.038 91.132 114.663C92.1446 114.327 91.7108 112.718 90.6893 113.056C89.6677 113.395 88.644 113.731 87.6193 114.063C87.0034 114.262 86.3701 114.431 85.7677 114.672C83.9792 115.387 82.4503 116.615 80.6733 117.344C79.8606 117.708 79.0013 117.958 78.1201 118.086C77.7037 118.133 77.2789 118.134 76.8608 118.148C75.4381 118.195 74.0153 118.222 72.5926 118.252C71.8608 118.268 71.1286 118.284 70.3968 118.304C69.6563 118.325 68.8415 118.423 68.2707 117.848C67.5149 117.084 66.3372 118.264 67.0929 119.025L67.0919 119.024Z" fill="#211715"/>
<path d="M36.4491 97.5088C33.6037 96.6559 30.7898 95.6933 27.9413 94.8466C27.8177 94.8147 27.6886 94.8113 27.5636 94.8365C27.4385 94.8618 27.3209 94.915 27.2194 94.9923C27.1179 95.0696 27.0353 95.1689 26.9777 95.2828C26.9202 95.3966 26.8892 95.522 26.8871 95.6495C26.7746 97.0695 26.7899 98.495 26.7066 99.9177L27.7608 99.1147C24.8425 98.1247 21.9336 97.1073 19.0163 96.1145C17.9996 95.7675 17.5631 97.3766 18.5735 97.7205C21.4908 98.7132 24.3997 99.731 27.318 100.721C27.4416 100.753 27.5709 100.757 27.6961 100.732C27.8213 100.707 27.9391 100.653 28.0407 100.576C28.1423 100.499 28.2249 100.399 28.2824 100.285C28.3398 100.171 28.3705 100.045 28.3722 99.9177C28.4555 98.495 28.4416 97.0691 28.5527 95.6495L27.4985 96.4525C30.347 97.2992 33.1595 98.2618 36.0063 99.1151C37.0352 99.4232 37.4749 97.8162 36.4491 97.5088Z" fill="#F2635F"/>
<path d="M40.3352 93.2636C37.6285 90.5816 35.2842 87.556 32.5734 84.8803C32.4823 84.7922 32.3726 84.7257 32.2523 84.6858C32.1321 84.6459 32.0044 84.6336 31.8787 84.6498C31.753 84.666 31.6326 84.7103 31.5264 84.7794C31.4202 84.8485 31.3309 84.9406 31.2652 85.0489C30.499 86.2499 29.8425 87.5168 29.1013 88.7327L30.4091 88.5641C28.1321 86.1482 25.7554 83.8282 23.4808 81.4099C22.7448 80.6274 21.5688 81.8069 22.3031 82.5876C24.5777 85.0059 26.953 87.326 29.2314 89.7421C29.3222 89.8306 29.4319 89.8974 29.5522 89.9375C29.6725 89.9777 29.8003 89.9901 29.9261 89.9739C30.0518 89.9576 30.1723 89.9132 30.2785 89.8439C30.3847 89.7746 30.4738 89.6821 30.5392 89.5735C31.2808 88.359 31.9373 87.0907 32.7035 85.8897L31.3953 86.058C34.1065 88.7338 36.4522 91.7593 39.1574 94.4413C39.9209 95.1967 41.0975 94.0197 40.3352 93.2636Z" fill="#F2635F"/>
</g>
<defs>
<clipPath id="clip0_2793_13080">
<rect width="131" height="131" fill="white"/>
</clipPath>
</defs>
</svg>
