<svg width="130" height="130" viewBox="0 0 130 130" fill="none" xmlns="http://www.w3.org/2000/svg">
<g clip-path="url(#clip0_2873_12974)">
<path d="M65 130C100.899 130 130 100.899 130 65C130 29.1015 100.899 0 65 0C29.1015 0 0 29.1015 0 65C0 100.899 29.1015 130 65 130Z" fill="#FFD6DE"/>
<path d="M53.5172 80.743C37.1709 80.743 23.8721 67.4439 23.8721 51.0979C23.8721 43.3941 23.8721 30.4995 39.6683 30.4995V35.3433C29.4776 35.3433 28.7158 41.5808 28.7158 51.0967C28.7158 64.7713 39.8413 75.8967 53.5159 75.8967C67.1905 75.8967 78.3159 64.7713 78.3159 51.0967C78.3159 41.5808 77.5542 35.3433 67.3634 35.3433V30.4993C83.1597 30.4993 83.1597 43.3926 83.1597 51.0977C83.1625 67.4454 69.8634 80.743 53.5172 80.743Z" fill="#71C6DE"/>
<path d="M39.6682 37.626C42.2658 37.626 44.3716 35.5202 44.3716 32.9226C44.3716 30.325 42.2658 28.2192 39.6682 28.2192C37.0706 28.2192 34.9648 30.325 34.9648 32.9226C34.9648 35.5202 37.0706 37.626 39.6682 37.626Z" fill="#FC611F"/>
<path d="M39.6685 28.2192V37.626C42.2659 37.626 44.3718 35.5201 44.3718 32.9226C44.3718 30.3251 42.2657 28.2192 39.6685 28.2192Z" fill="#E34E10"/>
<path d="M67.3659 30.5005V35.3443C77.5567 35.3443 78.3171 41.5817 78.3171 51.0976C78.3171 64.7723 67.1917 75.8977 53.5171 75.8977V80.7414C69.8633 80.7414 83.1622 67.4423 83.1622 51.0963C83.1624 43.3941 83.1624 30.5005 67.3659 30.5005Z" fill="#48AFCC"/>
<path d="M67.366 37.626C69.9635 37.626 72.0693 35.5202 72.0693 32.9226C72.0693 30.325 69.9635 28.2192 67.366 28.2192C64.7684 28.2192 62.6626 30.325 62.6626 32.9226C62.6626 35.5202 64.7684 37.626 67.366 37.626Z" fill="#FC611F"/>
<path d="M67.3657 28.2192V37.626C69.9632 37.626 72.0691 35.5201 72.0691 32.9226C72.0691 30.3251 69.9632 28.2192 67.3657 28.2192Z" fill="#E34E10"/>
<path d="M74.8268 106.011C61.7969 106.011 51.1968 95.4123 51.1968 82.3823H55.8392C55.8392 92.8524 64.3567 101.371 74.8283 101.371C85.2984 101.371 93.8175 92.8539 93.8175 82.3823H98.4599C98.4581 95.412 87.8568 106.011 74.8268 106.011Z" fill="#48AFCC"/>
<path d="M95.9999 92.5093C101.594 92.5093 106.128 87.9747 106.128 82.381C106.128 76.7873 101.594 72.2527 95.9999 72.2527C90.4062 72.2527 85.8716 76.7873 85.8716 82.381C85.8716 87.9747 90.4062 92.5093 95.9999 92.5093Z" fill="white"/>
<path d="M95.9997 90.0221C100.22 90.0221 103.641 86.601 103.641 82.3808C103.641 78.1606 100.22 74.7395 95.9997 74.7395C91.7795 74.7395 88.3584 78.1606 88.3584 82.3808C88.3584 86.601 91.7795 90.0221 95.9997 90.0221Z" fill="#B6F0FF"/>
<path d="M95.9997 85.7258C97.8471 85.7258 99.3447 84.2282 99.3447 82.3809C99.3447 80.5335 97.8471 79.0359 95.9997 79.0359C94.1524 79.0359 92.6548 80.5335 92.6548 82.3809C92.6548 84.2282 94.1524 85.7258 95.9997 85.7258Z" fill="#3194B0"/>
<path d="M51.1968 82.3823C51.1968 83.7565 51.3397 85.094 51.566 86.4045H56.2772C55.9964 85.107 55.8392 83.7628 55.8392 82.3823H51.1968Z" fill="#48AFCC"/>
<path d="M53.5208 82.8802C57.097 82.8802 59.9962 80.9048 59.9962 78.468C59.9962 76.0313 57.097 74.0559 53.5208 74.0559C49.9445 74.0559 47.0454 76.0313 47.0454 78.468C47.0454 80.9048 49.9445 82.8802 53.5208 82.8802Z" fill="white"/>
<path d="M53.5171 74.0532V82.879C57.0934 82.879 59.9925 80.9031 59.9925 78.4669C59.9925 76.0291 57.0934 74.0532 53.5171 74.0532Z" fill="#B6F0FF"/>
</g>
<defs>
<clipPath id="clip0_2873_12974">
<rect width="130" height="130" fill="white"/>
</clipPath>
</defs>
</svg>
