<svg width="130" height="130" viewBox="0 0 130 130" fill="none" xmlns="http://www.w3.org/2000/svg">
<g clip-path="url(#clip0_2793_13015)">
<path d="M130 65C130 29.1072 100.893 0 65 0C29.1072 0 0 29.1072 0 65C0 100.893 29.1072 130 65 130C100.893 130 130 100.893 130 65Z" fill="#FFF8EA"/>
<path d="M47.9397 94.8495H31.5996C30.7506 94.8495 29.945 94.4739 29.3992 93.8233L22.4265 85.5126C21.2969 84.1661 20.6748 82.4568 20.6748 80.6993V59.0673C20.6748 57.3099 21.2969 55.6004 22.4265 54.2541L34.3225 40.0763C37.007 36.8769 41.8165 36.3566 45.0437 38.9174C48.4428 41.614 48.9359 46.5628 46.1564 49.8754L37.1128 60.6532V63.4968C38.483 61.7448 40.5755 60.59 42.9161 60.5256C47.2524 60.4073 50.812 63.8786 50.812 68.205V91.9773C50.8122 93.5635 49.5261 94.8495 47.9397 94.8495Z" fill="#FFD3B6"/>
<path d="M40.0453 76.427C41.6315 76.427 42.9176 75.141 42.9176 73.5547V60.5256C42.917 60.5256 42.9162 60.5256 42.9156 60.5256C40.6085 60.5891 38.5439 61.7132 37.1729 63.4232V73.5547C37.173 75.1411 38.4589 76.427 40.0453 76.427Z" fill="#F9B995"/>
<path d="M52.4185 109.188H22.8723C21.286 109.188 20 107.902 20 106.316V91.9772C20 90.391 21.286 89.105 22.8723 89.105H52.4183C54.0045 89.105 55.2905 90.391 55.2905 91.9772V106.316C55.2907 107.902 54.0047 109.188 52.4185 109.188Z" fill="#98DEEA"/>
<path d="M71.9832 51.0178L64.9999 47.3466L58.0166 51.0178C55.9138 52.1235 53.4472 50.3328 53.849 47.9898L55.1827 40.214L49.5333 34.7071C47.8319 33.0486 48.7727 30.1496 51.1251 29.8079L58.9325 28.6736L62.424 21.5987C63.4757 19.4679 66.5234 19.4676 67.5754 21.5987L71.0668 28.6736L78.8741 29.8079C81.2256 30.1498 82.1679 33.0481 80.466 34.7071L74.8166 40.214L76.1502 47.9898C76.5549 50.3465 74.0725 52.1159 71.9832 51.0178Z" fill="#FF938D"/>
<path d="M79.188 91.9772V68.2049C79.188 63.8837 82.7426 60.4071 87.0839 60.5256C89.4244 60.5897 91.5169 61.7448 92.8871 63.4968V60.6532L83.8434 49.8751C81.0657 46.5648 81.5545 41.6159 84.9561 38.9171C88.1834 36.3563 92.9931 36.8766 95.6773 40.076L107.573 54.2539C108.703 55.6002 109.325 57.3096 109.325 59.0671V80.6993C109.325 82.4567 108.703 84.166 107.573 85.5125L100.601 93.8233C100.055 94.4738 99.2494 94.8495 98.4004 94.8495H82.0603C80.474 94.8495 79.188 93.5635 79.188 91.9772Z" fill="#F9B995"/>
<path d="M89.9548 76.427C88.3685 76.427 87.0825 75.141 87.0825 73.5547V60.5256C87.083 60.5256 87.0839 60.5256 87.0845 60.5256C89.3916 60.5891 91.4561 61.7132 92.8272 63.4232V73.5547C92.8271 75.1411 91.5412 76.427 89.9548 76.427Z" fill="#FFD3B6"/>
<path d="M74.7095 106.316V91.9772C74.7095 90.391 75.9955 89.105 77.5817 89.105H107.128C108.714 89.105 110 90.391 110 91.9772V106.316C110 107.902 108.714 109.188 107.128 109.188H77.5817C75.9955 109.188 74.7095 107.902 74.7095 106.316Z" fill="#82D0D8"/>
<path d="M78.8745 29.8075L71.0671 28.6732L67.5758 21.5984C67.0498 20.5326 66.0245 19.9998 64.9995 20V47.3466L65 47.3463L71.9833 51.0175C74.0726 52.1156 76.5552 50.3463 76.1511 47.9895L74.8174 40.2136L80.4669 34.7067C82.1682 33.0477 81.2259 30.1494 78.8745 29.8075Z" fill="#F27875"/>
</g>
<defs>
<clipPath id="clip0_2793_13015">
<rect width="130" height="130" fill="white"/>
</clipPath>
</defs>
</svg>
