<svg width="19" height="19" viewBox="0 0 19 19" fill="none" xmlns="http://www.w3.org/2000/svg">
<path d="M7.25 11.6877V12.125C7.25 13.0201 7.60558 13.8785 8.23851 14.5115C8.87145 15.1444 9.72989 15.5 10.625 15.5C11.5201 15.5 12.3785 15.1444 13.0115 14.5115C13.6444 13.8785 14 13.0201 14 12.125V10.8725C13.4994 10.6956 13.0774 10.3474 12.8087 9.8894C12.54 9.43144 12.4419 8.89323 12.5316 8.36991C12.6214 7.84659 12.8933 7.37184 13.2992 7.02959C13.7052 6.68735 14.219 6.49963 14.75 6.49963C15.281 6.49963 15.7948 6.68735 16.2008 7.02959C16.6067 7.37184 16.8786 7.84659 16.9684 8.36991C17.0581 8.89323 16.96 9.43144 16.6913 9.8894C16.4226 10.3474 16.0006 10.6956 15.5 10.8725V12.125C15.5 13.4179 14.9864 14.6579 14.0721 15.5721C13.1579 16.4864 11.9179 17 10.625 17C9.33207 17 8.09209 16.4864 7.17785 15.5721C6.26361 14.6579 5.75 13.4179 5.75 12.125V11.6877C4.70145 11.5102 3.74961 10.9672 3.0632 10.1549C2.37679 9.34257 2.00014 8.31348 2 7.25V3.5C2 3.10218 2.15804 2.72064 2.43934 2.43934C2.72064 2.15804 3.10218 2 3.5 2H4.25C4.44891 2 4.63968 2.07902 4.78033 2.21967C4.92098 2.36032 5 2.55109 5 2.75C5 2.94891 4.92098 3.13968 4.78033 3.28033C4.63968 3.42098 4.44891 3.5 4.25 3.5H3.5V7.25C3.5 8.04565 3.81607 8.80871 4.37868 9.37132C4.94129 9.93393 5.70435 10.25 6.5 10.25C7.29565 10.25 8.05871 9.93393 8.62132 9.37132C9.18393 8.80871 9.5 8.04565 9.5 7.25V3.5H8.75C8.55109 3.5 8.36032 3.42098 8.21967 3.28033C8.07902 3.13968 8 2.94891 8 2.75C8 2.55109 8.07902 2.36032 8.21967 2.21967C8.36032 2.07902 8.55109 2 8.75 2H9.5C9.89782 2 10.2794 2.15804 10.5607 2.43934C10.842 2.72064 11 3.10218 11 3.5V7.25C10.9999 8.31348 10.6232 9.34257 9.9368 10.1549C9.25039 10.9672 8.29855 11.5102 7.25 11.6877ZM14.75 9.5C14.9489 9.5 15.1397 9.42098 15.2803 9.28033C15.421 9.13968 15.5 8.94891 15.5 8.75C15.5 8.55109 15.421 8.36032 15.2803 8.21967C15.1397 8.07902 14.9489 8 14.75 8C14.5511 8 14.3603 8.07902 14.2197 8.21967C14.079 8.36032 14 8.55109 14 8.75C14 8.94891 14.079 9.13968 14.2197 9.28033C14.3603 9.42098 14.5511 9.5 14.75 9.5Z" fill="#23355F"/>
</svg>
