<!DOCTYPE svg PUBLIC "-//W3C//DTD SVG 1.1//EN" "http://www.w3.org/Graphics/SVG/1.1/DTD/svg11.dtd">
<!-- Uploaded to: SVG Repo, www.svgrepo.com, Transformed by: SVG Repo Mixer Tools -->
<svg width="64px" height="64px" viewBox="0 0 24 24" fill="none" xmlns="http://www.w3.org/2000/svg">
<g id="SVGRepo_bgCarrier" stroke-width="0"/>
<g id="SVGRepo_tracerCarrier" stroke-linecap="round" stroke-linejoin="round"/>
<g id="SVGRepo_iconCarrier"> <path fill-rule="evenodd" clip-rule="evenodd" d="M15.6002 8C15.6002 10.2091 13.8541 12 11.7002 12C9.54632 12 7.80023 10.2091 7.80023 8C7.80023 5.79086 9.54632 4 11.7002 4C12.7346 4 13.7266 4.42143 14.4579 5.17157C15.1893 5.92172 15.6002 6.93913 15.6002 8Z" stroke="#23355F" stroke-width="1.5" stroke-linecap="round" stroke-linejoin="round"/> <path d="M12.4502 12C12.4502 11.5858 12.1144 11.25 11.7002 11.25C11.286 11.25 10.9502 11.5858 10.9502 12H12.4502ZM10.9502 18C10.9502 18.4142 11.286 18.75 11.7002 18.75C12.1144 18.75 12.4502 18.4142 12.4502 18H10.9502ZM11.6187 5.66744C11.2069 5.71248 10.9096 6.08279 10.9547 6.49454C10.9997 6.9063 11.37 7.20358 11.7818 7.15854L11.6187 5.66744ZM12.9289 7.85878C13.0873 8.24152 13.526 8.42338 13.9087 8.26499C14.2915 8.1066 14.4733 7.66793 14.3149 7.2852L12.9289 7.85878ZM8.75664 16.7458C9.16856 16.7022 9.46714 16.333 9.42355 15.9211C9.37995 15.5091 9.01069 15.2106 8.59878 15.2542L8.75664 16.7458ZM5.50506 17.006L5.14054 16.3505C5.12276 16.3604 5.10539 16.371 5.08848 16.3823L5.50506 17.006ZM5.07996 18.406L4.49679 18.8776C4.52236 18.9092 4.55046 18.9387 4.5808 18.9658L5.07996 18.406ZM7.59059 19.576L7.75796 18.8449C7.73741 18.8402 7.71668 18.8364 7.69582 18.8334L7.59059 19.576ZM11.7002 20L11.7147 19.2501C11.705 19.2499 11.6953 19.2499 11.6855 19.2501L11.7002 20ZM15.8098 19.575L15.7036 18.8326C15.683 18.8355 15.6625 18.8393 15.6423 18.8439L15.8098 19.575ZM18.3205 18.4L18.8206 18.9588C18.8502 18.9324 18.8776 18.9036 18.9026 18.8728L18.3205 18.4ZM17.8954 17L18.3133 16.3772C18.2956 16.3653 18.2773 16.3542 18.2587 16.3439L17.8954 17ZM14.8004 15.254C14.3885 15.2111 14.0197 15.5103 13.9768 15.9223C13.9338 16.3343 14.233 16.703 14.645 16.746L14.8004 15.254ZM10.9502 12V18H12.4502V12H10.9502ZM11.7818 7.15854C12.2599 7.10624 12.7306 7.37955 12.9289 7.85878L14.3149 7.2852C13.8693 6.20829 12.7794 5.54046 11.6187 5.66744L11.7818 7.15854ZM8.59878 15.2542C7.38605 15.3825 6.21078 15.7553 5.14054 16.3505L5.86958 17.6614C6.76454 17.1637 7.74568 16.8528 8.75664 16.7458L8.59878 15.2542ZM5.08848 16.3823C4.69312 16.6464 4.33099 17.003 4.18732 17.476C4.02851 17.9989 4.18538 18.4925 4.49679 18.8776L5.66313 17.9344C5.62349 17.8854 5.62092 17.8645 5.62303 17.8732C5.6263 17.8866 5.62505 17.9038 5.62258 17.912C5.62168 17.9149 5.62897 17.8885 5.67509 17.8355C5.72168 17.7819 5.79935 17.7113 5.92165 17.6297L5.08848 16.3823ZM4.5808 18.9658C5.39836 19.6948 6.40738 20.1658 7.48536 20.3186L7.69582 18.8334C6.91406 18.7226 6.17836 18.3806 5.57912 17.8462L4.5808 18.9658ZM7.42322 20.3071C8.83135 20.6294 10.2721 20.7781 11.7149 20.7498L11.6855 19.2501C10.3654 19.276 9.04686 19.14 7.75796 18.8449L7.42322 20.3071ZM11.6857 20.7499C13.1285 20.7778 14.5693 20.6288 15.9774 20.306L15.6423 18.8439C14.3534 19.1393 13.0349 19.2757 11.7147 19.2501L11.6857 20.7499ZM15.9161 20.3174C16.9947 20.163 18.0038 19.69 18.8206 18.9588L17.8203 17.8411C17.2215 18.377 16.4858 18.7206 15.7036 18.8326L15.9161 20.3174ZM18.9026 18.8728C19.2151 18.488 19.3719 17.9944 19.2131 17.4715C19.0696 16.9991 18.7081 16.6421 18.3133 16.3772L17.4775 17.6228C17.6 17.705 17.6779 17.776 17.7248 17.83C17.7712 17.8835 17.7787 17.9102 17.7778 17.9075C17.7754 17.8995 17.7741 17.882 17.7775 17.868C17.7798 17.8586 17.7775 17.8788 17.7383 17.9272L18.9026 18.8728ZM18.2587 16.3439C17.188 15.751 16.0127 15.3803 14.8004 15.254L14.645 16.746C15.6556 16.8512 16.6367 17.1603 17.532 17.6561L18.2587 16.3439Z" fill="#23355F"/> </g>
</svg>