<svg width="181" height="59" viewBox="0 0 181 59" fill="none" xmlns="http://www.w3.org/2000/svg">
<path d="M0 29.5C0 13.2076 13.2076 0 29.5 0H181V59H29.5C13.2076 59 0 45.7924 0 29.5V29.5Z" fill="#23355F"/>
<path d="M42.298 19.624C42.298 14.824 46.162 10.96 50.962 10.96C53.386 10.96 55.138 11.8 56.77 13.192C56.962 13.384 56.986 13.672 56.794 13.864L56.146 14.512C55.954 14.752 55.762 14.728 55.522 14.488C54.274 13.408 52.69 12.688 50.938 12.688C47.146 12.688 44.242 15.88 44.242 19.6C44.242 23.296 47.146 26.488 50.938 26.488C53.026 26.488 54.25 25.768 55.522 24.688C55.762 24.496 55.954 24.52 56.146 24.712L56.698 25.264C56.89 25.408 56.842 25.744 56.674 25.912C55.09 27.352 53.098 28.24 50.962 28.24C46.162 28.24 42.298 24.424 42.298 19.624ZM59.4895 23.416V17.44C59.4895 17.176 59.7055 16.912 60.0175 16.912H60.7375C61.0255 16.912 61.2655 17.176 61.2655 17.44V23.44C61.2655 25.648 61.9855 26.656 63.5935 26.656C65.2495 26.656 66.2335 25.624 66.7375 25.048V17.44C66.7375 17.176 66.9535 16.912 67.2415 16.912H67.9855C68.2495 16.912 68.4895 17.176 68.4895 17.44V27.472C68.4895 27.76 68.2495 28 67.9855 28H67.6015C67.2895 28 67.1695 27.808 67.0975 27.52L66.8815 26.824C66.4735 27.256 65.4415 28.264 63.4495 28.264C60.2575 28.264 59.4895 26.344 59.4895 23.416ZM72.2423 27.472V17.44C72.2423 17.176 72.4823 16.912 72.7703 16.912H73.1543C73.3703 16.912 73.5623 17.032 73.6343 17.296L73.8263 18.088C73.8263 18.088 74.9303 16.672 77.2343 16.672C78.0743 16.672 79.4423 16.792 79.1783 17.56L78.8663 18.424C78.7463 18.784 78.4823 18.808 78.2183 18.688C77.9543 18.568 77.5463 18.376 77.0183 18.376C74.8823 18.376 74.0183 19.792 74.0183 19.792V27.472C74.0183 27.76 73.7543 28 73.4903 28H72.7703C72.4823 28 72.2423 27.76 72.2423 27.472ZM80.4526 22.456C80.4526 19.336 82.4686 16.672 85.8286 16.672C88.7326 16.672 90.8446 18.808 90.8446 21.712C90.8446 21.904 90.8206 22.192 90.7966 22.384C90.7726 22.672 90.5326 22.864 90.2926 22.864H82.2286C82.2766 24.712 83.8366 26.656 85.8526 26.656C87.3166 26.656 88.2286 26.152 88.8526 25.744C89.2366 25.48 89.4046 25.384 89.6926 25.816L89.9806 26.224C90.1966 26.56 90.2926 26.68 89.8846 26.992C89.2126 27.52 87.7486 28.264 85.8286 28.264C82.4686 28.264 80.4526 25.624 80.4526 22.456ZM82.2526 21.448H89.0686C89.0206 19.816 87.7246 18.28 85.8286 18.28C83.9566 18.28 82.4686 19.72 82.2526 21.448ZM93.9087 27.544V11.392C93.9087 11.152 94.1247 10.96 94.3647 10.96H94.7247C94.8927 10.96 95.0127 11.008 95.1087 11.152L105.789 24.448C105.813 24.448 105.813 24.448 105.837 24.448V11.656C105.837 11.416 106.029 11.2 106.293 11.2H107.133C107.373 11.2 107.589 11.416 107.589 11.656V27.808C107.589 28.048 107.373 28.24 107.133 28.24H106.941C106.773 28.24 106.653 28.192 106.557 28.048L95.6847 14.488H95.6607V27.544C95.6607 27.784 95.4687 28 95.2047 28H94.3647C94.1247 28 93.9087 27.784 93.9087 27.544ZM110.734 22.456C110.734 19.336 112.75 16.672 116.11 16.672C119.014 16.672 121.126 18.808 121.126 21.712C121.126 21.904 121.102 22.192 121.078 22.384C121.054 22.672 120.814 22.864 120.574 22.864H112.51C112.558 24.712 114.118 26.656 116.134 26.656C117.598 26.656 118.51 26.152 119.134 25.744C119.518 25.48 119.686 25.384 119.974 25.816L120.262 26.224C120.478 26.56 120.574 26.68 120.166 26.992C119.494 27.52 118.03 28.264 116.11 28.264C112.75 28.264 110.734 25.624 110.734 22.456ZM112.534 21.448H119.35C119.302 19.816 118.006 18.28 116.11 18.28C114.238 18.28 112.75 19.72 112.534 21.448ZM123.175 24.64C123.175 22.528 124.759 20.968 127.615 20.968C128.791 20.968 129.991 21.328 129.991 21.328C130.015 19.288 129.751 18.28 128.167 18.28C126.655 18.28 125.383 18.76 124.879 18.928C124.591 19.048 124.447 18.904 124.351 18.64L124.111 17.992C124.015 17.656 124.183 17.512 124.447 17.392C124.999 17.152 126.439 16.672 128.263 16.672C131.095 16.672 131.695 18.064 131.695 21.328V27.472C131.695 27.76 131.455 28 131.167 28H130.711C130.423 28 130.327 27.832 130.255 27.592L130.039 26.848C129.463 27.424 128.311 28.264 126.607 28.264C124.663 28.264 123.175 26.872 123.175 24.64ZM124.927 24.64C124.927 25.768 125.695 26.656 126.919 26.656C128.287 26.656 129.487 25.888 129.967 25.168V22.912C129.607 22.72 128.719 22.48 127.615 22.48C126.079 22.48 124.927 23.224 124.927 24.64ZM135.336 27.472V17.44C135.336 17.176 135.576 16.912 135.864 16.912H136.248C136.464 16.912 136.656 17.032 136.728 17.296L136.92 18.088C136.92 18.088 138.024 16.672 140.328 16.672C141.168 16.672 142.536 16.792 142.272 17.56L141.96 18.424C141.84 18.784 141.576 18.808 141.312 18.688C141.048 18.568 140.64 18.376 140.112 18.376C137.976 18.376 137.112 19.792 137.112 19.792V27.472C137.112 27.76 136.848 28 136.584 28H135.864C135.576 28 135.336 27.76 135.336 27.472ZM143.267 27.424L146.363 11.296C146.411 11.104 146.603 10.96 146.795 10.96H147.179C147.347 10.96 147.539 11.08 147.587 11.224L152.339 24.448C152.387 24.448 152.411 24.448 152.459 24.448L157.139 11.224C157.187 11.08 157.379 10.96 157.547 10.96H157.931C158.123 10.96 158.315 11.104 158.363 11.296L161.459 27.424C161.531 27.76 161.387 28 161.027 28H160.067C159.875 28 159.683 27.832 159.635 27.664L157.499 15.304C157.475 15.304 157.427 15.304 157.403 15.304L152.987 27.976C152.939 28.12 152.723 28.24 152.579 28.24H152.147C152.003 28.24 151.787 28.12 151.739 27.976L147.275 15.304C147.251 15.304 147.203 15.304 147.179 15.304L145.091 27.664C145.067 27.832 144.851 28 144.659 28H143.699C143.339 28 143.195 27.76 143.267 27.424ZM163.632 22.456C163.632 19.336 165.648 16.672 169.008 16.672C171.912 16.672 174.024 18.808 174.024 21.712C174.024 21.904 174 22.192 173.976 22.384C173.952 22.672 173.712 22.864 173.472 22.864H165.408C165.456 24.712 167.016 26.656 169.032 26.656C170.496 26.656 171.408 26.152 172.032 25.744C172.416 25.48 172.584 25.384 172.872 25.816L173.16 26.224C173.376 26.56 173.472 26.68 173.064 26.992C172.392 27.52 170.928 28.264 169.008 28.264C165.648 28.264 163.632 25.624 163.632 22.456ZM165.432 21.448H172.248C172.2 19.816 170.904 18.28 169.008 18.28C167.136 18.28 165.648 19.72 165.432 21.448Z" fill="#DCC624"/>
<path d="M56.915 43.765C56.915 40.765 59.3 38.35 62.3 38.35C65.3 38.35 67.7 40.765 67.7 43.765C67.7 46.765 65.3 49.15 62.3 49.15C59.3 49.15 56.915 46.765 56.915 43.765ZM57.965 43.765C57.965 46.15 59.915 48.1 62.3 48.1C64.685 48.1 66.65 46.15 66.65 43.765C66.65 41.38 64.685 39.4 62.3 39.4C59.915 39.4 57.965 41.38 57.965 43.765ZM69.5218 48.67V42.4C69.5218 42.235 69.6718 42.07 69.8518 42.07H70.0918C70.2418 42.07 70.3318 42.13 70.3618 42.28L70.5118 42.805C70.5118 42.805 71.3968 41.92 72.8368 41.92C74.8468 41.92 75.3418 43.225 75.3418 45.01V48.67C75.3418 48.85 75.1768 49 75.0118 49H74.5618C74.3818 49 74.2318 48.85 74.2318 48.67V44.86C74.2318 43.54 73.7818 42.925 72.7618 42.925C71.4568 42.925 70.6318 43.885 70.6318 43.885V48.67C70.6318 48.85 70.4668 49 70.3018 49H69.8518C69.6718 49 69.5218 48.85 69.5218 48.67ZM77.1727 45.535C77.1727 43.585 78.4327 41.92 80.5327 41.92C82.3477 41.92 83.6677 43.255 83.6677 45.07C83.6677 45.19 83.6527 45.37 83.6377 45.49C83.6227 45.67 83.4727 45.79 83.3227 45.79H78.2827C78.3127 46.945 79.2877 48.16 80.5477 48.16C81.4627 48.16 82.0327 47.845 82.4227 47.59C82.6627 47.425 82.7677 47.365 82.9477 47.635L83.1277 47.89C83.2627 48.1 83.3227 48.175 83.0677 48.37C82.6477 48.7 81.7327 49.165 80.5327 49.165C78.4327 49.165 77.1727 47.515 77.1727 45.535ZM78.2977 44.905H82.5577C82.5277 43.885 81.7177 42.925 80.5327 42.925C79.3627 42.925 78.4327 43.825 78.2977 44.905ZM88.8671 47.935C88.7471 47.83 88.5671 47.695 88.7771 47.425L89.0021 47.14C89.1521 46.945 89.2721 46.87 89.4821 47.05C89.5871 47.14 90.7271 48.145 92.0621 48.145C93.2771 48.145 94.0721 47.38 94.0721 46.435C94.0721 45.4 93.1721 44.8 91.4471 44.065C89.7971 43.36 88.8071 42.73 88.8071 41.02C88.8071 40 89.6171 38.35 92.0021 38.35C93.4721 38.35 94.5671 39.115 94.5671 39.115C94.6571 39.16 94.8221 39.34 94.6571 39.625L94.5071 39.88C94.3871 40.09 94.2221 40.09 93.9821 39.955C93.3521 39.58 92.8271 39.355 91.9871 39.355C90.3971 39.355 89.9171 40.375 89.9171 41.005C89.9171 42.07 90.6821 42.535 91.9421 43.06C93.9671 43.885 95.2721 44.65 95.2721 46.39C95.2721 47.95 93.7871 49.15 92.0321 49.15C90.2621 49.15 89.0621 48.115 88.8671 47.935ZM97.3204 43.03H96.4054C96.1954 43.03 96.0604 42.88 96.0604 42.7V42.4C96.0604 42.205 96.1954 42.07 96.4054 42.07H97.3204V40.15C97.3204 39.97 97.4854 39.835 97.6504 39.82L98.1154 39.79C98.2954 39.775 98.4304 39.94 98.4304 40.12V42.07H100.47C100.665 42.07 100.815 42.205 100.815 42.4V42.7C100.815 42.88 100.665 43.03 100.47 43.03H98.4304V47.17C98.4304 47.89 98.6554 48.16 99.0454 48.16C99.6904 48.16 100.125 47.89 100.41 47.71C100.68 47.545 100.77 47.68 100.845 47.845L100.98 48.16C101.07 48.385 101.04 48.49 100.86 48.61C100.56 48.82 99.8404 49.165 98.9104 49.165C97.5904 49.165 97.3204 48.325 97.3204 47.245V43.03ZM102.104 45.52C102.104 43.57 103.664 41.92 105.584 41.92C107.504 41.92 109.064 43.57 109.064 45.52C109.064 47.5 107.504 49.165 105.584 49.165C103.664 49.165 102.104 47.5 102.104 45.52ZM103.199 45.52C103.199 46.96 104.219 48.16 105.584 48.16C106.949 48.16 107.954 46.96 107.954 45.52C107.954 44.11 106.949 42.925 105.584 42.925C104.219 42.925 103.199 44.11 103.199 45.52ZM112.043 48.595V52.24C112.043 52.42 111.878 52.57 111.713 52.57H111.278C111.098 52.57 110.948 52.42 110.948 52.24V42.4C110.948 42.235 111.098 42.07 111.278 42.07H111.533C111.698 42.07 111.743 42.115 111.818 42.295L111.923 42.625C111.923 42.625 112.763 41.92 114.008 41.92C115.898 41.92 117.233 43.555 117.233 45.535C117.233 47.56 115.868 49.165 113.963 49.165C112.808 49.165 112.043 48.595 112.043 48.595ZM112.043 47.56C112.043 47.56 112.838 48.16 113.798 48.16C115.133 48.16 116.108 47.035 116.108 45.52C116.108 44.17 115.268 42.925 113.873 42.925C112.763 42.925 112.043 43.765 112.043 43.765V47.56ZM122.515 47.935C122.395 47.83 122.215 47.695 122.425 47.425L122.65 47.14C122.8 46.945 122.92 46.87 123.13 47.05C123.235 47.14 124.375 48.145 125.71 48.145C126.925 48.145 127.72 47.38 127.72 46.435C127.72 45.4 126.82 44.8 125.095 44.065C123.445 43.36 122.455 42.73 122.455 41.02C122.455 40 123.265 38.35 125.65 38.35C127.12 38.35 128.215 39.115 128.215 39.115C128.305 39.16 128.47 39.34 128.305 39.625L128.155 39.88C128.035 40.09 127.87 40.09 127.63 39.955C127 39.58 126.475 39.355 125.635 39.355C124.045 39.355 123.565 40.375 123.565 41.005C123.565 42.07 124.33 42.535 125.59 43.06C127.615 43.885 128.92 44.65 128.92 46.39C128.92 47.95 127.435 49.15 125.68 49.15C123.91 49.15 122.71 48.115 122.515 47.935ZM130.273 45.52C130.273 43.57 131.833 41.92 133.753 41.92C135.673 41.92 137.233 43.57 137.233 45.52C137.233 47.5 135.673 49.165 133.753 49.165C131.833 49.165 130.273 47.5 130.273 45.52ZM131.368 45.52C131.368 46.96 132.388 48.16 133.753 48.16C135.118 48.16 136.123 46.96 136.123 45.52C136.123 44.11 135.118 42.925 133.753 42.925C132.388 42.925 131.368 44.11 131.368 45.52ZM139.192 48.67V38.83C139.192 38.665 139.342 38.5 139.522 38.5H139.972C140.137 38.5 140.302 38.665 140.302 38.83V48.67C140.302 48.85 140.137 49 139.972 49H139.522C139.342 49 139.192 48.85 139.192 48.67ZM142.645 46.135V42.4C142.645 42.235 142.78 42.07 142.975 42.07H143.425C143.605 42.07 143.755 42.235 143.755 42.4V46.15C143.755 47.53 144.205 48.16 145.21 48.16C146.245 48.16 146.86 47.515 147.175 47.155V42.4C147.175 42.235 147.31 42.07 147.49 42.07H147.955C148.12 42.07 148.27 42.235 148.27 42.4V48.67C148.27 48.85 148.12 49 147.955 49H147.715C147.52 49 147.445 48.88 147.4 48.7L147.265 48.265C147.01 48.535 146.365 49.165 145.12 49.165C143.125 49.165 142.645 47.965 142.645 46.135ZM151.066 43.03H150.151C149.941 43.03 149.806 42.88 149.806 42.7V42.4C149.806 42.205 149.941 42.07 150.151 42.07H151.066V40.15C151.066 39.97 151.231 39.835 151.396 39.82L151.861 39.79C152.041 39.775 152.176 39.94 152.176 40.12V42.07H154.216C154.411 42.07 154.561 42.205 154.561 42.4V42.7C154.561 42.88 154.411 43.03 154.216 43.03H152.176V47.17C152.176 47.89 152.401 48.16 152.791 48.16C153.436 48.16 153.871 47.89 154.156 47.71C154.426 47.545 154.516 47.68 154.591 47.845L154.726 48.16C154.816 48.385 154.786 48.49 154.606 48.61C154.306 48.82 153.586 49.165 152.656 49.165C151.336 49.165 151.066 48.325 151.066 47.245V43.03ZM156.824 40.285C156.374 40.285 156.014 39.91 156.014 39.475C156.014 38.995 156.374 38.635 156.824 38.635C157.289 38.635 157.649 38.995 157.649 39.475C157.649 39.91 157.289 40.285 156.824 40.285ZM156.299 48.67V42.4C156.299 42.235 156.449 42.07 156.629 42.07H157.079C157.244 42.07 157.409 42.235 157.409 42.4V48.67C157.409 48.85 157.244 49 157.079 49H156.629C156.449 49 156.299 48.85 156.299 48.67ZM159.306 45.52C159.306 43.57 160.866 41.92 162.786 41.92C164.706 41.92 166.266 43.57 166.266 45.52C166.266 47.5 164.706 49.165 162.786 49.165C160.866 49.165 159.306 47.5 159.306 45.52ZM160.401 45.52C160.401 46.96 161.421 48.16 162.786 48.16C164.151 48.16 165.156 46.96 165.156 45.52C165.156 44.11 164.151 42.925 162.786 42.925C161.421 42.925 160.401 44.11 160.401 45.52ZM168.15 48.67V42.4C168.15 42.235 168.3 42.07 168.48 42.07H168.72C168.87 42.07 168.96 42.13 168.99 42.28L169.14 42.805C169.14 42.805 170.025 41.92 171.465 41.92C173.475 41.92 173.97 43.225 173.97 45.01V48.67C173.97 48.85 173.805 49 173.64 49H173.19C173.01 49 172.86 48.85 172.86 48.67V44.86C172.86 43.54 172.41 42.925 171.39 42.925C170.085 42.925 169.26 43.885 169.26 43.885V48.67C169.26 48.85 169.095 49 168.93 49H168.48C168.3 49 168.15 48.85 168.15 48.67Z" fill="white"/>
</svg>
