<svg width="51" height="40" viewBox="0 0 51 40" fill="none" xmlns="http://www.w3.org/2000/svg">
<path d="M1.248 16.624C1.248 21.424 5.112 25.24 9.912 25.24C12.048 25.24 14.04 24.352 15.624 22.912C15.792 22.744 15.84 22.408 15.648 22.264L15.096 21.712C14.904 21.52 14.712 21.496 14.472 21.688C13.2 22.768 11.976 23.488 9.888 23.488C6.096 23.488 3.192 20.296 3.192 16.6C3.192 12.88 6.096 9.688 9.888 9.688C11.64 9.688 13.224 10.408 14.472 11.488C14.712 11.728 14.904 11.752 15.096 11.512L15.744 10.864C15.936 10.672 15.912 10.384 15.72 10.192C14.088 8.8 12.336 7.96 9.912 7.96C5.112 7.96 1.248 11.824 1.248 16.624ZM18.4395 20.416C18.4395 23.344 19.2075 25.264 22.3995 25.264C24.3915 25.264 25.4235 24.256 25.8315 23.824L26.0475 24.52C26.1195 24.808 26.2395 25 26.5515 25H26.9355C27.1995 25 27.4395 24.76 27.4395 24.472V14.44C27.4395 14.176 27.1995 13.912 26.9355 13.912H26.1915C25.9035 13.912 25.6875 14.176 25.6875 14.44V22.048C25.1835 22.624 24.1995 23.656 22.5435 23.656C20.9355 23.656 20.2155 22.648 20.2155 20.44V14.44C20.2155 14.176 19.9755 13.912 19.6875 13.912H18.9675C18.6555 13.912 18.4395 14.176 18.4395 14.44V20.416ZM31.1923 24.472C31.1923 24.76 31.4323 25 31.7203 25H32.4403C32.7043 25 32.9683 24.76 32.9683 24.472V16.792C32.9683 16.792 33.8323 15.376 35.9683 15.376C36.4963 15.376 36.9043 15.568 37.1683 15.688C37.4323 15.808 37.6963 15.784 37.8163 15.424L38.1283 14.56C38.3923 13.792 37.0243 13.672 36.1843 13.672C33.8803 13.672 32.7763 15.088 32.7763 15.088L32.5843 14.296C32.5123 14.032 32.3203 13.912 32.1043 13.912H31.7203C31.4323 13.912 31.1923 14.176 31.1923 14.44V24.472ZM39.4026 19.456C39.4026 22.624 41.4186 25.264 44.7786 25.264C46.6986 25.264 48.1626 24.52 48.8346 23.992C49.2426 23.68 49.1466 23.56 48.9306 23.224L48.6426 22.816C48.3546 22.384 48.1866 22.48 47.8026 22.744C47.1786 23.152 46.2666 23.656 44.8026 23.656C42.7866 23.656 41.2266 21.712 41.1786 19.864H49.2426C49.4826 19.864 49.7226 19.672 49.7466 19.384C49.7706 19.192 49.7946 18.904 49.7946 18.712C49.7946 15.808 47.6826 13.672 44.7786 13.672C41.4186 13.672 39.4026 16.336 39.4026 19.456ZM41.2026 18.448C41.4186 16.72 42.9066 15.28 44.7786 15.28C46.6746 15.28 47.9706 16.816 48.0186 18.448H41.2026Z" fill="#DCC624"/>
<path d="M5.936 35.736C5.936 35.88 6.056 36 6.2 36H6.56C6.692 36 6.824 35.88 6.824 35.736V31.908C6.824 31.908 7.484 31.14 8.528 31.14C9.344 31.14 9.704 31.632 9.704 32.688V35.736C9.704 35.88 9.824 36 9.968 36H10.328C10.46 36 10.592 35.88 10.592 35.736V32.808C10.592 31.38 10.196 30.336 8.588 30.336C7.436 30.336 6.728 31.044 6.728 31.044L6.608 30.624C6.584 30.504 6.512 30.456 6.392 30.456H6.2C6.056 30.456 5.936 30.588 5.936 30.72V35.736ZM12.0568 33.228C12.0568 34.812 13.0648 36.132 14.7448 36.132C15.7048 36.132 16.4368 35.76 16.7728 35.496C16.9768 35.34 16.9288 35.28 16.8208 35.112L16.6768 34.908C16.5328 34.692 16.4488 34.74 16.2568 34.872C15.9448 35.076 15.4888 35.328 14.7568 35.328C13.7488 35.328 12.9688 34.356 12.9448 33.432H16.9768C17.0968 33.432 17.2168 33.336 17.2288 33.192C17.2408 33.096 17.2528 32.952 17.2528 32.856C17.2528 31.404 16.1968 30.336 14.7448 30.336C13.0648 30.336 12.0568 31.668 12.0568 33.228ZM12.9568 32.724C13.0648 31.86 13.8088 31.14 14.7448 31.14C15.6928 31.14 16.3408 31.908 16.3648 32.724H12.9568ZM18.2774 34.32C18.2774 35.436 19.0214 36.132 19.9934 36.132C20.8454 36.132 21.4214 35.712 21.7094 35.424L21.8174 35.796C21.8534 35.916 21.9014 36 22.0454 36H22.2734C22.4174 36 22.5374 35.88 22.5374 35.736V32.664C22.5374 31.032 22.2374 30.336 20.8214 30.336C19.9094 30.336 19.1894 30.576 18.9134 30.696C18.7814 30.756 18.6974 30.828 18.7454 30.996L18.8654 31.32C18.9134 31.452 18.9854 31.524 19.1294 31.464C19.3814 31.38 20.0174 31.14 20.7734 31.14C21.5654 31.14 21.6974 31.644 21.6854 32.664C21.6854 32.664 21.0854 32.484 20.4974 32.484C19.0694 32.484 18.2774 33.264 18.2774 34.32ZM19.1534 34.32C19.1534 33.612 19.7294 33.24 20.4974 33.24C21.0494 33.24 21.4934 33.36 21.6734 33.456V34.584C21.4334 34.944 20.8334 35.328 20.1494 35.328C19.5374 35.328 19.1534 34.884 19.1534 34.32ZM24.3579 35.736C24.3579 35.88 24.4779 36 24.6219 36H24.9819C25.1139 36 25.2459 35.88 25.2459 35.736V31.896C25.2459 31.896 25.6779 31.188 26.7459 31.188C27.0099 31.188 27.2139 31.284 27.3459 31.344C27.4779 31.404 27.6099 31.392 27.6699 31.212L27.8259 30.78C27.9579 30.396 27.2739 30.336 26.8539 30.336C25.7019 30.336 25.1499 31.044 25.1499 31.044L25.0539 30.648C25.0179 30.516 24.9219 30.456 24.8139 30.456H24.6219C24.4779 30.456 24.3579 30.588 24.3579 30.72V35.736ZM31.6001 35.736C31.6001 35.88 31.7201 36 31.8641 36H32.2241C32.3561 36 32.4881 35.88 32.4881 35.736V31.908C32.4881 31.908 32.9921 31.14 33.9761 31.14C34.8761 31.14 35.2241 31.752 35.2241 32.808V35.736C35.2241 35.88 35.3561 36 35.4881 36H35.8481C35.9921 36 36.1121 35.88 36.1121 35.736V32.808C36.1121 32.52 36.0881 32.136 36.0401 31.896C36.2441 31.728 36.7481 31.14 37.6481 31.14C38.4881 31.14 38.8241 31.776 38.8241 32.808V35.736C38.8241 35.88 38.9441 36 39.0881 36H39.4481C39.5921 36 39.7121 35.88 39.7121 35.736V32.808C39.7121 31.38 39.3281 30.336 37.7201 30.336C36.6041 30.336 35.8121 31.164 35.7401 31.212C35.3801 30.636 34.9361 30.336 34.1081 30.336C32.9681 30.336 32.3921 31.044 32.3921 31.044L32.2721 30.624C32.2481 30.504 32.1761 30.456 32.0561 30.456H31.8641C31.7201 30.456 31.6001 30.588 31.6001 30.72V35.736ZM41.1778 33.228C41.1778 34.812 42.1858 36.132 43.8658 36.132C44.8258 36.132 45.5578 35.76 45.8938 35.496C46.0978 35.34 46.0498 35.28 45.9418 35.112L45.7978 34.908C45.6538 34.692 45.5698 34.74 45.3778 34.872C45.0658 35.076 44.6098 35.328 43.8778 35.328C42.8698 35.328 42.0898 34.356 42.0658 33.432H46.0978C46.2178 33.432 46.3378 33.336 46.3498 33.192C46.3618 33.096 46.3738 32.952 46.3738 32.856C46.3738 31.404 45.3178 30.336 43.8658 30.336C42.1858 30.336 41.1778 31.668 41.1778 33.228ZM42.0778 32.724C42.1858 31.86 42.9298 31.14 43.8658 31.14C44.8138 31.14 45.4618 31.908 45.4858 32.724H42.0778Z" fill="white"/>
</svg>
