<svg xmlns="http://www.w3.org/2000/svg" width="117.178" height="35.067" viewBox="0 0 117.178 35.067">
  <g id="Logo" transform="translate(-1.435 -10.12)">
    <path id="Path_188" data-name="Path 188" d="M1.456,29.328c-.084.392.084.672.5.672H3.08a.545.545,0,0,0,.5-.392L6.02,15.188h.112L11.34,29.972a.569.569,0,0,0,.476.308h.5a.569.569,0,0,0,.476-.308l5.152-14.784h.112l2.492,14.42a.575.575,0,0,0,.5.392h1.12c.42,0,.588-.28.5-.672L19.068,10.512a.538.538,0,0,0-.5-.392h-.448a.534.534,0,0,0-.476.308L12.18,25.856h-.14L6.5,10.428a.534.534,0,0,0-.476-.308H5.572a.538.538,0,0,0-.5.392Zm23.76-5.8c0,3.7,2.352,6.776,6.272,6.776a7.949,7.949,0,0,0,4.732-1.484c.476-.364.364-.5.112-.9L36,27.452c-.336-.5-.532-.392-.98-.084a6.009,6.009,0,0,1-3.5,1.064,4.554,4.554,0,0,1-4.228-4.424H36.7a.6.6,0,0,0,.588-.56,7.379,7.379,0,0,0,.056-.784,5.686,5.686,0,0,0-5.852-5.88C27.568,16.784,25.216,19.892,25.216,23.532Zm2.1-1.176a4.234,4.234,0,0,1,4.172-3.7,3.783,3.783,0,0,1,3.78,3.7ZM39.927,23.5c0,3.7,2.52,6.8,5.8,6.8a6.235,6.235,0,0,0,4.088-1.68l.168.84c.112.308.28.532.56.532h.5a.646.646,0,0,0,.644-.616V11.016a.667.667,0,0,0-.644-.616h-.784a.641.641,0,0,0-.616.616V17.6a7.982,7.982,0,0,0-3.584-.812C42.167,16.784,39.927,19.724,39.927,23.5Zm2.1.028c0-2.576,1.54-4.872,4.312-4.872a8.5,8.5,0,0,1,3.3.728V26.36a4.779,4.779,0,0,1-3.668,2.072C43.623,28.432,42.027,26.052,42.027,23.532Zm15-9.8a1.54,1.54,0,1,0-1.512-1.512A1.53,1.53,0,0,0,57.031,13.732Zm-.98,15.652a.621.621,0,0,0,.616.616h.84a.641.641,0,0,0,.616-.616V17.68a.662.662,0,0,0-.616-.616h-.84a.641.641,0,0,0-.616.616Z" fill="#fff"/>
    <path id="Path_189" data-name="Path 189" d="M61.776,20.228A10.038,10.038,0,0,0,71.884,30.28a9.933,9.933,0,0,0,6.664-2.716.534.534,0,0,0,.028-.756l-.644-.644a.477.477,0,0,0-.728-.028,7.5,7.5,0,0,1-5.348,2.1A7.936,7.936,0,0,1,64.044,20.2a7.942,7.942,0,0,1,7.812-8.064,8.188,8.188,0,0,1,5.348,2.1c.28.28.5.308.728.028l.756-.756a.542.542,0,0,0-.028-.784,9.847,9.847,0,0,0-6.776-2.6A10.086,10.086,0,0,0,61.776,20.228Zm19.49,5.852a3.929,3.929,0,0,0,4,4.228,5.636,5.636,0,0,0,4-1.652l.252.868c.084.28.2.476.532.476h.532a.621.621,0,0,0,.616-.616V22.216c0-3.808-.7-5.432-4-5.432a11.874,11.874,0,0,0-4.452.84c-.308.14-.5.308-.392.7l.28.756c.112.308.28.476.616.336a11.671,11.671,0,0,1,3.836-.756c1.848,0,2.156,1.176,2.128,3.556a11.119,11.119,0,0,0-2.772-.42C83.114,21.8,81.266,23.616,81.266,26.08Zm2.044,0c0-1.652,1.344-2.52,3.136-2.52a6.629,6.629,0,0,1,2.744.5V26.7a4.5,4.5,0,0,1-3.556,1.736A2.241,2.241,0,0,1,83.31,26.08Zm12.144,3.3A.621.621,0,0,0,96.07,30h.84a.641.641,0,0,0,.616-.616v-8.96a4.087,4.087,0,0,1,3.5-1.652,3.255,3.255,0,0,1,1.4.364.49.49,0,0,0,.756-.308l.364-1.008c.308-.9-1.288-1.036-2.268-1.036A5.15,5.15,0,0,0,97.3,18.436l-.224-.924a.559.559,0,0,0-.56-.448H96.07a.641.641,0,0,0-.616.616Zm9.578-5.852c0,3.7,2.352,6.776,6.272,6.776a7.949,7.949,0,0,0,4.732-1.484c.476-.364.364-.5.112-.9l-.336-.476c-.336-.5-.532-.392-.98-.084a6.009,6.009,0,0,1-3.5,1.064,4.554,4.554,0,0,1-4.228-4.424h9.408a.6.6,0,0,0,.588-.56,7.379,7.379,0,0,0,.056-.784,5.686,5.686,0,0,0-5.852-5.88C107.384,16.784,105.032,19.892,105.032,23.532Zm2.1-1.176a4.234,4.234,0,0,1,4.172-3.7,3.783,3.783,0,0,1,3.78,3.7Z" fill="#dcc624"/>
    <path id="Path_190" data-name="Path 190" d="M61.326,44.626A.377.377,0,0,0,61.7,45h.51a.389.389,0,0,0,.374-.374V39.2A3.436,3.436,0,0,1,65,38.115c1.156,0,1.666.7,1.666,2.193v4.318a.377.377,0,0,0,.374.374h.51a.389.389,0,0,0,.374-.374V40.478c0-2.023-.561-3.5-2.839-3.5a3.963,3.963,0,0,0-2.635,1l-.17-.6a.271.271,0,0,0-.306-.238H61.7a.389.389,0,0,0-.374.374ZM70,41.073a3.816,3.816,0,0,0,3.808,4.114,4.826,4.826,0,0,0,2.873-.9c.289-.221.221-.306.068-.544l-.2-.289c-.2-.306-.323-.238-.6-.051a3.648,3.648,0,0,1-2.125.646,2.765,2.765,0,0,1-2.567-2.686h5.712a.367.367,0,0,0,.357-.34,4.478,4.478,0,0,0,.034-.476,3.452,3.452,0,0,0-3.553-3.57A3.82,3.82,0,0,0,70,41.073Zm1.275-.714a2.571,2.571,0,0,1,2.533-2.244A2.3,2.3,0,0,1,76.1,40.359ZM78.81,42.62a2.385,2.385,0,0,0,2.431,2.567,3.422,3.422,0,0,0,2.431-1l.153.527c.051.17.119.289.323.289h.323a.377.377,0,0,0,.374-.374V40.274c0-2.312-.425-3.3-2.431-3.3a7.209,7.209,0,0,0-2.7.51c-.187.085-.306.187-.238.425l.17.459c.068.187.17.289.374.2a7.086,7.086,0,0,1,2.329-.459c1.122,0,1.309.714,1.292,2.159a6.751,6.751,0,0,0-1.683-.255C79.932,40.019,78.81,41.124,78.81,42.62Zm1.241,0c0-1,.816-1.53,1.9-1.53a4.025,4.025,0,0,1,1.666.306v1.6a2.731,2.731,0,0,1-2.159,1.054A1.361,1.361,0,0,1,80.051,42.62Zm7.373,2.006A.377.377,0,0,0,87.8,45h.51a.389.389,0,0,0,.374-.374v-5.44a2.481,2.481,0,0,1,2.125-1,1.976,1.976,0,0,1,.85.221.3.3,0,0,0,.459-.187l.221-.612c.187-.544-.782-.629-1.377-.629a3.126,3.126,0,0,0-2.414,1l-.136-.561a.34.34,0,0,0-.34-.272H87.8a.389.389,0,0,0-.374.374Zm10.26,0a.377.377,0,0,0,.374.374h.51a.389.389,0,0,0,.374-.374V39.2a2.645,2.645,0,0,1,2.108-1.088c1.275,0,1.768.867,1.768,2.363v4.148a.389.389,0,0,0,.374.374h.51a.377.377,0,0,0,.374-.374V40.478a7.659,7.659,0,0,0-.1-1.292,3.274,3.274,0,0,1,2.278-1.071c1.19,0,1.666.9,1.666,2.363v4.148a.377.377,0,0,0,.374.374h.51a.377.377,0,0,0,.374-.374V40.478c0-2.023-.544-3.5-2.822-3.5a4.4,4.4,0,0,0-2.805,1.241,2.41,2.41,0,0,0-2.312-1.241,3.228,3.228,0,0,0-2.431,1l-.17-.6a.271.271,0,0,0-.306-.238h-.272a.389.389,0,0,0-.374.374Zm13.569-3.553a3.816,3.816,0,0,0,3.808,4.114,4.826,4.826,0,0,0,2.873-.9c.289-.221.221-.306.068-.544l-.2-.289c-.2-.306-.323-.238-.595-.051a3.648,3.648,0,0,1-2.125.646,2.765,2.765,0,0,1-2.567-2.686h5.712a.367.367,0,0,0,.357-.34,4.48,4.48,0,0,0,.034-.476,3.452,3.452,0,0,0-3.553-3.57A3.82,3.82,0,0,0,111.252,41.073Zm1.275-.714a2.571,2.571,0,0,1,2.533-2.244,2.3,2.3,0,0,1,2.3,2.244Z" fill="#fff"/>
  </g>
</svg>
