<svg width="20" height="20" viewBox="0 0 20 20" fill="none" xmlns="http://www.w3.org/2000/svg">
<path d="M9.91895 4.98413C9.42449 4.98413 8.94114 5.13075 8.53002 5.40546C8.1189 5.68016 7.79847 6.07061 7.60925 6.52742C7.42003 6.98424 7.37052 7.4869 7.46698 7.97186C7.56345 8.45681 7.80155 8.90227 8.15118 9.2519C8.50081 9.60153 8.94627 9.83963 9.43122 9.93609C9.91617 10.0326 10.4188 9.98305 10.8757 9.79383C11.3325 9.60461 11.7229 9.28418 11.9976 8.87306C12.2723 8.46193 12.4189 7.97858 12.4189 7.48413C12.4182 6.82132 12.1546 6.18587 11.6859 5.7172C11.2172 5.24852 10.5818 4.98489 9.91895 4.98413ZM9.91895 8.73413C9.67172 8.73413 9.43005 8.66082 9.22448 8.52347C9.01892 8.38612 8.85871 8.19089 8.7641 7.96249C8.66949 7.73408 8.64473 7.48274 8.69296 7.24027C8.7412 6.99779 8.86025 6.77506 9.03506 6.60025C9.20988 6.42543 9.43261 6.30638 9.67508 6.25815C9.91756 6.20992 10.1689 6.23467 10.3973 6.32928C10.6257 6.42389 10.8209 6.58411 10.9583 6.78967C11.0956 6.99523 11.1689 7.2369 11.1689 7.48413C11.1686 7.81553 11.0367 8.13325 10.8024 8.36759C10.5681 8.60193 10.2503 8.73375 9.91895 8.73413Z" fill="#23355F"/>
<path d="M14.7229 2.67637C13.5351 1.48888 11.9496 0.78347 10.2723 0.696272C8.59499 0.609074 6.94484 1.14627 5.64032 2.20419C4.33581 3.26211 3.4694 4.76574 3.20833 6.4249C2.94726 8.08405 3.31002 9.7811 4.2266 11.1885L8.94953 18.439C9.05464 18.6004 9.19834 18.7329 9.36763 18.8247C9.53691 18.9164 9.72642 18.9645 9.91897 18.9645C10.1115 18.9645 10.301 18.9164 10.4703 18.8247C10.6396 18.7329 10.7833 18.6004 10.8884 18.439L15.6115 11.1885C16.462 9.88293 16.8378 8.32468 16.6761 6.77494C16.5143 5.2252 15.8247 3.77816 14.7229 2.67637ZM14.5641 10.5062L9.91899 17.6371L5.27379 10.5062C3.85192 8.32344 4.15688 5.40234 5.99891 3.56023C6.5137 3.04543 7.12484 2.63707 7.79745 2.35846C8.47006 2.07985 9.19096 1.93645 9.91899 1.93645C10.647 1.93645 11.3679 2.07985 12.0405 2.35846C12.7131 2.63707 13.3243 3.04543 13.8391 3.56023C15.6811 5.40234 15.986 8.32344 14.5641 10.5062Z" fill="#23355F"/>
</svg>
