<svg width="10" height="5" viewBox="0 0 10 5" fill="none" xmlns="http://www.w3.org/2000/svg">
<path d="M1.02235 0.308022C1.13955 0.190853 1.29849 0.125031 1.46422 0.125031C1.62995 0.125031 1.78889 0.190853 1.9061 0.308022L4.99985 3.40177L8.0936 0.308022C8.21147 0.194173 8.36935 0.131177 8.53322 0.132601C8.6971 0.134025 8.85385 0.199755 8.96973 0.315635C9.08561 0.431515 9.15134 0.588273 9.15277 0.752146C9.15419 0.916019 9.0912 1.0739 8.97735 1.19177L5.44172 4.7274C5.32452 4.84457 5.16557 4.91039 4.99985 4.91039C4.83412 4.91039 4.67518 4.84457 4.55797 4.7274L1.02235 1.19177C0.905178 1.07457 0.839355 0.915625 0.839355 0.749897C0.839355 0.584169 0.905178 0.425227 1.02235 0.308022Z" fill="#363636"/>
</svg>
