<svg width="17" height="17" viewBox="0 0 17 17" fill="none" xmlns="http://www.w3.org/2000/svg">
<g clip-path="url(#clip0_5093_18935)">
<path d="M1.41669 9.91667C1.41669 7.2454 1.41669 5.90973 2.24655 5.07986C3.07642 4.25 4.41206 4.25 7.08335 4.25H9.91669C12.588 4.25 13.9237 4.25 14.7535 5.07986C15.2162 5.54253 15.4209 6.16242 15.5115 7.08333M15.5834 9.91667C15.5834 12.5879 15.5834 13.9236 14.7535 14.7535C13.9237 15.5833 12.588 15.5833 9.91669 15.5833H7.08335C4.41207 15.5833 3.07641 15.5833 2.24655 14.7535C1.78388 14.2908 1.57916 13.6709 1.48858 12.75" stroke="white" stroke-linecap="round"/>
<path d="M11.3334 4.24999C11.3334 2.91434 11.3334 2.24652 10.9184 1.83159C10.5035 1.41666 9.83565 1.41666 8.50002 1.41666C7.16439 1.41666 6.49655 1.41666 6.08162 1.83159C5.66669 2.24652 5.66669 2.91434 5.66669 4.24999" stroke="white"/>
<path d="M11 9.5H6M8.5 7V12" stroke="white" stroke-linecap="round"/>
</g>
<defs>
<clipPath id="clip0_5093_18935">
<rect width="17" height="17" fill="white"/>
</clipPath>
</defs>
</svg>
