<svg width="129" height="129" viewBox="0 0 129 129" fill="none" xmlns="http://www.w3.org/2000/svg">
<path d="M64.5 129C100.122 129 129 100.122 129 64.5C129 28.8776 100.122 0 64.5 0C28.8776 0 0 28.8776 0 64.5C0 100.122 28.8776 129 64.5 129Z" fill="#EBD1B2"/>
<path d="M86.5459 106.185C98.154 106.185 107.564 96.7748 107.564 85.1667C107.564 73.5586 98.154 64.1484 86.5459 64.1484C74.9378 64.1484 65.5276 73.5586 65.5276 85.1667C65.5276 96.7748 74.9378 106.185 86.5459 106.185Z" fill="#A2D8F4"/>
<path d="M86.5466 64.147C85.8409 64.147 85.1437 64.1825 84.4561 64.2503C95.0831 65.2997 103.385 74.2632 103.385 85.1661C103.385 96.0691 95.0831 105.032 84.4561 106.082C85.1437 106.15 85.8412 106.185 86.5466 106.185C98.1552 106.185 107.566 96.7745 107.566 85.166C107.566 73.5574 98.1552 64.147 86.5466 64.147Z" fill="#88C7E2"/>
<path d="M25.687 82.9963C18.5376 75.847 18.5376 64.256 25.687 57.1068L55.7833 27.0105C62.9327 19.8611 74.5237 19.8611 81.6728 27.0105C88.8222 34.1598 88.8222 45.7508 81.6728 52.9L51.5765 82.9963C44.4272 90.1455 32.8362 90.1455 25.687 82.9963Z" fill="#FDEA96"/>
<path d="M81.6725 27.0106C81.1775 26.5156 80.6606 26.0563 80.126 25.6296C85.8587 32.8168 85.3993 43.3183 78.7451 49.9725L48.6489 80.0692C41.9947 86.7233 31.4931 87.1828 24.3059 81.4501C24.7324 81.9848 25.1918 82.5018 25.6868 82.9966C32.8362 90.146 44.4272 90.146 51.5764 82.9966L81.6727 52.9003C88.8219 45.7509 88.8219 34.1599 81.6725 27.0106Z" fill="#E8D37C"/>
<path d="M58.6379 50.0451C51.4885 42.8958 39.8975 42.8958 32.7484 50.0451L25.6862 57.1073C18.5377 64.2563 18.5379 75.8473 25.6867 82.9963C32.8361 90.1457 44.4271 90.1457 51.5762 82.9963L58.6384 75.9341C65.7873 68.785 65.7871 57.1943 58.6379 50.0451Z" fill="#ED2601"/>
<path d="M58.6384 75.9344C61.7495 72.8231 63.5059 68.8705 63.9092 64.8091L48.6489 80.0693C41.9947 86.7235 31.4931 87.183 24.3059 81.4503C24.4107 81.5817 24.5177 81.7122 24.6267 81.8414C24.6295 81.8447 24.6322 81.8481 24.6351 81.8516C24.7369 81.972 24.8406 82.0913 24.9459 82.21C24.9575 82.223 24.969 82.2364 24.9806 82.2492C25.0765 82.3568 25.1748 82.4631 25.2738 82.5688C25.2936 82.5898 25.313 82.6115 25.333 82.6326C25.4488 82.7553 25.5668 82.8767 25.6868 82.997C26.8039 84.114 28.0295 85.0564 29.3296 85.8246C29.4596 85.9014 29.5904 85.9764 29.7219 86.0497C30.5108 86.4895 31.3252 86.8666 32.1577 87.1809C32.2966 87.2333 32.4358 87.2839 32.5755 87.3328C33.1347 87.5282 33.7012 87.6958 34.2732 87.8355C34.7023 87.9401 35.1344 88.0292 35.5685 88.1025C35.8581 88.1514 36.1484 88.1932 36.4395 88.2282C37.895 88.4027 39.3677 88.4027 40.8233 88.2282C41.1144 88.1932 41.4048 88.1514 41.6943 88.1025C42.1285 88.0292 42.5608 87.9401 42.9897 87.8355C43.5617 87.6959 44.1285 87.5284 44.6874 87.3328C44.8271 87.2839 44.9663 87.2333 45.1052 87.1809C45.938 86.8668 46.7524 86.4897 47.541 86.0497C47.6725 85.9764 47.8032 85.9014 47.9333 85.8246C49.2334 85.0566 50.4589 84.114 51.576 82.997L58.6384 75.9344Z" fill="#C91C00"/>
<path d="M65.5276 85.1663C65.5276 86.3546 65.6278 87.5195 65.8173 88.6542H107.276C107.466 87.5195 107.566 86.3548 107.566 85.1663C107.566 83.9779 107.466 82.8131 107.276 81.6785H65.8171C65.6278 82.8131 65.5276 83.9779 65.5276 85.1663Z" fill="#E6E6E6"/>
<path d="M20.4814 67.6664C20.511 67.4401 20.5435 67.2143 20.5815 66.9893C20.5435 67.2143 20.5108 67.4401 20.4814 67.6664Z" fill="#ED2601"/>
<path d="M22.0605 62.2612C22.1112 62.1534 22.1621 62.046 22.2149 61.939C22.1621 62.0458 22.1112 62.1534 22.0605 62.2612Z" fill="#ED2601"/>
<path d="M20.3376 69.401C20.3456 69.1788 20.3561 68.9568 20.3721 68.7351C20.3561 68.9568 20.3456 69.179 20.3376 69.401Z" fill="#ED2601"/>
<path d="M21.1184 64.7112C21.1912 64.4716 21.2682 64.2327 21.3511 63.9956C21.2682 64.2326 21.1915 64.4714 21.1184 64.7112Z" fill="#ED2601"/>
<path d="M21.3601 63.9705C21.5535 63.4199 21.7737 62.8769 22.0212 62.3433C21.7737 62.8769 21.5536 63.4201 21.3601 63.9705Z" fill="#ED2601"/>
<path d="M20.7891 65.9502C20.8087 65.8644 20.8277 65.7788 20.8485 65.6934C20.8276 65.7788 20.8086 65.8644 20.7891 65.9502Z" fill="#ED2601"/>
<path d="M20.8645 65.6297C20.9302 65.365 21.0009 65.1015 21.0786 64.8396C21.0011 65.1017 20.9302 65.3652 20.8645 65.6297Z" fill="#ED2601"/>
<path d="M22.7501 79.1642C22.2607 78.3125 21.8441 77.4301 21.5029 76.5259C21.8441 77.4301 22.2607 78.3123 22.7501 79.1642Z" fill="#ED2601"/>
<path d="M26.7425 83.973C26.5792 83.8333 26.4182 83.6892 26.2585 83.5427C26.418 83.6893 26.579 83.8333 26.7425 83.973Z" fill="#ED2601"/>
<path d="M21.4612 76.4109C21.2185 75.754 21.0133 75.0859 20.8486 74.4102C21.0135 75.0859 21.2183 75.7537 21.4612 76.4109Z" fill="#ED2601"/>
<path d="M20.4245 71.9534C20.4194 71.9045 20.4134 71.8555 20.4087 71.8066C20.4134 71.8555 20.4194 71.9044 20.4245 71.9534Z" fill="#ED2601"/>
<path d="M20.552 72.9255C20.5219 72.7364 20.495 72.5471 20.4709 72.3574C20.4949 72.5471 20.5221 72.7366 20.552 72.9255Z" fill="#ED2601"/>
<path d="M20.8197 74.2859C20.7956 74.1841 20.7713 74.0824 20.749 73.9802C20.7712 74.0824 20.7954 74.1841 20.8197 74.2859Z" fill="#ED2601"/>
<path d="M20.3855 68.5711C20.3929 68.4797 20.3997 68.3883 20.4085 68.2969C20.3997 68.3881 20.3931 68.4797 20.3855 68.5711Z" fill="#ED2601"/>
<path d="M22.9221 60.6457C23.0568 60.421 23.1956 60.1985 23.3407 59.9788C23.1956 60.1987 23.0568 60.4212 22.9221 60.6457Z" fill="#ED2601"/>
<path d="M23.9514 59.1119C24.1063 58.9047 24.265 58.6992 24.4297 58.4971C24.265 58.6994 24.1063 58.9047 23.9514 59.1119Z" fill="#ED2601"/>
<path d="M32.7488 50.0449L32.7485 50.0453L25.6863 57.1074C25.5759 57.2178 25.4676 57.3291 25.3606 57.4414C25.4676 57.3289 25.5763 57.2175 25.6867 57.1071L32.7488 50.0449Z" fill="#ED2601"/>
<path d="M24.4797 58.438C24.6599 58.2188 24.8454 58.0024 25.0373 57.79C24.8454 58.0026 24.6601 58.2189 24.4797 58.438Z" fill="#ED2601"/>
<path d="M22.2532 61.8645C22.3746 61.6216 22.501 61.3804 22.6341 61.1421C22.5008 61.3806 22.3745 61.6216 22.2532 61.8645Z" fill="#ED2601"/>
<path d="M25.0601 57.7653C25.1576 57.6578 25.2562 57.5509 25.3568 57.4451C25.2564 57.5509 25.1578 57.6578 25.0601 57.7653Z" fill="#ED2601"/>
<path d="M20.8485 74.4102C20.8383 74.3689 20.8295 74.3272 20.8198 74.2859C20.8297 74.3272 20.8385 74.3689 20.8485 74.4102Z" fill="#FFF2BB"/>
<path d="M20.749 73.98C20.6725 73.6302 20.6075 73.2783 20.5518 72.9255C20.6077 73.2785 20.6725 73.6302 20.749 73.98Z" fill="#FFF2BB"/>
<path d="M20.4707 72.3572C20.4538 72.2225 20.4384 72.0879 20.4243 71.9529C20.4384 72.0881 20.4538 72.2229 20.4707 72.3572Z" fill="#FFF2BB"/>
<path d="M20.4086 71.8065C20.3857 71.5692 20.369 71.3314 20.3555 71.0938C20.369 71.3314 20.3859 71.5692 20.4086 71.8065Z" fill="#FFF2BB"/>
<path d="M26.7471 83.9768C26.7456 83.9756 26.744 83.9741 26.7424 83.9729C26.7438 83.9745 26.7456 83.9756 26.7471 83.9768Z" fill="#FFF2BB"/>
<path d="M21.5029 76.526C21.4885 76.4877 21.4752 76.4492 21.4609 76.4109C21.4752 76.449 21.4884 76.4877 21.5029 76.526Z" fill="#FFF2BB"/>
<path d="M22.9425 79.491C22.8773 79.3826 22.813 79.2736 22.7502 79.1641C22.8132 79.2736 22.8772 79.3826 22.9425 79.491Z" fill="#FFF2BB"/>
<path d="M25.6868 82.9963L25.6875 82.9973L25.6868 82.9963Z" fill="#FFF2BB"/>
<path d="M22.6338 61.142C22.6756 61.0669 22.7194 60.9927 22.7621 60.9182C22.7192 60.9929 22.6756 61.0669 22.6338 61.142Z" fill="#FFF2BB"/>
<path d="M21.0786 64.8397C21.0913 64.7966 21.1053 64.7539 21.1183 64.7112C21.1053 64.7541 21.0913 64.7966 21.0786 64.8397Z" fill="#FFF2BB"/>
<path d="M20.8484 65.6933C20.8535 65.6722 20.8595 65.651 20.8647 65.6299C20.8595 65.651 20.8537 65.6721 20.8484 65.6933Z" fill="#FFF2BB"/>
<path d="M20.3458 70.9298C20.334 70.6822 20.3283 70.4341 20.3264 70.1863C20.328 70.4341 20.3338 70.6822 20.3458 70.9298Z" fill="#FFF2BB"/>
<path d="M20.749 66.1235C20.7617 66.0655 20.7759 66.008 20.7891 65.9502C20.7759 66.008 20.7617 66.0659 20.749 66.1235Z" fill="#FFF2BB"/>
<path d="M22.2148 61.939C22.2271 61.9141 22.2403 61.8893 22.2528 61.8645C22.2405 61.8893 22.2271 61.9141 22.2148 61.939Z" fill="#FFF2BB"/>
<path d="M22.0215 62.3435C22.0341 62.3159 22.048 62.2887 22.0609 62.2612C22.0479 62.2887 22.0341 62.3159 22.0215 62.3435Z" fill="#FFF2BB"/>
<path d="M21.3511 63.9957C21.3541 63.9872 21.3574 63.979 21.36 63.9707C21.3571 63.9788 21.3541 63.9872 21.3511 63.9957Z" fill="#FFF2BB"/>
<path d="M22.8589 60.7499C22.8795 60.7149 22.9012 60.6808 22.9222 60.646C22.9012 60.6806 22.8796 60.7151 22.8589 60.7499Z" fill="#FFF2BB"/>
<path d="M23.3408 59.979C23.36 59.95 23.3802 59.9215 23.3995 59.8923C23.3802 59.9212 23.3602 59.9498 23.3408 59.979Z" fill="#FFF2BB"/>
<path d="M20.5813 66.989C20.5998 66.88 20.6201 66.7712 20.6405 66.6626C20.62 66.7712 20.5998 66.88 20.5813 66.989Z" fill="#FFF2BB"/>
<path d="M23.864 59.228C23.8925 59.1891 23.9224 59.1512 23.9512 59.1123C23.9225 59.1508 23.8928 59.1891 23.864 59.228Z" fill="#FFF2BB"/>
<path d="M107.276 85.1663H107.566C107.566 83.978 107.466 82.8131 107.276 81.6785H65.817C65.6275 82.8131 65.5273 83.9779 65.5273 85.1663H65.817H107.276Z" fill="#BCBEC0"/>
<path d="M108.7 88.8992C108.795 88.3211 108.868 87.7359 108.919 87.144C108.92 87.1249 108.922 87.1057 108.924 87.0867C108.947 86.8035 108.964 86.519 108.977 86.2328C108.979 86.1867 108.98 86.1409 108.982 86.095C108.993 85.8127 109 85.5295 109 85.2447C109 84.9598 108.993 84.6768 108.982 84.3945C108.98 84.3484 108.979 84.3025 108.977 84.2565C108.964 83.9705 108.947 83.6859 108.924 83.4029C108.922 83.3836 108.92 83.364 108.919 83.3447C108.869 82.7532 108.796 82.1684 108.7 81.5908C108.697 81.5705 108.695 81.55 108.692 81.5298C108.69 81.521 108.688 81.5124 108.686 81.5034C106.9 70.9277 97.6776 62.8462 86.6016 62.8462C75.5257 62.8462 66.3033 70.9277 64.5172 81.5034C64.5156 81.5122 64.5132 81.5206 64.5118 81.5298C64.5084 81.55 64.5063 81.5705 64.503 81.5908C64.4077 82.1684 64.3347 82.7534 64.2846 83.3447C64.2831 83.364 64.281 83.3836 64.2796 83.4029C64.2563 83.6859 64.2389 83.9705 64.2265 84.2565C64.2244 84.3025 64.223 84.3484 64.2212 84.3945C64.2105 84.6768 64.2036 84.9598 64.2036 85.2447C64.2036 85.5297 64.2108 85.8127 64.2212 86.095C64.223 86.141 64.2245 86.1867 64.2265 86.2328C64.2389 86.5188 64.2567 86.8035 64.2796 87.0867C64.2811 87.1059 64.2831 87.1251 64.2846 87.144C64.3347 87.7359 64.4079 88.3211 64.5031 88.8992C64.5065 88.9192 64.5086 88.9395 64.5119 88.9595C64.5133 88.9683 64.5158 88.9767 64.5174 88.9855C66.3033 99.5614 75.5258 107.643 86.6018 107.643C97.6779 107.643 106.9 99.5614 108.686 88.9855C108.688 88.9769 108.69 88.9685 108.692 88.9595C108.694 88.9395 108.697 88.9192 108.7 88.8992ZM86.6013 65.6049C95.7512 65.6049 103.459 71.8947 105.63 80.3774H80.5526C79.7906 80.3774 79.1733 80.9949 79.1733 81.7567C79.1733 82.5185 79.7906 83.1361 80.5526 83.1361H106.128C106.128 83.1405 106.129 83.1448 106.129 83.1492C106.146 83.3106 106.161 83.472 106.174 83.6337C106.175 83.6455 106.177 83.6572 106.177 83.669C106.19 83.8313 106.201 83.9937 106.21 84.1559C106.211 84.1691 106.212 84.1823 106.213 84.1955C106.221 84.3505 106.227 84.5057 106.231 84.6606C106.232 84.6813 106.233 84.7019 106.234 84.7228C106.238 84.8969 106.241 85.0709 106.241 85.2445C106.241 85.4184 106.238 85.5922 106.234 85.7663C106.233 85.7867 106.232 85.8069 106.231 85.8273C106.227 85.9827 106.221 86.1382 106.213 86.2936C106.212 86.3063 106.211 86.3187 106.21 86.3316C106.201 86.4945 106.19 86.6575 106.177 86.8202C106.177 86.8313 106.176 86.8424 106.174 86.8535C106.161 87.0159 106.146 87.1781 106.129 87.34C106.128 87.3442 106.128 87.3485 106.128 87.3527H67.0748C67.0745 87.3485 67.0739 87.3442 67.0734 87.34C67.0562 87.178 67.0411 87.0157 67.0279 86.8535C67.027 86.8424 67.026 86.8313 67.0249 86.8202C67.0119 86.6575 67.0012 86.4945 66.9922 86.3316C66.9915 86.3189 66.9906 86.3064 66.9897 86.2936C66.9815 86.138 66.9755 85.9827 66.9709 85.8273C66.9704 85.8069 66.9692 85.7867 66.9685 85.7663C66.9639 85.5922 66.9614 85.4182 66.9614 85.2445C66.9614 85.0707 66.9639 84.8969 66.9685 84.7228C66.969 84.7021 66.9702 84.6815 66.9709 84.6606C66.9755 84.5056 66.9815 84.3505 66.9897 84.1955C66.9904 84.1823 66.9915 84.1691 66.9924 84.1559C67.0013 83.9935 67.0121 83.8313 67.0251 83.669C67.026 83.6572 67.0274 83.6455 67.0282 83.6337C67.0414 83.472 67.0565 83.3106 67.0736 83.1492C67.0741 83.1448 67.0746 83.1405 67.075 83.1361H76.0238C76.7858 83.1361 77.4032 82.5185 77.4032 81.7567C77.4032 80.9949 76.7858 80.3774 76.0238 80.3774H67.5725C69.7432 71.8947 77.4512 65.6049 86.6013 65.6049ZM86.6013 104.884C77.4513 104.884 69.7432 98.5946 67.5721 90.1119H105.63C103.459 98.5946 95.7512 104.884 86.6013 104.884Z" fill="black"/>
<path d="M82.7025 26.1134C75.027 18.4378 62.5378 18.4378 54.8621 26.1134L52.6515 28.324C52.1127 28.8628 52.1127 29.7361 52.6515 30.2747C53.1903 30.8136 54.0635 30.8135 54.6021 30.2747L56.8126 28.0642C63.4124 21.4644 74.1514 21.4645 80.7515 28.0642C87.3513 34.6641 87.3513 45.4029 80.7515 52.0031L64.8159 67.9391C66.4673 61.4287 64.7521 54.2326 59.6678 49.1483C55.9497 45.43 51.006 43.3823 45.7475 43.3823C44.0892 43.3823 42.4622 43.5864 40.8951 43.9819L51.4008 33.4762C51.9396 32.9374 51.9396 32.0641 51.4008 31.5255C50.862 30.9868 49.9888 30.9868 49.4502 31.5255L24.766 56.2098L24.7656 56.2101C24.7624 56.2133 24.7593 56.2166 24.7563 56.2198C24.6408 56.3354 24.5269 56.4523 24.4146 56.5701C24.3984 56.587 24.3829 56.6046 24.3668 56.6216C24.2666 56.7278 24.1673 56.8345 24.0695 56.9424C24.0662 56.9461 24.063 56.9498 24.0599 56.9535C20.7894 60.5751 19 65.215 19 70.13C19 75.0452 20.7894 79.6849 24.0599 83.3064C24.0634 83.3102 24.0667 83.3141 24.0702 83.318C24.1674 83.4254 24.2664 83.5317 24.3661 83.6374C24.3826 83.6548 24.3984 83.6727 24.4149 83.6899C24.5302 83.811 24.6471 83.9313 24.766 84.0501C24.8848 84.1689 25.005 84.2858 25.1263 84.4013C25.1423 84.4166 25.1587 84.4314 25.1748 84.4463C25.2819 84.5474 25.3896 84.6479 25.4988 84.7466C25.5013 84.7485 25.5035 84.7506 25.5058 84.7529C29.1278 88.0254 33.7693 89.8162 38.6862 89.8162C43.6032 89.8162 48.2447 88.0254 51.8666 84.7529C51.8691 84.7509 51.8714 84.7488 51.8737 84.7466C51.9826 84.6479 52.0906 84.5477 52.1976 84.4463C52.2136 84.431 52.2301 84.4166 52.2461 84.4013C52.3676 84.2858 52.4877 84.1688 52.6065 84.0501L82.703 53.9538C90.3781 46.2783 90.3781 33.7891 82.7025 26.1134ZM57.7173 51.0989C64.3168 57.6986 64.3172 68.4369 57.7182 75.0368L50.6557 82.0993C50.4512 82.3037 50.2424 82.5018 50.0302 82.6938C50 82.721 49.9686 82.7462 49.9383 82.7732C49.7523 82.939 49.5648 83.1021 49.3734 83.2582C49.3679 83.2628 49.3621 83.2668 49.3567 83.2712C43.1639 88.307 34.2133 88.3079 28.0195 83.2737C28.0128 83.2684 28.006 83.2633 27.9993 83.2579C27.8087 83.1026 27.6222 82.9402 27.437 82.7755C27.4057 82.7477 27.3733 82.7217 27.3422 82.6936C27.13 82.5018 26.9214 82.3037 26.717 82.0991C20.1173 75.4994 20.1171 64.7608 26.7164 58.1607L33.7784 51.0987C36.9757 47.9016 41.2264 46.1408 45.7479 46.1408C50.2693 46.1408 54.52 47.902 57.7173 51.0989Z" fill="black"/>
</svg>
