<svg width="20" height="19" viewBox="0 0 20 19" fill="none" xmlns="http://www.w3.org/2000/svg">
<path d="M17.3461 9.25626H18.8188C19.0169 9.25626 19.2069 9.33496 19.3469 9.47504C19.487 9.61511 19.5657 9.8051 19.5657 10.0032C19.5657 10.2013 19.487 10.3913 19.3469 10.5314C19.2069 10.6714 19.0169 10.7501 18.8188 10.7501H17.3461C17.148 10.7501 16.9581 10.6714 16.818 10.5314C16.6779 10.3913 16.5992 10.2013 16.5992 10.0032C16.5992 9.8051 16.6779 9.61511 16.818 9.47504C16.9581 9.33496 17.148 9.25626 17.3461 9.25626ZM1.18126 10.7438H2.65389C2.85199 10.7438 3.04198 10.6651 3.18205 10.525C3.32213 10.3849 3.40083 10.1949 3.40083 9.99683C3.40083 9.79873 3.32213 9.60874 3.18205 9.46866C3.04198 9.32858 2.85199 9.24989 2.65389 9.24989H1.18126C0.983164 9.24989 0.793177 9.32858 0.653099 9.46866C0.513021 9.60874 0.434326 9.79873 0.434326 9.99683C0.434326 10.1949 0.513021 10.3849 0.653099 10.525C0.793177 10.6651 0.983164 10.7438 1.18126 10.7438ZM10 3.40083C10.1973 3.40083 10.3864 3.32247 10.5259 3.18299C10.6654 3.04351 10.7438 2.85433 10.7438 2.65708V1.18126C10.7438 0.983164 10.6651 0.793177 10.525 0.653099C10.3849 0.513021 10.1949 0.434326 9.99683 0.434326C9.79873 0.434326 9.60874 0.513021 9.46866 0.653099C9.32858 0.793177 9.24989 0.983164 9.24989 1.18126V2.6507C9.24904 2.74945 9.26786 2.84737 9.30526 2.93876C9.34265 3.03016 9.39788 3.11319 9.4677 3.18301C9.53753 3.25284 9.62056 3.30806 9.71195 3.34546C9.80334 3.38285 9.90127 3.40168 10 3.40083ZM4.27739 5.33351C4.34674 5.40286 4.42906 5.45787 4.51967 5.4954C4.61027 5.53293 4.70738 5.55224 4.80545 5.55224C4.90352 5.55224 5.00063 5.53293 5.09124 5.4954C5.18184 5.45787 5.26417 5.40286 5.33351 5.33351C5.40286 5.26417 5.45787 5.18184 5.4954 5.09124C5.53293 5.00063 5.55224 4.90352 5.55224 4.80545C5.55224 4.70738 5.53293 4.61027 5.4954 4.51967C5.45787 4.42906 5.40286 4.34674 5.33351 4.27739L4.29439 3.23826C4.15434 3.09821 3.96439 3.01953 3.76633 3.01953C3.56826 3.01953 3.37831 3.09821 3.23826 3.23826C3.09821 3.37831 3.01953 3.56826 3.01953 3.76633C3.01953 3.96439 3.09821 4.15434 3.23826 4.29439L4.27739 5.33351ZM15.7226 5.33351L16.7618 4.29439C16.9018 4.15434 16.9805 3.96439 16.9805 3.76633C16.9805 3.56826 16.9018 3.37831 16.7618 3.23826C16.6217 3.09821 16.4318 3.01953 16.2337 3.01953C16.0356 3.01953 15.8457 3.09821 15.7056 3.23826L14.6665 4.27739C14.5972 4.34674 14.5422 4.42906 14.5046 4.51967C14.4671 4.61027 14.4478 4.70738 14.4478 4.80545C14.4478 4.90352 14.4671 5.00063 14.5046 5.09124C14.5422 5.18184 14.5972 5.26417 14.6665 5.33351C14.7359 5.40286 14.8182 5.45787 14.9088 5.4954C14.9994 5.53293 15.0965 5.55224 15.1946 5.55224C15.2926 5.55224 15.3898 5.53293 15.4804 5.4954C15.571 5.45787 15.6533 5.40286 15.7226 5.33351ZM19.5625 14.4073C19.5625 14.6045 19.4842 14.7937 19.3447 14.9332C19.2052 15.0727 19.016 15.151 18.8188 15.151H1.18126C0.983164 15.151 0.793177 15.0723 0.653099 14.9322C0.513021 14.7922 0.434326 14.6022 0.434326 14.4041C0.434326 14.206 0.513021 14.016 0.653099 13.8759C0.793177 13.7358 0.983164 13.6571 1.18126 13.6571H6.3652C5.63931 12.9371 5.14366 12.0177 4.94116 11.0155C4.73865 10.0133 4.8384 8.97353 5.22776 8.02813C5.61712 7.08273 6.27854 6.27429 7.12809 5.70539C7.97764 5.1365 8.97704 4.83278 9.99948 4.83278C11.0219 4.83278 12.0213 5.1365 12.8709 5.70539C13.7204 6.27429 14.3818 7.08273 14.7712 8.02813C15.1606 8.97353 15.2603 10.0133 15.0578 11.0155C14.8553 12.0177 14.3597 12.9371 13.6338 13.6571H18.8188C18.917 13.6571 19.0142 13.6766 19.1049 13.7144C19.1955 13.7521 19.2778 13.8075 19.3469 13.8772C19.4161 13.947 19.4707 14.0297 19.5077 14.1207C19.5447 14.2117 19.5634 14.3091 19.5625 14.4073ZM9.78751 13.6635H10.2125C11.165 13.6082 12.0584 13.1839 12.703 12.4806C13.3477 11.7772 13.6928 10.8504 13.6652 9.89669C13.6375 8.94304 13.2392 8.03771 12.5549 7.37294C11.8706 6.70817 10.9541 6.3363 10 6.3363C9.04595 6.3363 8.12946 6.70817 7.44513 7.37294C6.7608 8.03771 6.36252 8.94304 6.33487 9.89669C6.30721 10.8504 6.65235 11.7772 7.297 12.4806C7.94166 13.1839 8.83506 13.6082 9.78751 13.6635ZM15.8756 17.3238H4.12333C3.92523 17.3238 3.73524 17.4025 3.59516 17.5426C3.45508 17.6827 3.37639 17.8727 3.37639 18.0708C3.37639 18.2689 3.45508 18.4589 3.59516 18.5989C3.73524 18.739 3.92523 18.8177 4.12333 18.8177H15.8767C16.0748 18.8177 16.2648 18.739 16.4049 18.5989C16.5449 18.4589 16.6236 18.2689 16.6236 18.0708C16.6236 17.8727 16.5449 17.6827 16.4049 17.5426C16.2648 17.4025 16.0748 17.3238 15.8767 17.3238H15.8756Z" fill="#23355F"/>
</svg>
