<svg width="20" height="9" viewBox="0 0 20 9" fill="none" xmlns="http://www.w3.org/2000/svg">
<rect width="20" height="9" rx="1" fill="#FF0000"/>
<path d="M3.518 7V2.1H4.106L6.717 6.027V2.1H7.305V7H6.717L4.106 3.073V7H3.518ZM9.87017 7.084C9.53884 7.084 9.24484 7.00933 8.98817 6.86C8.73151 6.706 8.52851 6.49367 8.37917 6.223C8.23451 5.95233 8.16217 5.63267 8.16217 5.264C8.16217 4.9 8.23451 4.58267 8.37917 4.312C8.52384 4.03667 8.72451 3.82433 8.98117 3.675C9.24251 3.521 9.54351 3.444 9.88417 3.444C10.2202 3.444 10.5095 3.521 10.7522 3.675C10.9995 3.82433 11.1885 4.02267 11.3192 4.27C11.4498 4.51733 11.5152 4.78333 11.5152 5.068C11.5152 5.11933 11.5128 5.17067 11.5082 5.222C11.5082 5.27333 11.5082 5.33167 11.5082 5.397H8.74317C8.75717 5.663 8.81784 5.88467 8.92517 6.062C9.03717 6.23467 9.17484 6.36533 9.33817 6.454C9.50617 6.54267 9.68351 6.587 9.87017 6.587C10.1128 6.587 10.3158 6.531 10.4792 6.419C10.6425 6.307 10.7615 6.15533 10.8362 5.964H11.4172C11.3238 6.286 11.1442 6.55433 10.8782 6.769C10.6168 6.979 10.2808 7.084 9.87017 7.084ZM9.87017 3.941C9.59017 3.941 9.34051 4.02733 9.12117 4.2C8.90651 4.368 8.78284 4.61533 8.75017 4.942H10.9342C10.9202 4.62933 10.8128 4.38433 10.6122 4.207C10.4115 4.02967 10.1642 3.941 9.87017 3.941ZM12.8578 7L11.8428 3.528H12.4308L13.1658 6.251L13.9778 3.528H14.6428L15.4618 6.251L16.1898 3.528H16.7848L15.7698 7H15.1678L14.3138 4.137L13.4598 7H12.8578Z" fill="white"/>
</svg>
