<svg id="Nurse" xmlns="http://www.w3.org/2000/svg" width="17.275" height="23.154" viewBox="0 0 17.275 23.154">
                      <path id="Path_13" data-name="Path 13" d="M22.99,21.4V13.483a8.66,8.66,0,0,0-2.7-6.27l.735-1.681a.84.84,0,0,0-.232-.983,11.218,11.218,0,0,0-6.624-2.323A10.136,10.136,0,0,0,7.838,4.533a.84.84,0,0,0-.275.945L8.25,7.406a8.657,8.657,0,0,0-2.517,6.077V21.4a3.562,3.562,0,0,0,3.418,3.98,3.772,3.772,0,0,0,3.334-1.763,5.812,5.812,0,0,1-4-5.5l-.037-2.538A.841.841,0,1,1,8.63,13.9c2.632.288,4.562-.072,5.59-1.038a2.6,2.6,0,0,0,.824-1.91.852.852,0,0,1,.893-.8.825.825,0,0,1,.784.8,3.931,3.931,0,0,0,1.124,2.479A2.96,2.96,0,0,0,20.164,14a.839.839,0,0,1,.925.747.855.855,0,0,1-.978.937l.013,2.418a5.809,5.809,0,0,1-3.905,5.481A3.729,3.729,0,0,0,19.7,25.365,3.647,3.647,0,0,0,22.99,21.4ZM16.94,6.511a.381.381,0,0,1-.382.381H15.3V8.134a.382.382,0,0,1-.381.382H13.8a.382.382,0,0,1-.381-.382V6.892H12.164a.381.381,0,0,1-.382-.381V5.406a.382.38784A.381.381,0,0,1,13.8,3.4h1.123a.381.381,0,0,1,.381.382v1.24h1.255a.382.382,0,0,1,.382.382Z" transform="translate(-5.723 -2.226)" fill="#fff"></path>
                    </svg>