<svg width="220" height="183" viewBox="0 0 220 183" fill="none" xmlns="http://www.w3.org/2000/svg">
<g clip-path="url(#clip0_156_757)">
<path d="M144.729 0H80.8006C70.8578 0 62.7976 8.06023 62.7976 18.003V164.086C62.7976 174.029 70.8578 182.089 80.8006 182.089H144.729C154.672 182.089 162.732 174.029 162.732 164.086V18.003C162.732 8.06023 154.672 0 144.729 0Z" fill="#3F3D56"/>
<path d="M161.046 18.0042V164.086C161.041 168.413 159.321 172.56 156.262 175.619C153.202 178.678 149.055 180.399 144.729 180.404H80.8014C76.4753 180.399 72.3278 178.678 69.2687 175.619C66.2097 172.56 64.4889 168.413 64.4839 164.086V18.0042C64.4889 13.6781 66.2097 9.53058 69.2687 6.47154C72.3278 3.41249 76.4753 1.69171 80.8014 1.68671H89.161V4.57439C89.161 5.88169 89.6804 7.13543 90.6048 8.05983C91.5292 8.98424 92.783 9.50359 94.0903 9.50367H131.44C132.747 9.50359 134.001 8.98424 134.925 8.05983C135.85 7.13543 136.369 5.88169 136.369 4.57439V1.68671H144.729C149.055 1.69172 153.202 3.41249 156.262 6.47154C159.321 9.53058 161.041 13.6781 161.046 18.0042Z" fill="white"/>
<path d="M62.338 36.939C62.0129 36.9386 61.7012 36.8093 61.4714 36.5794C61.2415 36.3496 61.1122 36.0379 61.1118 35.7128V33.2604C61.1118 32.9352 61.241 32.6233 61.471 32.3934C61.7009 32.1634 62.0128 32.0342 62.338 32.0342C62.6632 32.0342 62.9751 32.1634 63.2051 32.3934C63.435 32.6233 63.5642 32.9352 63.5642 33.2604V35.7128C63.5638 36.0379 63.4345 36.3496 63.2046 36.5794C62.9748 36.8093 62.6631 36.9386 62.338 36.939Z" fill="#3F3D56"/>
<path d="M62.338 49.514C62.0129 49.5137 61.7012 49.3844 61.4714 49.1545C61.2415 48.9246 61.1122 48.6129 61.1118 48.2879V41.5372C61.1118 41.212 61.241 40.9001 61.471 40.6702C61.7009 40.4402 62.0128 40.311 62.338 40.311C62.6632 40.311 62.9751 40.4402 63.2051 40.6702C63.435 40.9001 63.5642 41.212 63.5642 41.5372V48.2879C63.5638 48.6129 63.4345 48.9246 63.2046 49.1545C62.9748 49.3844 62.6631 49.5137 62.338 49.514Z" fill="#3F3D56"/>
<path d="M62.338 59.6235C62.0129 59.6231 61.7012 59.4938 61.4714 59.2639C61.2415 59.0341 61.1122 58.7224 61.1118 58.3973V51.6467C61.1118 51.3215 61.241 51.0096 61.471 50.7796C61.7009 50.5497 62.0128 50.4205 62.338 50.4205C62.6632 50.4205 62.9751 50.5497 63.2051 50.7796C63.435 51.0096 63.5642 51.3215 63.5642 51.6467V58.3973C63.5638 58.7224 63.4345 59.0341 63.2046 59.2639C62.9748 59.4938 62.6631 59.6231 62.338 59.6235Z" fill="#3F3D56"/>
<path d="M162.885 54.1056C162.56 54.1052 162.249 53.9759 162.019 53.7461C161.789 53.5162 161.66 53.2045 161.659 52.8794V36.4076C161.659 36.0824 161.788 35.7705 162.018 35.5405C162.248 35.3106 162.56 35.1814 162.885 35.1814C163.211 35.1814 163.522 35.3106 163.752 35.5405C163.982 35.7705 164.112 36.0824 164.112 36.4076V52.8794C164.111 53.2045 163.982 53.5162 163.752 53.7461C163.522 53.9759 163.21 54.1052 162.885 54.1056Z" fill="#3F3D56"/>
<path d="M115.399 5.62386H105.896C105.693 5.62386 105.498 5.54312 105.354 5.3994C105.21 5.25568 105.13 5.06075 105.13 4.85749C105.13 4.65424 105.21 4.45931 105.354 4.31559C105.498 4.17187 105.693 4.09113 105.896 4.09113H115.399C115.602 4.09113 115.797 4.17187 115.941 4.31559C116.085 4.45931 116.165 4.65424 116.165 4.85749C116.165 5.06075 116.085 5.25568 115.941 5.3994C115.797 5.54312 115.602 5.62386 115.399 5.62386Z" fill="white"/>
<path d="M120.304 5.47057C120.642 5.47057 120.917 5.19608 120.917 4.85748C120.917 4.51888 120.642 4.24438 120.304 4.24438C119.965 4.24438 119.691 4.51888 119.691 4.85748C119.691 5.19608 119.965 5.47057 120.304 5.47057Z" fill="white"/>
<path d="M193.969 174.431C194.193 174.439 194.413 174.378 194.602 174.257C194.79 174.135 194.936 173.958 195.02 173.751C195.105 173.543 195.123 173.315 195.074 173.097C195.024 172.878 194.908 172.68 194.742 172.53C194.714 172.421 194.693 172.342 194.665 172.233C194.874 171.687 195.241 171.216 195.719 170.88C196.198 170.544 196.766 170.358 197.35 170.347C197.935 170.336 198.509 170.5 199 170.818C199.491 171.135 199.876 171.592 200.105 172.13C201.429 175.148 203.135 178.269 202.333 181.615C207.726 169.897 205.716 155.403 197.486 145.504C195.226 144.287 193.383 142.103 192.884 139.553C194 139.919 195.379 139.001 194.531 137.836C194.164 137.392 193.794 136.951 193.427 136.506C197.611 131.964 202.715 138.992 198.12 145.112C199.661 147.006 200.999 149.056 202.113 151.228C201.838 148.913 202.117 146.566 202.927 144.379C203.749 142.341 205.31 140.616 206.683 138.848C208.351 136.693 211.837 137.647 212.09 140.358C210.536 140.886 210.355 143.139 212.141 143.43C211.722 148.483 208.468 153.154 203.946 155.411C205.668 160.102 206.371 165.107 206.008 170.091C206.754 164.263 212.988 162.791 217.333 160.436C217.609 160.255 217.932 160.159 218.262 160.158C218.592 160.158 218.915 160.253 219.192 160.433C219.469 160.613 219.687 160.87 219.821 161.172C219.954 161.474 219.997 161.808 219.943 162.134C219.343 162.385 218.769 162.695 218.23 163.059C217.977 163.233 217.785 163.48 217.678 163.767C217.571 164.054 217.556 164.367 217.635 164.663C217.713 164.96 217.881 165.224 218.116 165.421C218.35 165.618 218.64 165.738 218.946 165.763C216.796 171.232 211.14 174.944 205.295 174.979C204.757 177.425 203.966 179.809 202.935 182.091L194.26 182.174C194.228 182.078 194.199 181.979 194.17 181.883C194.973 181.925 195.779 181.87 196.569 181.717C194.421 179.222 192.766 177.954 193.969 174.431Z" fill="#E6E6E6"/>
<path d="M26.0557 174.431C25.8318 174.439 25.6109 174.378 25.4227 174.257C25.2346 174.135 25.0884 173.958 25.004 173.751C24.9196 173.543 24.9009 173.315 24.9507 173.097C25.0004 172.878 25.116 172.68 25.282 172.53C25.3105 172.421 25.3311 172.342 25.3596 172.233C25.1507 171.687 24.7834 171.216 24.3049 170.88C23.8265 170.544 23.2586 170.358 22.674 170.347C22.0895 170.336 21.515 170.5 21.0241 170.818C20.5332 171.135 20.1484 171.592 19.9189 172.13C18.5953 175.148 16.8897 178.269 17.6913 181.615C12.2979 169.897 14.308 155.403 22.5379 145.504C24.7983 144.287 26.6418 142.103 27.1406 139.553C26.0241 139.919 24.6453 139.001 25.4931 137.836C25.8601 137.392 26.2305 136.951 26.5974 136.506C22.413 131.964 17.3089 138.992 21.904 145.112C20.3637 147.006 19.0257 149.056 17.9116 151.228C18.1861 148.913 17.9071 146.566 17.0975 144.379C16.2753 142.341 14.7142 140.616 13.3418 138.848C11.6733 136.693 8.1878 137.647 7.9347 140.358C9.48849 140.886 9.66954 143.139 7.88367 143.43C8.30258 148.483 11.5566 153.154 16.0782 155.411C14.3558 160.102 13.6531 165.107 14.0168 170.091C13.2703 164.263 7.03626 162.791 2.69155 160.436C2.41532 160.255 2.09242 160.159 1.76224 160.158C1.43205 160.158 1.10886 160.253 0.832087 160.433C0.555313 160.613 0.336919 160.87 0.203547 161.172C0.070175 161.474 0.0275892 161.808 0.0809861 162.134C0.68135 162.385 1.25531 162.695 1.79443 163.059C2.04702 163.233 2.23981 163.48 2.34639 163.767C2.45296 164.054 2.4681 164.367 2.38972 164.663C2.31134 164.96 2.14329 165.224 1.90859 165.421C1.6739 165.618 1.38405 165.738 1.07878 165.763C3.22802 171.232 8.88396 174.944 14.7289 174.979C15.2673 177.425 16.0585 179.809 17.0897 182.091L25.7645 182.174C25.7966 182.078 25.8255 181.979 25.8544 181.883C25.051 181.925 24.2453 181.87 23.4554 181.717C25.6037 179.222 27.2589 177.954 26.0559 174.431L26.0557 174.431Z" fill="#E6E6E6"/>
<path d="M85.5085 8.91228H77.2317C76.8252 8.91228 76.4354 8.75079 76.1479 8.46335C75.8605 8.17591 75.699 7.78605 75.699 7.37954C75.699 6.97303 75.8605 6.58317 76.1479 6.29573C76.4354 6.00829 76.8252 5.8468 77.2317 5.8468H85.5085C85.915 5.8468 86.3049 6.00829 86.5923 6.29573C86.8798 6.58317 87.0412 6.97303 87.0412 7.37954C87.0412 7.78605 86.8798 8.17591 86.5923 8.46335C86.3049 8.75079 85.915 8.91228 85.5085 8.91228Z" fill="#E6E6E6"/>
<path d="M139.767 8.75899C140.529 8.75899 141.147 8.14138 141.147 7.37953C141.147 6.61767 140.529 6.00006 139.767 6.00006C139.006 6.00006 138.388 6.61767 138.388 7.37953C138.388 8.14138 139.006 8.75899 139.767 8.75899Z" fill="#E6E6E6"/>
<path d="M144.059 8.75899C144.821 8.75899 145.439 8.14138 145.439 7.37953C145.439 6.61767 144.821 6.00006 144.059 6.00006C143.297 6.00006 142.68 6.61767 142.68 7.37953C142.68 8.14138 143.297 8.75899 144.059 8.75899Z" fill="#E6E6E6"/>
<path d="M148.351 8.75899C149.113 8.75899 149.73 8.14138 149.73 7.37953C149.73 6.61767 149.113 6.00006 148.351 6.00006C147.589 6.00006 146.971 6.61767 146.971 7.37953C146.971 8.14138 147.589 8.75899 148.351 8.75899Z" fill="#E6E6E6"/>
<path d="M138.803 30.3351H86.7819C85.7742 30.3365 84.8081 30.7374 84.0956 31.45C83.383 32.1625 82.9821 33.1286 82.9807 34.1363V67.9515C82.9821 68.9592 83.383 69.9253 84.0956 70.6378C84.8081 71.3504 85.7742 71.7513 86.7819 71.7527H138.803C139.811 71.7519 140.777 71.3511 141.49 70.6384C142.203 69.9257 142.603 68.9594 142.604 67.9515V34.1363C142.603 33.1284 142.203 32.1621 141.49 31.4494C140.777 30.7367 139.811 30.3359 138.803 30.3351Z" fill="#F2F2F2"/>
<path d="M122.517 44.7709C117.816 53.0829 112.628 61.1099 106.981 68.8103H98.8228C104.166 62.3006 109.514 55.791 114.865 49.2813C116.4 47.4069 118.066 45.4433 120.369 44.6817L122.517 44.7709Z" fill="#3F3D56"/>
<path d="M111.675 43.438C110.824 44.3246 110.009 45.2469 109.242 46.205C107.552 48.24 105.886 50.2928 104.214 52.3398C103.172 53.6131 102.131 54.8865 101.102 56.1599C100.775 55.9499 100.464 55.7152 100.173 55.4577C98.5292 54.0307 97.5094 52.0163 97.3325 49.8464C97.1556 47.6765 97.8356 45.5236 99.2269 43.849C100.618 42.1744 102.61 41.1115 104.776 40.8878C106.941 40.6642 109.108 41.2977 110.813 42.6526C111.12 42.8921 111.408 43.1547 111.675 43.438Z" fill="#FFD233"/>
<path d="M142.604 42.4713V43.7067L142.052 43.5044L134.288 40.6657C131.759 39.743 129.236 38.6885 126.624 38.0233C124.352 37.3733 121.938 37.4042 119.684 38.1122C117.674 38.8558 115.834 39.9975 114.276 41.4689C113.586 42.1065 112.918 42.7595 112.271 43.4369C112.06 43.6607 111.848 43.8845 111.64 44.1083C111.014 44.7888 110.411 45.4847 109.837 46.205C108.148 48.2405 106.481 50.2944 104.81 52.3391C103.768 53.6143 102.725 54.8865 101.695 56.1586C98.2559 60.3675 94.8369 64.5846 91.4383 68.8099C90.9806 68.8047 90.5249 68.7471 90.0803 68.6382C93.5474 64.3312 97.0308 60.0355 100.531 55.7509C100.61 55.6528 100.69 55.5547 100.77 55.4566C101.18 54.9447 101.6 54.4297 102.017 53.9178C103.762 51.7811 105.507 49.6465 107.253 47.514C108.522 45.9629 109.782 44.4056 111.149 42.9342C111.232 42.8391 111.318 42.7472 111.407 42.6522C111.539 42.5111 111.67 42.3732 111.805 42.2291C114.776 39.1606 118.482 36.4476 122.921 36.3741C125.533 36.3342 128.055 37.1619 130.483 38.0356C133.098 38.9828 135.704 39.9454 138.316 40.9018L142.604 42.4713Z" fill="#3F3D56"/>
<path d="M143.827 146.413H81.7028C80.6951 146.412 79.729 146.011 79.0164 145.298C78.3038 144.586 77.903 143.619 77.9019 142.612V134.239C77.903 133.231 78.3038 132.265 79.0164 131.553C79.729 130.84 80.6951 130.439 81.7028 130.438H143.827C144.835 130.439 145.801 130.84 146.514 131.553C147.226 132.265 147.627 133.231 147.628 134.239V142.612C147.627 143.619 147.226 144.586 146.514 145.298C145.801 146.011 144.835 146.412 143.827 146.413Z" fill="#F2F2F2"/>
<path d="M143.827 103.496H81.7028C80.6951 103.495 79.729 103.094 79.0164 102.381C78.3038 101.669 77.903 100.703 77.9019 99.6951V91.3224C77.903 90.3147 78.3038 89.3486 79.0164 88.636C79.729 87.9235 80.6951 87.5226 81.7028 87.5215H143.827C144.835 87.5226 145.801 87.9235 146.514 88.636C147.226 89.3486 147.627 90.3147 147.628 91.3224V99.6951C147.627 100.703 147.226 101.669 146.514 102.381C145.801 103.094 144.835 103.495 143.827 103.496Z" fill="#F2F2F2"/>
<path d="M143.827 124.954H81.7028C80.6951 124.953 79.729 124.552 79.0164 123.84C78.3038 123.127 77.903 122.161 77.9019 121.153V112.781C77.903 111.773 78.3038 110.807 79.0164 110.094C79.729 109.382 80.6951 108.981 81.7028 108.98H143.827C144.835 108.981 145.801 109.382 146.514 110.094C147.226 110.807 147.627 111.773 147.628 112.781V121.153C147.627 122.161 147.226 123.127 146.514 123.84C145.801 124.552 144.835 124.953 143.827 124.954Z" fill="#F2F2F2"/>
<path d="M120.313 136.992H102.008C101.791 136.992 101.583 136.906 101.429 136.753C101.276 136.599 101.189 136.391 101.189 136.174C101.189 135.956 101.276 135.748 101.429 135.595C101.583 135.441 101.791 135.355 102.008 135.355H120.313C120.53 135.355 120.738 135.441 120.892 135.595C121.045 135.748 121.132 135.956 121.132 136.174C121.132 136.391 121.045 136.599 120.892 136.753C120.738 136.906 120.53 136.992 120.313 136.992Z" fill="white"/>
<path d="M137.918 141.496H101.803C101.586 141.496 101.378 141.41 101.224 141.256C101.071 141.103 100.985 140.894 100.985 140.677C100.985 140.46 101.071 140.252 101.224 140.098C101.378 139.945 101.586 139.858 101.803 139.858H137.918C138.135 139.858 138.343 139.945 138.497 140.098C138.65 140.252 138.737 140.46 138.737 140.677C138.737 140.894 138.65 141.103 138.497 141.256C138.343 141.41 138.135 141.496 137.918 141.496Z" fill="white"/>
<path d="M92.2838 143.916C95.3159 143.916 97.7739 141.458 97.7739 138.425C97.7739 135.393 95.3159 132.935 92.2838 132.935C89.2517 132.935 86.7937 135.393 86.7937 138.425C86.7937 141.458 89.2517 143.916 92.2838 143.916Z" fill="white"/>
<path d="M91.0603 145.841C90.5001 145.579 89.8598 145.547 89.2757 145.75C88.6916 145.953 88.2098 146.376 87.9328 146.929C87.8782 147.042 87.8332 147.16 87.798 147.28L79.5307 147.774L78.3054 152.057L89.5575 150.156C90.0693 150.263 90.6021 150.198 91.0727 149.97C91.5434 149.742 91.9254 149.365 92.1592 148.897C92.2897 148.63 92.3662 148.34 92.3844 148.043C92.4027 147.746 92.3622 147.448 92.2654 147.167C92.1686 146.885 92.0173 146.626 91.8202 146.403C91.6231 146.18 91.384 145.998 91.1166 145.868C91.098 145.859 91.0792 145.85 91.0603 145.841Z" fill="#FFB6B6"/>
<path d="M72.8119 124.714C72.2671 124.491 71.6807 124.388 71.0926 124.412C70.5044 124.436 69.9283 124.586 69.4035 124.853C68.8787 125.119 68.4174 125.496 68.051 125.956C67.6846 126.417 67.4217 126.951 67.2803 127.523L65.0073 136.702L65.4349 152.76C65.4349 152.76 77.2989 155.036 79.2906 153.573C81.2822 152.11 81.0952 151.02 81.2822 152.11C81.4692 153.199 82.3241 153.656 82.336 153.223C82.3478 152.789 82.4445 152.863 82.9408 152.733C83.4372 152.602 85.6277 151.795 85.6277 151.795L85.7258 147.217C85.7258 147.217 82.1044 145.844 81.2258 146.253C80.3472 146.663 81.4128 147.343 80.3472 146.663C79.2816 145.983 79.1652 143.838 78.983 145.771C78.8008 147.705 78.2674 148.065 77.4685 147.205C76.6696 146.345 72.9682 146.894 72.9682 146.894L75.3235 129.044C75.442 128.146 75.2598 127.235 74.8054 126.451C74.351 125.668 73.65 125.057 72.8119 124.714Z" fill="#FFD233"/>
<path d="M152.709 172.334L152.834 168.953L139.851 166.863L139.667 171.853L152.709 172.334Z" fill="#FFB6B6"/>
<path d="M150.352 173.352L150.229 167.938L152.543 168.024L156.28 163.019C156.464 162.772 156.723 162.59 157.018 162.5C157.313 162.41 157.63 162.417 157.92 162.52C158.211 162.622 158.462 162.815 158.635 163.07C158.809 163.325 158.896 163.629 158.885 163.938L158.648 170.369L156.317 171.393L158.591 171.91L158.501 174.335L150.352 173.352Z" fill="#2F2E41"/>
<path d="M79.6404 180.088L120.762 175.307C120.762 175.307 138.519 176.332 142.686 173.622L147.079 173.067L147.317 166.614C147.317 166.614 144.631 166.633 143.086 165.914C141.541 165.194 142.615 164.313 141.142 165.179C139.669 166.045 139.825 166.149 138.686 165.751C137.547 165.353 85.3315 163.219 85.3315 163.219L79.6404 180.088Z" fill="#2F2E41"/>
<path d="M133.827 177.288L136.218 174.894L128.122 164.531L124.594 168.065L133.827 177.288Z" fill="#FFB6B6"/>
<path d="M131.407 176.431L134.999 172.379L136.638 174.015L142.781 172.888C143.084 172.832 143.398 172.874 143.675 173.009C143.952 173.144 144.179 173.364 144.323 173.637C144.466 173.911 144.519 174.222 144.473 174.527C144.426 174.832 144.284 175.115 144.066 175.333L139.518 179.886L137.113 179.052L138.428 180.977L136.713 182.694L131.407 176.431Z" fill="#2F2E41"/>
<path d="M63.4167 157.568L63.8256 167.07C64.3068 178.257 76.6268 185.028 86.18 179.187C86.356 179.08 86.5327 178.968 86.7099 178.853C86.7099 178.853 90.3316 177.88 90.2216 176.34C90.1117 174.8 90.9965 174.05 91.7794 174.47C92.5624 174.89 102.814 160.341 102.814 160.341C102.814 160.341 124.113 170.966 128.812 173.467L133.77 172.116C133.77 172.116 135.636 172.997 134.964 171.723C134.292 170.448 134.171 171.058 133.965 169.67C133.758 168.281 133.23 166.559 132.91 166.632C132.589 166.704 106.56 148.486 106.56 148.486C106.56 148.486 102.319 144.194 97.059 147.028C96.9495 147.444 97.0431 147.458 97.0431 147.458L79.6667 161.617L77.2114 156.955L63.4167 157.568Z" fill="#2F2E41"/>
<path d="M75.0958 122.651L67.6456 119.159L65.4151 123.04C65.4151 123.04 59.4246 131.589 59.3377 137.756C59.2508 143.923 60.3139 145.757 60.3139 145.757C60.3139 145.757 57.7311 147.688 59.0225 148.869C60.3139 150.049 63.173 150.558 60.9771 151.07C58.7812 151.582 59.3377 156.762 61.7901 157.682C64.2424 158.601 77.413 158.593 77.413 158.593C77.2946 158.192 77.2859 157.766 77.3878 157.359C77.4896 156.953 77.6984 156.582 77.9923 156.284C79.0133 155.26 79.933 155.995 79.0133 154.401C78.0937 152.808 76.561 153.727 77.7871 151.582C79.0133 149.436 79.0129 148.795 79.0129 148.795C79.0129 148.795 81.5126 144.037 77.7474 138.876C77.5179 138.562 77.7109 138.55 77.7109 138.55L74.6706 128.361L75.0958 122.651Z" fill="#FFD233"/>
<path d="M63.0895 107.969C63.1525 109.543 62.1608 111.773 61.6724 113.117C61.1502 114.555 63.4134 116.462 64.8619 116.88C64.9373 116.382 65.1857 115.927 65.5635 115.594C65.4591 116.068 65.45 116.559 65.5367 117.037L77.7826 119.825C79.9857 117.274 82.2008 113.606 81.7177 109.183C81.8334 108.343 81.6984 107.487 81.3297 106.724C80.9609 105.96 80.3749 105.323 79.6451 104.891L73.4542 101.234C70.8209 100.634 67.5047 100.272 65.6027 101.902C64.7529 102.658 64.0854 103.596 63.6501 104.647C63.2148 105.698 63.0232 106.834 63.0895 107.969Z" fill="#2F2E41"/>
<path d="M74.0355 118.477C77.9294 118.477 81.0861 115.32 81.0861 111.427C81.0861 107.533 77.9294 104.376 74.0355 104.376C70.1415 104.376 66.9849 107.533 66.9849 111.427C66.9849 115.32 70.1415 118.477 74.0355 118.477Z" fill="#FFB6B6"/>
<path d="M65.7758 107.66L65.4355 109.154L71.3837 110.508C71.3889 110.206 71.4566 109.908 71.5825 109.633C71.7084 109.359 71.8897 109.113 72.1151 108.911C71.9868 109.497 72.0014 110.105 72.1578 110.685C75.3657 112.485 78.2569 113.122 80.8496 112.663C81.2008 112.743 81.5694 112.68 81.8743 112.489C82.1792 112.297 82.3955 111.992 82.4754 111.64C83.5186 107.058 80.7857 102.375 76.2261 101.238C75.1178 100.961 73.9653 100.908 72.8362 101.082C71.7071 101.256 70.6242 101.654 69.6508 102.252C68.6775 102.85 67.8334 103.636 67.168 104.565C66.5026 105.494 66.0292 106.546 65.7758 107.66Z" fill="#2F2E41"/>
<path d="M69.2534 97.7996C70.0377 97.6293 70.8678 97.6705 71.5769 97.1392L71.1118 98.2068C72.4012 97.8535 73.7758 97.9908 74.9698 98.5921C75.3249 98.7513 75.6277 99.0076 75.8433 99.3315C75.9591 99.5271 76.0296 99.7463 76.0495 99.9728C76.0693 100.199 76.0381 100.427 75.9581 100.64C75.8819 100.823 75.7684 100.987 75.625 101.124C75.4815 101.26 75.3112 101.365 75.1249 101.432C74.7948 101.531 74.4489 101.567 74.1054 101.538C72.6578 101.505 71.2103 101.471 69.7628 101.437C69.2111 101.471 68.6598 101.364 68.1612 101.126C67.8961 100.962 67.6845 100.725 67.5525 100.442C67.4205 100.16 67.3738 99.8454 67.4181 99.5369C67.5562 98.5665 68.4691 97.9698 69.2534 97.7996Z" fill="#2F2E41"/>
<path d="M107.5 153.058C107.483 153.038 107.464 153.02 107.442 153.005C107.389 152.944 107.325 152.894 107.253 152.857L106.737 152.581L103.312 148.778C103.114 148.675 102.883 148.653 102.669 148.717L102.66 148.719L101.193 149.173L99.931 149.565L98.1683 150.111L86.162 153.829L78.27 156.272C78.0566 156.34 77.8783 156.488 77.7734 156.686C77.6685 156.884 77.6454 157.115 77.7092 157.329C77.7463 157.447 77.8076 157.556 77.8893 157.649L78.1405 157.929L78.6672 158.516L79.8877 161.045L80.2263 161.423C80.3342 161.543 80.4741 161.63 80.6297 161.674C80.7853 161.717 80.9501 161.716 81.1048 161.669L107.104 154.439C107.24 154.396 107.362 154.319 107.46 154.217C107.559 154.115 107.631 153.99 107.67 153.854C107.709 153.717 107.714 153.573 107.684 153.435C107.655 153.296 107.591 153.166 107.5 153.058Z" fill="#CCCCCC"/>
<path d="M105.956 115.443L105.453 115.524C105.314 115.547 105.191 115.624 105.109 115.737L104.887 116.048L102.887 121.051C102.805 121.165 102.772 121.307 102.796 121.446L103.03 122.871L102.144 148.317C102.166 148.448 102.237 148.567 102.342 148.649L106.227 153.846L106.318 153.918L106.513 154.071C106.614 154.148 106.738 154.188 106.865 154.183L107.195 154.167C107.27 154.163 107.343 154.144 107.41 154.11C107.477 154.076 107.536 154.028 107.583 153.969C107.63 153.911 107.665 153.844 107.684 153.771C107.703 153.699 107.706 153.623 107.693 153.549L106.566 115.878C106.543 115.74 106.467 115.616 106.353 115.534C106.239 115.453 106.097 115.42 105.959 115.442L105.956 115.443Z" fill="#CCCCCC"/>
<path d="M105.113 117.42L103.341 122.819L102.655 144.386L105.414 146.838L105.113 117.42Z" fill="#FFD233"/>
<path d="M91.4063 150.318C90.846 150.056 90.2057 150.023 89.6216 150.226C89.0375 150.429 88.5557 150.852 88.2787 151.405C88.2242 151.518 88.1791 151.636 88.144 151.757L79.8766 152.251L78.6514 156.534L89.9034 154.633C90.4152 154.74 90.948 154.674 91.4187 154.446C91.8894 154.219 92.2714 153.841 92.5052 153.374C92.7687 152.834 92.8069 152.211 92.6113 151.643C92.4158 151.075 92.0026 150.608 91.4626 150.344C91.4439 150.335 91.4252 150.326 91.4063 150.318Z" fill="#FFB6B6"/>
<path d="M73.1578 129.19C72.613 128.968 72.0266 128.865 71.4385 128.889C70.8504 128.912 70.2743 129.063 69.7495 129.329C69.2246 129.596 68.7633 129.972 68.3969 130.433C68.0306 130.894 67.7677 131.428 67.6262 131.999L65.3533 141.178L65.7808 157.236C65.7808 157.236 77.6448 159.513 79.6365 158.049C81.6282 156.586 81.4412 155.497 81.6282 156.586C81.8152 157.675 82.67 158.132 82.6819 157.699C82.6938 157.266 82.7905 157.34 83.2868 157.209C83.7831 157.079 85.9736 156.271 85.9736 156.271L86.0717 151.693C86.0717 151.693 82.4503 150.32 81.5717 150.73C80.6932 151.139 81.7587 151.819 80.6932 151.139C79.6276 150.46 79.5111 148.314 79.3289 150.248C79.1467 152.181 78.6133 152.541 77.8144 151.681C77.0155 150.822 73.3141 151.371 73.3141 151.371L75.6695 133.521C75.7879 132.623 75.6058 131.711 75.1514 130.928C74.697 130.144 73.996 129.533 73.1578 129.19Z" fill="#FFD233"/>
<path d="M1.61459e-06 182.438C-0.000141258 182.486 0.00919915 182.534 0.0274822 182.578C0.0457652 182.623 0.0726329 182.663 0.106537 182.697C0.140442 182.731 0.180713 182.758 0.225038 182.776C0.269363 182.794 0.316866 182.803 0.364813 182.803H219.635C219.732 182.803 219.825 182.765 219.893 182.696C219.962 182.628 220 182.535 220 182.438C220 182.342 219.962 182.249 219.893 182.181C219.825 182.112 219.732 182.074 219.635 182.074H0.364794C0.316849 182.074 0.269351 182.083 0.225029 182.101C0.180707 182.119 0.140435 182.146 0.106533 182.18C0.0726305 182.214 0.0457647 182.254 0.0274822 182.299C0.00919972 182.343 -0.000139619 182.391 1.61459e-06 182.438Z" fill="#CCCCCC"/>
<path d="M193.488 103.496H131.364C130.356 103.495 129.39 103.094 128.677 102.381C127.965 101.669 127.564 100.703 127.563 99.6951V91.3224C127.564 90.3147 127.965 89.3486 128.677 88.636C129.39 87.9235 130.356 87.5226 131.364 87.5215H193.488C194.496 87.5226 195.462 87.9235 196.175 88.636C196.887 89.3486 197.288 90.3147 197.289 91.3224V99.6951C197.288 100.703 196.887 101.669 196.175 102.381C195.462 103.094 194.496 103.495 193.488 103.496Z" fill="#E6E6E6"/>
<path d="M169.973 94.0758H151.669C151.452 94.0758 151.243 93.9895 151.09 93.836C150.936 93.6824 150.85 93.4741 150.85 93.257C150.85 93.0398 150.936 92.8315 151.09 92.6779C151.243 92.5244 151.452 92.4381 151.669 92.4381H169.973C170.191 92.4381 170.399 92.5244 170.552 92.6779C170.706 92.8315 170.792 93.0398 170.792 93.257C170.792 93.4741 170.706 93.6824 170.552 93.836C170.399 93.9895 170.191 94.0758 169.973 94.0758Z" fill="white"/>
<path d="M187.579 98.5795H151.464C151.247 98.5795 151.039 98.4932 150.885 98.3396C150.732 98.1861 150.646 97.9778 150.646 97.7606C150.646 97.5434 150.732 97.3352 150.885 97.1816C151.039 97.028 151.247 96.9418 151.464 96.9418H187.579C187.796 96.9418 188.004 97.028 188.158 97.1816C188.311 97.3352 188.397 97.5434 188.397 97.7606C188.397 97.9778 188.311 98.1861 188.158 98.3396C188.004 98.4932 187.796 98.5795 187.579 98.5795Z" fill="white"/>
<path d="M141.944 100.999C144.977 100.999 147.435 98.5409 147.435 95.5088C147.435 92.4767 144.977 90.0187 141.944 90.0187C138.912 90.0187 136.454 92.4767 136.454 95.5088C136.454 98.5409 138.912 100.999 141.944 100.999Z" fill="white"/>
<path d="M173.562 124.954H111.438C110.43 124.953 109.464 124.552 108.751 123.84C108.039 123.127 107.638 122.161 107.637 121.153V112.781C107.638 111.773 108.039 110.807 108.751 110.094C109.464 109.382 110.43 108.981 111.438 108.98H173.562C174.57 108.981 175.536 109.382 176.249 110.094C176.961 110.807 177.362 111.773 177.363 112.781V121.153C177.362 122.161 176.961 123.127 176.249 123.84C175.536 124.552 174.57 124.953 173.562 124.954Z" fill="#E6E6E6"/>
<path d="M150.048 115.534H131.743C131.526 115.534 131.318 115.448 131.164 115.294C131.011 115.141 130.925 114.933 130.925 114.715C130.925 114.498 131.011 114.29 131.164 114.136C131.318 113.983 131.526 113.896 131.743 113.896H150.048C150.265 113.896 150.473 113.983 150.627 114.136C150.78 114.29 150.867 114.498 150.867 114.715C150.867 114.933 150.78 115.141 150.627 115.294C150.473 115.448 150.265 115.534 150.048 115.534Z" fill="white"/>
<path d="M167.653 120.038H131.539C131.321 120.038 131.113 119.952 130.96 119.798C130.806 119.644 130.72 119.436 130.72 119.219C130.72 119.002 130.806 118.793 130.96 118.64C131.113 118.486 131.321 118.4 131.539 118.4H167.653C167.87 118.4 168.078 118.486 168.232 118.64C168.385 118.793 168.472 119.002 168.472 119.219C168.472 119.436 168.385 119.644 168.232 119.798C168.078 119.952 167.87 120.038 167.653 120.038Z" fill="white"/>
<path d="M122.019 122.457C125.051 122.457 127.509 119.999 127.509 116.967C127.509 113.935 125.051 111.477 122.019 111.477C118.987 111.477 116.529 113.935 116.529 116.967C116.529 119.999 118.987 122.457 122.019 122.457Z" fill="white"/>
</g>
<defs>
<clipPath id="clip0_156_757">
<rect width="220" height="182.803" fill="white"/>
</clipPath>
</defs>
</svg>
