<svg width="24" height="16" viewBox="0 0 24 16" fill="none" xmlns="http://www.w3.org/2000/svg">
<path fill-rule="evenodd" clip-rule="evenodd" d="M23.3115 7.66487C23.3115 7.45649 23.2287 7.25666 23.0814 7.10932C22.9341 6.96198 22.7342 6.8792 22.5259 6.8792H3.99519L8.94016 1.9358C9.0132 1.86275 9.07115 1.77603 9.11068 1.68059C9.15021 1.58515 9.17056 1.48286 9.17056 1.37955C9.17056 1.27625 9.15021 1.17395 9.11068 1.07851C9.07115 0.98307 9.0132 0.89635 8.94016 0.823302C8.86711 0.750254 8.78039 0.692309 8.68495 0.652776C8.5895 0.613243 8.48721 0.592896 8.3839 0.592896C8.2806 0.592896 8.17831 0.613243 8.08286 0.652776C7.98742 0.692309 7.9007 0.750254 7.82765 0.823302L1.54234 7.10861C1.46918 7.1816 1.41113 7.2683 1.37152 7.36375C1.33191 7.4592 1.31152 7.56152 1.31152 7.66487C1.31152 7.76821 1.33191 7.87053 1.37152 7.96598C1.41113 8.06143 1.46918 8.14813 1.54234 8.22112L7.82765 14.5064C7.9007 14.5795 7.98742 14.6374 8.08286 14.677C8.17831 14.7165 8.2806 14.7368 8.3839 14.7368C8.48721 14.7368 8.5895 14.7165 8.68495 14.677C8.78039 14.6374 8.86711 14.5795 8.94016 14.5064C9.0132 14.4334 9.07115 14.3467 9.11068 14.2512C9.15021 14.1558 9.17056 14.0535 9.17056 13.9502C9.17056 13.8469 9.15021 13.7446 9.11068 13.6491C9.07115 13.5537 9.0132 13.467 8.94016 13.3939L3.99519 8.45053H22.5259C22.7342 8.45053 22.9341 8.36775 23.0814 8.22041C23.2287 8.07307 23.3115 7.87324 23.3115 7.66487Z" fill="#23355F" stroke="#23355F"/>
</svg>
