<svg width="14" height="14" viewBox="0 0 14 14" fill="none" xmlns="http://www.w3.org/2000/svg">
<path d="M4.57441 1.4819C3.84641 1.2971 3.08341 1.3755 2.48561 1.7101C1.87661 2.0503 1.44961 2.6537 1.42861 3.4608C1.39641 4.7222 1.68831 6.4148 2.84751 8.4014C3.99201 10.3635 5.25551 11.5395 6.30411 12.2381C6.96631 12.6798 7.69781 12.6917 8.32291 12.404C8.93891 12.1205 9.43871 11.5542 9.69841 10.8521C9.76304 10.6775 9.78901 10.4909 9.7745 10.3053C9.76 10.1196 9.70538 9.93936 9.61441 9.7769L8.94661 8.5848C8.74121 8.21824 8.41079 7.93782 8.01571 7.79477C7.62063 7.65172 7.18726 7.6556 6.79481 7.8057L6.32861 7.9842C6.10251 8.0703 5.89461 8.0304 5.77701 7.9142C5.38151 7.5257 5.09871 6.9986 4.97061 6.4302C4.93001 6.251 5.01261 6.0396 5.21001 5.8905L5.63071 5.5727C5.97082 5.31605 6.20561 4.94414 6.29106 4.52672C6.3765 4.10929 6.30672 3.67504 6.09481 3.3054L5.41441 2.1189C5.32427 1.96181 5.20345 1.82447 5.05914 1.71503C4.91483 1.6056 4.74998 1.52632 4.57441 1.4819ZM2.12861 3.479C2.14261 2.9372 2.41701 2.5501 2.82721 2.3205C3.24861 2.0846 3.82401 2.0125 4.40221 2.1595C4.57371 2.2029 4.71931 2.3135 4.80751 2.4668L5.48721 3.6533C5.61434 3.87499 5.65625 4.13544 5.60509 4.38582C5.55393 4.63621 5.41321 4.85934 5.20931 5.0134L4.78861 5.3312C4.42461 5.6056 4.17261 6.076 4.28741 6.5835C4.44281 7.2709 4.78651 7.9226 5.28631 8.4133C5.65171 8.7717 6.17251 8.7927 6.57851 8.6373L7.04471 8.4588C7.28025 8.36864 7.54038 8.36627 7.77752 8.45213C8.01466 8.53799 8.21298 8.70634 8.33621 8.9264L9.00331 10.1185C9.08731 10.2683 9.10131 10.4475 9.04181 10.6085C8.83881 11.158 8.45731 11.5703 8.03031 11.767C7.61241 11.9595 7.13991 11.9539 6.69261 11.655C5.73291 11.0152 4.54361 9.9176 3.45161 8.0479C2.35891 6.1726 2.09991 4.6088 2.12931 3.4797L2.12861 3.479Z" fill="white"/>
<path d="M8.92002 1.44408C8.83889 1.39896 8.74316 1.38793 8.65389 1.41339C8.56462 1.43886 8.48913 1.49875 8.44402 1.57988C8.3989 1.66101 8.38787 1.75673 8.41333 1.846C8.4388 1.93527 8.49869 2.01076 8.57982 2.05588L8.84862 2.20568C9.68834 2.67216 10.4026 3.33502 10.9305 4.13761C11.4583 4.9402 11.784 5.85865 11.8796 6.81448L11.902 7.03498C11.9047 7.08217 11.9168 7.12834 11.9378 7.1707C11.9588 7.21306 11.9881 7.25074 12.024 7.28145C12.06 7.31217 12.1018 7.33528 12.1469 7.34941C12.192 7.36354 12.2395 7.36838 12.2865 7.36365C12.3335 7.35892 12.3791 7.34471 12.4205 7.32188C12.4619 7.29905 12.4982 7.26808 12.5273 7.23082C12.5564 7.19356 12.5777 7.1508 12.5898 7.10511C12.6019 7.05942 12.6046 7.01175 12.5978 6.96498L12.5761 6.74518C12.4693 5.67669 12.1053 4.64996 11.5153 3.75276C10.9253 2.85556 10.1268 2.11458 9.18812 1.59318L8.92002 1.44408Z" fill="white"/>
<path d="M8.09959 3.32012C8.14741 3.24058 8.22486 3.18329 8.31491 3.16084C8.40496 3.1384 8.50024 3.15263 8.57979 3.20042L8.66659 3.25222C9.2315 3.59107 9.7161 4.04853 10.0869 4.593C10.4577 5.13747 10.7058 5.75596 10.8142 6.40572L10.845 6.59262C10.8538 6.63846 10.8534 6.68559 10.8437 6.73125C10.834 6.7769 10.8153 6.82016 10.7886 6.85848C10.762 6.8968 10.728 6.92941 10.6885 6.95438C10.6491 6.97935 10.6051 6.99618 10.559 7.00388C10.513 7.01158 10.4659 7.01 10.4205 6.99923C10.3751 6.98846 10.3323 6.96871 10.2946 6.94115C10.257 6.9136 10.2252 6.87878 10.2012 6.83877C10.1772 6.79875 10.1614 6.75433 10.1548 6.70812L10.1233 6.52122C10.0317 5.97147 9.82183 5.44816 9.50821 4.98745C9.19458 4.52674 8.78467 4.13962 8.30679 3.85282L8.21999 3.80032C8.18055 3.77671 8.14615 3.74555 8.11875 3.70863C8.09135 3.67171 8.07149 3.62976 8.06031 3.58517C8.04913 3.54057 8.04685 3.49421 8.05359 3.44874C8.06033 3.40326 8.07596 3.35956 8.09959 3.32012Z" fill="white"/>
</svg>
