<svg width="101" height="101" viewBox="0 0 101 101" fill="none" xmlns="http://www.w3.org/2000/svg">
<path fill-rule="evenodd" clip-rule="evenodd" d="M71.1199 30.2999C71.1199 19.1596 61.8719 10.0999 50.5001 10.0999C39.1283 10.0999 29.8803 19.1596 29.8803 30.2999C29.8803 41.4403 39.1283 50.4999 50.5001 50.4999C61.8719 50.4999 71.1199 41.4403 71.1199 30.2999ZM90.6262 101H81.4298C78.5843 101 76.2748 98.7375 76.2748 95.9499C76.2748 93.1623 78.5843 90.8999 81.4298 90.8999H83.6412C87.2084 90.8999 89.8426 87.38 88.492 84.143C82.2494 69.1747 67.5887 60.5999 50.5001 60.5999C33.4114 60.5999 18.7507 69.1747 12.5081 84.143C11.1575 87.38 13.7918 90.8999 17.359 90.8999H19.5704C22.4159 90.8999 24.7253 93.1623 24.7253 95.9499C24.7253 98.7375 22.4159 101 19.5704 101H10.3739C3.93025 101 -1.14222 95.2277 0.223841 89.0617C3.97664 72.0987 15.6939 59.5797 31.1278 53.8984C24.0862 48.3485 19.5704 39.8445 19.5704 30.2999C19.5704 12.3674 35.4683 -1.92417 54.2065 0.211983C67.7846 1.75728 79.0326 12.357 81.0688 25.6032C82.8215 37.0213 78.0532 47.4496 69.8723 53.8984C85.3062 59.5797 97.0235 72.0987 100.776 89.0617C102.142 95.2277 97.0699 101 90.6262 101ZM65.9649 95.9499C65.9649 98.7375 63.6555 101 60.81 101H40.1902C37.3446 101 35.0352 98.7375 35.0352 95.9499C35.0352 93.1623 37.3446 90.8999 40.1902 90.8999H60.81C63.6555 90.8999 65.9649 93.1623 65.9649 95.9499Z" fill="#B2B8C5"/>
</svg>
