<svg width="15" height="15" viewBox="0 0 15 15" fill="none" xmlns="http://www.w3.org/2000/svg">
<path d="M7.89486 4.73682C9.55511 4.73682 10.2633 5.44497 10.2633 7.10521H11.8422C11.8422 4.55919 10.4409 3.15789 7.89486 3.15789V4.73682ZM10.5964 9.03387C10.4447 8.89599 10.2454 8.82246 10.0405 8.82879C9.83557 8.83512 9.64116 8.92083 9.49826 9.06782L7.60908 11.0107C7.15434 10.9238 6.24015 10.6389 5.2991 9.70018C4.35806 8.75835 4.07307 7.84178 3.98859 7.39021L5.92989 5.50023C6.07705 5.35744 6.16289 5.16299 6.16922 4.95803C6.17556 4.75307 6.1019 4.55369 5.96383 4.40208L3.04676 1.19449C2.90864 1.04241 2.71667 0.950156 2.51163 0.937332C2.30658 0.924507 2.10462 0.99212 1.94862 1.12581L0.235483 2.595C0.0989934 2.73199 0.0175273 2.9143 0.00653831 3.10736C-0.00530365 3.30473 -0.23109 7.97994 3.39413 11.6067C6.55672 14.7685 10.5183 14.9998 11.6093 14.9998C11.7688 14.9998 11.8667 14.9951 11.8927 14.9935C12.0857 14.9827 12.268 14.9009 12.4043 14.7638L13.8727 13.0499C14.0065 12.894 14.0742 12.6921 14.0615 12.487C14.0489 12.282 13.9568 12.09 13.8048 11.9517L10.5964 9.03387Z" fill="white"/>
</svg>
