<svg width="32" height="32" viewBox="0 0 32 32" fill="none" xmlns="http://www.w3.org/2000/svg">
<rect x="1" y="1" width="30" height="30" rx="10" fill="#23355F" stroke="#7C7C7C" stroke-width="0.5"/>
<path d="M22 22L19.1667 19.1617L22 22ZM-nan -nanL20.7368 15.3684C20.7368 16.7922 20.1712 18.1577 19.1645 19.1645C18.1577 20.1712 16.7922 20.7368 15.3684 20.7368C13.9446 20.7368 12.5791 20.1712 11.5724 19.1645C10.5656 18.1577 10 16.7922 10 15.3684C10 13.9446 10.5656 12.5791 11.5724 11.5724C12.5791 10.5656 13.9446 10 15.3684 10C16.7922 10 18.1577 10.5656 19.1645 11.5724C20.1712 12.5791 20.7368 13.9446 20.7368 15.3684L-nan -nanL-nan -nanZ" stroke="white" stroke-linecap="round"/>
</svg>
