<svg width="32" height="32" viewBox="0 0 32 32" fill="none" xmlns="http://www.w3.org/2000/svg">
<rect x="1" y="1" width="30" height="30" rx="10" fill="#23355F" stroke="#7C7C7C" stroke-width="0.5"/>
<path d="M22.6667 22.6667L19.676 19.6707L22.6667 22.6667ZM21.3333 15.6667C21.3333 17.1696 20.7363 18.6109 19.6736 19.6736C18.6109 20.7363 17.1696 21.3333 15.6667 21.3333C14.1638 21.3333 12.7224 20.7363 11.6597 19.6736C10.597 18.6109 10 17.1696 10 15.6667C10 14.1638 10.597 12.7224 11.6597 11.6597C12.7224 10.597 14.1638 10 15.6667 10C17.1696 10 18.6109 10.597 19.6736 11.6597C20.7363 12.7224 21.3333 14.1638 21.3333 15.6667V15.6667Z" stroke="white" stroke-linecap="round"/>
</svg>
