<svg class="me-1" xmlns="http://www.w3.org/2000/svg" width="21" height="20.05" viewBox="0 0 21 20.05">
                            <path id="Group_2_" data-name="Group (2)" d="M10,1.91a1.867,1.867,0,0,1,.586-1.35A2.049,2.049,0,0,1,12,0h7a2.049,2.049,0,0,1,1.414.559A1.867,1.867,0,0,1,21,1.91V7.639a1.867,1.867,0,0,1-.586,1.35A2.049,2.049,0,0,1,19,9.548H12a2.049,2.049,0,0,1-1.414-.559A1.867,1.867,0,0,1,10,7.639Zm2.5.955a.512.512,0,0,0-.354.14.462.462,0,0,0,0,.675.512.512,0,0,0,.354.14h6a.512.512,0,0,0,.354-.14.462.462,0,0,0,0-.675.512.512,0,0,0-.354-.14Zm0,2.864a.512.512,0,0,0-.354.14.462.462,0,0,0,0,.675.512.512,0,0,0,.354.14h6a.512.512,0,0,0,.354-.14.462.462,0,0,0,0-.675.512.512,0,0,0-.354-.14ZM3.25,1.91H9V3.342H3.25a1.793,1.793,0,0,0-1.237.489A1.634,1.634,0,0,0,1.5,5.013v8.116A1.712,1.712,0,0,0,3.25,14.8H5.5V18.38L10.514,14.8H16.75a1.793,1.793,0,0,0,1.237-.489,1.634,1.634,0,0,0,.513-1.181V10.5H19a3.142,3.142,0,0,0,1-.162v2.788a2.982,2.982,0,0,1-.247,1.188,3.1,3.1,0,0,1-.7,1.007A3.263,3.263,0,0,1,17.994,16a3.383,3.383,0,0,1-1.244.236H11.012L6,19.813a1.285,1.285,0,0,1-.637.233,1.3,1.3,0,0,1-.671-.121,1.231,1.231,0,0,1-.5-.44A1.153,1.153,0,0,1,4,18.858V16.232h-.75A3.382,3.382,0,0,1,2.007,16a3.266,3.266,0,0,1-1.055-.673,3.1,3.1,0,0,1-.7-1.007A2.981,2.981,0,0,1,0,13.129V5.013A3.034,3.034,0,0,1,.952,2.819,3.33,3.33,0,0,1,3.25,1.91Z" fill="#23355f"/>
                          </svg>