<svg width="15" height="15" viewBox="0 0 15 15" fill="none" xmlns="http://www.w3.org/2000/svg">
<path d="M12.6563 0.937428C12.2833 0.937428 11.9256 1.08559 11.6619 1.34931C11.3982 1.61303 11.25 1.97072 11.25 2.34368C11.25 2.71664 11.3982 3.07432 11.6619 3.33805C11.9256 3.60177 12.2833 3.74993 12.6563 3.74993C13.0292 3.74993 13.3869 3.60177 13.6506 3.33805C13.9143 3.07432 14.0625 2.71664 14.0625 2.34368C14.0625 1.97072 13.9143 1.61303 13.6506 1.34931C13.3869 1.08559 13.0292 0.937428 12.6563 0.937428ZM10.3125 2.34368C10.3124 1.79377 10.5057 1.26135 10.8586 0.839564C11.2114 0.417778 11.7013 0.133488 12.2426 0.0364317C12.7839 -0.0606243 13.342 0.0357345 13.8194 0.308649C14.2968 0.581564 14.6631 1.01366 14.8541 1.52933C15.0451 2.045 15.0487 2.61141 14.8643 3.12947C14.6798 3.64752 14.3191 4.08423 13.8452 4.36319C13.3713 4.64214 12.8144 4.74559 12.2719 4.65541C11.7295 4.56524 11.236 4.2872 10.8778 3.86993L4.57969 6.79493C4.72448 7.25378 4.72448 7.74608 4.57969 8.20493L10.8778 11.1299C11.2564 10.6896 11.785 10.4055 12.3611 10.3327C12.9372 10.2599 13.5199 10.4036 13.9961 10.7359C14.4723 11.0682 14.8083 11.5654 14.9388 12.1313C15.0693 12.6971 14.985 13.2913 14.7024 13.7986C14.4198 14.3059 13.959 14.6902 13.4091 14.8771C12.8593 15.0639 12.2597 15.04 11.7265 14.81C11.1933 14.58 10.7645 14.1602 10.5232 13.632C10.2818 13.1038 10.2452 12.5048 10.4203 11.9512L4.12219 9.02618C3.81041 9.38953 3.39483 9.64867 2.93136 9.76876C2.46789 9.88884 1.97875 9.86411 1.52976 9.69788C1.08077 9.53165 0.69345 9.2319 0.419918 8.83895C0.146385 8.446 -0.000244141 7.97871 -0.000244141 7.49993C-0.000244141 7.02115 0.146385 6.55386 0.419918 6.16091C0.69345 5.76796 1.08077 5.46821 1.52976 5.30198C1.97875 5.13575 2.46789 5.11101 2.93136 5.2311C3.39483 5.35118 3.81041 5.61033 4.12219 5.97368L10.4203 3.04868C10.3486 2.82055 10.3123 2.5828 10.3125 2.34368ZM2.34375 6.09368C1.97079 6.09368 1.61311 6.24184 1.34939 6.50556C1.08566 6.76928 0.937505 7.12697 0.937505 7.49993C0.937505 7.87289 1.08566 8.23057 1.34939 8.4943C1.61311 8.75802 1.97079 8.90618 2.34375 8.90618C2.71672 8.90618 3.0744 8.75802 3.33812 8.4943C3.60185 8.23057 3.75 7.87289 3.75 7.49993C3.75 7.12697 3.60185 6.76928 3.33812 6.50556C3.0744 6.24184 2.71672 6.09368 2.34375 6.09368ZM12.6563 11.2499C12.2833 11.2499 11.9256 11.3981 11.6619 11.6618C11.3982 11.9255 11.25 12.2832 11.25 12.6562C11.25 13.0291 11.3982 13.3868 11.6619 13.6505C11.9256 13.9143 12.2833 14.0624 12.6563 14.0624C13.0292 14.0624 13.3869 13.9143 13.6506 13.6505C13.9143 13.3868 14.0625 13.0291 14.0625 12.6562C14.0625 12.2832 13.9143 11.9255 13.6506 11.6618C13.3869 11.3981 13.0292 11.2499 12.6563 11.2499Z" fill="white"/>
</svg>
