<svg width="17" height="17" viewBox="0 0 17 17" fill="none" xmlns="http://www.w3.org/2000/svg">
<path d="M10.625 8.5H8.5M8.5 8.5H6.375M8.5 8.5V6.375M8.5 8.5V10.625" stroke="white" stroke-linecap="round"/>
<path d="M2.125 7.3785C2.125 5.11351 2.125 3.98104 2.39241 3.60005C2.65981 3.21905 3.72464 2.85456 5.85431 2.12556L6.26005 1.98668C7.37021 1.60668 7.92526 1.41667 8.5 1.41667C9.07474 1.41667 9.62979 1.60668 10.74 1.98668L11.1457 2.12556C13.2754 2.85456 14.3402 3.21905 14.6076 3.60005C14.875 3.98104 14.875 5.11351 14.875 7.3785C14.875 7.72056 14.875 8.09158 14.875 8.49391C14.875 10.2682 14.2823 11.6368 13.4583 12.6821M2.2616 9.91667C2.86893 12.9614 5.36662 14.53 7.01148 15.2485C7.5225 15.4717 7.778 15.5833 8.5 15.5833C9.222 15.5833 9.4775 15.4717 9.98849 15.2485C10.3981 15.0696 10.8604 14.838 11.3333 14.5441" stroke="white" stroke-linecap="round"/>
</svg>
