<svg width="20" height="20" viewBox="0 0 20 20" fill="none" xmlns="http://www.w3.org/2000/svg">
<path d="M19.2836 7.27578L13.3328 6.41093L10.6726 1.01797C10.6 0.870309 10.4805 0.750778 10.3328 0.678121C9.96248 0.495309 9.51248 0.647653 9.32733 1.01797L6.66717 6.41093L0.716389 7.27578C0.552327 7.29922 0.402327 7.37656 0.287483 7.49375C0.148643 7.63645 0.0721362 7.82844 0.074773 8.02752C0.0774098 8.2266 0.158975 8.41649 0.301545 8.55547L4.60701 12.7531L3.58983 18.6805C3.56597 18.8183 3.58123 18.9602 3.63387 19.0898C3.68651 19.2195 3.77442 19.3318 3.88764 19.414C4.00086 19.4962 4.13486 19.5451 4.27444 19.555C4.41401 19.565 4.55359 19.5356 4.67733 19.4703L9.99998 16.6719L15.3226 19.4703C15.468 19.5477 15.6367 19.5734 15.7984 19.5453C16.2062 19.475 16.4805 19.0883 16.4101 18.6805L15.393 12.7531L19.6984 8.55547C19.8156 8.44062 19.893 8.29062 19.9164 8.12656C19.9797 7.7164 19.6937 7.33672 19.2836 7.27578ZM13.5812 12.1625L14.4273 17.0914L9.99998 14.7664L5.57264 17.0937L6.41873 12.1648L2.83748 8.67265L7.78748 7.95312L9.99998 3.46953L12.2125 7.95312L17.1625 8.67265L13.5812 12.1625Z" fill="#979797"/>
</svg>
