 <svg width="18" height="16" viewBox="0 0 18 16" fill="none" xmlns="http://www.w3.org/2000/svg">
                    <path d="M13.595 16C13.374 15.9998 13.1581 15.9336 12.975 15.81L9.24496 13.31C9.22658 13.2973 9.20478 13.2905 9.18246 13.2905C9.16013 13.2905 9.13833 13.2973 9.11996 13.31L5.38995 15.81C5.20265 15.9351 4.98173 16.0002 4.75654 15.9967C4.53135 15.9933 4.31253 15.9214 4.12915 15.7907C3.94578 15.6599 3.80651 15.4765 3.72985 15.2647C3.65319 15.0529 3.64276 14.8228 3.69995 14.605L4.92495 10.285C4.93075 10.2633 4.93004 10.2403 4.92294 10.219C4.91583 10.1977 4.90262 10.1789 4.88495 10.165L1.35495 7.39C1.16912 7.25156 1.03128 7.05844 0.960747 6.8377C0.890215 6.61697 0.890535 6.3797 0.96166 6.15915C1.03278 5.93861 1.17115 5.74586 1.35735 5.60792C1.54355 5.46998 1.76826 5.39378 1.99995 5.39L6.49995 5.22C6.52208 5.21847 6.54329 5.21058 6.56103 5.19727C6.57878 5.18396 6.59229 5.16581 6.59995 5.145L8.14995 0.929998C8.22808 0.716317 8.36999 0.531806 8.55645 0.401446C8.74292 0.271085 8.96494 0.201172 9.19246 0.201172C9.41997 0.201172 9.64199 0.271085 9.82846 0.401446C10.0149 0.531806 10.1568 0.716317 10.235 0.929998L11.785 5.145C11.7926 5.16581 11.8061 5.18396 11.8239 5.19727C11.8416 5.21058 11.8628 5.21847 11.885 5.22L16.385 5.39C16.6167 5.39378 16.8414 5.46998 17.0276 5.60792C17.2138 5.74586 17.3521 5.93861 17.4233 6.15915C17.4944 6.3797 17.4947 6.61697 17.4242 6.8377C17.3536 7.05844 17.2158 7.25156 17.03 7.39L13.5 10.165C13.4818 10.1785 13.4681 10.1972 13.461 10.2187C13.4538 10.2401 13.4535 10.2633 13.46 10.285L14.685 14.605C14.728 14.7707 14.7322 14.9441 14.6974 15.1117C14.6626 15.2793 14.5897 15.4367 14.4843 15.5716C14.3789 15.7064 14.2438 15.8153 14.0896 15.8896C13.9354 15.9639 13.7661 16.0016 13.595 16ZM9.18496 12.29C9.40637 12.2968 9.62064 12.3699 9.79996 12.5L13.53 15C13.5489 15.0144 13.5719 15.0222 13.5956 15.0224C13.6194 15.0226 13.6426 15.0151 13.6617 15.001C13.6808 14.987 13.6949 14.9671 13.7018 14.9444C13.7087 14.9217 13.708 14.8973 13.7 14.875L12.475 10.555C12.4147 10.3431 12.4191 10.118 12.4877 9.90861C12.5563 9.69923 12.686 9.51515 12.86 9.38L16.39 6.605C16.4092 6.59147 16.4236 6.57213 16.4311 6.54981C16.4385 6.52748 16.4386 6.50336 16.4313 6.48098C16.4241 6.4586 16.4098 6.43915 16.3907 6.42547C16.3715 6.41179 16.3485 6.40462 16.325 6.405L11.825 6.235C11.6046 6.22641 11.3918 6.15239 11.2137 6.02237C11.0356 5.89236 10.9003 5.71224 10.825 5.505L9.27495 1.29C9.26797 1.26762 9.25401 1.24806 9.23512 1.23417C9.21623 1.22028 9.1934 1.21278 9.16996 1.21278C9.14651 1.21278 9.12368 1.22028 9.10479 1.23417C9.0859 1.24806 9.07194 1.26762 9.06495 1.29L7.52995 5.5C7.45463 5.70724 7.31929 5.88736 7.14119 6.01737C6.96309 6.14739 6.7503 6.22141 6.52995 6.23L2.02995 6.4C2.00643 6.39962 1.9834 6.40679 1.96425 6.42047C1.9451 6.43415 1.93084 6.4536 1.92357 6.47598C1.91629 6.49836 1.91639 6.52248 1.92384 6.54481C1.93129 6.56713 1.9457 6.58647 1.96495 6.6L5.49995 9.38C5.67343 9.51558 5.80265 9.6997 5.87121 9.90893C5.93977 10.1182 5.94455 10.343 5.88495 10.555L4.66495 14.875C4.65767 14.8966 4.65764 14.92 4.66486 14.9417C4.67207 14.9633 4.68615 14.9821 4.70495 14.995C4.72307 15.0105 4.74612 15.019 4.76995 15.019C4.79379 15.019 4.81684 15.0105 4.83495 14.995L8.56495 12.495C8.74725 12.3741 8.9612 12.3097 9.17996 12.31L9.18496 12.29Z" fill="#D1D6E0"/>
                    </svg>