<svg class="me-2" xmlns="http://www.w3.org/2000/svg" width="15.97" height="12.792" viewBox="0 0 15.97 12.792">
                                <path id="fluent_arrow-enter-left-24-regular" d="M16.551,2.333a.6.6,0,0,1,.6.6v5.2a3,3,0,0,1-3,3H3.229L6.2,14.1a.6.6,0,0,1,.058.78l-.058.067a.6.6,0,0,1-.78.058l-.067-.058-4-4a.6.6,0,0,1-.058-.78l.058-.067,4-4a.6.6,0,0,1,.906.78L6.2,6.954,3.228,9.928H14.153a1.8,1.8,0,0,0,1.795-1.676l0-.123v-5.2a.6.6,0,0,1,.6-.6Z" transform="translate(-1.181 -2.333)" fill="#23355f"/>
                              </svg>