<svg width="10" height="15" viewBox="0 0 10 15" fill="none" xmlns="http://www.w3.org/2000/svg">
<path fill-rule="evenodd" clip-rule="evenodd" d="M6.37714 5.668H5.66857V6.3765C5.66857 6.76759 5.35113 7.085 4.96 7.085C4.56887 7.085 4.25143 6.76759 4.25143 6.3765V5.668H3.54286C3.15173 5.668 2.83429 5.35059 2.83429 4.9595C2.83429 4.56841 3.15173 4.251 3.54286 4.251H4.25143V3.5425C4.25143 3.15141 4.56887 2.834 4.96 2.834C5.35113 2.834 5.66857 3.15141 5.66857 3.5425V4.251H6.37714C6.76827 4.251 7.08571 4.56841 7.08571 4.9595C7.08571 5.35059 6.76827 5.668 6.37714 5.668ZM4.96 0C2.22066 0 0 2.22044 0 4.9595C0 7.69856 4.96 14.17 4.96 14.17C4.96 14.17 9.92 7.69856 9.92 4.9595C9.92 2.22044 7.69934 0 4.96 0Z" fill="#23355F"/>
</svg>
