<svg width="13" height="15" viewBox="0 0 13 15" fill="none" xmlns="http://www.w3.org/2000/svg">
<path d="M11.2281 14.569H1.77188C1.26056 14.569 0.785751 14.3166 0.500204 13.8916C0.214657 13.4666 0.158212 12.932 0.35079 12.4572L3.69766 4.19962C3.82052 3.89415 3.8836 3.56876 3.8836 3.23673V2.24728H3.51505C3.01368 2.24728 2.6086 1.83888 2.6086 1.34083C2.6086 0.839465 3.017 0.434387 3.51505 0.434387H9.48497C9.98634 0.434387 10.3914 0.842786 10.3914 1.34083C10.3914 1.8422 9.98302 2.24728 9.48497 2.24728H9.11641V3.23673C9.11641 3.56876 9.1795 3.89083 9.30235 4.19962L12.6492 12.4606C12.8418 12.9354 12.7854 13.4699 12.4998 13.8949C12.2176 14.3166 11.7395 14.569 11.2281 14.569ZM3.51505 0.929114C3.28927 0.929114 3.10665 1.11173 3.10665 1.33751C3.10665 1.56329 3.28927 1.74591 3.51505 1.74591H4.13263C4.26876 1.74591 4.38165 1.8588 4.38165 1.99493V3.23673C4.38165 3.63185 4.30528 4.02032 4.15919 4.38556L0.808993 12.6465C0.67618 12.9719 0.712704 13.3238 0.908602 13.616C1.1045 13.9082 1.41661 14.0742 1.76856 14.0742H11.2281C11.5801 14.0742 11.8922 13.9082 12.0881 13.616C12.284 13.3238 12.3205 12.9719 12.1877 12.6465L8.84083 4.38556C8.69141 4.02032 8.61837 3.63185 8.61837 3.23673V1.99825C8.61837 1.86212 8.73126 1.74923 8.86739 1.74923H9.48497C9.71075 1.74923 9.89337 1.56661 9.89337 1.34083C9.89337 1.11505 9.71075 0.932434 9.48497 0.932434L3.51505 0.929114Z" fill="white" stroke="white" stroke-width="0.3"/>
<path d="M10.5209 8.35001H8.88068C8.74454 8.35001 8.63165 8.23712 8.63165 8.10098C8.63165 7.96485 8.74454 7.85196 8.88068 7.85196H10.5209C10.657 7.85196 10.7699 7.96485 10.7699 8.10098C10.7699 8.23712 10.657 8.35001 10.5209 8.35001Z" fill="white" stroke="white" stroke-width="0.3"/>
<path d="M7.5293 8.35001H2.38281C2.24668 8.35001 2.13379 8.23712 2.13379 8.10098C2.13379 7.96485 2.24668 7.85196 2.38281 7.85196H7.5293C7.66543 7.85196 7.77832 7.96485 7.77832 8.10098C7.77832 8.23712 7.66543 8.35001 7.5293 8.35001Z" fill="white" stroke="white" stroke-width="0.3"/>
</svg>
