<svg width="18" height="18" viewBox="0 0 18 18" fill="none" xmlns="http://www.w3.org/2000/svg">
<g clip-path="url(#clip0_2_3014)">
<path d="M9.216 0C12.0465 0 14.6673 1.2555 16.4052 3.3696C16.4547 3.42953 16.4917 3.4988 16.5139 3.5733C16.536 3.6478 16.543 3.726 16.5344 3.80325C16.5257 3.8805 16.5016 3.95522 16.4635 4.02297C16.4254 4.09072 16.374 4.15011 16.3125 4.1976C16.1872 4.29579 16.0286 4.34131 15.8703 4.32451C15.7121 4.30771 15.5666 4.2299 15.4647 4.1076C14.7048 3.1871 13.75 2.44677 12.6692 1.94001C11.5885 1.43326 10.4087 1.17272 9.2151 1.1772C4.7916 1.1772 1.2051 4.68 1.2051 9C1.2051 13.32 4.7916 16.8228 9.2151 16.8228C11.7126 16.8228 14.0193 15.6996 15.5295 13.8141C15.6297 13.6905 15.774 13.6108 15.9319 13.5918C16.0898 13.5729 16.2489 13.6161 16.3755 13.7124C16.4376 13.7591 16.4896 13.8178 16.5286 13.885C16.5675 13.9522 16.5926 14.0265 16.6022 14.1036C16.6119 14.1806 16.606 14.2589 16.5848 14.3336C16.5636 14.4083 16.5276 14.478 16.479 14.5386C14.7438 16.7076 12.0879 18 9.216 18C4.1247 18 0 13.9707 0 9C0 4.0293 4.1256 0 9.216 0ZM15.3882 6.444L17.8236 8.8803C18.0594 9.1152 18.0639 9.4923 17.8344 9.7227L15.4548 12.1014C15.3419 12.2119 15.1897 12.273 15.0317 12.2713C14.8738 12.2696 14.7229 12.2053 14.6124 12.0924C14.5563 12.0377 14.5116 11.9725 14.4807 11.9005C14.4498 11.8285 14.4335 11.7511 14.4326 11.6728C14.4317 11.5945 14.4462 11.5167 14.4753 11.444C14.5045 11.3713 14.5477 11.3051 14.6025 11.2491L15.9948 9.8568H6.7158C6.63756 9.85775 6.55989 9.84328 6.48724 9.81421C6.41459 9.78515 6.34838 9.74206 6.29238 9.6874C6.23639 9.63274 6.19171 9.56759 6.1609 9.49566C6.13008 9.42373 6.11374 9.34644 6.1128 9.2682C6.1128 8.9424 6.3828 8.6787 6.7158 8.6787H15.9579L14.5557 7.2765C14.4427 7.16609 14.3782 7.01532 14.3763 6.85735C14.3745 6.69938 14.4354 6.54713 14.5458 6.4341C14.6588 6.32373 14.8111 6.26276 14.9691 6.26462C15.127 6.26648 15.2778 6.331 15.3882 6.444Z" fill="#363636"/>
</g>
<defs>
<clipPath id="clip0_2_3014">
<rect width="18" height="18" fill="white"/>
</clipPath>
</defs>
</svg>
