<svg width="25" height="25" viewBox="0 0 25 25" fill="none" xmlns="http://www.w3.org/2000/svg">
<path d="M12.5 25C11.3949 25 10.3351 24.561 9.55372 23.7796C8.77232 22.9982 8.33333 21.9384 8.33333 20.8333V16.6667H4.16667C3.0616 16.6667 2.00179 16.2277 1.22039 15.4463C0.438987 14.6649 0 13.6051 0 12.5C0 11.3949 0.438987 10.3351 1.22039 9.55372C2.00179 8.77232 3.0616 8.33333 4.16667 8.33333H8.33333V4.16667C8.33333 3.0616 8.77232 2.00179 9.55372 1.22039C10.3351 0.438987 11.3949 0 12.5 0C13.6051 0 14.6649 0.438987 15.4463 1.22039C16.2277 2.00179 16.6667 3.0616 16.6667 4.16667V8.33333H20.8333C21.9384 8.33333 22.9982 8.77232 23.7796 9.55372C24.561 10.3351 25 11.3949 25 12.5C25 13.6051 24.561 14.6649 23.7796 15.4463C22.9982 16.2277 21.9384 16.6667 20.8333 16.6667H16.6667V20.8333C16.6667 21.9384 16.2277 22.9982 15.4463 23.7796C14.6649 24.561 13.6051 25 12.5 25ZM4.16667 10.4167C3.61413 10.4167 3.08423 10.6362 2.69353 11.0269C2.30283 11.4176 2.08333 11.9475 2.08333 12.5C2.08333 13.0525 2.30283 13.5824 2.69353 13.9731C3.08423 14.3638 3.61413 14.5833 4.16667 14.5833H9.375C9.65127 14.5833 9.91622 14.6931 10.1116 14.8884C10.3069 15.0838 10.4167 15.3487 10.4167 15.625V20.8333C10.4167 21.3859 10.6362 21.9158 11.0269 22.3065C11.4176 22.6972 11.9475 22.9167 12.5 22.9167C13.0525 22.9167 13.5824 22.6972 13.9731 22.3065C14.3638 21.9158 14.5833 21.3859 14.5833 20.8333V15.625C14.5833 15.3487 14.6931 15.0838 14.8884 14.8884C15.0838 14.6931 15.3487 14.5833 15.625 14.5833H20.8333C21.3859 14.5833 21.9158 14.3638 22.3065 13.9731C22.6972 13.5824 22.9167 13.0525 22.9167 12.5C22.9167 11.9475 22.6972 11.4176 22.3065 11.0269C21.9158 10.6362 21.3859 10.4167 20.8333 10.4167H15.625C15.3487 10.4167 15.0838 10.3069 14.8884 10.1116C14.6931 9.91622 14.5833 9.65127 14.5833 9.375V4.16667C14.5833 3.61413 14.3638 3.08423 13.9731 2.69353C13.5824 2.30283 13.0525 2.08333 12.5 2.08333C11.9475 2.08333 11.4176 2.30283 11.0269 2.69353C10.6362 3.08423 10.4167 3.61413 10.4167 4.16667V9.375C10.4167 9.65127 10.3069 9.91622 10.1116 10.1116C9.91622 10.3069 9.65127 10.4167 9.375 10.4167H4.16667Z" fill="#E80000"/>
</svg>
