<svg width="14" height="14" viewBox="0 0 14 14" fill="none" xmlns="http://www.w3.org/2000/svg">
<path d="M5.31465 0.840219C5.1442 0.985476 5.05897 1.05811 4.96794 1.11912C4.75927 1.25898 4.52492 1.35605 4.27847 1.40471C4.17096 1.42594 4.05932 1.43484 3.83606 1.45266C3.27509 1.49742 2.9946 1.51981 2.7606 1.60246C2.21936 1.79363 1.79363 2.21936 1.60246 2.7606C1.51981 2.9946 1.49743 3.27508 1.45266 3.83605C1.43485 4.05932 1.42594 4.17096 1.40471 4.27847C1.35605 4.52492 1.25898 4.75927 1.11912 4.96794C1.05811 5.05897 0.985469 5.14421 0.840198 5.31467C0.47519 5.743 0.292672 5.95714 0.185656 6.18107C-0.0618852 6.699 -0.0618852 7.301 0.185656 7.81893C0.292679 8.04286 0.475183 8.25699 0.840191 8.68532C0.985434 8.85577 1.05811 8.94103 1.11912 9.03203C1.25898 9.2407 1.35605 9.47506 1.40471 9.72153C1.42594 9.82905 1.43484 9.9407 1.45266 10.1639C1.49742 10.7249 1.51981 11.0054 1.60246 11.2394C1.79363 11.7806 2.21936 12.2064 2.7606 12.3976C2.99459 12.4802 3.27507 12.5026 3.836 12.5474C4.05927 12.5651 4.17096 12.5741 4.27847 12.5953C4.52492 12.644 4.75927 12.741 4.96794 12.8809C5.05898 12.9419 5.14421 13.0145 5.31468 13.1598C5.74301 13.5248 5.95714 13.7073 6.18107 13.8144C6.699 14.0619 7.301 14.0619 7.81893 13.8144C8.04286 13.7073 8.25699 13.5248 8.68532 13.1598C8.85577 13.0145 8.94103 12.9419 9.03203 12.8809C9.2407 12.741 9.47506 12.644 9.72153 12.5953C9.82905 12.5741 9.9407 12.5651 10.1639 12.5474C10.7248 12.5026 11.0054 12.4802 11.2394 12.3976C11.7806 12.2064 12.2064 11.7806 12.3976 11.2394C12.4802 11.0054 12.5026 10.7249 12.5474 10.164C12.5651 9.94077 12.5741 9.82905 12.5953 9.72153C12.644 9.47506 12.741 9.2407 12.8809 9.03203C12.9419 8.94103 13.0145 8.85577 13.1598 8.68532C13.5248 8.25699 13.7073 8.04286 13.8144 7.81893C14.0619 7.301 14.0619 6.699 13.8144 6.18107C13.7073 5.95714 13.5248 5.74301 13.1598 5.31468C13.0145 5.14421 12.9419 5.05898 12.8809 4.96794C12.741 4.75927 12.644 4.52492 12.5953 4.27847C12.5741 4.17096 12.5651 4.05932 12.5474 3.83606C12.5026 3.27513 12.4802 2.99459 12.3976 2.7606C12.2064 2.21936 11.7806 1.79363 11.2394 1.60246C11.0054 1.51981 10.7249 1.49743 10.1639 1.45266C9.9407 1.43485 9.82905 1.42594 9.72153 1.40471C9.47506 1.35605 9.2407 1.25898 9.03203 1.11912C8.94103 1.05811 8.85577 0.985469 8.68532 0.840191C8.25699 0.475183 8.04286 0.292679 7.81893 0.185656C7.301 -0.0618852 6.699 -0.0618852 6.18107 0.185656C5.95714 0.292672 5.74298 0.475211 5.31465 0.840219Z" fill="#50AD6A"/>
<path d="M10.7933 5.20502C11.0689 4.92936 11.0689 4.48241 10.7933 4.20675C10.5176 3.93108 10.0706 3.93108 9.79498 4.20675L5.5882 8.41353L4.20501 7.03023C3.92935 6.7546 3.48241 6.7546 3.20675 7.03023C2.93108 7.30596 2.93108 7.75289 3.20675 8.02852L5.08909 9.91088C5.36477 10.1865 5.8117 10.1865 6.08734 9.91088L10.7933 5.20502Z" fill="#F1F1F1"/>
</svg>
