<svg width="14" height="14" viewBox="0 0 14 14" fill="none" xmlns="http://www.w3.org/2000/svg">
<path d="M6.99999 0C5.7794 0.000328406 4.58009 0.319728 3.52102 0.926525C2.46194 1.53332 1.57988 2.40643 0.962322 3.45927C0.344762 4.51211 0.0131534 5.70809 0.000383313 6.92862C-0.0123868 8.14914 0.294125 9.35181 0.889521 10.4173L0.287313 12.5249C0.240214 12.6896 0.238036 12.864 0.281007 13.0299C0.323977 13.1958 0.410531 13.3472 0.531697 13.4683C0.652864 13.5895 0.804233 13.6761 0.970116 13.719C1.136 13.762 1.31036 13.7599 1.47512 13.7128L3.58274 13.1106C4.51639 13.6327 5.55728 13.9338 6.62546 13.991C7.69365 14.0482 8.76073 13.8598 9.74476 13.4403C10.7288 13.0208 11.6036 12.3813 12.302 11.5711C13.0004 10.7608 13.5039 9.80131 13.7737 8.76618C14.0435 7.73105 14.0725 6.64785 13.8584 5.59977C13.6444 4.55168 13.193 3.56659 12.5389 2.72013C11.8849 1.87368 11.0455 1.18837 10.0854 0.716831C9.12518 0.245295 8.06971 7.49221e-05 6.99999 0ZM6.99999 13.1765C5.89074 13.1773 4.80181 12.8789 3.84792 12.3127C3.79968 12.284 3.74608 12.2655 3.69043 12.2583C3.63478 12.2511 3.57824 12.2553 3.52427 12.2707L1.24886 12.9208C1.22533 12.9275 1.20043 12.9278 1.17674 12.9217C1.15305 12.9156 1.13144 12.9032 1.11413 12.8859C1.09682 12.8686 1.08446 12.847 1.07832 12.8233C1.07218 12.7996 1.07249 12.7748 1.07921 12.7512L1.72925 10.4757C1.74466 10.4218 1.74889 10.3653 1.74167 10.3096C1.73444 10.254 1.71592 10.2004 1.68725 10.1522C0.991562 8.98016 0.703048 7.61091 0.866652 6.25779C1.03026 4.90466 1.63679 3.64363 2.59177 2.67115C3.54675 1.69866 4.79655 1.06932 6.14649 0.881164C7.49642 0.69301 8.87068 0.956605 10.0552 1.63089C11.2397 2.30517 12.1679 3.35228 12.6953 4.6091C13.2227 5.86591 13.3196 7.26187 12.9709 8.57949C12.6223 9.89712 11.8476 11.0624 10.7676 11.8939C9.68763 12.7254 8.36297 13.1763 6.99999 13.1765ZM10.5346 8.15345L9.13047 7.35098C8.98224 7.26647 8.8142 7.2229 8.64358 7.22473C8.47296 7.22657 8.3059 7.27374 8.15952 7.36141L7.278 7.89033C6.783 7.62313 6.37692 7.21703 6.10975 6.72201L6.63866 5.84049C6.72636 5.69411 6.77353 5.52704 6.77534 5.35641C6.77715 5.18578 6.73353 5.01775 6.64896 4.86954L5.84663 3.46542C5.7691 3.33012 5.65725 3.21766 5.52237 3.13939C5.38749 3.06112 5.23436 3.01981 5.07841 3.01962C4.46108 3.01981 3.86897 3.26456 3.43167 3.70029C2.99436 4.13603 2.74749 4.72726 2.74507 5.34458C2.74397 6.12034 2.8958 6.88871 3.19191 7.60574C3.48801 8.32277 3.92256 8.97438 4.47072 9.52332C5.01887 10.0723 5.66987 10.5077 6.38647 10.8049C7.10307 11.102 7.87122 11.2549 8.64698 11.2549H8.65543C9.27275 11.2525 9.86398 11.0056 10.2997 10.5683C10.7355 10.131 10.9802 9.53893 10.9804 8.92159C10.9802 8.76566 10.9389 8.61253 10.8606 8.47766C10.7824 8.34279 10.6699 8.23096 10.5346 8.15345ZM8.65426 10.4314H8.64705C7.97954 10.4314 7.31858 10.2998 6.70197 10.0441C6.08535 9.78848 5.52519 9.41377 5.05352 8.94144C4.58185 8.4691 4.20793 7.90842 3.95313 7.29145C3.69833 6.67448 3.56767 6.01333 3.56861 5.34582C3.57039 4.9466 3.73025 4.56434 4.01322 4.28271C4.29618 4.00109 4.67919 3.84304 5.07841 3.84315C5.08921 3.84316 5.09982 3.84602 5.10916 3.85144C5.1185 3.85687 5.12624 3.86466 5.1316 3.87403L5.93393 5.27815C5.94601 5.29931 5.95224 5.3233 5.95198 5.34766C5.95173 5.37202 5.945 5.39588 5.93249 5.41678L5.28807 6.4908C5.25393 6.54775 5.23406 6.61211 5.23016 6.6784C5.22627 6.74468 5.23846 6.81093 5.2657 6.87148C5.63773 7.69951 6.30056 8.36231 7.1286 8.73431C7.18915 8.76156 7.2554 8.77375 7.32169 8.76984C7.38798 8.76593 7.45234 8.74604 7.50928 8.71187L8.58316 8.06759C8.60409 8.05509 8.62796 8.04836 8.65233 8.04808C8.67671 8.0478 8.70072 8.05399 8.72193 8.06601L10.126 8.86848C10.1354 8.87384 10.1432 8.88158 10.1486 8.8909C10.154 8.90023 10.1568 8.91081 10.1569 8.92159C10.157 9.32081 9.99893 9.70381 9.71732 9.98677C9.43571 10.2697 9.05347 10.4296 8.65426 10.4314Z" fill="white"/>
</svg>
